<?xml version="1.0" encoding="utf-8"?>
<!-- Generator: Adobe Illustrator 16.0.0, SVG Export Plug-In . SVG Version: 6.00 Build 0)  -->
<!DOCTYPE svg PUBLIC "-//W3C//DTD SVG 1.1//EN" "http://www.w3.org/Graphics/SVG/1.1/DTD/svg11.dtd">
<svg version="1.1" id="Layer_1" xmlns="http://www.w3.org/2000/svg" xmlns:xlink="http://www.w3.org/1999/xlink" x="0px" y="0px"
	 width="1920px" height="3182.922px" viewBox="0 0 1920 3182.922" enable-background="new 0 0 1920 3182.922" xml:space="preserve">
<linearGradient id="SVGID_1_" gradientUnits="userSpaceOnUse" x1="959.9995" y1="0" x2="959.9994" y2="3182.9224">
	<stop  offset="0" style="stop-color:#3A3A48"/>
	<stop  offset="0.3789" style="stop-color:#40404D;stop-opacity:0.8"/>
	<stop  offset="0.7113" style="stop-color:#CFCECE;stop-opacity:0.9"/>
	<stop  offset="1" style="stop-color:#DBDADA;stop-opacity:0"/>
</linearGradient>
<rect fill-rule="evenodd" clip-rule="evenodd" fill="url(#SVGID_1_)" width="1920" height="3182.922"/>
<rect y="2899.942" fill-rule="evenodd" clip-rule="evenodd" fill="#86A98F" width="1961" height="316.058"/>
<g opacity="0.3">
	<g>
		<circle fill="#FFFFFF" cx="719.164" cy="1387.241" r="79.094"/>
		<circle fill="#FFFFFF" cx="849.245" cy="1340.53" r="107.682"/>
		<ellipse fill="#FFFFFF" cx="972.376" cy="1381.525" rx="77.952" ry="74.593"/>
		<path fill-rule="evenodd" clip-rule="evenodd" fill="#FFFFFF" d="M1063.454,1465.127c0,4.736-0.884,8.577-1.974,8.577H630.927
			c-1.089,0-1.974-3.84-1.974-8.577v-62.894c0-4.737,0.885-8.577,1.974-8.577h430.554c1.09,0,1.974,3.84,1.974,8.577V1465.127z"/>
		<circle fill="#FFFFFF" cx="1056.879" cy="1430.473" r="43.231"/>
		<circle fill="#FFFFFF" cx="628.953" cy="1430.473" r="43.231"/>
	</g>
</g>
<g opacity="0.5">
	<g>
		<circle fill="#FFFFFF" cx="229.06" cy="1795.95" r="53.762"/>
		<circle fill="#FFFFFF" cx="317.478" cy="1764.199" r="73.194"/>
		<ellipse fill="#FFFFFF" cx="401.172" cy="1792.064" rx="52.986" ry="50.702"/>
		<path fill-rule="evenodd" clip-rule="evenodd" fill="#FFFFFF" d="M463.08,1848.89c0,3.219-0.601,5.83-1.342,5.83H169.084
			c-0.741,0-1.342-2.61-1.342-5.83v-42.75c0-3.22,0.601-5.83,1.342-5.83h292.654c0.741,0,1.342,2.61,1.342,5.83V1848.89z"/>
		<circle fill="#FFFFFF" cx="458.611" cy="1825.335" r="29.385"/>
		<circle fill="#FFFFFF" cx="167.742" cy="1825.335" r="29.385"/>
	</g>
</g>
<g>
	<g>
		<circle fill="#FFFFFF" cx="4519.957" cy="75.72" r="118.807"/>
		<circle fill="#FFFFFF" cx="4715.348" cy="5.556" r="161.748"/>
		<ellipse fill="#FFFFFF" cx="4900.301" cy="67.134" rx="117.092" ry="112.045"/>
		<path fill-rule="evenodd" clip-rule="evenodd" fill="#FFFFFF" d="M5037.108,192.711c0,7.115-1.328,12.884-2.967,12.884h-646.725
			c-1.638,0-2.966-5.769-2.966-12.884V98.239c0-7.115,1.328-12.883,2.966-12.883h646.725c1.639,0,2.967,5.768,2.967,12.883V192.711z
			"/>
		<circle fill="#FFFFFF" cx="5027.232" cy="140.657" r="64.937"/>
		<circle fill="#FFFFFF" cx="4384.451" cy="140.657" r="64.937"/>
	</g>
</g>
<g>
	<g>
		<circle fill="#FFFFFF" cx="6662.232" cy="-24.499" r="159.959"/>
		<circle fill="#FFFFFF" cx="6925.303" cy="-118.968" r="217.776"/>
		<ellipse fill="#FFFFFF" cx="7174.322" cy="-36.06" rx="157.651" ry="150.855"/>
		<path fill-rule="evenodd" clip-rule="evenodd" fill="#FFFFFF" d="M7358.518,133.017c0,9.578-1.788,17.344-3.993,17.344h-870.742
			c-2.206,0-3.993-7.766-3.993-17.344V5.819c0-9.578,1.787-17.345,3.993-17.345h870.742c2.205,0,3.993,7.767,3.993,17.345V133.017z"
			/>
		<circle fill="#FFFFFF" cx="7345.221" cy="62.931" r="87.43"/>
		<circle fill="#FFFFFF" cx="6479.789" cy="62.931" r="87.43"/>
	</g>
</g>
<polygon fill="#86A98F" points="1520.747,2470.179 1281.973,2925.022 1497.64,2925.022 1759.521,2925.022 "/>
<polygon fill="#86A98F" points="1709.74,2603.997 1521.298,2962.962 1691.503,2962.962 1898.182,2962.962 "/>
<g opacity="0.3">
	<g>
		<circle fill="#FFFFFF" cx="274.544" cy="783.8" r="98.862"/>
		<circle fill="#FFFFFF" cx="437.136" cy="725.414" r="134.595"/>
		<ellipse fill="#FFFFFF" cx="591.042" cy="776.655" rx="97.435" ry="93.236"/>
		<path fill-rule="evenodd" clip-rule="evenodd" fill="#FFFFFF" d="M704.884,881.152c0,5.92-1.104,10.72-2.467,10.72H164.254
			c-1.362,0-2.468-4.8-2.468-10.72v-78.613c0-5.92,1.106-10.721,2.468-10.721h538.163c1.362,0,2.467,4.8,2.467,10.721V881.152z"/>
		<circle fill="#FFFFFF" cx="696.666" cy="837.836" r="54.036"/>
		<circle fill="#FFFFFF" cx="161.786" cy="837.836" r="54.036"/>
	</g>
</g>
<g opacity="0.3">
	<g>
		<circle fill="#FFFFFF" cx="1484.582" cy="921.04" r="53.762"/>
		<circle fill="#FFFFFF" cx="1573" cy="889.289" r="73.194"/>
		<ellipse fill="#FFFFFF" cx="1656.694" cy="917.154" rx="52.986" ry="50.702"/>
		<path fill-rule="evenodd" clip-rule="evenodd" fill="#FFFFFF" d="M1718.602,973.98c0,3.219-0.602,5.83-1.342,5.83h-292.654
			c-0.741,0-1.342-2.61-1.342-5.83v-42.75c0-3.22,0.601-5.83,1.342-5.83h292.654c0.74,0,1.342,2.61,1.342,5.83V973.98z"/>
		<circle fill="#FFFFFF" cx="1714.133" cy="950.425" r="29.385"/>
		<circle fill="#FFFFFF" cx="1423.264" cy="950.425" r="29.385"/>
	</g>
</g>
<g opacity="0.5">
	<g>
		<circle fill="#FFFFFF" cx="1451.09" cy="2101.435" r="69.753"/>
		<circle fill="#FFFFFF" cx="1565.807" cy="2060.24" r="94.965"/>
		<ellipse fill="#FFFFFF" cx="1674.397" cy="2096.394" rx="68.747" ry="65.783"/>
		<path fill-rule="evenodd" clip-rule="evenodd" fill="#FFFFFF" d="M1754.719,2170.121c0,4.178-0.78,7.564-1.741,7.564h-379.704
			c-0.962,0-1.741-3.387-1.741-7.564v-55.465c0-4.177,0.779-7.564,1.741-7.564h379.704c0.961,0,1.741,3.387,1.741,7.564V2170.121z"
			/>
		<circle fill="#FFFFFF" cx="1748.921" cy="2139.561" r="38.125"/>
		<circle fill="#FFFFFF" cx="1371.533" cy="2139.561" r="38.125"/>
	</g>
</g>
<polygon opacity="0.2" fill-rule="evenodd" clip-rule="evenodd" fill="#FFFFFF" points="94.536,53.818 99.674,64.228 
	111.161,65.897 102.849,74 104.811,85.441 94.536,80.039 84.261,85.441 86.224,74 77.911,65.897 89.399,64.228 "/>
<polygon opacity="0.2" fill-rule="evenodd" clip-rule="evenodd" fill="#FFFFFF" points="111.161,276.038 113.92,281.627 
	120.089,282.524 115.625,286.875 116.679,293.019 111.161,290.118 105.644,293.019 106.697,286.875 102.233,282.524 
	108.402,281.627 "/>
<polygon opacity="0.2" fill-rule="evenodd" clip-rule="evenodd" fill="#FFFFFF" points="315.464,85.441 318.223,91.031 
	324.392,91.927 319.928,96.279 320.981,102.422 315.464,99.521 309.946,102.422 311,96.279 306.536,91.927 312.705,91.031 "/>
<polygon opacity="0.2" fill-rule="evenodd" clip-rule="evenodd" fill="#FFFFFF" points="360.192,315.818 365.33,326.228 
	376.817,327.897 368.505,336 370.467,347.441 360.192,342.039 349.917,347.441 351.88,336 343.567,327.897 355.055,326.228 "/>
<polygon opacity="0.2" fill-rule="evenodd" clip-rule="evenodd" fill="#FFFFFF" points="77.911,517.08 83.049,527.49 
	94.536,529.159 86.224,537.262 88.186,548.703 77.911,543.301 67.636,548.703 69.599,537.262 61.286,529.159 72.774,527.49 "/>
<polygon opacity="0.2" fill-rule="evenodd" clip-rule="evenodd" fill="#FFFFFF" points="229.665,419.764 233,426.521 
	240.457,427.605 235.062,432.864 236.335,440.291 229.665,436.785 222.996,440.291 224.27,432.864 218.874,427.605 226.331,426.521 
	"/>
<polygon opacity="0.2" fill-rule="evenodd" clip-rule="evenodd" fill="#FFFFFF" points="267.702,193.251 274.384,206.792 
	289.327,208.963 278.515,219.502 281.067,234.384 267.702,227.357 254.336,234.384 256.889,219.502 246.077,208.963 261.02,206.792 
	"/>
<polygon opacity="0.2" fill-rule="evenodd" clip-rule="evenodd" fill="#FFFFFF" points="803.702,69.63 808.84,80.04 820.327,81.709 
	812.015,89.812 813.977,101.252 803.702,95.851 793.427,101.252 795.39,89.812 787.077,81.709 798.565,80.04 "/>
<polygon opacity="0.2" fill-rule="evenodd" clip-rule="evenodd" fill="#FFFFFF" points="820.327,291.849 823.086,297.439 
	829.255,298.335 824.792,302.687 825.845,308.831 820.327,305.93 814.81,308.831 815.863,302.687 811.399,298.335 817.568,297.439 
	"/>
<polygon opacity="0.2" fill-rule="evenodd" clip-rule="evenodd" fill="#FFFFFF" points="1024.63,101.252 1027.389,106.842 
	1033.558,107.739 1029.094,112.09 1030.147,118.234 1024.63,115.333 1019.112,118.234 1020.166,112.09 1015.702,107.739 
	1021.871,106.842 "/>
<polygon opacity="0.2" fill-rule="evenodd" clip-rule="evenodd" fill="#FFFFFF" points="1069.358,331.63 1074.496,342.04 
	1085.983,343.709 1077.672,351.812 1079.633,363.252 1069.358,357.851 1059.084,363.252 1061.046,351.812 1052.733,343.709 
	1064.221,342.04 "/>
<polygon opacity="0.2" fill-rule="evenodd" clip-rule="evenodd" fill="#FFFFFF" points="938.831,435.576 942.166,442.333 
	949.623,443.417 944.228,448.676 945.501,456.102 938.831,452.596 932.162,456.102 933.436,448.676 928.04,443.417 935.497,442.333 
	"/>
<polygon opacity="0.2" fill-rule="evenodd" clip-rule="evenodd" fill="#FFFFFF" points="976.867,209.062 983.551,222.603 
	998.492,224.774 987.681,235.314 990.232,250.196 976.867,243.169 963.502,250.196 966.055,235.314 955.243,224.774 
	970.186,222.603 "/>
<polygon opacity="0.2" fill-rule="evenodd" clip-rule="evenodd" fill="#FFFFFF" points="425.689,36.393 430.827,46.803 
	442.314,48.472 434.002,56.575 435.964,68.016 425.689,62.614 415.415,68.016 417.377,56.575 409.064,48.472 420.552,46.803 "/>
<polygon opacity="0.2" fill-rule="evenodd" clip-rule="evenodd" fill="#FFFFFF" points="442.314,258.612 445.073,264.202 
	451.242,265.099 446.779,269.45 447.832,275.594 442.314,272.693 436.797,275.594 437.851,269.45 433.387,265.099 439.556,264.202 
	"/>
<polygon opacity="0.2" fill-rule="evenodd" clip-rule="evenodd" fill="#FFFFFF" points="646.617,68.016 649.376,73.605 
	655.545,74.502 651.082,78.854 652.135,84.997 646.617,82.096 641.1,84.997 642.153,78.854 637.689,74.502 643.858,73.605 "/>
<polygon opacity="0.2" fill-rule="evenodd" clip-rule="evenodd" fill="#FFFFFF" points="691.346,298.393 696.483,308.803 
	707.971,310.472 699.659,318.575 701.621,330.016 691.346,324.614 681.071,330.016 683.033,318.575 674.721,310.472 
	686.208,308.803 "/>
<polygon opacity="0.2" fill-rule="evenodd" clip-rule="evenodd" fill="#FFFFFF" points="560.818,402.339 564.153,409.096 
	571.61,410.18 566.215,415.439 567.488,422.865 560.818,419.359 554.149,422.865 555.423,415.439 550.027,410.18 557.484,409.096 
	"/>
<polygon opacity="0.2" fill-rule="evenodd" clip-rule="evenodd" fill="#FFFFFF" points="598.855,175.826 605.538,189.366 
	620.48,191.538 609.668,202.077 612.22,216.959 598.855,209.932 585.49,216.959 588.042,202.077 577.23,191.538 592.173,189.366 "/>
<polygon opacity="0.2" fill-rule="evenodd" clip-rule="evenodd" fill="#FFFFFF" points="1132.364,262.866 1137.502,273.275 
	1148.989,274.945 1140.678,283.047 1142.639,294.488 1132.364,289.086 1122.09,294.488 1124.052,283.047 1115.739,274.945 
	1127.227,273.275 "/>
<polygon opacity="0.2" fill-rule="evenodd" clip-rule="evenodd" fill="#FFFFFF" points="1148.989,485.085 1151.748,490.675 
	1157.917,491.571 1153.453,495.923 1154.507,502.066 1148.989,499.166 1143.472,502.066 1144.525,495.923 1140.062,491.571 
	1146.23,490.675 "/>
<polygon opacity="0.2" fill-rule="evenodd" clip-rule="evenodd" fill="#FFFFFF" points="1353.292,294.488 1356.051,300.078 
	1362.22,300.975 1357.756,305.326 1358.81,311.47 1353.292,308.569 1347.774,311.47 1348.828,305.326 1344.364,300.975 
	1350.533,300.078 "/>
<polygon opacity="0.2" fill-rule="evenodd" clip-rule="evenodd" fill="#FFFFFF" points="1398.021,524.866 1403.158,535.275 
	1414.646,536.945 1406.334,545.047 1408.295,556.488 1398.021,551.086 1387.746,556.488 1389.708,545.047 1381.396,536.945 
	1392.883,535.275 "/>
<polygon opacity="0.2" fill-rule="evenodd" clip-rule="evenodd" fill="#FFFFFF" points="1267.493,628.812 1270.828,635.568 
	1278.285,636.652 1272.89,641.912 1274.163,649.338 1267.493,645.832 1260.824,649.338 1262.098,641.912 1256.701,636.652 
	1264.158,635.568 "/>
<polygon opacity="0.2" fill-rule="evenodd" clip-rule="evenodd" fill="#FFFFFF" points="1305.529,402.298 1312.213,415.839 
	1327.154,418.01 1316.343,428.55 1318.895,443.432 1305.529,436.405 1292.164,443.432 1294.717,428.55 1283.904,418.01 
	1298.848,415.839 "/>
<polygon opacity="0.2" fill-rule="evenodd" clip-rule="evenodd" fill="#FFFFFF" points="1576.852,56.959 1581.989,67.369 
	1593.477,69.039 1585.165,77.141 1587.126,88.582 1576.852,83.18 1566.577,88.582 1568.539,77.141 1560.227,69.039 1571.714,67.369 
	"/>
<polygon opacity="0.2" fill-rule="evenodd" clip-rule="evenodd" fill="#FFFFFF" points="1593.477,279.179 1596.235,284.769 
	1602.404,285.665 1597.94,290.017 1598.994,296.16 1593.477,293.259 1587.959,296.16 1589.013,290.017 1584.549,285.665 
	1590.718,284.769 "/>
<polygon opacity="0.2" fill-rule="evenodd" clip-rule="evenodd" fill="#FFFFFF" points="1797.779,88.582 1800.538,94.172 
	1806.707,95.068 1802.243,99.42 1803.297,105.563 1797.779,102.663 1792.262,105.563 1793.315,99.42 1788.852,95.068 
	1795.021,94.172 "/>
<polygon opacity="0.2" fill-rule="evenodd" clip-rule="evenodd" fill="#FFFFFF" points="1842.508,318.959 1847.646,329.369 
	1859.133,331.039 1850.821,339.141 1852.782,350.582 1842.508,345.18 1832.233,350.582 1834.195,339.141 1825.883,331.039 
	1837.37,329.369 "/>
<polygon opacity="0.2" fill-rule="evenodd" clip-rule="evenodd" fill="#FFFFFF" points="1711.98,422.905 1715.315,429.662 
	1722.772,430.746 1717.377,436.005 1718.65,443.432 1711.98,439.926 1705.312,443.432 1706.585,436.005 1701.188,430.746 
	1708.646,429.662 "/>
<polygon opacity="0.2" fill-rule="evenodd" clip-rule="evenodd" fill="#FFFFFF" points="1750.017,196.392 1756.7,209.933 
	1771.642,212.104 1760.83,222.644 1763.382,237.525 1750.017,230.499 1736.651,237.525 1739.204,222.644 1728.392,212.104 
	1743.335,209.933 "/>
<polygon opacity="0.2" fill-rule="evenodd" clip-rule="evenodd" fill="#FFFFFF" points="1197.862,41.148 1203,51.558 
	1214.487,53.227 1206.176,61.33 1208.137,72.771 1197.862,67.369 1187.588,72.771 1189.55,61.33 1181.237,53.227 1192.725,51.558 
	"/>
<polygon opacity="0.2" fill-rule="evenodd" clip-rule="evenodd" fill="#FFFFFF" points="718.561,500.656 723.897,511.469 
	735.83,513.203 727.195,521.62 729.233,533.504 718.561,527.893 707.888,533.504 709.926,521.62 701.292,513.203 713.225,511.469 
	"/>
<polygon opacity="0.2" fill-rule="evenodd" clip-rule="evenodd" fill="#FFFFFF" points="1181.237,167.335 1183.996,172.925 
	1190.165,173.821 1185.701,178.173 1186.755,184.316 1181.237,181.416 1175.72,184.316 1176.773,178.173 1172.31,173.821 
	1178.479,172.925 "/>
<polygon opacity="0.2" fill-rule="evenodd" clip-rule="evenodd" fill="#FFFFFF" points="1603.708,574.886 1608.846,585.296 
	1620.333,586.965 1612.021,595.068 1613.982,606.509 1603.708,601.107 1593.434,606.509 1595.396,595.068 1587.083,586.965 
	1598.57,585.296 "/>
<polygon opacity="0.2" fill-rule="evenodd" clip-rule="evenodd" fill="#FFFFFF" points="839.385,636.487 842.72,643.244 
	850.177,644.328 844.781,649.587 846.055,657.013 839.385,653.507 832.716,657.013 833.989,649.587 828.593,644.328 836.05,643.244 
	"/>
<polygon opacity="0.2" fill-rule="evenodd" clip-rule="evenodd" fill="#FFFFFF" points="1344.364,118.234 1351.048,131.774 
	1365.989,133.946 1355.178,144.485 1357.729,159.367 1344.364,152.34 1330.999,159.367 1333.552,144.485 1322.739,133.946 
	1337.683,131.774 "/>
<g>
	<linearGradient id="SVGID_2_" gradientUnits="userSpaceOnUse" x1="247.106" y1="2632.8184" x2="247.1059" y2="2178.3252">
		<stop  offset="0.5001" style="stop-color:#BDB896"/>
		<stop  offset="1" style="stop-color:#594A42"/>
	</linearGradient>
	<path fill-rule="evenodd" clip-rule="evenodd" fill="url(#SVGID_2_)" d="M220.947,2316.47c0.811,1.457,2.406,2.962,2.31,4.365
		c-1.161,16.844,4.437,32.072,13.1,46.363c5.628,9.284,13.003,17.438,23.133,22.927c7.429,4.026,15.006,7.815,22.391,11.907
		c1.625,0.899,3.604,2.479,3.915,4.009c2.499,12.321,5.101,24.657,6.628,37.099c0.519,4.222-2.346,8.717-2.954,13.172
		c-0.689,5.051-1.209,10.254-0.658,15.283c0.64,5.848,2.954,11.529,3.686,17.377c0.391,3.109-0.414,6.662-1.757,9.584
		c-2.892,6.297-3.962,12.518-2.903,19.377c0.469,3.037-0.878,6.525-2.14,9.541c-2.388,5.705-3.238,11.008-0.7,17.109
		c2.876,6.917,2.306,14.199-2.568,20.496c-3.312,4.278-4.535,8.416-2.495,13.649c2.01,5.154,2.99,10.614-2.731,14.757
		c-5.385,3.896-4.037,9.565-4.054,14.676c-0.028,9.027-2.057,17.174-10.558,24.657c-2.717-10.4-5.023-19.999-7.809-29.474
		c-0.955-3.25-2.441-6.778-4.844-9.16c-5.812-5.758-9.086-12.279-9.549-20.105c-0.623-10.526-5.266-19.768-9.74-29.256
		c-4.096-8.685-6.377-18.117-9.414-27.232c-2.166-6.5-5.301-12.248-12.352-15.363c-7.54-3.332-7.24-10.319-7.553-16.334
		c-0.336-6.475-2.279-11.392-8.011-15.238c-5.965-4.004-9.098-9.318-8.295-16.661c0.622-5.693,0.281-11.521-0.149-17.255
		c-0.201-2.688-1.096-5.6-2.604-7.875c-3.324-5.018-3.798-10.113-2.061-15.59c3.246-10.236,3.19-20.221-1.429-30.255
		c-1.182-2.566-0.897-6.36,0.181-9.083c4.889-12.34,5.879-24.76,2.615-37.549c-2.039-7.99-0.296-15.552,3.354-22.879
		c5.577-11.195,11.646-22.226,16.324-33.744c2.582-6.361,3.129-13.539,3.925-20.416c1.063-9.189,1.621-18.438,2.14-27.675
		c0.803-14.28,10.509-22.461,22.391-29.364c3.61-2.097,7.334-4.342,10.156-7.242c9.398-9.652,21.451-12.829,34.756-13.564
		c2.76-0.152,5.614-0.572,8.195-1.454c8.198-2.796,16.146-1.978,24.018,0.925c8.337,3.07,10.142,8.803,9.09,16.836
		c-1.176,8.986-6.07,13.395-14.086,17.314c-7.859,3.844-14.476,9.836-22.051,14.27c-9.957,5.828-20.434,10.879-30.465,16.602
		c-5.826,3.324-11.752,6.794-16.615,11.182c-3.053,2.754-4.217,7.331-7.576,10.857c0.618-2.213,0.982-4.523,1.9-6.623
		c3.347-7.659,10.17-12.42,17.113-16.869c7.378-4.727,15.449-8.557,22.552-13.596c6.042-4.287,11.657-9.334,16.512-14.78
		c4.796-5.382,9.548-10.187,17.259-11.531c1.229-0.214,2.365-0.896,3.543-1.362c-0.053-0.535-0.107-1.07-0.16-1.607
		c-3.941,0.348-8.151-0.012-11.774,1.178c-10.519,3.455-20.902,7.318-31.154,11.423c-12.584,5.04-23.642,11.413-24.823,26.216
		c-0.177,2.215-3.439,4.256-5.373,6.297c-1.732,1.826-3.798,3.398-5.373,5.328c-6.137,7.518-8.262,17.089-15.775,24.218
		c-5.49,5.208-1.848,12.94-0.262,19.557c1.951,8.136,2.968,16.575,5.956,24.36c4.08,10.627,1.906,20.189-2.695,29.848
		c-4.405,9.247-3.331,17.472,4.684,24.844c1.542,1.418,1.874,4.453,1.886,6.746c0.021,4.17-1.04,8.359-0.829,12.506
		c0.133,2.619,0.963,5.971,2.857,7.601c5.306,4.563,7.716,10.104,8.797,16.47c0.183,1.076,0.921,2.072,2.064,2.924
		c-1.2-7.311-0.055-15.207-5.556-21.385c-2.816-3.164-3.623-6.246-2.918-10.124c1.371-7.544,1.158-14.573-4.299-21.284
		c-4.656-5.727-2.252-12.75,0.201-18.674c3.506-8.467,2.49-16.729,1.09-25.18c-0.417-2.516-0.844-5.029-1.266-7.545
		C219.841,2316.815,220.394,2316.642,220.947,2316.47z"/>
	
		<ellipse opacity="0.4" fill-rule="evenodd" clip-rule="evenodd" fill="#010101" stroke="#010101" stroke-miterlimit="10" cx="335.566" cy="3036.307" rx="169.449" ry="26.197"/>
	<path fill-rule="evenodd" clip-rule="evenodd" fill="#2A332C" d="M387.066,2525.552c0.67-1.892,2.125-3.539,3.215-5.301
		c0.625,0.199,1.252,0.396,1.877,0.596c2.246,4.396,3.73,9.352,6.882,13.08c9.201,10.886,18.541,21.756,28.819,31.74
		c10.956,10.646,23.127,20.197,34.589,30.4c2.835,2.525,4.783,2.168,6.796-0.468c2.155-2.827,4.287-5.677,6.267-8.612
		c9.196-13.64,18.349-27.307,27.488-40.979c2.011-3.008,3.325-5.875-1.079-8.354c-6.301-3.544-8.283-3.604-11.82,0.622
		c-8.615,10.297-17.165,20.643-25.728,30.978c-2.976,3.591-5.612,3.372-7.801-0.698c-5.022-9.342-10.053-18.682-15.052-28.035
		c-8.533-15.971-17.964-31.598-25.248-48.051c-4.974-11.236-12.53-18.846-24.055-23.364c-7.145-2.8-13.865-4.787-22.035-0.19
		c-9.821,5.527-20.744,9.923-31.789,12.83c-10.135,2.668-20.895,3.253-31.439,4.596c-0.971-0.818-2.217-1.314-3.679-1.314
		c-3.041,0-6.179,2.701-5.928,5.928c0.048,0.62,0.047,1.227,0.011,1.848c-0.005,0.049-0.009,0.086-0.013,0.127
		c-0.083,0.482-0.19,0.961-0.298,1.438c-0.398,1.755-0.979,3.469-1.563,5.169c-1.224,3.566-2.614,7.037-3.433,10.726
		c-1.027,4.627-2.843,9.394-2.598,14.191c0.086,1.661,0.332,3.313,0.451,4.973c0.055,0.753,0.06,1.506,0.023,2.259
		c-0.054,0.139-0.129,0.299-0.221,0.43c-0.156,0.222-0.282,0.455-0.395,0.693c-0.875,1.016-1.395,2.291-1.232,3.66
		c0.721,6.08,0.591,12.208,0.358,18.312c-0.05,1.319-0.085,2.531-0.219,3.242c-0.232,1.234-0.651,2.433-1.089,3.607
		c0.012-0.029-0.746,1.834-0.332,0.858c-0.36,0.851-0.726,1.7-1.08,2.552c-0.572,1.379-1.096,2.762-1.516,4.193
		c-1.604,5.478-0.058,11.305,0.323,16.826c0.079,1.133,0.063,2.266-0.019,3.396c0.02-0.525-0.211,0.945-0.232,1.027
		c-0.016,0.064-0.463,1.111-0.419,1.076c-1.172,2.275-2.897,4.291-4.404,6.34c-1.715,2.333-2.993,4.785-4.027,7.49
		c-1.07,2.801-1.168,6.037-1.278,9.002c-0.047,1.295-0.073,2.592-0.135,3.887c-0.028,0.572-0.076,1.143-0.129,1.714
		c0.055-0.69-0.177,0.981-0.185,1.017c-0.118,0.575-0.302,1.131-0.49,1.686c0.352-1.031-0.312,0.385-0.394,0.512
		c-0.028,0.045-0.545,0.719-0.635,0.852c-0.447,0.535-0.917,1.051-1.391,1.562c-3.277,3.53-7.245,6.462-10.161,10.311
		c-1.284-3.687-2.452-8.065-3.693-12.187c-0.764-2.535-3.031-4.352-5.716-4.352c-2.412,0-5.311,1.786-5.717,4.352
		c-0.054,0.341-0.124,0.67-0.21,1.004c-0.049,0.188-0.248,0.688-0.341,0.926c-0.438,0.896-0.949,1.762-1.462,2.615
		c-1.302,2.164-2.727,4.25-4.007,6.428c-3.092,5.26-5.082,11.269-2.104,17.033c0.318,0.617,0.756,1.133,1.265,1.557
		c0.396,0.646,0.869,1.24,1.332,1.658c6.324,5.701,7.493,11.778,2.158,18.1c-3.648,4.322-8.067,8.15-12.539,11.773
		c-3.295,2.67-8.542,3.91-10.61,7.092c-4.301,6.621-7.577,13.939-10.368,21.271c-7.251,19.045-14.071,38.232-20.934,57.405
		c-2.046,5.714-3.662,11.563-5.653,17.92c3.686,0.542,6.22,1.021,8.779,1.271c7.438,0.727,14.887,1.352,22.329,2.037
		c11.429,1.055,22.877,3.177,34.277,2.965c20.883-0.389,41.741-2.099,62.604-3.357c17.375-1.049,34.749-2.127,52.104-3.412
		c10.586-0.785,21.113-2.428,31.707-2.889c12.962-0.562,25.967-0.211,38.95-0.42c5.531-0.089,11.049-0.719,16.58-0.889
		c11.07-0.34,22.146-0.531,34.207-0.807c-4.848-10.506-8.533-19.832-13.359-28.613c-6.088-11.082-13.314-21.615-19.672-32.574
		c-8.807-15.179-17.202-30.564-25.885-45.804c-6.836-12.002-12.792-24.599-21.043-35.698c-9.768-13.141-16.087-27.762-23.994-41.691
		c-3.062-5.396-4.816-11.613-8.705-16.358c-2.286-2.788-2.279-4.165-1.258-7.014C375.583,2558.737,381.21,2542.109,387.066,2525.552
		z"/>
	<path fill-rule="evenodd" clip-rule="evenodd" fill="#2A332C" d="M198.779,2504.741c8.734,4.365,16.365,8.828,19.177,17.937
		c0.741,2.399,1.012,3.694-1.102,5.845c-12.204,12.427-24.062,25.148-36.044,37.764c-0.489,0.516-1.021,1-1.565,1.465
		c-6.358,5.424-5.921,5.156-0.984,12.258c5.052,7.266,9,15.195,13.663,22.707c4.188,6.748,8.762,13.287,13.018,20
		c1.482,2.338,4.413,4.67-0.004,7.426c-3.777,2.357-6.718,5.676-11.14,0.662c-10.178-11.536-20.866-22.684-30.938-34.297
		c-5.272-6.08-9.939-12.666-14.316-19.346c-1.216-1.855-1.553-5.572-0.364-7.232c11.915-16.633,24.095-33.105,36.512-49.418
		C188.882,2515.005,193.96,2510.087,198.779,2504.741z"/>
	<path fill-rule="evenodd" clip-rule="evenodd" fill="#333333" d="M333.553,2996.643c0.003-6.634-0.069-13.269,0.018-19.9
		c0.235-18.161,0.675-36.323,0.781-54.484c0.203-34.749,0.148-69.499,0.412-104.247c0.044-5.718,1.362-11.416,1.723-17.145
		c0.255-4.053,2.377-5.355,6.43-5.443c9.546-0.207,19.1-0.463,28.622-1.076c6.229-0.403,12.392-1.623,18.615-2.172
		c3.096-0.274,6.271,0.354,9.392,0.207c11.646-0.549,23.286-1.237,34.926-1.902c2.971-0.17,4.468,0.525,4.186,3.826
		c-1.061,12.377-3.389,24.357-7.979,36.162c-3.859,9.926-4.762,20.842-8.497,30.824c-6.451,17.242-13.911,34.164-21.264,51.102
		c-9.804,22.586-19.84,45.082-29.911,67.564c-5.022,11.209-9.926,22.492-15.686,33.372c-3.703,6.993-8.715,13.41-13.498,19.854
		c-1.005,1.354-3.881,2.637-5.338,2.227c-1.363-0.383-2.771-3.041-2.809-4.723C333.432,3019.343,333.549,3007.992,333.553,2996.643z
		"/>
	<path fill-rule="evenodd" clip-rule="evenodd" fill="#333333" d="M325.517,3035.87c-3.372-6.529-7.122-12.916-10.043-19.617
		c-7.386-16.953-14.134-34.151-21.622-51.064c-11.691-26.406-23.919-52.609-35.613-79.016c-3.135-7.076-5.188-14.573-7.686-21.891
		c-6.739-19.738-13.46-39.48-20.156-59.231c-0.497-1.468-0.744-3.009-1.071-4.368c9.4-0.768,18.574-1.717,27.776-2.227
		c14.929-0.829,29.87-1.487,44.815-1.986c7.785-0.26,15.604-0.26,23.371,0.18c1.549,0.088,3.973,2.562,4.21,4.166
		c0.919,6.215,1.307,12.516,1.532,18.795c0.245,6.793,0.27,13.604,0.074,20.398c-0.569,19.885-1.721,39.765-1.832,59.649
		c-0.096,17.036,0.973,34.078,1.412,51.119c0.071,2.759-0.629,5.527-0.674,8.296c-0.238,14.804-0.373,29.609-0.56,44.414
		c-0.116,9.251-0.194,18.504-0.456,27.754c-0.043,1.52-0.949,3.019-1.456,4.527C326.865,3035.802,326.191,3035.836,325.517,3035.87z
		"/>
	<g>
		<path fill-rule="evenodd" clip-rule="evenodd" fill="#FFEFE0" d="M508.126,2535.114c-3.492-1.55-6.649-2.951-10.361-4.599
			c5.176-9.573,10.253-18.962,15.514-28.694c1.28,0.175,2.82,0.385,4.813,0.656c-0.331-1.205-0.269-2.652-0.896-2.994
			c-8.478-4.613-9.255-12.396-10.194-20.326c-0.564-4.766-2.099-9.424-3.065-14.154c-0.41-2.006-0.482-4.07,0.584-6.684
			c3.384,4.714,6.767,9.429,10.687,14.889c0.839-1.914,1.411-2.913,1.723-3.979c3.757-12.818,11.183-23.362,22.104-31.898
			c3.989-3.117,7.012-1.973,7.926,1.898c1.304,5.523,2.017,11.352,1.71,16.987c-0.747,13.732-5.489,26.878-14.278,37.474
			C523.777,2506.487,516.351,2520.745,508.126,2535.114z"/>
		<path fill-rule="evenodd" clip-rule="evenodd" fill="#FFEFE0" d="M217.698,2651.615c-5.136-5.419-9.889-10.435-15.334-16.181
			c2.317-1.519,4.471-3.994,6.647-4.012c1.679-0.014,3.55,2.941,5.046,4.781c2.347,2.889,4.357,6.012,6.676,8.922
			c3.353,4.207,7.064,0.791,11.093-0.101c-0.226,1.239-0.312,2.056-0.529,2.841c-1.914,6.965-1.816,7.158,5.449,8.99
			c3.867,0.975,5.566,2.863,4.564,6.896c-2.211,8.902-7.033,15.596-16.548,18.838c-5.225,1.779-7.963,0.769-9.802-4.393
			C211.51,2668.511,211.051,2659.024,217.698,2651.615z"/>
		<path fill-rule="evenodd" clip-rule="evenodd" fill="#FFEFE0" d="M223.666,2310.076c-6.586-7.103-11.071-15.188-11.25-24.823
			c-0.047-2.576,1.238-5.785,3.125-7.614c2.075-2.013,5.549-2.769,8.414-4.069c1.151,2.417,3.301,4.844,3.279,7.252
			c-0.091,9.676-0.854,19.344-1.368,29.016C225.132,2309.917,224.4,2309.995,223.666,2310.076z"/>
		<path fill-rule="evenodd" clip-rule="evenodd" fill="#FFEFE0" d="M243.046,2236.245c2.915-12.319,15.262-17.152,31.607-19.02
			C271.68,2223.87,257.18,2232.683,243.046,2236.245z"/>
		<path fill-rule="evenodd" clip-rule="evenodd" d="M322.979,2356.015c-14.576,0.314-29.315-1.127-44.068-2.311
			c-1.766-0.141-3.62-1.279-5.015-2.406c-0.479-0.387,0.02-2.949,0.601-3.143c1.782-0.598,4.034-1.143,5.726-0.629
			c16.658,5.074,33.729,6.07,51.015,4.648c8.146-0.668,16.288-1.736,18.848-11.088c0.194-0.713,2.55-0.912,3.9-1.35
			c0.317,1.42,1.433,3.338,0.829,4.182c-5.372,7.494-13.343,10.914-22.74,11.65C329.05,2355.806,326.018,2355.948,322.979,2356.015z
			"/>
	</g>
	<linearGradient id="SVGID_3_" gradientUnits="userSpaceOnUse" x1="385.9526" y1="2457.2432" x2="385.9526" y2="2181.6514">
		<stop  offset="0.5001" style="stop-color:#BDB896"/>
		<stop  offset="1" style="stop-color:#594A42"/>
	</linearGradient>
	<path fill-rule="evenodd" clip-rule="evenodd" fill="url(#SVGID_3_)" d="M383.182,2370.888c4.671,5.936,2.875,11.879,0.586,17.584
		c-2.893,7.211-3.838,14.128,0.829,21.012c2.332,3.439,2.496,6.91,0.985,10.924c-2.619,6.962-0.89,13.324,4.851,18.854
		c0.517-0.389,1.196-0.666,1.188-0.928c-0.179-6.562-0.391-13.123-0.688-19.682c-0.117-2.588-0.137-5.234-0.751-7.737
		c-1.84-7.497-0.927-14.524,0.935-22.108c1.712-6.971,0.809-15.076-1.232-22.104c-1.874-6.455-0.738-12.027,0.889-17.885
		c1.922-6.926,4.778-13.674,6.067-20.688c1.427-7.77,0.656-15.852-3.507-22.812c-6.031-10.084-8.919-20.547-7.953-32.051
		c1.663-19.793-8.145-34.887-22.723-48.068c-6.812-6.16-14.984-8.936-24.215-9.643c-4.062-0.312-8.658,0.178-12.004-1.477
		c-3.109-1.535-6.765-5.348-6.92-8.309c-0.779-14.875,10.561-25.822,28.016-23.9c14.343,1.578,26.82,6.562,38.35,13.418
		c8.322,4.947,15.494,11.605,24.209,16.379c3.262,1.787,6.056,6.309,6.68,9.939c2.348,13.658,10.48,24.721,16.847,36.678
		c8.45,15.869,15.225,32.305,12.056,50.822c-0.605,3.532,0.865,7.583,2.154,11.15c3.248,8.979,6.079,17.736,3.728,27.553
		c-1.275,5.322-0.362,11.125-0.263,16.709c0.194,10.921-3.454,20.534-11.094,28.783c-5.381,5.811-8.76,12.426-9.88,20.049
		c-1.692,11.514-10.552,18.469-19.603,24.514c-9.941,6.639-20.841,12.117-31.683,17.465c-8.992,4.438-17.519,0.199-25.731-3.031
		c-13.34-5.249-21.879-13.707-20.897-28.373c0.469-7.001,4.041-12.088,9.587-16.414c10.444-8.15,20.986-16.207,31.07-24.734
		C376.974,2379.472,379.75,2374.997,383.182,2370.888z"/>
	<path opacity="0.3" fill-rule="evenodd" clip-rule="evenodd" fill="#27221E" d="M388.531,2413.864
		c-0.85-1.787-1.987-3.418-3.406-4.674c0.681-3.947,0.53-7.93-1.139-11.808c-0.129-0.3-0.288-0.562-0.461-0.809
		c1.385-1.821,2.767-3.644,4.14-5.472c1.231-1.641,0.978-4.315,0-5.984c-0.617-1.053-1.476-1.811-2.466-2.285
		c0.889-1.086,1.721-2.207,2.466-3.381c1.734-2.73,0.582-6.523-2.126-8.111c-2.866-1.678-6.382-0.595-8.111,2.127
		c-0.17,0.269-0.354,0.527-0.537,0.787c-0.046,0.055-0.09,0.109-0.136,0.164c-0.703,0.842-1.46,1.639-2.228,2.422
		c-1.821,1.857-3.758,3.602-5.705,5.324c-4.832,4.277-9.811,8.387-14.661,12.645c-9.638,8.455-20.36,17.926-24.954,30.243
		c-1.92,5.149-1.653,10.729,0.793,15.634c2.734,5.482,8.541,9.102,13.989,11.41c2.031,0.86,4.309,0.875,6.063-0.081
		c0.479,1.171,1.17,2.289,2.086,3.353c2.362,2.744,6.42,3.97,9.822,4.684c2.468,0.518,5.105-0.34,6.493-2.363
		c1.365,1.479,3.486,2.283,5.856,1.75c2.461-0.553,4.552-1.57,6.366-2.916c0.947,0.123,1.916,0.035,2.796-0.281
		c2.318-2.916,6.449-9.508,6.294-15.027c0.711-8.713-1.173-11.881-2.446-20.674"/>
	<path opacity="0.3" fill-rule="evenodd" clip-rule="evenodd" fill="#27221E" d="M297.009,2505.688
		c0.015,0.003,0.029,0.002,0.045,0.004c0.02-0.613,0.05-1.227,0.078-1.84C297.083,2504.465,297.042,2505.077,297.009,2505.688z"/>
	<path opacity="0.3" fill-rule="evenodd" clip-rule="evenodd" fill="#27221E" d="M295,2488.005
		c0.749-6.473,1.439-13.396-0.885-19.635c-0.717-1.924,1.508-2.99,2.965-2.225c-0.438-2.033-0.842-4.075-1.232-6.119
		c0.626-1.266,0.818-2.752,0.436-4.2c-0.906-3.435-1.85-6.858-2.831-10.272c-0.031-5.332-0.115-10.715-0.627-15.994
		c-0.003-0.326-0.009-0.652-0.01-0.978c-0.002-0.64-0.112-1.257-0.307-1.837c-1.155-8.955-3.755-17.535-9.675-24.984
		c-5.14-6.47-12.36-10.244-19.101-14.74c-0.599-0.833-1.192-1.67-1.773-2.516c-1.302-1.891-3.369-3.033-5.514-2.917
		c-1.277-1.073-2.521-2.186-3.735-3.327c-0.105-0.1-0.209-0.202-0.314-0.303c-0.891-1.16-1.738-2.373-2.701-3.877
		c-0.82-1.281-2.035-2.195-3.389-2.633c-0.109-0.131-0.221-0.26-0.33-0.391c-0.379-0.457-0.749-0.922-1.119-1.387
		c-0.066-0.084-0.122-0.152-0.171-0.214c-0.056-0.077-0.167-0.229-0.368-0.497c-2.845-3.791-5.33-7.826-7.566-12
		c-0.49-0.914-0.969-1.832-1.439-2.754c-0.263-0.518-0.514-1.04-0.765-1.562c-0.026-0.057-0.351-0.786-0.442-0.977
		c-0.704-1.742-1.231-3.544-1.606-5.385c-0.053-0.274-0.098-0.549-0.143-0.824c0.08,0.406-0.118-1.136-0.121-1.168
		c-0.12-1.369-0.132-2.747-0.12-4.119c0.024-2.654,0.331-5.303,0.555-7.943c0.518-6.148,0.076-11.986-2.597-17.627
		c-1.384-2.919-5.506-3.652-8.11-2.127c-2.964,1.737-3.51,5.191-2.127,8.111c2.135,4.504,1.041,10.536,0.609,15.965
		c-0.442,5.556-0.139,11.275,1.605,16.602c1.658,5.062,4.363,9.941,7.112,14.482c2.809,4.641,6.041,9.037,9.569,13.156
		c1.611,1.881,3.326,3.664,5.109,5.379c4.944,4.75,10.775,8.684,15.164,13.998c9.804,11.869,14.702,29.626,18.9,44.131
		c6.046,20.887,9.7,42.374,12.049,63.965c0.943-2.432,2.042-4.781,3.335-6.989C293.761,2496.841,294.487,2492.429,295,2488.005z"/>
	<path opacity="0.3" fill-rule="evenodd" clip-rule="evenodd" fill="#27221E" d="M299.105,2487.831
		c-0.273,2.297-0.598,4.594-0.914,6.893c0.043-0.045,0.085-0.092,0.128-0.136c0.481-0.493,1.205-0.638,1.871-0.509
		C299.874,2491.988,299.514,2489.905,299.105,2487.831z"/>
	<path opacity="0.4" fill-rule="evenodd" clip-rule="evenodd" fill="#010101" d="M383.684,2536.861
		c-2.468,6.645-6.286,12.704-9.945,18.826c-0.519,0.241-0.996,0.642-1.376,1.241c-6.188,9.77-15.088,17.522-20.849,27.594
		c-1.78,3.113,2.021,5.953,4.492,4.504c0.057,0.004,0.112,0.008,0.171,0.008c3.522,0.009,7.217,0.031,10.711,0.797
		c2.848,0.859,5.529,2.26,7.826,4.174c0.524,0.438,1.087,0.678,1.647,0.768c2.162,1.938,4.05,4.223,5.82,6.48
		c1.787,2.281,4.946-0.924,3.18-3.18c-1.566-1.998-3.228-3.963-5.058-5.734c0.312-0.975,0.104-2.068-0.965-2.959
		c-2.271-1.895-4.767-3.438-7.419-4.598c0.356-0.119,0.716-0.232,1.069-0.361c3.761-1.363,2.373-7.199-1.231-6.447
		c0.949-1.372,1.798-2.82,2.56-4.314c4.412-6.604,8.107-13.684,11.665-20.787c0.809-1.615,0.228-3.146-0.847-4.07
		c1.852-3.309,3.547-6.68,4.854-10.201C391.463,2534.638,385.139,2532.944,383.684,2536.861z"/>
	<path opacity="0.4" fill-rule="evenodd" clip-rule="evenodd" fill="#010101" d="M221.363,2524.327
		c-0.398-3.707-2.865-6.361-6.354-7.263c-0.837-1.419-1.856-2.716-3.116-3.821c-0.335-1.201-0.771-2.373-1.328-3.502
		c-2.443-4.953-7.6-6.528-12.723-5.758c-0.576,0.086-1.093,0.311-1.55,0.623c-4.019-1.074-8.478,3.552-5.797,7.496
		c1.882,2.768,3.72,5.562,5.337,8.494c1.438,2.605,2.205,4.404,2.866,7.483c0.343,1.595,0.278,4.364-0.118,6.275
		c-0.693,3.349-2.151,6.407-3.792,9.381c-0.305,0.551-0.502,1.14-0.601,1.737c-7.617,7.21-15.191,14.467-23.592,20.758
		c-0.795,0.406-1.584,0.822-2.361,1.26c-2.422,1.074-4.769,2.309-6.961,3.863c-1.748,1.24-1.242,4.191,1.135,4.189
		c0.676,0,1.353-0.002,2.029-0.006c6.634,2.799,13.793,6.412,18.104,12.383c1.681,2.328,5.584,0.087,3.884-2.27
		c-2.118-2.934-4.723-5.354-7.604-7.421c1.316-0.821,1.818-2.913,0.053-3.81c-0.253-0.129-0.5-0.266-0.751-0.398
		c0.103-0.135,0.193-0.279,0.266-0.432c0.345-0.102,0.672-0.276,0.94-0.545c0.866-0.865,0.866-2.312,0-3.18
		c-0.162-0.161-0.324-0.323-0.486-0.484c2.045-1.041,4.022-2.273,5.928-3.607c0.698-0.307,1.391-0.625,2.074-0.961
		c0.645-0.316,0.978-0.825,1.08-1.381c2.129-1.664,4.152-3.4,6.059-5.066c3.06-2.675,6.005-5.5,8.835-8.44
		c0.971-0.756,1.81-1.688,2.551-2.72c2.815-3.078,5.506-6.271,8.037-9.566c0.608-0.793,0.541-1.576,0.122-2.172
		c1.948,0.151,3.666-0.881,4.803-2.517C220.024,2530.511,221.694,2527.405,221.363,2524.327z M191.799,2554.292
		c-0.109,0.07-0.217,0.15-0.322,0.244c-1.046,0.947-2.148,1.799-3.284,2.592c2.528-2.336,5.029-4.707,7.53-7.074
		c0.103,0.096,0.206,0.191,0.312,0.276C194.643,2551.675,193.234,2553.003,191.799,2554.292z"/>
	<path opacity="0.4" fill-rule="evenodd" clip-rule="evenodd" fill="#010101" d="M465.077,2595.008
		c-5.72-6.956-12.009-13.402-18.21-19.923c-6.219-6.539-12.043-13.277-17.564-20.414c-10.184-13.163-24.256-22.684-34.391-35.857
		c-1.742-2.264-5.652-0.029-3.883,2.27c1.052,1.367,2.152,2.689,3.277,3.99c-1.62,0.438-2.504,2.994-0.632,4.175
		c5.065,3.196,6.125,9.397,9.3,14.086c1.878,2.771,5.167,4.835,7.821,6.808c2.858,2.123,5.708,4.212,8.215,6.756
		c9.59,9.731,16.893,21.904,28.626,29.378c1.216,0.774,2.382,0.208,2.953-0.749c3.885,4.116,7.71,8.285,11.308,12.661
		C463.74,2600.43,466.903,2597.229,465.077,2595.008z M423.119,2554.679c0.059-0.105,0.109-0.213,0.151-0.324
		c0.831,0.968,1.644,1.951,2.435,2.957c0.523,0.664,1.051,1.326,1.576,1.986C425.927,2557.718,424.547,2556.172,423.119,2554.679z"
		/>
	<path opacity="0.4" fill-rule="evenodd" clip-rule="evenodd" fill="#010101" d="M437.121,2786.28
		c-0.901,0.002-1.803,0.013-2.703,0.029c-17.039,0.207-33.99,2.059-50.943,3.779c-0.896-0.826-2.054-1.361-3.381-1.355
		c-10.257,0.041-20.394,1.643-30.484,3.381c-2.684-0.262-5.406-0.314-8.146-0.314c-1.496-0.002-2.701,0.568-3.575,1.443
		c-5.429,0.174-10.858,0.324-16.283,0.523c-3.241,0.12-6.482,0.24-9.724,0.36c-0.104-0.015-0.189-0.026-0.246-0.034
		c-0.624-0.087-1.248-0.176-1.872-0.264c-0.863-0.124-1.722-0.111-2.524,0.049c-0.949-0.361-1.908-0.693-2.875-1
		c-0.801-0.512-1.747-0.828-2.76-0.875c-0.102-0.004-0.205-0.008-0.308-0.012c-6.899-1.805-14.118-2.5-21.218-3.103
		c-9.966-0.846-19.141-1.487-28.694-4.86c-0.476-0.168-0.946-0.349-1.418-0.529c-0.034-0.014-0.709-0.289-0.88-0.354
		c-0.781-0.341-1.553-0.704-2.317-1.083c-1.75-0.867-3.431-1.869-5.046-2.967c-0.357-0.242-0.706-0.496-1.056-0.75
		c-0.045-0.034-0.078-0.059-0.114-0.084c-0.052-0.042-0.112-0.092-0.195-0.158c-0.65-0.521-1.273-1.076-1.885-1.641
		c-0.6-0.555-1.17-1.141-1.729-1.738c-0.275-0.295-0.541-0.6-0.807-0.903c-0.1-0.115-0.595-0.731-0.715-0.872
		c-0.864-1.162-1.64-2.388-2.347-3.65c-0.391-0.695-0.743-1.412-1.084-2.133c-0.046-0.098-0.209-0.473-0.29-0.654
		c-0.145-0.365-0.285-0.732-0.42-1.103c-0.568-1.548-1.009-3.142-1.381-4.747c-0.191-0.826-0.347-1.66-0.491-2.496
		c-0.049-0.279-0.088-0.561-0.13-0.842c0.029,0.138-0.123-1.068-0.142-1.25c-0.343-3.382-0.323-6.795-0.119-10.184
		c0.107-1.773,0.292-3.539,0.512-5.299c0.012-0.084,0.026-0.188,0.046-0.325c0.073-0.516,0.154-1.03,0.236-1.544
		c0.167-1.049,0.357-2.094,0.555-3.138c1.941-10.282,5.334-20.308,8.948-30.104c6.418-17.396,14.416-34.139,22.034-51.033
		c6.57-6.163,11.962-13.482,16.056-21.525c4.726-9.285,7.798-19.318,10.428-29.365c0.885-3.379,1.667-6.783,2.579-10.154
		c0.289-0.367,0.514-0.828,0.639-1.398c1.992-9.078,8.465-16.047,16.087-20.982c3.81-2.467,7.933-4.414,12.233-5.854
		c4.229-1.416,8.697-0.828,13.076-1.289c3.814-0.401,7.737-1.805,10.1-4.979c2.207-2.966-0.604-6.077-3.395-6.929
		c-2.677-0.817-5.782-0.697-8.544-0.547c-1.728,0.094-3.588,0.211-5.369,0.547c-1.202,0.135-2.456,0.242-3.724,0.281
		c-0.03-0.002-0.059-0.007-0.09-0.008c-1.551-0.069-3.097-0.172-4.642-0.326c-0.197-0.021-0.395-0.045-0.592-0.066
		c0.165,0.016-0.383-0.058-0.701-0.102c-2.44-0.568-4.667-1.678-6.348-3.658c-1.11-1.308-1.793-3.043-2.301-4.797
		c-0.134-1.529-0.156-3.07-0.122-4.604c0.088-3.951,0.512-6.789,1.021-9.988c0.571-3.584,1.271-7.146,1.869-10.726
		c1.514-9.054,0.984-17.86-1.102-26.81c-2.224-9.533-5.812-18.664-7.297-28.379c-0.422-2.758-3.842-4.242-6.287-3.568
		c-2.918,0.803-3.989,3.535-3.568,6.285c1.114,7.293,3.384,14.275,5.411,21.33c-0.526,1.051-0.701,2.303-0.537,3.57
		c0.001,0.002,0.001,0.004,0.001,0.008c0.032,0.295,0.051,0.592,0.069,0.887c0.04,0.629,0.04,1.26,0.031,1.887
		c-0.019,1.369-0.147,2.732-0.312,4.09c0.02-0.23-0.224,1.453-0.276,1.77c-0.136,0.803-0.287,1.602-0.442,2.4
		c-0.356,1.836-0.765,3.663-1.185,5.486c-1.753,7.607-3.812,15.146-5.162,22.842c-1.305,7.438-2.152,15.232-0.287,22.654
		c0.358,1.426,0.843,2.771,1.438,4.035c-0.289,0.334-0.517,0.746-0.654,1.246c-0.115,0.421-0.126,0.889-0.052,1.351
		c-1.671,1.001-2.447,2.946-2.336,4.819c-2.194,2.418-3.253,5.832-2.518,9.672c0.179,0.934,0.89,1.674,1.763,2.08
		c-1.021,1.922-1.933,3.907-2.754,5.922c-3.558,8.725-5.114,18.168-7.759,27.184c-2.799,9.545-6.104,18.137-11.517,26.514
		c-0.083,0.068-0.165,0.143-0.244,0.229c-0.479,0.518-0.94,1.047-1.393,1.582c-0.527-0.129-1.086-0.182-1.645-0.153
		c-0.123-1.718-0.533-3.474-1.214-5.247c-2.039-5.318-5.765-9.924-7.321-15.426c-0.789-2.785-5.128-1.6-4.337,1.195
		c0.207,0.73,0.451,1.443,0.72,2.148c-1.661-0.223-3.492,1.48-2.332,3.295c0.091,0.143,0.176,0.287,0.262,0.432
		c-0.98,1.612-1.775,3.324-2.506,5.068c-0.179,0.279-0.357,0.557-0.531,0.834c-1.79,2.84-3.617,5.656-5.223,8.607
		c-2.42,4.447-5,10.475-2.724,15.395c0.031,0.881,0.466,1.46,1.064,1.744c0.727,0.846,1.874,1.25,2.923,0.612
		c0.317-0.192,0.623-0.404,0.922-0.625c0.575,1.64,1.413,3.249,2.133,4.725c0.163,0.333,0.402,0.57,0.683,0.739
		c-2.757,5.425-5.432,10.885-8.047,16.373c-4.719,5.295-11.847,7.953-16.812,13.275c-0.533,0.57-0.708,1.212-0.634,1.803
		c-1.276-0.156-2.153,0.779-2.367,1.84c-0.159,0.14-0.301,0.303-0.417,0.491c-3.025,4.931-5.886,11.286-6.055,17.372
		c-2.662,3.682-5.172,7.475-7.436,11.448c-0.577,1.014-0.201,2.192,0.568,2.87c-5.334,6.83-9.756,14.49-9.869,23.406
		c-0.019,1.503,0.671,2.771,1.697,3.67c-6.832,9.889-16.805,19.218-17.027,31.896c-0.051,2.892,1.888,4.513,4.089,4.866
		c0.688,0.904,1.65,1.604,2.729,1.9c2.08,0.572,4.021-0.215,5.259-1.726c0.577,1.464,1.741,2.689,3.326,2.952
		c5.909,0.981,12.482,2.207,18.791,1.946c3.927,3.55,10.248,3.95,15.331,4.218c-1.4,3.146,0.146,7.715,4.642,7.713
		c13.854-0.004,27.703-0.262,41.55-0.645c0.717,0.402,1.581,0.643,2.601,0.645c1.521,0.004,3.04,0.025,4.56,0.057
		c3.543,0.809,6.994,2.104,10.268,3.586c4.729,2.139,9.33,4.785,13.489,7.937c3.531,3.394,6.758,7.107,9.538,10.777
		c1.693,2.234,3.263,4.561,4.729,6.95c0.525,1.543,1.019,3.1,1.442,4.678c1.438,5.357,2.326,10.953,3.224,16.453
		c-0.151,0.371-0.239,0.795-0.238,1.275c0.02,22.177,1.734,44.309,1.836,66.483c0.102,22.058,3.638,43.918,3.683,65.968
		c0.001,0.602,0.139,1.115,0.368,1.546c-0.285,14.404-0.567,28.81-0.572,43.218c-0.002,3.69,5.722,3.69,5.723,0
		c0.006-14.344,0.287-28.7,0.573-43.061c0.282-0.46,0.45-1.026,0.449-1.703c-0.007-3.166-0.095-6.327-0.229-9.486
		c0.639-33.835,0.918-67.672-2.701-101.366c-0.111-1.042-0.232-2.083-0.353-3.124c0.928-0.381,1.647-1.223,1.647-2.531v-12.705
		c1.418-0.955,2.288-2.613,2.453-4.465c0.258-2.871,0.05-5.744-0.498-8.58c0.438-5.075,1.275-10.102,2.211-15.117
		c0.64-1.738,1.341-3.454,2.119-5.141c1.797-3.895,3.971-7.596,6.361-11.156c2.879-2.684,5.771-5.354,8.746-7.923
		c2.096-0.757,4.191-1.514,6.288-2.269c23.987-3.564,47.716-9.305,72.034-10.044c0.771-0.023,1.544-0.038,2.314-0.049
		c0.807-0.009,1.613-0.017,2.42-0.019C443.974,2796.893,443.976,2786.269,437.121,2786.28z M254.345,2630.856
		c0.141,0.283,0.273,0.566,0.403,0.852c-0.253,0.201-0.46,0.461-0.596,0.783c-0.179-1.065-0.37-2.129-0.601-3.18
		C253.824,2629.824,254.089,2630.339,254.345,2630.856z M250.473,2637.997c0.074,0.396,0.154,0.792,0.239,1.186
		c-0.161,0.139-0.32,0.277-0.479,0.418c-0.016-0.021-0.031-0.044-0.047-0.065C250.312,2639.022,250.411,2638.509,250.473,2637.997z
		 M248.902,2629.271c0.071,0.295,0.141,0.59,0.204,0.885c-0.207-0.064-0.415-0.129-0.624-0.188
		C248.623,2629.735,248.763,2629.504,248.902,2629.271z M245.921,2633.954c0.291,0.061,0.582,0.127,0.872,0.198
		c-0.043,0.034-0.086,0.063-0.128,0.101c-1.024,0.924-1.961,1.918-2.826,2.967C244.503,2636.124,245.208,2635.04,245.921,2633.954z
		 M219.833,2763.644c-0.076-0.285-0.139-0.572-0.2-0.86c-0.014-0.196-0.023-0.394-0.034-0.589c0.164,0.803,0.341,1.604,0.542,2.402
		c0.093,0.369,0.193,0.734,0.297,1.1C220.222,2765.017,220.016,2764.333,219.833,2763.644z"/>
	<path opacity="0.4" fill-rule="evenodd" clip-rule="evenodd" fill="#010101" d="M408.917,2474.567
		c-3.363-3.295-7.264-5.665-11.959-6.413c-0.512-0.081-1.021-0.081-1.506-0.003c-3.468-3.352-9.011-4.184-13.648-4.397
		c-5.617-0.259-11.844,0.442-16.956,2.911c-1.384,0.668-1.864,2.063-1.66,3.387c-0.665,0.182-1.33,0.369-1.993,0.562
		c-1.061-0.036-2.12-0.078-3.178-0.131c-1.712-0.087-2.765,0.875-3.166,2.107c-6.126,1.963-12.4,3.973-18.909,3.41
		c-4.468-0.386-4.431,6.567,0,6.951c9.063,0.783,17.42-2.74,25.939-5.367c11.108,0.331,22.274-0.321,33.237-2.115
		c0.392-0.064,0.738-0.211,1.043-0.411c3.081,0.687,5.516,2.146,7.841,4.423C407.205,2482.618,412.123,2477.707,408.917,2474.567z"
		/>
	<path fill-rule="evenodd" clip-rule="evenodd" fill="#FFEFE0" d="M368.29,2463.759c-21.657,14.109-45.393,17.91-70.99,17.639
		c-2.896-9.139-8.021-17.929-2.154-28.258c2.476-4.361,2.571-9.898,3.872-15.426c8.828-0.423,18.827-0.902,29.586-1.419
		C331.86,2456.442,352.144,2456.608,368.29,2463.759z"/>
	<path fill-rule="evenodd" clip-rule="evenodd" fill="#DBDADA" d="M513.484,2466.228c4.51-11.387,9.961-20.652,18.711-27.945
		c0.837-0.697,1.514-1.617,2.453-2.141c3.744-2.083,7.106-5.689,12.16-3.607c5.014,2.063,5.674,6.34,6.229,10.881
		c2.335,19.082-2.207,37.031-14.257,52.045c-8.926,11.12-16.843,22.48-23.346,34.863c-5.664,10.784-11.161,21.666-17.392,32.164
		c-4.491,7.566-10.072,14.568-15.151,21.832c-3.259,4.662-6.451,9.367-9.746,14.008c-2.68,3.773-5.559,3.979-9.88,1.512
		c-17.562-10.027-30.163-24.793-43.515-38.846c-7.409-7.801-14.465-15.891-21.773-23.775c-1.173-1.266-2.839-2.134-4.735-3.521
		c-2.154,5.867-4.062,11.316-6.156,16.703c-2.55,6.558-5.167,13.096-7.917,19.58c-2.557,6.027-0.02,11.405,2.465,16.639
		c5.664,11.93,11.354,23.865,17.599,35.534c8.749,16.351,17.658,32.644,27.145,48.63c12.729,21.451,26.31,42.465,39.069,63.902
		c7.459,12.531,14.082,25.498,20.967,38.324c1.838,3.424,3.434,6.984,4.812,10.59c1.798,4.707,0.603,5.801-4.809,5.861
		c-11.971,0.133-23.938,0.539-35.907,0.76c-2.808,0.051-3.973,0.822-4.733,3.752c-5.57,21.486-10.487,43.192-17.641,64.227
		c-7.316,21.514-16.248,42.619-25.72,63.408c-14.316,31.42-29.531,62.49-44.764,93.537c-4.556,9.285-10.437,18.005-15.743,26.965
		c-0.438,0.743-1.038,1.461-1.728,2.008c-7.104,5.633-11.602,5.424-16.607-1.887c-3.988-5.824-7.007-12.262-10.105-18.576
		c-3.805-7.752-7.404-15.601-10.811-23.514c-8.689-20.188-17.14-40.467-25.846-60.65c-6.813-15.797-14.154-31.402-20.715-47.288
		c-4.634-11.222-8.351-22.771-12.486-34.17c-3.714-10.235-7.539-20.435-11.133-30.706c-2.604-7.443-5.034-14.945-7.301-22.484
		c-1.299-4.32-3.354-6.467-8.814-6.572c-7.577-0.146-15.11-1.812-22.688-2.626c-4.256-0.456-8.675-1.171-12.816-0.562
		c-5.22,0.767-6.303-1.412-5.34-5.119c2.023-7.787,3.968-15.654,6.9-23.164c8.686-22.244,17.498-44.456,26.965-66.416
		c3.945-9.154,4.439-17.682,1.845-27.215c-1.522-5.591,0.197-11.932,0.286-17.936c0.029-2.113,0.375-4.911-0.856-6.219
		c-3.722-3.951-8.116-7.354-12.307-10.91c-3.588-3.046-7.643-5.69-10.823-9.062c-13.295-14.091-28.045-27.097-37.918-43.784
		c-2.063-3.486-4.94-6.619-6.509-10.266c-0.784-1.824-0.207-4.9,1.024-6.619c9.033-12.613,18.367-25.039,27.648-37.498
		c6.477-8.693,13.164-17.252,19.487-26.043c6.177-8.588,4.619-21.984-2.938-29.729c-2.979-3.054-6.88-6.006-8.133-9.668
		c-1.507-4.404-1.169-9.562-0.684-14.311c0.858-8.411,1.809-16.434-4.049-24.08c-2.043-2.668-2.23-7.379-1.58-10.883
		c2.011-10.84,2.554-21.246-1.646-31.961c-1.698-4.331-0.722-10.059,0.522-14.812c2.782-10.639,3.716-20.92,1.216-31.904
		c-1.287-5.654,0.856-12.381,2.869-18.195c2.388-6.903,6.12-13.431,9.59-19.973c9.964-18.777,14.678-38.688,15.028-59.547
		c0.195-11.68,3.375-22.523,11.006-31.799c2.88-3.5,7.242-5.959,11.016-8.79c7.241-5.43,14.282-11.144,21.928-16.026
		c4.097-2.615,9.129-4.375,14.01-5.41c7.593-1.607,15.744-1.323,23.071-3.536c13.304-4.018,24.51-0.9,35.453,5.983
		c1.598,1.004,4.854,1.273,6.482,0.432c14.079-7.282,28.396-5.833,42.402-0.676c7.351,2.707,14.085,7.006,20.828,10.984
		c8.263,4.873,16.75,9.609,24.157,15.484c4.46,3.537,8.813,8.756,10.062,13.886c1.868,7.677,5.333,14.375,9.138,21.126
		c5.99,10.629,12.561,21.017,17.785,31.965c4.296,9.004,5.204,18.892,3.699,28.756c-1.132,7.414-0.763,14.361,3.064,21.314
		c4.846,8.806,5.032,18.256,3.232,28.072c-1.756,9.572-1.785,19.41-3.206,29.049c-0.535,3.631-1.974,7.773-4.519,10.4
		c-7.652,7.898-13.551,16.341-16.896,26.736c-4.311,13.396-15.091,22.08-27.86,28.664c-8.965,4.623-18.035,9.064-27.959,14.037
		c4.302,1.422,7.66,2.917,11.198,3.631c15.124,3.051,23.079,13.336,29.409,25.17c7.51,14.038,14.616,28.264,22.139,42.295
		c6.42,11.973,13.182,23.786,20.133,36.285c3.867-4.354,6.856-7.701,9.827-11.066c7.353-8.33,15.386-16.232,21.845-25.129
		c6.025-8.302,10.457-17.623,15.373-26.6c0.779-1.424,1.058-3.625,0.469-5.078c-4.511-11.129-1.787-23.789-8.554-34.48
		c-1.21-1.911-1.144-4.807-0.851-7.158c0.169-1.352,1.785-3.271,3.104-3.57c1.368-0.31,3.742,0.611,4.66,1.727
		C509.336,2459.151,510.977,2462.28,513.484,2466.228z M390.281,2520.251c0.625,0.199,1.251,0.396,1.876,0.597
		c2.246,4.396,3.73,9.351,6.883,13.079c9.201,10.887,18.541,21.756,28.819,31.74c10.956,10.646,23.127,20.197,34.589,30.4
		c2.835,2.525,4.783,2.17,6.796-0.467c2.155-2.827,4.287-5.678,6.267-8.613c9.196-13.639,18.349-27.307,27.488-40.979
		c2.011-3.008,3.325-5.875-1.079-8.354c-6.301-3.545-8.283-3.605-11.82,0.621c-8.615,10.297-17.165,20.643-25.728,30.979
		c-2.976,3.59-5.612,3.371-7.801-0.699c-5.022-9.342-10.053-18.682-15.052-28.035c-8.533-15.971-17.964-31.598-25.248-48.051
		c-4.974-11.235-12.53-18.846-24.055-23.363c-7.145-2.801-13.865-4.788-22.035-0.19c-9.822,5.527-20.745,9.922-31.789,12.829
		c-11.061,2.911-22.866,3.34-34.324,4.982c-1.442,0.206-3.797,0.975-3.977,1.812c-1.974,9.191-3.652,18.442-5.301,27.694
		c-1.003,5.628-1.938,11.272-2.658,16.938c-0.336,2.648-0.735,5.533,0.018,8.013c1.845,6.067,2.511,11.726-0.41,17.839
		c-2.405,5.035-4.71,10.631-4.769,16c-0.084,7.762-1.979,14.756-5.106,21.741c-1.202,2.685-2.069,5.647-2.291,8.538
		c-0.956,12.469-5.633,23.33-14.852,32.504c-2.384,2.373-4.248,5.199-6.352,7.816c-0.505-0.165-1.011-0.328-1.516-0.494
		c-0.516-8.686,4.676-18.502-5.445-25.652c-4.63,10.198-9.351,20.242-13.622,30.452c-0.526,1.257,0.869,3.849,2.187,5.035
		c6.324,5.701,7.493,11.778,2.158,18.099c-3.648,4.322-8.067,8.15-12.539,11.773c-3.295,2.67-8.542,3.91-10.61,7.092
		c-4.301,6.621-7.577,13.939-10.368,21.271c-7.251,19.045-14.072,38.232-20.934,57.405c-2.046,5.715-3.662,11.563-5.653,17.921
		c3.686,0.541,6.22,1.02,8.779,1.27c7.438,0.728,14.887,1.352,22.329,2.037c11.429,1.056,22.877,3.178,34.276,2.965
		c20.884-0.389,41.742-2.099,62.604-3.357c17.375-1.049,34.75-2.127,52.105-3.412c10.585-0.784,21.113-2.428,31.706-2.889
		c12.963-0.562,25.968-0.211,38.951-0.42c5.531-0.089,11.049-0.719,16.58-0.887c11.07-0.342,22.146-0.533,34.207-0.809
		c-4.848-10.506-8.533-19.832-13.359-28.613c-6.088-11.082-13.314-21.614-19.672-32.574c-8.807-15.179-17.202-30.564-25.885-45.803
		c-6.836-12.002-12.792-24.6-21.043-35.699c-9.769-13.141-16.088-27.762-23.994-41.69c-3.062-5.396-4.816-11.614-8.705-16.358
		c-2.287-2.789-2.279-4.166-1.258-7.015c5.933-16.533,11.561-33.162,17.416-49.72
		C387.735,2523.661,389.191,2522.013,390.281,2520.251z M220.947,2316.47c-0.553,0.172-1.105,0.346-1.658,0.518
		c0.422,2.516,0.849,5.029,1.266,7.545c1.399,8.452,2.416,16.713-1.09,25.18c-2.453,5.924-4.857,12.947-0.202,18.674
		c5.458,6.711,5.671,13.74,4.299,21.284c-0.704,3.878,0.103,6.96,2.919,10.124c5.5,6.178,4.355,14.074,5.555,21.385
		c-1.143-0.852-1.881-1.847-2.063-2.924c-1.081-6.365-3.492-11.906-8.798-16.47c-1.894-1.63-2.725-4.981-2.856-7.601
		c-0.211-4.146,0.849-8.336,0.829-12.506c-0.012-2.293-0.344-5.328-1.886-6.746c-8.016-7.371-9.089-15.597-4.684-24.843
		c4.602-9.659,6.775-19.222,2.695-29.849c-2.988-7.785-4.005-16.224-5.956-24.359c-1.586-6.617-5.229-14.35,0.262-19.558
		c7.514-7.128,9.638-16.7,15.774-24.218c1.576-1.93,3.642-3.502,5.374-5.328c1.934-2.041,5.195-4.082,5.373-6.297
		c1.182-14.803,12.239-21.176,24.823-26.215c10.251-4.105,20.636-7.968,31.153-11.423c3.624-1.19,7.834-0.831,11.775-1.179
		c0.053,0.537,0.107,1.072,0.16,1.608c-1.178,0.466-2.313,1.147-3.543,1.362c-7.712,1.345-12.463,6.15-17.259,11.531
		c-4.854,5.445-10.47,10.493-16.512,14.779c-7.104,5.039-15.175,8.869-22.552,13.596c-6.944,4.449-13.767,9.211-17.114,16.869
		c-0.917,2.1-1.281,4.41-1.899,6.623c3.359-3.525,4.523-8.104,7.576-10.857c4.863-4.387,10.789-7.857,16.615-11.182
		c10.031-5.723,20.507-10.773,30.465-16.601c7.575-4.435,14.191-10.425,22.051-14.271c8.016-3.92,12.91-8.328,14.086-17.314
		c1.052-8.031-0.753-13.766-9.09-16.836c-7.872-2.902-15.819-3.721-24.018-0.924c-2.582,0.881-5.436,1.301-8.195,1.453
		c-13.305,0.736-25.358,3.912-34.756,13.565c-2.823,2.899-6.546,5.145-10.156,7.241c-11.883,6.904-21.589,15.084-22.391,29.365
		c-0.519,9.236-1.076,18.484-2.141,27.676c-0.796,6.875-1.342,14.053-3.924,20.414c-4.678,11.52-10.747,22.549-16.324,33.745
		c-3.649,7.326-5.393,14.888-3.354,22.878c3.264,12.789,2.273,25.209-2.615,37.55c-1.078,2.724-1.362,6.517-0.181,9.082
		c4.619,10.034,4.675,20.019,1.428,30.255c-1.736,5.477-1.263,10.572,2.062,15.59c1.508,2.275,2.402,5.188,2.604,7.875
		c0.431,5.734,0.771,11.562,0.149,17.256c-0.803,7.342,2.329,12.656,8.295,16.66c5.73,3.848,7.675,8.764,8.011,15.238
		c0.312,6.015,0.013,13.002,7.553,16.334c7.051,3.115,10.186,8.863,12.351,15.363c3.038,9.115,5.318,18.549,9.415,27.233
		c4.475,9.487,9.116,18.729,9.74,29.257c0.463,7.824,3.737,14.346,9.549,20.104c2.402,2.383,3.889,5.91,4.844,9.16
		c2.785,9.475,5.092,19.074,7.809,29.474c8.5-7.483,10.528-15.63,10.558-24.657c0.016-5.109-1.331-10.779,4.054-14.676
		c5.722-4.143,4.741-9.602,2.73-14.756c-2.04-5.234-0.816-9.372,2.495-13.65c4.874-6.297,5.445-13.578,2.569-20.496
		c-2.538-6.102-1.688-11.403,0.7-17.109c1.262-3.016,2.608-6.504,2.14-9.541c-1.059-6.859,0.012-13.08,2.903-19.377
		c1.343-2.922,2.147-6.475,1.757-9.584c-0.731-5.848-3.047-11.529-3.686-17.376c-0.551-5.029-0.031-10.233,0.658-15.284
		c0.608-4.455,3.472-8.95,2.953-13.172c-1.527-12.441-4.129-24.777-6.627-37.099c-0.311-1.53-2.291-3.109-3.915-4.009
		c-7.385-4.092-14.962-7.881-22.392-11.907c-10.129-5.489-17.505-13.642-23.133-22.927c-8.663-14.29-14.26-29.52-13.099-46.363
		C223.353,2319.433,221.756,2317.928,220.947,2316.47z M383.182,2370.888c-3.432,4.109-6.208,8.584-10.118,11.89
		c-10.084,8.526-20.626,16.583-31.071,24.733c-5.546,4.326-9.117,9.414-9.587,16.414c-0.98,14.666,7.559,23.125,20.898,28.373
		c8.212,3.23,16.739,7.469,25.731,3.032c10.842-5.349,21.741-10.827,31.683-17.466c9.051-6.045,17.91-13,19.603-24.514
		c1.12-7.623,4.499-14.238,9.88-20.049c7.64-8.248,11.288-17.862,11.094-28.783c-0.1-5.584-1.013-11.387,0.263-16.709
		c2.352-9.816-0.479-18.574-3.728-27.553c-1.289-3.567-2.76-7.618-2.154-11.15c3.169-18.518-3.605-34.953-12.056-50.822
		c-6.366-11.957-14.499-23.02-16.847-36.677c-0.624-3.631-3.418-8.153-6.68-9.939c-8.715-4.774-15.887-11.433-24.21-16.38
		c-11.529-6.855-24.006-11.84-38.349-13.418c-17.455-1.921-28.795,9.025-28.016,23.901c0.154,2.96,3.811,6.772,6.92,8.308
		c3.346,1.654,7.941,1.165,12.004,1.477c9.229,0.708,17.402,3.482,24.215,9.643c14.578,13.182,24.385,28.276,22.723,48.068
		c-0.966,11.504,1.922,21.967,7.953,32.051c4.163,6.961,4.934,15.043,3.507,22.813c-1.289,7.013-4.146,13.763-6.067,20.688
		c-1.627,5.856-2.764,11.429-0.889,17.884c2.041,7.027,2.944,15.134,1.232,22.104c-1.862,7.584-2.775,14.611-0.935,22.109
		c0.614,2.502,0.634,5.148,0.751,7.736c0.298,6.559,0.51,13.121,0.688,19.682c0.008,0.262-1.338,2.492-1.855,2.881
		c-5.739-5.529-6.803-13.845-4.184-20.807c1.511-4.014,1.346-7.484-0.985-10.924c-4.667-6.884-3.722-13.801-0.829-21.012
		C386.056,2382.767,387.853,2376.823,383.182,2370.888z M333.548,2996.644c0,11.35-0.116,22.7,0.127,34.045
		c0.037,1.682,1.445,4.34,2.809,4.723c1.457,0.41,4.333-0.873,5.338-2.227c4.783-6.443,9.795-12.861,13.498-19.854
		c5.76-10.881,10.663-22.164,15.685-33.372c10.072-22.482,20.108-44.979,29.912-67.564c7.353-16.938,14.812-33.86,21.264-51.103
		c3.735-9.981,4.638-20.898,8.497-30.823c4.591-11.805,6.919-23.786,7.979-36.162c0.282-3.301-1.215-3.997-4.186-3.827
		c-11.64,0.665-23.279,1.354-34.926,1.902c-3.12,0.146-6.296-0.48-9.392-0.207c-6.224,0.549-12.387,1.769-18.616,2.172
		c-9.521,0.613-19.076,0.869-28.621,1.077c-4.053,0.087-6.175,1.39-6.43,5.442c-0.36,5.729-1.68,11.427-1.723,17.146
		c-0.265,34.747-0.209,69.497-0.412,104.247c-0.106,18.16-0.547,36.322-0.781,54.484
		C333.484,2983.375,333.556,2990.009,333.548,2996.644z M325.517,3035.87c0.674-0.033,1.348-0.067,2.021-0.102
		c0.508-1.508,1.414-3.008,1.457-4.527c0.262-9.25,0.34-18.502,0.455-27.754c0.188-14.805,0.322-29.61,0.561-44.414
		c0.045-2.768,0.744-5.537,0.674-8.296c-0.439-17.041-1.508-34.083-1.412-51.119c0.111-19.884,1.263-39.765,1.832-59.649
		c0.195-6.795,0.171-13.605-0.074-20.398c-0.227-6.279-0.613-12.58-1.532-18.793c-0.237-1.605-2.661-4.08-4.21-4.168
		c-7.768-0.438-15.586-0.439-23.371-0.18c-14.945,0.499-29.887,1.158-44.815,1.986c-9.202,0.51-18.377,1.459-27.776,2.227
		c0.327,1.359,0.573,2.9,1.071,4.368c6.695,19.751,13.417,39.493,20.156,59.231c2.498,7.317,4.551,14.814,7.686,21.891
		c11.693,26.406,23.921,52.609,35.613,79.016c7.488,16.914,14.235,34.111,21.622,51.064
		C318.395,3022.954,322.145,3029.341,325.517,3035.87z M220.986,2534.844c-13.129,11.562-26.273,23.185-39.49,34.733
		c-2.475,2.162-1.178,3.857,0.094,5.936c9.339,15.258,18.541,30.588,27.873,45.848c3.332,5.449,6.704,10.896,10.425,16.117
		c4.107,5.763,12.029,5.301,15.348-1.033c4.833-9.221,9.388-18.584,13.616-28.059c2.97-6.656,2.168-8.313-4.55-12.209
		c-4.495-2.605-7.067-6.166-7.397-11.071c-0.292-4.351-0.138-8.751-0.776-13.052c-0.602-4.05-1.329-8.281-3.146-11.935
		C228.656,2551.425,220.326,2544.417,220.986,2534.844z M198.779,2504.741c-4.818,5.347-9.897,10.264-14.089,15.77
		c-12.417,16.312-24.598,32.785-36.512,49.419c-1.188,1.659-0.852,5.376,0.364,7.231c4.377,6.68,9.044,13.266,14.316,19.346
		c10.072,11.613,20.761,22.761,30.938,34.298c4.422,5.013,7.362,1.694,11.14-0.663c4.417-2.756,1.485-5.088,0.004-7.426
		c-4.256-6.713-8.83-13.252-13.018-19.999c-4.664-7.513-8.611-15.442-13.663-22.708c-4.937-7.102-5.374-6.834,0.983-12.258
		c0.545-0.465,1.077-0.949,1.566-1.464c11.98-12.616,23.84-25.338,36.044-37.764c2.113-2.151,1.842-3.446,1.102-5.846
		C215.144,2513.569,207.513,2509.107,198.779,2504.741z M368.289,2463.973c-16.145-7.149-36.429-7.317-39.686-27.464
		c-10.759,0.516-20.758,0.996-29.586,1.42c-1.301,5.525-1.396,11.063-3.872,15.424c-5.866,10.33-0.742,19.119,2.154,28.258
		C322.896,2481.882,346.632,2478.082,368.289,2463.973z M508.126,2535.115c8.225-14.37,15.65-28.627,26.266-41.425
		c8.789-10.596,13.531-23.74,14.278-37.473c0.307-5.637-0.406-11.465-1.71-16.987c-0.914-3.872-3.937-5.017-7.926-1.898
		c-10.922,8.535-18.348,19.08-22.104,31.897c-0.312,1.065-0.884,2.064-1.723,3.979c-3.92-5.46-7.303-10.174-10.687-14.889
		c-1.066,2.613-0.994,4.678-0.584,6.684c0.967,4.73,2.501,9.389,3.065,14.154c0.939,7.932,1.717,15.713,10.194,20.326
		c0.627,0.342,0.564,1.79,0.896,2.994c-1.993-0.271-3.533-0.481-4.813-0.656c-5.261,9.732-10.338,19.121-15.514,28.694
		C501.477,2532.163,504.634,2533.565,508.126,2535.115z M217.698,2651.615c-6.646,7.409-6.188,16.896-2.737,26.583
		c1.839,5.161,4.576,6.173,9.802,4.393c9.515-3.242,14.337-9.936,16.548-18.838c1.002-4.033-0.697-5.922-4.564-6.896
		c-7.266-1.831-7.363-2.026-5.449-8.991c0.216-0.785,0.304-1.602,0.529-2.841c-4.028,0.892-7.74,4.308-11.093,0.101
		c-2.319-2.91-4.33-6.033-6.676-8.922c-1.496-1.84-3.367-4.795-5.046-4.781c-2.177,0.018-4.33,2.494-6.648,4.012
		C207.809,2641.181,212.562,2646.196,217.698,2651.615z M223.666,2310.077c0.733-0.081,1.467-0.16,2.2-0.24
		c0.514-9.672,1.276-19.34,1.367-29.016c0.022-2.408-2.127-4.834-3.278-7.252c-2.865,1.301-6.339,2.058-8.414,4.07
		c-1.887,1.828-3.172,5.038-3.125,7.613C212.594,2294.888,217.08,2302.974,223.666,2310.077z M243.046,2236.245
		c14.133-3.562,28.634-12.375,31.607-19.02C258.308,2219.094,245.961,2223.927,243.046,2236.245z"/>
	<path fill-rule="evenodd" clip-rule="evenodd" fill="#FFEFE0" d="M379.431,2270.118c0,5.039-0.51,11.301,0.169,17.449
		c0.497,4.496,1.93,9.125,4.047,13.197c4.569,8.783,9.138,17.484,9.013,27.525c-0.027,2.204-0.82,4.428-1.453,6.594
		c-2.832,9.707-5.08,19.625-8.854,29.006c-2.298,5.711-6.065,11.504-10.802,15.633c-9.11,7.947-19.006,15.24-29.275,21.857
		c-9.087,5.854-14.614,12.785-13.63,23.352c0.26,2.778-0.724,4.5-3.756,4.68c-8.005,0.473-16.017,0.974-24.032,1.143
		c-3.523,0.076-5.523-1.469-5.766-5.411c-0.393-6.394-1.716-12.735-2.662-19.22c8.481,0.455,15.903,0.852,23.327,1.248
		c0.097-0.715,0.195-1.433,0.294-2.148c-2.934-0.521-5.893-0.938-8.796-1.578c-17.413-3.834-34.44-8.77-48.373-19.758
		c-12.88-10.158-21.063-23.357-26.073-38.355c-5.582-16.711-3.242-33.396-0.556-50.193c1.071-6.703,1.325-13.59,1.161-20.375
		c-0.218-8.994,3.246-15.98,11.08-21.084c2.757-1.795,5.557-3.619,8.574-4.969c15.786-7.068,29.763-16.623,43.516-26.611
		c4.463-3.24,10.012-5.354,15.357-7.268c2.004-0.717,4.907,0.391,7.288,1.031c5.468,1.473,10.8,4.262,16.306,4.549
		c11.471,0.594,21.062,4.015,27.256,13.133c5.279,7.769,9.709,16.055,14.206,24.26c1.086,1.984,0.95,4.549,1.396,6.941
		 M323.089,2355.606c2.995,0,6.009,0.196,8.983-0.037c9.398-0.736,17.369-4.156,22.741-11.65c0.604-0.844-0.512-2.762-0.829-4.182
		c-1.351,0.438-3.706,0.637-3.9,1.35c-2.56,9.352-10.702,10.42-18.848,11.088c-17.286,1.422-34.356,0.426-51.015-4.648
		c-1.691-0.514-3.943,0.031-5.726,0.629c-0.581,0.193-1.079,2.756-0.601,3.143c1.395,1.127,3.249,2.266,5.015,2.406"/>
	<path opacity="0.2" fill-rule="evenodd" clip-rule="evenodd" fill="#807970" d="M285.96,2298.979
		c-1.295,7.326-6.882,15.398-13.423,16.625l-10.63-2.793c-10.645-1.156-26.027-11.516-26.846-14.514c0,0-5.345-6.234-0.269-17.266
		c5.943-12.918,21.489-19.934,27.205-21.492c12.507-3.412,20.673,3.6,20.673,3.6c1.137,0,7.535,7.68,7.535,12.184L285.96,2298.979z"
		/>
	<path opacity="0.2" fill-rule="evenodd" clip-rule="evenodd" fill="#807970" d="M324.375,2298.979
		c1.294,7.326,6.882,15.398,13.423,16.625l10.63-2.793c10.645-1.156,26.027-11.516,26.846-14.514c0,0,5.345-6.234,0.269-17.266
		c-5.944-12.918-21.489-19.934-27.205-21.492c-12.507-3.412-20.673,3.6-20.673,3.6c-1.137,0-7.535,7.68-7.535,12.184
		L324.375,2298.979z"/>
	<path fill-rule="evenodd" clip-rule="evenodd" fill="#2D2823" d="M323.064,2257.962c0.241-3.293,0.725-9.879,0.725-9.879
		c12.247,0.372,36.747,1.116,36.747,1.116c4.569,0,20.487,22.675,20.487,22.675c-0.324-0.365-0.649-0.73-0.975-1.098
		c-4.723-3.299-9.446-6.6-14.169-9.899c-1.468-0.535-2.937-1.069-4.404-1.604c-11.671,0.084-23.345,0.17-35.017,0.254"/>
	<path fill-rule="evenodd" clip-rule="evenodd" fill="#2D2823" d="M287.787,2261.175c-11.672-0.084-23.346-0.17-35.017-0.254
		c-1.468,0.535-2.937,1.07-4.405,1.605c-4.722,3.299-9.446,6.6-14.169,9.9c-0.325,0.365-0.649,0.73-0.974,1.096
		c0,0,15.918-22.674,20.486-22.674c0,0,24.5-0.744,36.748-1.117c0,0,0.482,6.586,0.725,9.879"/>
	<path fill-rule="evenodd" clip-rule="evenodd" fill="#010101" d="M322.979,2355.801c-14.576,0.315-29.315-1.126-44.068-2.31
		c-1.766-0.142-3.62-1.279-5.015-2.406c-0.479-0.387,0.02-2.949,0.601-3.145c1.782-0.598,4.034-1.143,5.726-0.627
		c16.658,5.073,33.729,6.068,51.015,4.648c8.146-0.67,16.288-1.736,18.848-11.089c0.194-0.712,2.55-0.911,3.9-1.349
		c0.317,1.42,1.433,3.338,0.829,4.181c-5.372,7.493-13.343,10.915-22.74,11.65C329.05,2355.593,326.018,2355.735,322.979,2355.801z"
		/>
	<path fill-rule="evenodd" clip-rule="evenodd" fill="#FFEFE0" d="M367.959,2463.759c-21.657,14.109-45.393,17.91-70.991,17.639
		c-2.895-9.139-8.02-17.929-2.154-28.258c2.477-4.361,2.572-9.898,3.873-15.426c8.828-0.423,18.827-0.902,29.586-1.419
		C331.53,2456.442,351.814,2456.608,367.959,2463.759z"/>
	<path fill-rule="evenodd" clip-rule="evenodd" fill="#FFEFE0" d="M242.716,2236.032c2.914-12.32,15.262-17.152,31.607-19.02
		C271.35,2223.655,256.85,2232.47,242.716,2236.032z"/>
	<path fill-rule="evenodd" clip-rule="evenodd" fill="#FFEFE0" d="M223.335,2309.862c-6.586-7.102-11.071-15.188-11.25-24.824
		c-0.048-2.574,1.238-5.785,3.125-7.613c2.075-2.012,5.549-2.768,8.414-4.07c1.151,2.418,3.301,4.846,3.278,7.254
		c-0.09,9.674-0.854,19.344-1.367,29.016C224.802,2309.704,224.07,2309.782,223.335,2309.862z"/>
	<path fill-rule="evenodd" clip-rule="evenodd" fill="#333333" d="M344.169,2312.792c-8.791,1.796-16.121-7.438-16.949-12.836
		c-0.827-5.398-1.505-9.271-2.482-20.783c-0.978-11.512,5.278-16.289,7.717-17.336s5.974-1.57,11.257,0.494
		c5.282,2.064,8.845,4.877,14.429,14.58c5.583,9.705,6.693,10.366,12.274,10.893c5.58,0.527,5.607-3.785,6.136-1.438
		c1.481,6.582-20.273,17.301-20.273,17.301S352.959,2310.997,344.169,2312.792z"/>
	<path fill-rule="evenodd" clip-rule="evenodd" fill="#FFFFFF" d="M334.633,2268.96c-0.622-0.062-0.386,0.096-0.343,0.447
		c-0.101-0.769,2.236-1.191,4.241-0.908c2.032,0.285,3.735,1.285,3.784,1.31c0.287,0.208,1.227,0.979,1.428,1.163
		c4.83,3.924,8.637,8.816,10.865,16.608c1.933,6.757,0.957,11.729-0.969,15.298c-3.013,5.58-8.352,7.717-8.52,7.846
		c-0.089,0.011-0.177,0.021-0.265,0.029c-18.745,1.898-20.749-32.598-10.544-41.584
		C334.32,2269.118,334.806,2268.311,334.633,2268.96z"/>
	<path fill-rule="evenodd" clip-rule="evenodd" fill="#333333" d="M253.439,2305.528c0,0-21.5-11.139-20.078-17.887
		c0.506-2.408,0.559,2.02,6.054,1.514c5.496-0.507,6.586-1.178,12.03-11.108c5.443-9.929,8.938-12.794,14.13-14.882
		c5.193-2.088,8.679-1.528,11.089-0.438c2.408,1.091,8.602,6.034,7.706,17.849s-1.54,15.786-2.324,21.324
		c-0.782,5.537-7.95,14.973-16.623,13.074C256.75,2313.077,253.439,2305.528,253.439,2305.528z"/>
	<path fill-rule="evenodd" clip-rule="evenodd" fill="#FFFFFF" d="M275.408,2270.606c10.204,8.987,8.201,43.483-10.545,41.586
		c-0.087-0.01-0.175-0.02-0.264-0.029c-0.168-0.129-5.508-2.266-8.521-7.848c-1.926-3.566-2.901-8.541-0.969-15.297
		c2.229-7.791,6.036-12.684,10.866-16.607c0.2-0.186,1.141-0.957,1.427-1.164c0.049-0.023,1.752-1.023,3.784-1.311
		c2.006-0.283,4.342,0.141,4.241,0.91c0.043-0.352,0.28-0.51-0.343-0.447C274.914,2269.749,275.4,2270.556,275.408,2270.606z"/>
</g>
</svg>
