<?xml version="1.0" encoding="utf-8"?>
<!-- Generator: Adobe Illustrator 16.0.0, SVG Export Plug-In . SVG Version: 6.00 Build 0)  -->
<!DOCTYPE svg PUBLIC "-//W3C//DTD SVG 1.1//EN" "http://www.w3.org/Graphics/SVG/1.1/DTD/svg11.dtd">
<svg version="1.1" id="Layer_1" xmlns="http://www.w3.org/2000/svg" xmlns:xlink="http://www.w3.org/1999/xlink" x="0px" y="0px"
	 width="896px" height="713.058px" viewBox="0 0 896 713.058" enable-background="new 0 0 896 713.058" xml:space="preserve">
<rect x="1515" y="-578.942" fill-rule="evenodd" clip-rule="evenodd" fill="#414042" width="2201" height="1292"/>
<g id="IWOk00.tif">
	<g>
		<path fill-rule="evenodd" clip-rule="evenodd" fill="#98A372" d="M2516.25-229.244c-15.682,42.674-30.963,83.767-45.879,124.993
			c-12.865,35.562-25.521,71.202-37.893,106.939c-16.316,47.125-65.658,74.173-119.26,64.984
			c-46.783-8.017-82.756-50.606-81.912-98.31c0.666-37.657,17.896-67.516,50.963-84.442
			c75.707-38.749,152.533-75.306,228.919-112.727C2512.228-228.313,2513.442-228.46,2516.25-229.244z"/>
		<path fill-rule="evenodd" clip-rule="evenodd" fill="#98A372" d="M2760.251-230.799c18.079,8.711,34.594,16.637,51.083,24.616
			c56.904,27.536,113.652,55.407,170.755,82.525c39.895,18.949,62.879,60.352,56.976,104.956
			c-5.476,41.37-40.303,76.235-82.772,82.861c-55.525,8.661-102.403-24.046-117.556-78.618c-8.95-32.244-22.512-63.21-34.101-94.714
			c-13.686-37.191-27.492-74.338-41.211-111.517C2762.415-223.425,2761.669-226.256,2760.251-230.799z"/>
		<path fill-rule="evenodd" clip-rule="evenodd" fill="#FBB369" d="M2518.795-90.813c0-19.72,0-38.694,0-58.409
			c77.121,0,153.825,0,231.22,0c0,19.395,0,38.585,0,58.409C2673.251-90.813,2596.465-90.813,2518.795-90.813z"/>
		<path fill-rule="evenodd" clip-rule="evenodd" fill="#FBB369" d="M2750.228-27.769c0,18.679,0,36.716,0,55.537
			c-77.176,0-153.88,0-231.172,0c0-18.724,0-36.765,0-55.537C2595.903-27.769,2672.599-27.769,2750.228-27.769z"/>
		<path fill-rule="evenodd" clip-rule="evenodd" fill="#FBB369" d="M2743.692,92.579c1.812,12.253,0.42,23.424-8.056,33.066
			c-11.643,13.246-26.93,20.555-43.321,25.305c-40.022,11.603-80.173,11.65-119.492-2.706
			c-11.394-4.159-22.144-11.091-31.906-18.452c-11.823-8.915-15.019-22.059-12.626-37.212
			C2599.979,92.579,2671.494,92.579,2743.692,92.579z"/>
		<path fill-rule="evenodd" clip-rule="evenodd" fill="#F9C2B8" d="M2632.956-339.944c-0.237,32.989-26.798,58.81-60.09,58.417
			c-33.434-0.396-59.465-26.521-59.227-59.44c0.237-32.782,27.194-58.972,60.23-58.521
			C2607.319-399.029,2633.194-372.955,2632.956-339.944z"/>
		<path fill-rule="evenodd" clip-rule="evenodd" fill="#F9C2B8" d="M2643.033-340.942c0.219-32.656,27.204-58.828,60.326-58.512
			c32.669,0.313,59.651,26.89,59.492,58.597c-0.167,33.352-26.796,59.457-60.527,59.339
			C2669.188-281.633,2642.812-308.07,2643.033-340.942z"/>
		<path fill-rule="evenodd" clip-rule="evenodd" fill="#FBB369" d="M2746.608-216.251c-74.978,0-146.076,0-217.953,0
			c-2.531-8.144-0.162-16.008,5.173-21.485c7.885-8.097,16.385-16.948,26.433-21.357c51.758-22.719,103.95-22.673,155.241,1.849
			c8.156,3.9,15.708,10.57,21.386,17.68C2741.548-233.729,2743.005-225.34,2746.608-216.251z"/>
	</g>
</g>
<text transform="matrix(1 0 0 1 2416 492.0576)" fill="#DCDADA" font-family="'Helvetica-Bold'" font-size="72">PAUL RAND</text>
<rect x="1537.687" y="3996.753" fill-rule="evenodd" clip-rule="evenodd" fill="#EFAFAB" width="2201" height="899.99"/>
<rect x="1515" y="-742.942" fill-rule="evenodd" clip-rule="evenodd" fill="#2E2E2F" width="2201" height="164"/>
<g id="IWOk00.tif_1_">
	<g>
		<path fill-rule="evenodd" clip-rule="evenodd" fill="#98A372" d="M328.613,247.353c-15.682,42.674-30.963,83.767-45.88,124.993
			c-12.865,35.562-25.52,71.203-37.893,106.939c-16.315,47.126-65.658,74.174-119.259,64.984
			c-46.783-8.016-82.756-50.605-81.913-98.309c0.666-37.657,17.896-67.516,50.963-84.442
			c75.706-38.749,152.533-75.306,228.918-112.727C324.59,248.284,325.805,248.136,328.613,247.353z"/>
		<path fill-rule="evenodd" clip-rule="evenodd" fill="#98A372" d="M572.613,245.797c18.08,8.711,34.594,16.637,51.084,24.616
			c56.904,27.536,113.652,55.407,170.754,82.525c39.895,18.949,62.879,60.352,56.977,104.956
			c-5.477,41.37-40.303,76.234-82.773,82.861c-55.525,8.66-102.402-24.047-117.555-78.618
			c-8.951-32.244-22.512-63.211-34.102-94.714c-13.686-37.191-27.492-74.338-41.211-111.517
			C574.777,253.171,574.031,250.34,572.613,245.797z"/>
		<path fill-rule="evenodd" clip-rule="evenodd" fill="#C4A7A7" d="M331.158,385.783c0-19.72,0-38.694,0-58.409
			c77.121,0,153.824,0,231.219,0c0,19.395,0,38.585,0,58.409C485.613,385.783,408.828,385.783,331.158,385.783z"/>
		<path fill-rule="evenodd" clip-rule="evenodd" fill="#C4A7A7" d="M562.59,448.828c0,18.68,0,36.716,0,55.537
			c-77.176,0-153.879,0-231.172,0c0-18.724,0-36.766,0-55.537C408.266,448.828,484.961,448.828,562.59,448.828z"/>
		<path fill-rule="evenodd" clip-rule="evenodd" fill="#C4A7A7" d="M556.055,569.176c1.812,12.254,0.42,23.424-8.055,33.066
			c-11.643,13.246-26.93,20.555-43.322,25.305c-40.021,11.602-80.172,11.65-119.492-2.707c-11.393-4.158-22.143-11.09-31.906-18.451
			c-11.822-8.916-15.018-22.059-12.625-37.213C412.342,569.176,483.857,569.176,556.055,569.176z"/>
		<path fill-rule="evenodd" clip-rule="evenodd" fill="#A1BCBF" d="M445.318,136.653c-0.236,32.989-26.797,58.81-60.09,58.417
			c-33.434-0.396-59.465-26.521-59.227-59.44c0.238-32.782,27.195-58.972,60.23-58.521
			C419.682,77.568,445.557,103.642,445.318,136.653z"/>
		<path fill-rule="evenodd" clip-rule="evenodd" fill="#A1BCBF" d="M455.396,135.655c0.219-32.656,27.203-58.828,60.326-58.512
			c32.668,0.313,59.65,26.89,59.492,58.597c-0.168,33.352-26.797,59.457-60.527,59.339
			C481.551,194.963,455.174,168.527,455.396,135.655z"/>
		<path fill-rule="evenodd" clip-rule="evenodd" fill="#C4A7A7" d="M558.971,260.346c-74.977,0-146.076,0-217.953,0
			c-2.531-8.144-0.162-16.008,5.174-21.485c7.885-8.097,16.385-16.948,26.432-21.357c51.758-22.719,103.951-22.673,155.242,1.849
			c8.156,3.9,15.707,10.57,21.385,17.68C553.91,242.867,555.367,251.257,558.971,260.346z"/>
	</g>
</g>
<rect x="1515" y="713.058" fill-rule="evenodd" clip-rule="evenodd" fill="#98A372" width="2201" height="690.659"/>
<rect x="1527.229" y="1403.717" fill-rule="evenodd" clip-rule="evenodd" fill="#414042" width="2201" height="2593.036"/>
<rect x="1527.229" y="4896.743" fill-rule="evenodd" clip-rule="evenodd" fill="#414042" width="2201" height="1248.499"/>
</svg>
