<?xml version="1.0" encoding="utf-8"?>
<!-- Generator: Adobe Illustrator 16.0.0, SVG Export Plug-In . SVG Version: 6.00 Build 0)  -->
<!DOCTYPE svg PUBLIC "-//W3C//DTD SVG 1.1//EN" "http://www.w3.org/Graphics/SVG/1.1/DTD/svg11.dtd">
<svg version="1.1" id="Layer_1" xmlns="http://www.w3.org/2000/svg" xmlns:xlink="http://www.w3.org/1999/xlink" x="0px" y="0px"
	 width="2388.45px" height="1166.808px" viewBox="0 0 2388.45 1166.808" enable-background="new 0 0 2388.45 1166.808"
	 xml:space="preserve">
<rect x="330.769" y="766.687" fill="#7B875D" width="21.069" height="375.712"/>
<g>
	<defs>
		<rect id="SVGID_1_" x="3.292" y="1414.854" width="2382.077" height="561.995"/>
	</defs>
	<clipPath id="SVGID_2_">
		<use xlink:href="#SVGID_1_"  overflow="visible"/>
	</clipPath>
	<circle clip-path="url(#SVGID_2_)" fill-rule="evenodd" clip-rule="evenodd" fill="#98A372" cx="1020.056" cy="1837.544" r="112"/>
	<circle clip-path="url(#SVGID_2_)" fill-rule="evenodd" clip-rule="evenodd" fill="#414042" cx="92.446" cy="1592.927" r="112"/>
	<circle clip-path="url(#SVGID_2_)" fill-rule="evenodd" clip-rule="evenodd" fill="#414042" cx="278.775" cy="1508.927" r="112"/>
	<circle clip-path="url(#SVGID_2_)" fill-rule="evenodd" clip-rule="evenodd" fill="#414042" cx="684.056" cy="1480.927" r="112"/>
	<circle clip-path="url(#SVGID_2_)" fill-rule="evenodd" clip-rule="evenodd" fill="#414042" cx="477.364" cy="1560.888" r="112"/>
	<circle clip-path="url(#SVGID_2_)" fill-rule="evenodd" clip-rule="evenodd" fill="#414042" cx="908.056" cy="1560.888" r="112"/>
	<circle clip-path="url(#SVGID_2_)" fill-rule="evenodd" clip-rule="evenodd" fill="#414042" cx="1106.113" cy="1526.854" r="112"/>
	<circle clip-path="url(#SVGID_2_)" fill-rule="evenodd" clip-rule="evenodd" fill="#414042" cx="1308.92" cy="1464.927" r="112"/>
	<circle clip-path="url(#SVGID_2_)" fill-rule="evenodd" clip-rule="evenodd" fill="#414042" cx="1503.446" cy="1526.854" r="112"/>
	<circle clip-path="url(#SVGID_2_)" fill-rule="evenodd" clip-rule="evenodd" fill="#414042" cx="1691.176" cy="1480.927" r="112"/>
	<circle clip-path="url(#SVGID_2_)" fill-rule="evenodd" clip-rule="evenodd" fill="#414042" cx="1883.446" cy="1526.854" r="112"/>
	<circle clip-path="url(#SVGID_2_)" fill-rule="evenodd" clip-rule="evenodd" fill="#414042" cx="2067.446" cy="1560.888" r="112"/>
	<circle clip-path="url(#SVGID_2_)" fill-rule="evenodd" clip-rule="evenodd" fill="#414042" cx="2273.369" cy="1526.854" r="112"/>
	<circle clip-path="url(#SVGID_2_)" fill-rule="evenodd" clip-rule="evenodd" fill="#414042" cx="365.364" cy="1784.888" r="112"/>
	<circle clip-path="url(#SVGID_2_)" fill-rule="evenodd" clip-rule="evenodd" fill="#414042" cx="837.364" cy="1713.378" r="112"/>
	<circle clip-path="url(#SVGID_2_)" fill-rule="evenodd" clip-rule="evenodd" fill="#414042" cx="1691.176" cy="1620.927" r="112"/>
	<circle clip-path="url(#SVGID_2_)" fill-rule="evenodd" clip-rule="evenodd" fill="#7B875D" cx="115.292" cy="1784.888" r="112"/>
	<circle clip-path="url(#SVGID_2_)" fill-rule="evenodd" clip-rule="evenodd" fill="#414042" cx="1391.446" cy="1688.927" r="112"/>
	<circle clip-path="url(#SVGID_2_)" fill-rule="evenodd" clip-rule="evenodd" fill="#414042" cx="1940.272" cy="1800.927" r="112"/>
	<circle clip-path="url(#SVGID_2_)" fill-rule="evenodd" clip-rule="evenodd" fill="#98A372" cx="1771.446" cy="1638.854" r="112"/>
	<circle clip-path="url(#SVGID_2_)" fill-rule="evenodd" clip-rule="evenodd" fill="#414042" cx="2331.446" cy="1816.927" r="112"/>
	<circle clip-path="url(#SVGID_2_)" fill-rule="evenodd" clip-rule="evenodd" fill="#7B875D" cx="1547.948" cy="1800.927" r="112"/>
	<circle clip-path="url(#SVGID_2_)" fill-rule="evenodd" clip-rule="evenodd" fill="#7B875D" cx="536.064" cy="1816.927" r="112"/>
	<circle clip-path="url(#SVGID_2_)" fill-rule="evenodd" clip-rule="evenodd" fill="#414042" cx="1303.083" cy="1576.927" r="112"/>
	<circle clip-path="url(#SVGID_2_)" fill-rule="evenodd" clip-rule="evenodd" fill="#7B875D" cx="1106.113" cy="1656.164" r="112"/>
	<g clip-path="url(#SVGID_2_)">
		<path fill="#DCDADA" d="M1325.955,1773.925c0,0-28.136,90.792-134.373,90.69c-103.4-0.1-134.376-90.69-134.376-90.69
			s38.809-90.774,134.376-90.69C1298.898,1683.328,1325.955,1773.925,1325.955,1773.925z"/>
		<circle fill="#98A372" cx="1191.581" cy="1773.925" r="78.818"/>
		<circle fill="#414042" cx="1191.581" cy="1773.925" r="33.475"/>
	</g>
	<circle clip-path="url(#SVGID_2_)" fill-rule="evenodd" clip-rule="evenodd" fill="#414042" cx="796.056" cy="1620.927" r="112"/>
	<circle clip-path="url(#SVGID_2_)" fill-rule="evenodd" clip-rule="evenodd" fill="#98A372" cx="671.472" cy="1627.116" r="112"/>
	<circle clip-path="url(#SVGID_2_)" fill-rule="evenodd" clip-rule="evenodd" fill="#414042" cx="310.805" cy="1668.037" r="112"/>
	<circle clip-path="url(#SVGID_2_)" fill-rule="evenodd" clip-rule="evenodd" fill="#98A372" cx="253.364" cy="1648.854" r="112"/>
	<circle clip-path="url(#SVGID_2_)" fill-rule="evenodd" clip-rule="evenodd" fill="#414042" cx="2219.446" cy="1688.927" r="112"/>
	<circle clip-path="url(#SVGID_2_)" fill-rule="evenodd" clip-rule="evenodd" fill="#7B875D" cx="2091.446" cy="1688.927" r="112"/>
	<circle clip-path="url(#SVGID_2_)" fill-rule="evenodd" clip-rule="evenodd" fill="#98A372" cx="2385.369" cy="1656.164" r="112"/>
</g>
<rect x="3.292" y="1414.854" fill="#414042" width="2382.077" height="188.923"/>
<path fill="#C4A7A7" d="M499.311,639.562c0,87.265-70.742,158.007-158.007,158.007c-87.265,0-158.007-70.742-158.007-158.007
	c0-40.453,41.297-136.46,41.297-136.46l57.457,111.323l59.252-132.87l53.866,131.074l51.093-105.484
	C446.263,507.145,499.311,594.486,499.311,639.562z"/>
<path fill="#7B875D" d="M496.92,904.626c0,0-52.955,60.707-86.482,60.707c-33.528,0-60.707-27.179-60.707-60.707
	c0-33.527,27.179-60.707,60.707-60.707C443.966,843.92,496.92,904.626,496.92,904.626z"/>
<path fill="#7B875D" d="M186.389,904.627c0,0,52.955-60.707,86.482-60.707c33.528,0,60.707,27.179,60.707,60.707
	c0,33.527-27.179,60.707-60.707,60.707C239.344,965.333,186.389,904.627,186.389,904.627z"/>
<rect x="1222.047" y="879.498" fill="#7B875D" width="11.689" height="208.459"/>
<path fill="#C4A7A7" d="M1315.559,808.964c0,48.418-39.25,87.668-87.667,87.668c-48.418,0-87.668-39.25-87.668-87.668
	c0-22.444,22.913-75.713,22.913-75.713l31.879,61.766l32.876-73.721l29.886,72.725l28.35-58.527
	C1286.127,735.495,1315.559,783.955,1315.559,808.964z"/>
<path fill="#7B875D" d="M1310.958,956.032c0,0-29.381,33.683-47.983,33.683s-33.682-15.08-33.682-33.683
	c0-18.602,15.079-33.682,33.682-33.682S1310.958,956.032,1310.958,956.032z"/>
<path fill="#7B875D" d="M1144.224,956.032c0,0,29.381-33.682,47.983-33.682s33.682,15.08,33.682,33.682
	c0,18.603-15.08,33.683-33.682,33.683S1144.224,956.032,1144.224,956.032z"/>
<g id="IWOk00.tif_1_">
	<g>
		<path fill-rule="evenodd" clip-rule="evenodd" fill="#98A372" d="M575.62,327.53c7.62,16.474,14.907,32.388,22.333,48.237
			c6.407,13.67,12.896,27.304,19.492,40.885c8.698,17.909,2.404,39.474-15.322,52.011c-15.469,10.944-37.648,9.076-50.876-4.628
			c-10.442-10.819-14.007-24.112-9.451-38.225c10.433-32.311,21.801-64.318,32.8-96.446
			C574.747,328.929,575.048,328.544,575.62,327.53z"/>
		<path fill-rule="evenodd" clip-rule="evenodd" fill="#98A372" d="M644.061,258.21c7.563-2.645,14.462-5.069,21.37-7.472
			c23.837-8.29,47.725-16.442,71.5-24.907c16.611-5.913,34.787-0.713,45.713,13.545c10.132,13.225,10.144,32.898,0.025,46.758
			c-13.23,18.119-35.696,22.119-55.379,10.991c-11.629-6.576-24.199-11.49-36.364-17.111c-14.363-6.636-28.747-13.225-43.115-19.848
			C646.753,259.681,645.744,259.093,644.061,258.21z"/>
		<path fill-rule="evenodd" clip-rule="evenodd" fill="#C4A7A7" d="M615.417,365.89c-5.567-5.566-10.924-10.923-16.489-16.488
			c21.771-21.771,43.425-43.425,65.272-65.272c5.475,5.475,10.893,10.893,16.489,16.489
			C659.019,322.288,637.343,343.964,615.417,365.89z"/>
		<path fill-rule="evenodd" clip-rule="evenodd" fill="#C4A7A7" d="M698.546,318.355c5.273,5.273,10.365,10.365,15.678,15.678
			c-21.786,21.786-43.439,43.439-65.259,65.259c-5.285-5.286-10.378-10.378-15.678-15.677
			C654.981,361.921,676.632,340.27,698.546,318.355z"/>
		<path fill-rule="evenodd" clip-rule="evenodd" fill="#C4A7A7" d="M730.675,354.174c3.971,2.947,6.731,6.494,7.061,11.608
			c0.453,7.026-1.8,13.405-5.086,19.373c-8.023,14.573-19.343,25.921-34.497,32.968c-4.39,2.042-9.381,3.12-14.216,3.798
			c-5.854,0.82-10.466-1.988-14.069-6.941C690.105,394.744,710.294,374.555,730.675,354.174z"/>
		<path fill-rule="evenodd" clip-rule="evenodd" fill="#A1BCBF" d="M577.315,263.334c9.246,9.379,9.037,24.167-0.473,33.454
			c-9.549,9.326-24.273,9.3-33.499-0.06c-9.188-9.322-8.971-24.325,0.482-33.523C553.398,253.892,568.063,253.948,577.315,263.334z"
			/>
		<path fill-rule="evenodd" clip-rule="evenodd" fill="#A1BCBF" d="M579.878,260.208c-9.157-9.28-8.927-24.286,0.512-33.547
			c9.311-9.134,24.43-9.248,33.336-0.252c9.368,9.462,9.22,24.349-0.335,33.837C604.004,269.567,589.095,269.55,579.878,260.208z"/>
		<path fill-rule="evenodd" clip-rule="evenodd" fill="#C4A7A7" d="M644.316,266.168c-21.166,21.166-41.237,41.237-61.527,61.528
			c-3.013-1.584-4.565-4.474-4.604-7.526c-0.06-4.511-0.159-9.409,1.433-13.491c8.197-21.025,22.944-35.745,44.346-43.302
			c3.404-1.202,7.418-1.45,11.028-1.046C637.954,262.663,640.733,264.62,644.316,266.168z"/>
	</g>
</g>
<g id="IWOk00.tif_2_">
	<g>
		<path fill-rule="evenodd" clip-rule="evenodd" fill="#98A372" d="M1277.801,515.41c-11.457,5.299-22.526,10.367-33.549,15.533
			c-9.508,4.456-18.99,8.969-28.437,13.556c-12.456,6.049-27.454,1.672-36.174-10.656c-7.611-10.759-6.312-26.184,3.219-35.384
			c7.524-7.263,16.77-9.742,26.585-6.573c22.472,7.256,44.733,15.163,67.077,22.813
			C1276.829,514.803,1277.096,515.013,1277.801,515.41z"/>
		<path fill-rule="evenodd" clip-rule="evenodd" fill="#98A372" d="M1326.013,563.011c1.839,5.26,3.525,10.059,5.196,14.862
			c5.767,16.58,11.436,33.193,17.322,49.729c4.113,11.554,0.497,24.195-9.42,31.793c-9.197,7.048-22.88,7.055-32.52,0.018
			c-12.604-9.202-15.385-24.827-7.645-38.517c4.572-8.089,7.99-16.831,11.9-25.292c4.614-9.99,9.197-19.993,13.803-29.986
			C1324.99,564.883,1325.4,564.181,1326.013,563.011z"/>
		<path fill-rule="evenodd" clip-rule="evenodd" fill="#C4A7A7" d="M1251.122,543.089c3.872-3.872,7.598-7.597,11.469-11.468
			c15.141,15.141,30.201,30.201,45.396,45.397c-3.808,3.808-7.575,7.576-11.468,11.468
			C1281.448,573.415,1266.371,558.338,1251.122,543.089z"/>
		<path fill-rule="evenodd" clip-rule="evenodd" fill="#C4A7A7" d="M1284.182,600.906c-3.667,3.667-7.208,7.208-10.903,10.904
			c-15.153-15.153-30.213-30.212-45.388-45.388c3.676-3.676,7.219-7.218,10.903-10.904
			C1253.882,570.605,1268.941,585.664,1284.182,600.906z"/>
		<path fill-rule="evenodd" clip-rule="evenodd" fill="#C4A7A7" d="M1259.271,623.251c-2.051,2.761-4.518,4.681-8.074,4.911
			c-4.886,0.315-9.323-1.252-13.474-3.538c-10.137-5.581-18.029-13.454-22.93-23.992c-1.42-3.053-2.171-6.525-2.643-9.887
			c-0.569-4.072,1.383-7.28,4.828-9.785C1231.054,595.035,1245.095,609.076,1259.271,623.251z"/>
		<path fill-rule="evenodd" clip-rule="evenodd" fill="#A1BCBF" d="M1322.45,516.588c-6.523,6.431-16.808,6.286-23.268-0.329
			c-6.486-6.642-6.468-16.882,0.042-23.298c6.482-6.39,16.918-6.239,23.314,0.335
			C1329.016,499.955,1328.977,510.154,1322.45,516.588z"/>
		<path fill-rule="evenodd" clip-rule="evenodd" fill="#A1BCBF" d="M1324.624,518.372c6.455-6.369,16.892-6.209,23.333,0.355
			c6.353,6.475,6.432,16.992,0.176,23.186c-6.581,6.516-16.935,6.412-23.534-0.233
			C1318.115,535.151,1318.126,524.781,1324.624,518.372z"/>
		<path fill-rule="evenodd" clip-rule="evenodd" fill="#C4A7A7" d="M1320.478,563.188c-14.721-14.721-28.68-28.68-42.793-42.793
			c1.103-2.095,3.111-3.175,5.235-3.202c3.138-0.041,6.543-0.11,9.382,0.997c14.623,5.701,24.862,15.958,30.117,30.842
			c0.836,2.368,1.008,5.159,0.728,7.67C1322.917,558.763,1321.555,560.696,1320.478,563.188z"/>
	</g>
</g>
<rect x="0.21" y="1073.798" fill="#414042" width="2388.239" height="126.239"/>
<g>
	<path fill="none" stroke="#414042" stroke-width="40" stroke-miterlimit="10" d="M-32.708,1037.798c17.039,0,17.039,72,34.078,72
		c17.041,0,17.041-72,34.082-72c17.04,0,17.04,72,34.08,72c17.039,0,17.039-72,34.078-72c17.04,0,17.04,72,34.079,72
		c17.042,0,17.042-72,34.083-72c17.04,0,17.04,72,34.079,72c17.039,0,17.039-72,34.078-72c17.041,0,17.041,72,34.082,72
		c17.041,0,17.041-72,34.081-72c17.039,0,17.039,72,34.079,72c17.041,0,17.041-72,34.081-72s17.041,72,34.082,72
		c17.04,0,17.04-72,34.079-72c17.041,0,17.041,72,34.082,72s17.041-72,34.081-72c17.04,0,17.04,72,34.08,72
		c17.042,0,17.042-72,34.083-72c17.04,0,17.04,72,34.081,72s17.041-72,34.081-72c17.041,0,17.041,72,34.082,72
		c17.041,0,17.041-72,34.081-72c17.042,0,17.042,72,34.084,72c17.04,0,17.04-72,34.081-72c17.042,0,17.042,72,34.084,72
		c17.041,0,17.041-72,34.081-72c17.042,0,17.042,72,34.083,72c17.041,0,17.041-72,34.082-72c17.042,0,17.042,72,34.084,72
		c17.041,0,17.041-72,34.082-72c17.042,0,17.042,72,34.084,72c17.041,0,17.041-72,34.082-72s17.041,72,34.083,72
		c17.042,0,17.042-72,34.084-72c17.041,0,17.041,72,34.082,72c17.042,0,17.042-72,34.083-72c17.042,0,17.042,72,34.085,72
		c17.042,0,17.042-72,34.084-72c17.041,0,17.041,72,34.082,72s17.041-72,34.083-72s17.042,72,34.084,72s17.042-72,34.085-72
		s17.043,72,34.085,72c17.043,0,17.043-72,34.086-72c17.042,0,17.042,72,34.085,72c17.042,0,17.042-72,34.084-72
		s17.042,72,34.084,72c17.041,0,17.041-72,34.081-72s17.04,72,34.079,72c17.041,0,17.041-72,34.082-72c17.043,0,17.043,72,34.085,72
		s17.042-72,34.083-72s17.041,72,34.081,72c17.041,0,17.041-72,34.082-72c17.042,0,17.042,72,34.083,72s17.041-72,34.083-72
		c17.044,0,17.044,72,34.088,72c17.042,0,17.042-72,34.085-72s17.043,72,34.086,72c17.042,0,17.042-72,34.084-72
		c17.043,0,17.043,72,34.086,72s17.043-72,34.086-72c17.044,0,17.044,72,34.088,72c17.045,0,17.045-72,34.089-72
		c17.042,0,17.042,72,34.084,72s17.042-72,34.084-72c17.044,0,17.044,72,34.089,72s17.045-72,34.089-72c17.045,0,17.045,72,34.09,72
		s17.045-72,34.09-72c17.048,0,17.048,72,34.095,72s17.047-72,34.094-72"/>
</g>
<g id="IWOk00.tif_3_">
	<g>
		<path fill-rule="evenodd" clip-rule="evenodd" fill="#98A372" d="M1954.841,617.227c5.456,6.169,10.694,12.139,15.986,18.062
			c4.564,5.108,9.159,10.19,13.793,15.235c6.112,6.653,6.183,16.846,0.11,24.604c-5.301,6.77-15.184,8.845-22.718,4.609
			c-5.947-3.344-9.228-8.658-9.083-15.386c0.329-15.403,1.104-30.796,1.705-46.193
			C1954.643,617.949,1954.724,617.742,1954.841,617.227z"/>
		<path fill-rule="evenodd" clip-rule="evenodd" fill="#98A372" d="M1975.57,578.187c2.943-2.134,5.627-4.086,8.316-6.029
			c9.282-6.706,18.606-13.359,27.838-20.132c6.452-4.732,15.029-4.838,21.635-0.062c6.126,4.43,8.69,12.98,6.097,20.322
			c-3.394,9.598-12.639,14.262-22.643,11.985c-5.91-1.345-12.014-1.845-18.034-2.704c-7.107-1.016-14.218-2.008-21.325-3.017
			C1976.931,578.475,1976.415,578.352,1975.57,578.187z"/>
		<path fill-rule="evenodd" clip-rule="evenodd" fill="#C4A7A7" d="M1977.132,628.722c-3.144-1.695-6.169-3.327-9.312-5.021
			c6.629-12.297,13.224-24.529,19.877-36.869c3.093,1.667,6.152,3.317,9.314,5.021
			C1990.412,604.094,1983.81,616.337,1977.132,628.722z"/>
		<path fill-rule="evenodd" clip-rule="evenodd" fill="#C4A7A7" d="M2007.082,597.239c2.979,1.605,5.854,3.156,8.856,4.775
			c-6.635,12.306-13.229,24.537-19.874,36.861c-2.986-1.61-5.862-3.16-8.856-4.774
			C1993.815,621.847,2000.409,609.618,2007.082,597.239z"/>
		<path fill-rule="evenodd" clip-rule="evenodd" fill="#C4A7A7" d="M2025.709,608.627c2.11,0.765,3.771,1.947,4.58,4.127
			c1.111,2.995,0.963,6.061,0.311,9.083c-1.591,7.379-5.033,13.785-10.703,18.82c-1.644,1.459-3.672,2.578-5.687,3.501
			c-2.438,1.119-4.808,0.499-7.019-1.186C2013.355,631.543,2019.503,620.14,2025.709,608.627z"/>
		<path fill-rule="evenodd" clip-rule="evenodd" fill="#A1BCBF" d="M1947.223,589.101c5.24,2.875,7.072,9.329,4.148,14.604
			c-2.938,5.297-9.342,7.202-14.569,4.334c-5.207-2.856-7.066-9.406-4.155-14.635
			C1935.596,588.11,1941.979,586.225,1947.223,589.101z"/>
		<path fill-rule="evenodd" clip-rule="evenodd" fill="#A1BCBF" d="M1947.929,587.409c-5.188-2.843-7.041-9.395-4.144-14.65
			c2.858-5.182,9.415-7.199,14.459-4.448c5.303,2.893,7.177,9.384,4.258,14.752C1959.635,588.336,1953.151,590.27,1947.929,587.409z
			"/>
		<path fill-rule="evenodd" clip-rule="evenodd" fill="#C4A7A7" d="M1976.717,581.613c-6.447,11.955-12.56,23.292-18.738,34.753
			c-1.516-0.297-2.566-1.35-2.981-2.672c-0.613-1.954-1.293-4.07-1.133-6.051c0.827-10.207,5.321-18.524,13.641-24.595
			c1.322-0.965,3.036-1.596,4.658-1.89C1973.495,580.917,1974.958,581.406,1976.717,581.613z"/>
	</g>
</g>
</svg>
