<?xml version="1.0" encoding="utf-8"?>
<!-- Generator: Adobe Illustrator 16.0.0, SVG Export Plug-In . SVG Version: 6.00 Build 0)  -->
<!DOCTYPE svg PUBLIC "-//W3C//DTD SVG 1.1//EN" "http://www.w3.org/Graphics/SVG/1.1/DTD/svg11.dtd">
<svg version="1.1" id="Layer_1" xmlns="http://www.w3.org/2000/svg" xmlns:xlink="http://www.w3.org/1999/xlink" x="0px" y="0px"
	 width="890.956px" height="857.957px" viewBox="0 0 890.956 857.957" enable-background="new 0 0 890.956 857.957"
	 xml:space="preserve">
<circle fill="#938C9B" cx="445.478" cy="428.979" r="418.479"/>
<g>
	<polygon fill="#B0A9B7" points="749.722,428.978 737.477,441.061 748.699,454.102 735.507,465.143 745.618,479.062 731.56,488.976 
		740.48,503.685 725.646,512.395 733.312,527.795 717.805,535.24 724.164,551.226 708.091,557.354 713.102,573.813 696.575,578.59 
		700.208,595.404 683.344,598.802 685.578,615.859 668.492,617.857 669.316,635.04 652.124,635.627 651.535,652.82 634.353,651.995 
		632.354,669.081 615.298,666.847 611.9,683.711 595.086,680.078 590.309,696.604 573.852,691.593 567.721,707.666 551.736,701.307 
		544.292,716.814 528.894,709.147 520.183,723.982 505.475,715.06 495.562,729.119 481.644,719.008 470.603,732.2 457.562,720.978 
		445.479,733.223 433.396,720.978 420.356,732.2 409.313,719.007 395.394,729.118 385.481,715.06 370.772,723.981 362.062,709.146 
		346.662,716.813 339.216,701.306 323.231,707.664 317.101,691.591 300.644,696.603 295.866,680.075 279.051,683.708 
		275.654,666.844 258.596,669.079 256.599,651.992 239.415,652.816 238.828,635.624 221.635,635.035 222.46,617.853 
		205.374,615.854 207.609,598.798 190.745,595.4 194.378,578.585 177.852,573.808 182.863,557.35 166.79,551.22 173.149,535.236 
		157.641,527.791 165.309,512.391 150.474,503.682 159.397,488.973 145.337,479.061 155.449,465.143 142.257,454.101 
		153.479,441.061 141.234,428.978 153.479,416.895 142.257,403.854 155.449,392.812 145.337,378.893 159.397,368.979 
		150.476,354.271 165.311,345.56 157.643,330.161 173.151,322.715 166.792,306.73 182.866,300.6 177.854,284.143 194.381,279.365 
		190.748,262.55 207.613,259.153 205.378,242.096 222.465,240.098 221.64,222.915 238.833,222.327 239.421,205.134 256.604,205.96 
		258.603,188.874 275.659,191.109 279.057,174.245 295.872,177.878 300.65,161.352 317.106,166.364 323.237,150.29 339.221,156.65 
		346.666,141.142 362.065,148.81 370.775,133.975 385.484,142.897 395.396,128.837 409.314,138.95 420.356,125.757 433.396,136.979 
		445.479,124.734 457.562,136.979 470.604,125.757 481.645,138.949 495.563,128.838 505.478,142.898 520.187,133.976 
		528.896,148.811 544.297,141.144 551.741,156.652 567.726,150.293 573.855,166.366 590.313,161.355 595.091,177.882 
		611.905,174.249 615.304,191.114 632.36,188.879 634.357,205.966 651.541,205.141 652.128,222.333 669.322,222.922 
		668.496,240.104 685.582,242.103 683.347,259.159 700.212,262.557 696.578,279.372 713.104,284.149 708.093,300.606 
		724.166,306.736 717.807,322.72 733.314,330.165 725.646,345.564 740.481,354.274 731.56,368.983 745.618,378.896 735.507,392.813 
		748.698,403.854 737.477,416.895 	"/>
</g>
<g>
	<path fill="#2F303D" stroke="#DCDADA" stroke-width="3" stroke-miterlimit="10" d="M506.569,352.109
		c0,9.098-7.377,16.474-16.475,16.474h-89.234c-9.098,0-16.474-7.376-16.474-16.474v-89.234c0-9.098,7.376-16.474,16.474-16.474
		h89.234c9.098,0,16.475,7.376,16.475,16.474V352.109z"/>
	<path fill="#DCDADA" d="M612.962,575.193c0,9.098-7.375,16.474-16.473,16.474H294.467c-9.098,0-16.474-7.376-16.474-16.474V273.172
		c0-9.099,7.376-16.475,16.474-16.475h302.022c9.098,0,16.473,7.376,16.473,16.475V575.193z"/>
	<rect x="429.269" y="386.433" fill="#8D8395" width="32.416" height="32.415"/>
	<path fill="#CCCDCD" d="M612.962,575.35c0,9.098-7.375,16.475-16.473,16.475H294.467c-9.098,0-16.474-7.377-16.474-16.475v-141.4
		c0-9.098,7.376-16.475,16.474-16.475h302.022c9.098,0,16.473,7.377,16.473,16.475V575.35z"/>
	<path fill="#E5E5E5" d="M612.962,578.384c0,7.422-7.375,13.44-16.473,13.44H294.467c-9.098,0-16.474-6.019-16.474-13.44V463.02
		c0-7.422,7.376-13.439,16.474-13.439h302.022c9.098,0,16.473,6.018,16.473,13.439V578.384z"/>
	<path fill="#2F303D" d="M610.569,571.026c0,10.197-7.764,18.466-17.34,18.466H297.726c-9.576,0-17.34-8.269-17.34-18.466v-89.255
		c0-10.197,7.764-18.467,17.34-18.467h295.503c9.576,0,17.34,8.27,17.34,18.467V571.026z"/>
	<circle fill="#B4B4B5" cx="340.713" cy="374.671" r="23.594"/>
	<circle fill="#85A88E" cx="340.713" cy="374.671" r="19.475"/>
	<path fill="#F1F2F2" d="M604.591,567.308c0,9.347-7.48,16.927-16.711,16.927H303.04c-9.229,0-16.714-7.58-16.714-16.927V485.49
		c0-9.347,7.484-16.927,16.714-16.927h284.84c9.23,0,16.711,7.58,16.711,16.927V567.308z"/>
	<path fill="#2F303D" d="M602.509,565.508c0,8.938-7.383,16.185-16.492,16.185H304.941c-9.107,0-16.493-7.247-16.493-16.185v-78.219
		c0-8.937,7.386-16.184,16.493-16.184h281.076c9.109,0,16.492,7.247,16.492,16.184V565.508z"/>
	<circle fill="#2F303D" cx="552.384" cy="374.671" r="23.594"/>
	<path fill="#2F303D" d="M596.47,321.706c0,9.1-7.377,16.474-16.475,16.474h-34.73c-9.1,0-16.475-7.374-16.475-16.474v-34.732
		c0-9.098,7.375-16.474,16.475-16.474h34.73c9.098,0,16.475,7.376,16.475,16.474V321.706z"/>
	<path fill="#8D8395" d="M582.458,307.693c0,9.1-7.375,16.474-16.475,16.474h-6.707c-9.098,0-16.475-7.374-16.475-16.474v-6.707
		c0-9.098,7.377-16.474,16.475-16.474h6.707c9.1,0,16.475,7.376,16.475,16.474V307.693z"/>
	<polygon fill="#7E7686" points="465.194,449.58 426.068,449.58 429.25,417.475 461.667,417.475 	"/>
	<rect x="426.068" y="449.58" fill="#8D8395" width="39.126" height="13.725"/>
	<path opacity="0.3" fill="#2F303D" stroke="#2E303D" stroke-width="4" stroke-miterlimit="10" d="M507.22,357.956
		c0,27.869-30.004,56.616-60.197,56.616c-33.135,0-59.791-28.747-59.791-56.616c0-27.871,26.86-50.464,59.996-50.464
		C480.36,307.492,507.22,330.085,507.22,357.956z"/>
	<circle fill="#2F303D" stroke="#F1F2F2" stroke-width="4" stroke-miterlimit="10" cx="447.225" cy="332.601" r="70.824"/>
	<circle fill="#DCDADA" cx="449.217" cy="334.591" r="5.87"/>
	<path opacity="0.3" fill="#2F303D" stroke="#2E303D" stroke-width="4" stroke-miterlimit="10" d="M572.817,382.405
		c0,9.491-10.221,19.75-20.504,19.75c-11.283,0-20.363-10.259-20.363-19.75c0-9.492,9.148-17.188,20.432-17.188
		C563.669,365.218,572.817,372.913,572.817,382.405z"/>
	<polygon fill="#DCDADA" points="600.085,611.556 298.347,611.556 322.892,508.63 572.88,508.63 	"/>
	<polygon fill="#418787" points="568.327,568.329 330.142,568.329 342.375,508.63 553.808,508.63 	"/>
</g>
</svg>
