<?xml version="1.0" encoding="utf-8"?>
<!-- Generator: Adobe Illustrator 16.0.0, SVG Export Plug-In . SVG Version: 6.00 Build 0)  -->
<!DOCTYPE svg PUBLIC "-//W3C//DTD SVG 1.1//EN" "http://www.w3.org/Graphics/SVG/1.1/DTD/svg11.dtd">
<svg version="1.1" id="Layer_1" xmlns="http://www.w3.org/2000/svg" xmlns:xlink="http://www.w3.org/1999/xlink" x="0px" y="0px"
	 width="2368.934px" height="561.995px" viewBox="0 0 2368.934 561.995" enable-background="new 0 0 2368.934 561.995"
	 xml:space="preserve">
<rect x="321.478" y="-648.167" fill="#7B875D" width="21.069" height="375.712"/>
<g>
	<defs>
		<rect id="SVGID_1_" x="-6" width="2382.077" height="561.995"/>
	</defs>
	<clipPath id="SVGID_2_">
		<use xlink:href="#SVGID_1_"  overflow="visible"/>
	</clipPath>
	<circle clip-path="url(#SVGID_2_)" fill-rule="evenodd" clip-rule="evenodd" fill="#A1BCBF" cx="1010.765" cy="422.69" r="112"/>
	<circle clip-path="url(#SVGID_2_)" fill-rule="evenodd" clip-rule="evenodd" fill="#414042" cx="83.154" cy="178.073" r="112"/>
	<circle clip-path="url(#SVGID_2_)" fill-rule="evenodd" clip-rule="evenodd" fill="#414042" cx="269.483" cy="94.073" r="112"/>
	<circle clip-path="url(#SVGID_2_)" fill-rule="evenodd" clip-rule="evenodd" fill="#414042" cx="674.765" cy="66.073" r="112"/>
	<circle clip-path="url(#SVGID_2_)" fill-rule="evenodd" clip-rule="evenodd" fill="#414042" cx="468.072" cy="146.034" r="112"/>
	<circle clip-path="url(#SVGID_2_)" fill-rule="evenodd" clip-rule="evenodd" fill="#414042" cx="898.765" cy="146.034" r="112"/>
	<circle clip-path="url(#SVGID_2_)" fill-rule="evenodd" clip-rule="evenodd" fill="#414042" cx="1096.821" cy="112" r="112"/>
	<circle clip-path="url(#SVGID_2_)" fill-rule="evenodd" clip-rule="evenodd" fill="#414042" cx="1299.629" cy="50.073" r="112"/>
	<circle clip-path="url(#SVGID_2_)" fill-rule="evenodd" clip-rule="evenodd" fill="#414042" cx="1494.154" cy="112" r="112"/>
	<circle clip-path="url(#SVGID_2_)" fill-rule="evenodd" clip-rule="evenodd" fill="#414042" cx="1681.885" cy="66.073" r="112"/>
	<circle clip-path="url(#SVGID_2_)" fill-rule="evenodd" clip-rule="evenodd" fill="#414042" cx="1874.154" cy="112" r="112"/>
	<circle clip-path="url(#SVGID_2_)" fill-rule="evenodd" clip-rule="evenodd" fill="#414042" cx="2058.154" cy="146.034" r="112"/>
	<circle clip-path="url(#SVGID_2_)" fill-rule="evenodd" clip-rule="evenodd" fill="#414042" cx="2264.077" cy="112" r="112"/>
	<circle clip-path="url(#SVGID_2_)" fill-rule="evenodd" clip-rule="evenodd" fill="#414042" cx="356.072" cy="370.034" r="112"/>
	<circle clip-path="url(#SVGID_2_)" fill-rule="evenodd" clip-rule="evenodd" fill="#414042" cx="828.072" cy="298.524" r="112"/>
	<circle clip-path="url(#SVGID_2_)" fill-rule="evenodd" clip-rule="evenodd" fill="#414042" cx="1681.885" cy="206.073" r="112"/>
	<circle clip-path="url(#SVGID_2_)" fill-rule="evenodd" clip-rule="evenodd" fill="#859C9F" cx="106" cy="370.034" r="112"/>
	<circle clip-path="url(#SVGID_2_)" fill-rule="evenodd" clip-rule="evenodd" fill="#414042" cx="1382.154" cy="274.073" r="112"/>
	<circle clip-path="url(#SVGID_2_)" fill-rule="evenodd" clip-rule="evenodd" fill="#414042" cx="1930.98" cy="386.073" r="112"/>
	<circle clip-path="url(#SVGID_2_)" fill-rule="evenodd" clip-rule="evenodd" fill="#A1BCBF" cx="1762.154" cy="224" r="112"/>
	<circle clip-path="url(#SVGID_2_)" fill-rule="evenodd" clip-rule="evenodd" fill="#414042" cx="2322.154" cy="402.073" r="112"/>
	<circle clip-path="url(#SVGID_2_)" fill-rule="evenodd" clip-rule="evenodd" fill="#859C9F" cx="1538.656" cy="386.073" r="112"/>
	<circle clip-path="url(#SVGID_2_)" fill-rule="evenodd" clip-rule="evenodd" fill="#859C9F" cx="526.772" cy="402.073" r="112"/>
	<circle clip-path="url(#SVGID_2_)" fill-rule="evenodd" clip-rule="evenodd" fill="#414042" cx="1293.791" cy="162.073" r="112"/>
	<circle clip-path="url(#SVGID_2_)" fill-rule="evenodd" clip-rule="evenodd" fill="#859C9F" cx="1096.821" cy="241.31" r="112"/>
	<g clip-path="url(#SVGID_2_)">
		<path fill="#DCDADA" d="M1316.663,359.071c0,0-28.136,90.792-134.373,90.69c-103.4-0.1-134.376-90.69-134.376-90.69
			s38.809-90.774,134.376-90.69C1289.606,268.474,1316.663,359.071,1316.663,359.071z"/>
		<circle fill="#A1BCBF" cx="1182.289" cy="359.071" r="78.818"/>
		<circle fill="#414042" cx="1182.29" cy="359.071" r="33.475"/>
	</g>
	<circle clip-path="url(#SVGID_2_)" fill-rule="evenodd" clip-rule="evenodd" fill="#414042" cx="786.765" cy="206.073" r="112"/>
	<circle clip-path="url(#SVGID_2_)" fill-rule="evenodd" clip-rule="evenodd" fill="#A1BCBF" cx="662.181" cy="212.262" r="112"/>
	<circle clip-path="url(#SVGID_2_)" fill-rule="evenodd" clip-rule="evenodd" fill="#414042" cx="301.514" cy="253.183" r="112"/>
	<circle clip-path="url(#SVGID_2_)" fill-rule="evenodd" clip-rule="evenodd" fill="#A1BCBF" cx="244.072" cy="234" r="112"/>
	<circle clip-path="url(#SVGID_2_)" fill-rule="evenodd" clip-rule="evenodd" fill="#414042" cx="2210.154" cy="274.073" r="112"/>
	<circle clip-path="url(#SVGID_2_)" fill-rule="evenodd" clip-rule="evenodd" fill="#859C9F" cx="2082.154" cy="274.073" r="112"/>
	<circle clip-path="url(#SVGID_2_)" fill-rule="evenodd" clip-rule="evenodd" fill="#A1BCBF" cx="2376.077" cy="241.31" r="112"/>
</g>
<rect x="-6" fill="#414042" width="2382.077" height="188.923"/>
<path fill="#C4A7A7" d="M490.019-775.292c0,87.265-70.742,158.007-158.007,158.007c-87.265,0-158.007-70.742-158.007-158.007
	c0-40.453,41.297-136.46,41.297-136.46L272.76-800.43l59.252-132.87l53.866,131.074l51.093-105.484
	C436.972-907.709,490.019-820.368,490.019-775.292z"/>
<path fill="#7B875D" d="M487.629-510.228c0,0-52.955,60.707-86.482,60.707c-33.528,0-60.707-27.179-60.707-60.707
	c0-33.527,27.179-60.707,60.707-60.707C434.674-570.934,487.629-510.228,487.629-510.228z"/>
<path fill="#7B875D" d="M177.098-510.227c0,0,52.955-60.707,86.482-60.707c33.528,0,60.707,27.179,60.707,60.707
	c0,33.527-27.179,60.707-60.707,60.707C230.052-449.521,177.098-510.227,177.098-510.227z"/>
<rect x="1212.755" y="-535.356" fill="#7B875D" width="11.689" height="208.459"/>
<path fill="#C4A7A7" d="M1306.268-605.89c0,48.418-39.25,87.668-87.667,87.668c-48.418,0-87.668-39.25-87.668-87.668
	c0-22.444,22.913-75.713,22.913-75.713l31.879,61.766l32.876-73.721l29.886,72.725l28.35-58.527
	C1276.836-679.359,1306.268-630.899,1306.268-605.89z"/>
<path fill="#7B875D" d="M1301.666-458.822c0,0-29.381,33.683-47.983,33.683s-33.682-15.08-33.682-33.683
	c0-18.602,15.079-33.682,33.682-33.682S1301.666-458.822,1301.666-458.822z"/>
<path fill="#7B875D" d="M1134.932-458.822c0,0,29.381-33.682,47.983-33.682s33.682,15.08,33.682,33.682
	c0,18.603-15.08,33.683-33.682,33.683S1134.932-458.822,1134.932-458.822z"/>
<g id="IWOk00.tif_1_">
	<g>
		<path fill-rule="evenodd" clip-rule="evenodd" fill="#98A372" d="M566.328-1087.324c7.62,16.474,14.907,32.388,22.333,48.237
			c6.407,13.67,12.896,27.304,19.492,40.885c8.698,17.909,2.404,39.474-15.322,52.011c-15.469,10.944-37.648,9.076-50.876-4.628
			c-10.442-10.819-14.007-24.112-9.451-38.225c10.433-32.311,21.801-64.318,32.8-96.446
			C565.455-1085.925,565.757-1086.31,566.328-1087.324z"/>
		<path fill-rule="evenodd" clip-rule="evenodd" fill="#98A372" d="M634.77-1156.644c7.563-2.645,14.462-5.069,21.37-7.472
			c23.837-8.29,47.725-16.442,71.5-24.907c16.611-5.913,34.787-0.713,45.713,13.545c10.132,13.225,10.144,32.898,0.025,46.758
			c-13.23,18.119-35.696,22.119-55.379,10.991c-11.629-6.576-24.199-11.49-36.364-17.111c-14.363-6.636-28.747-13.225-43.115-19.848
			C637.462-1155.173,636.452-1155.761,634.77-1156.644z"/>
		<path fill-rule="evenodd" clip-rule="evenodd" fill="#C4A7A7" d="M606.125-1048.964c-5.567-5.566-10.924-10.923-16.489-16.488
			c21.771-21.771,43.425-43.425,65.272-65.272c5.475,5.475,10.893,10.893,16.489,16.489
			C649.727-1092.566,628.051-1070.89,606.125-1048.964z"/>
		<path fill-rule="evenodd" clip-rule="evenodd" fill="#C4A7A7" d="M689.255-1096.499c5.273,5.273,10.365,10.365,15.678,15.678
			c-21.786,21.786-43.439,43.439-65.259,65.259c-5.285-5.286-10.378-10.378-15.678-15.677
			C645.69-1052.933,667.34-1074.584,689.255-1096.499z"/>
		<path fill-rule="evenodd" clip-rule="evenodd" fill="#C4A7A7" d="M721.383-1060.68c3.971,2.947,6.731,6.494,7.061,11.608
			c0.453,7.026-1.8,13.405-5.086,19.373c-8.023,14.573-19.343,25.921-34.497,32.968c-4.39,2.042-9.381,3.12-14.216,3.798
			c-5.854,0.82-10.466-1.988-14.069-6.941C680.814-1020.11,701.002-1040.299,721.383-1060.68z"/>
		<path fill-rule="evenodd" clip-rule="evenodd" fill="#A1BCBF" d="M568.023-1151.52c9.246,9.379,9.037,24.167-0.473,33.454
			c-9.549,9.326-24.273,9.3-33.499-0.06c-9.188-9.322-8.971-24.325,0.482-33.523C544.106-1160.962,558.771-1160.906,568.023-1151.52
			z"/>
		<path fill-rule="evenodd" clip-rule="evenodd" fill="#A1BCBF" d="M570.586-1154.646c-9.157-9.28-8.927-24.286,0.512-33.547
			c9.311-9.134,24.43-9.248,33.336-0.252c9.368,9.462,9.22,24.349-0.335,33.837C594.712-1145.287,579.804-1145.304,570.586-1154.646
			z"/>
		<path fill-rule="evenodd" clip-rule="evenodd" fill="#C4A7A7" d="M635.025-1148.686c-21.166,21.166-41.237,41.237-61.527,61.528
			c-3.013-1.584-4.565-4.474-4.604-7.526c-0.06-4.511-0.159-9.409,1.433-13.491c8.197-21.025,22.944-35.745,44.346-43.302
			c3.404-1.202,7.418-1.45,11.028-1.046C628.663-1152.191,631.442-1150.234,635.025-1148.686z"/>
	</g>
</g>
<g id="IWOk00.tif_2_">
	<g>
		<path fill-rule="evenodd" clip-rule="evenodd" fill="#98A372" d="M1268.51-899.444c-11.457,5.299-22.526,10.367-33.549,15.533
			c-9.508,4.456-18.99,8.969-28.437,13.556c-12.456,6.049-27.454,1.672-36.174-10.656c-7.611-10.759-6.312-26.184,3.219-35.384
			c7.524-7.263,16.77-9.742,26.585-6.573c22.472,7.256,44.733,15.163,67.077,22.813
			C1267.537-900.051,1267.805-899.841,1268.51-899.444z"/>
		<path fill-rule="evenodd" clip-rule="evenodd" fill="#98A372" d="M1316.722-851.843c1.839,5.26,3.525,10.059,5.196,14.862
			c5.767,16.58,11.436,33.193,17.322,49.729c4.113,11.554,0.497,24.195-9.42,31.793c-9.197,7.048-22.88,7.055-32.52,0.018
			c-12.604-9.202-15.385-24.827-7.645-38.517c4.572-8.089,7.99-16.831,11.9-25.292c4.614-9.99,9.197-19.993,13.803-29.986
			C1315.698-849.971,1316.108-850.673,1316.722-851.843z"/>
		<path fill-rule="evenodd" clip-rule="evenodd" fill="#C4A7A7" d="M1241.83-871.765c3.872-3.872,7.598-7.597,11.469-11.468
			c15.141,15.141,30.201,30.201,45.396,45.397c-3.808,3.808-7.575,7.576-11.468,11.468
			C1272.156-841.439,1257.079-856.516,1241.83-871.765z"/>
		<path fill-rule="evenodd" clip-rule="evenodd" fill="#C4A7A7" d="M1274.891-813.948c-3.667,3.667-7.208,7.208-10.903,10.904
			c-15.153-15.153-30.213-30.212-45.388-45.388c3.676-3.676,7.219-7.218,10.903-10.904
			C1244.591-844.249,1259.649-829.19,1274.891-813.948z"/>
		<path fill-rule="evenodd" clip-rule="evenodd" fill="#C4A7A7" d="M1249.979-791.603c-2.051,2.761-4.518,4.681-8.074,4.911
			c-4.886,0.315-9.323-1.252-13.474-3.538c-10.137-5.581-18.029-13.454-22.93-23.992c-1.42-3.053-2.171-6.525-2.643-9.887
			c-0.569-4.072,1.383-7.28,4.828-9.785C1221.763-819.819,1235.804-805.778,1249.979-791.603z"/>
		<path fill-rule="evenodd" clip-rule="evenodd" fill="#A1BCBF" d="M1313.158-898.266c-6.523,6.431-16.808,6.286-23.268-0.329
			c-6.486-6.642-6.468-16.882,0.042-23.298c6.482-6.39,16.918-6.239,23.314,0.335C1319.725-914.899,1319.686-904.7,1313.158-898.266
			z"/>
		<path fill-rule="evenodd" clip-rule="evenodd" fill="#A1BCBF" d="M1315.332-896.482c6.455-6.369,16.892-6.209,23.333,0.355
			c6.353,6.475,6.432,16.992,0.176,23.186c-6.581,6.516-16.935,6.412-23.534-0.233
			C1308.823-879.703,1308.835-890.073,1315.332-896.482z"/>
		<path fill-rule="evenodd" clip-rule="evenodd" fill="#C4A7A7" d="M1311.187-851.666c-14.721-14.721-28.68-28.68-42.793-42.793
			c1.103-2.095,3.111-3.175,5.235-3.202c3.138-0.041,6.543-0.11,9.382,0.997c14.623,5.701,24.862,15.958,30.117,30.842
			c0.836,2.368,1.008,5.159,0.728,7.67C1313.625-856.091,1312.264-854.158,1311.187-851.666z"/>
	</g>
</g>
<rect x="-9.081" y="-341.056" fill="#414042" width="2388.239" height="126.239"/>
<g>
	<path fill="none" stroke="#414042" stroke-width="40" stroke-miterlimit="10" d="M-42-377.056c17.039,0,17.039,72,34.078,72
		c17.041,0,17.041-72,34.082-72c17.04,0,17.04,72,34.08,72c17.039,0,17.039-72,34.078-72c17.04,0,17.04,72,34.079,72
		c17.042,0,17.042-72,34.083-72c17.04,0,17.04,72,34.079,72c17.039,0,17.039-72,34.078-72c17.041,0,17.041,72,34.082,72
		c17.041,0,17.041-72,34.081-72c17.039,0,17.039,72,34.079,72c17.041,0,17.041-72,34.081-72s17.041,72,34.082,72
		c17.04,0,17.04-72,34.079-72c17.041,0,17.041,72,34.082,72s17.041-72,34.081-72c17.04,0,17.04,72,34.08,72
		c17.042,0,17.042-72,34.083-72c17.04,0,17.04,72,34.081,72s17.041-72,34.081-72c17.041,0,17.041,72,34.082,72
		c17.041,0,17.041-72,34.081-72c17.042,0,17.042,72,34.084,72c17.04,0,17.04-72,34.081-72c17.042,0,17.042,72,34.084,72
		c17.041,0,17.041-72,34.081-72c17.042,0,17.042,72,34.083,72c17.041,0,17.041-72,34.082-72c17.042,0,17.042,72,34.084,72
		c17.041,0,17.041-72,34.082-72c17.042,0,17.042,72,34.084,72c17.041,0,17.041-72,34.082-72s17.041,72,34.083,72
		c17.042,0,17.042-72,34.084-72c17.041,0,17.041,72,34.082,72c17.042,0,17.042-72,34.083-72c17.042,0,17.042,72,34.085,72
		c17.042,0,17.042-72,34.084-72c17.041,0,17.041,72,34.082,72s17.041-72,34.083-72s17.042,72,34.084,72s17.042-72,34.085-72
		s17.043,72,34.085,72c17.043,0,17.043-72,34.086-72c17.042,0,17.042,72,34.085,72c17.042,0,17.042-72,34.084-72
		s17.042,72,34.084,72c17.041,0,17.041-72,34.081-72s17.04,72,34.079,72c17.041,0,17.041-72,34.082-72c17.043,0,17.043,72,34.085,72
		s17.042-72,34.083-72s17.041,72,34.081,72c17.041,0,17.041-72,34.082-72c17.042,0,17.042,72,34.083,72s17.041-72,34.083-72
		c17.044,0,17.044,72,34.088,72c17.042,0,17.042-72,34.085-72s17.043,72,34.086,72c17.042,0,17.042-72,34.084-72
		c17.043,0,17.043,72,34.086,72s17.043-72,34.086-72c17.044,0,17.044,72,34.088,72c17.045,0,17.045-72,34.089-72
		c17.042,0,17.042,72,34.084,72s17.042-72,34.084-72c17.044,0,17.044,72,34.089,72s17.045-72,34.089-72c17.045,0,17.045,72,34.09,72
		s17.045-72,34.09-72c17.048,0,17.048,72,34.095,72s17.047-72,34.094-72"/>
</g>
<g id="IWOk00.tif_3_">
	<g>
		<path fill-rule="evenodd" clip-rule="evenodd" fill="#98A372" d="M1945.55-797.627c5.456,6.169,10.694,12.139,15.986,18.062
			c4.564,5.108,9.159,10.19,13.793,15.235c6.112,6.653,6.183,16.846,0.11,24.604c-5.301,6.77-15.184,8.845-22.718,4.609
			c-5.947-3.344-9.228-8.658-9.083-15.386c0.329-15.403,1.104-30.796,1.705-46.193
			C1945.352-796.905,1945.433-797.112,1945.55-797.627z"/>
		<path fill-rule="evenodd" clip-rule="evenodd" fill="#98A372" d="M1966.278-836.667c2.943-2.134,5.627-4.086,8.316-6.029
			c9.282-6.706,18.606-13.359,27.838-20.132c6.452-4.732,15.029-4.838,21.635-0.062c6.126,4.43,8.69,12.98,6.097,20.322
			c-3.394,9.598-12.639,14.262-22.643,11.985c-5.91-1.345-12.014-1.845-18.034-2.704c-7.107-1.016-14.218-2.008-21.325-3.017
			C1967.64-836.379,1967.123-836.502,1966.278-836.667z"/>
		<path fill-rule="evenodd" clip-rule="evenodd" fill="#C4A7A7" d="M1967.841-786.132c-3.144-1.695-6.169-3.327-9.312-5.021
			c6.629-12.297,13.224-24.529,19.877-36.869c3.093,1.667,6.152,3.317,9.314,5.021
			C1981.12-810.76,1974.519-798.517,1967.841-786.132z"/>
		<path fill-rule="evenodd" clip-rule="evenodd" fill="#C4A7A7" d="M1997.79-817.615c2.979,1.605,5.854,3.156,8.856,4.775
			c-6.635,12.306-13.229,24.537-19.874,36.861c-2.986-1.61-5.862-3.16-8.856-4.774
			C1984.523-793.007,1991.117-805.236,1997.79-817.615z"/>
		<path fill-rule="evenodd" clip-rule="evenodd" fill="#C4A7A7" d="M2016.418-806.227c2.11,0.765,3.771,1.947,4.58,4.127
			c1.111,2.995,0.963,6.061,0.311,9.083c-1.591,7.379-5.033,13.785-10.703,18.82c-1.644,1.459-3.672,2.578-5.687,3.501
			c-2.438,1.119-4.808,0.499-7.019-1.186C2004.063-783.311,2010.212-794.714,2016.418-806.227z"/>
		<path fill-rule="evenodd" clip-rule="evenodd" fill="#A1BCBF" d="M1937.932-825.753c5.24,2.875,7.072,9.329,4.148,14.604
			c-2.938,5.297-9.342,7.202-14.569,4.334c-5.207-2.856-7.066-9.406-4.155-14.635
			C1926.305-826.744,1932.688-828.629,1937.932-825.753z"/>
		<path fill-rule="evenodd" clip-rule="evenodd" fill="#A1BCBF" d="M1938.638-827.445c-5.188-2.843-7.041-9.395-4.144-14.65
			c2.858-5.182,9.415-7.199,14.459-4.448c5.303,2.893,7.177,9.384,4.258,14.752C1950.344-826.518,1943.859-824.584,1938.638-827.445
			z"/>
		<path fill-rule="evenodd" clip-rule="evenodd" fill="#C4A7A7" d="M1967.426-833.241c-6.447,11.955-12.56,23.292-18.738,34.753
			c-1.516-0.297-2.566-1.35-2.981-2.672c-0.613-1.954-1.293-4.07-1.133-6.051c0.827-10.207,5.321-18.524,13.641-24.595
			c1.322-0.965,3.036-1.596,4.658-1.89C1964.203-833.937,1965.666-833.448,1967.426-833.241z"/>
	</g>
</g>
<rect x="-6" fill="#414042" width="2382.077" height="188.923"/>
</svg>
