<?xml version="1.0" encoding="utf-8"?>
<!-- Generator: Adobe Illustrator 16.0.0, SVG Export Plug-In . SVG Version: 6.00 Build 0)  -->
<!DOCTYPE svg PUBLIC "-//W3C//DTD SVG 1.1//EN" "http://www.w3.org/Graphics/SVG/1.1/DTD/svg11.dtd">
<svg version="1.1" id="Layer_1" xmlns="http://www.w3.org/2000/svg" xmlns:xlink="http://www.w3.org/1999/xlink" x="0px" y="0px"
	 width="2372.576px" height="534.014px" viewBox="0 0 2372.576 534.014" enable-background="new 0 0 2372.576 534.014"
	 xml:space="preserve">
<g>
	<defs>
		<rect id="SVGID_1_" x="-2" y="-27.981" width="2382.077" height="561.995"/>
	</defs>
	<clipPath id="SVGID_2_">
		<use xlink:href="#SVGID_1_"  overflow="visible"/>
	</clipPath>
	<circle clip-path="url(#SVGID_2_)" fill-rule="evenodd" clip-rule="evenodd" fill="#98A372" cx="1014.765" cy="394.709" r="112"/>
	<circle clip-path="url(#SVGID_2_)" fill-rule="evenodd" clip-rule="evenodd" fill="#414042" cx="87.154" cy="150.092" r="112"/>
	<circle clip-path="url(#SVGID_2_)" fill-rule="evenodd" clip-rule="evenodd" fill="#414042" cx="273.483" cy="66.092" r="112"/>
	<circle clip-path="url(#SVGID_2_)" fill-rule="evenodd" clip-rule="evenodd" fill="#414042" cx="678.765" cy="38.092" r="112"/>
	<circle clip-path="url(#SVGID_2_)" fill-rule="evenodd" clip-rule="evenodd" fill="#414042" cx="472.072" cy="118.053" r="112"/>
	<circle clip-path="url(#SVGID_2_)" fill-rule="evenodd" clip-rule="evenodd" fill="#414042" cx="902.765" cy="118.053" r="112"/>
	<circle clip-path="url(#SVGID_2_)" fill-rule="evenodd" clip-rule="evenodd" fill="#414042" cx="1100.821" cy="84.019" r="112"/>
	<circle clip-path="url(#SVGID_2_)" fill-rule="evenodd" clip-rule="evenodd" fill="#414042" cx="1303.629" cy="22.092" r="112"/>
	<circle clip-path="url(#SVGID_2_)" fill-rule="evenodd" clip-rule="evenodd" fill="#414042" cx="1498.154" cy="84.019" r="112"/>
	<circle clip-path="url(#SVGID_2_)" fill-rule="evenodd" clip-rule="evenodd" fill="#414042" cx="1685.885" cy="38.092" r="112"/>
	<circle clip-path="url(#SVGID_2_)" fill-rule="evenodd" clip-rule="evenodd" fill="#414042" cx="1878.154" cy="84.019" r="112"/>
	<circle clip-path="url(#SVGID_2_)" fill-rule="evenodd" clip-rule="evenodd" fill="#414042" cx="2062.154" cy="118.053" r="112"/>
	<circle clip-path="url(#SVGID_2_)" fill-rule="evenodd" clip-rule="evenodd" fill="#414042" cx="2268.077" cy="84.019" r="112"/>
	<circle clip-path="url(#SVGID_2_)" fill-rule="evenodd" clip-rule="evenodd" fill="#414042" cx="360.072" cy="342.053" r="112"/>
	<circle clip-path="url(#SVGID_2_)" fill-rule="evenodd" clip-rule="evenodd" fill="#414042" cx="832.072" cy="270.543" r="112"/>
	<circle clip-path="url(#SVGID_2_)" fill-rule="evenodd" clip-rule="evenodd" fill="#414042" cx="1685.885" cy="178.092" r="112"/>
	<circle clip-path="url(#SVGID_2_)" fill-rule="evenodd" clip-rule="evenodd" fill="#7B875D" cx="110" cy="342.053" r="112"/>
	<circle clip-path="url(#SVGID_2_)" fill-rule="evenodd" clip-rule="evenodd" fill="#414042" cx="1386.154" cy="246.092" r="112"/>
	<circle clip-path="url(#SVGID_2_)" fill-rule="evenodd" clip-rule="evenodd" fill="#414042" cx="1934.98" cy="358.092" r="112"/>
	<circle clip-path="url(#SVGID_2_)" fill-rule="evenodd" clip-rule="evenodd" fill="#98A372" cx="1766.154" cy="196.019" r="112"/>
	<circle clip-path="url(#SVGID_2_)" fill-rule="evenodd" clip-rule="evenodd" fill="#414042" cx="2326.154" cy="374.092" r="112"/>
	<circle clip-path="url(#SVGID_2_)" fill-rule="evenodd" clip-rule="evenodd" fill="#7B875D" cx="1542.656" cy="358.092" r="112"/>
	<circle clip-path="url(#SVGID_2_)" fill-rule="evenodd" clip-rule="evenodd" fill="#7B875D" cx="530.772" cy="374.092" r="112"/>
	<circle clip-path="url(#SVGID_2_)" fill-rule="evenodd" clip-rule="evenodd" fill="#414042" cx="1297.791" cy="134.092" r="112"/>
	<circle clip-path="url(#SVGID_2_)" fill-rule="evenodd" clip-rule="evenodd" fill="#7B875D" cx="1100.821" cy="213.328" r="112"/>
	<g clip-path="url(#SVGID_2_)">
		<path fill="#DCDADA" d="M1320.663,331.09c0,0-28.136,90.792-134.373,90.69c-103.4-0.1-134.376-90.69-134.376-90.69
			s38.809-90.774,134.376-90.69C1293.606,240.492,1320.663,331.09,1320.663,331.09z"/>
		<circle fill="#98A372" cx="1186.289" cy="331.09" r="78.818"/>
		<circle fill="#414042" cx="1186.29" cy="331.09" r="33.475"/>
	</g>
	<circle clip-path="url(#SVGID_2_)" fill-rule="evenodd" clip-rule="evenodd" fill="#414042" cx="790.765" cy="178.092" r="112"/>
	<circle clip-path="url(#SVGID_2_)" fill-rule="evenodd" clip-rule="evenodd" fill="#98A372" cx="666.181" cy="184.28" r="112"/>
	<circle clip-path="url(#SVGID_2_)" fill-rule="evenodd" clip-rule="evenodd" fill="#414042" cx="305.514" cy="225.201" r="112"/>
	<circle clip-path="url(#SVGID_2_)" fill-rule="evenodd" clip-rule="evenodd" fill="#98A372" cx="248.072" cy="206.019" r="112"/>
	<circle clip-path="url(#SVGID_2_)" fill-rule="evenodd" clip-rule="evenodd" fill="#414042" cx="2214.154" cy="246.092" r="112"/>
	<circle clip-path="url(#SVGID_2_)" fill-rule="evenodd" clip-rule="evenodd" fill="#7B875D" cx="2086.154" cy="246.092" r="112"/>
	<circle clip-path="url(#SVGID_2_)" fill-rule="evenodd" clip-rule="evenodd" fill="#98A372" cx="2380.077" cy="213.328" r="112"/>
</g>
<rect x="-2" y="-27.981" fill="#414042" width="2382.077" height="188.923"/>
</svg>
