<?xml version="1.0" encoding="utf-8"?>
<!-- Generator: Adobe Illustrator 16.0.0, SVG Export Plug-In . SVG Version: 6.00 Build 0)  -->
<!DOCTYPE svg PUBLIC "-//W3C//DTD SVG 1.1//EN" "http://www.w3.org/Graphics/SVG/1.1/DTD/svg11.dtd">
<svg version="1.1" id="Layer_1" xmlns:sketch="http://www.bohemiancoding.com/sketch/ns"
	 xmlns="http://www.w3.org/2000/svg" xmlns:xlink="http://www.w3.org/1999/xlink" x="0px" y="0px" width="140px" height="140px"
	 viewBox="0 0 140 140" enable-background="new 0 0 140 140" xml:space="preserve">
<title>clear</title>
<desc>Created with Sketch.</desc>
<g id="Page-1" sketch:type="MSPage">
	<g id="Sun" sketch:type="MSLayerGroup">
		<g id="Layer_1_1_" sketch:type="MSShapeGroup">
			<path id="clear" fill="#CECCCD" d="M134.16,75.828h-11.662c-3.223,0-5.834-2.611-5.834-5.831c0-3.22,2.611-5.834,5.834-5.834
				h11.662c3.223,0,5.834,2.614,5.834,5.834C139.994,73.217,137.387,75.828,134.16,75.828L134.16,75.828z M111.248,37.001
				c-2.278,2.278-5.977,2.278-8.249,0c-2.278-2.278-2.278-5.971,0-8.249l8.249-8.249c2.271-2.278,5.971-2.278,8.249,0
				c2.272,2.278,2.272,5.971,0,8.249L111.248,37.001L111.248,37.001z M70,104.994c-19.331,0-35.003-15.67-35.003-34.997
				c0-19.331,15.669-35,35.003-35c19.33,0,34.997,15.669,34.997,35C104.997,89.324,89.33,104.994,70,104.994L70,104.994z M70,46.665
				c-12.887,0-23.335,10.446-23.335,23.333c0,12.884,10.451,23.332,23.335,23.332c12.884,0,23.329-10.448,23.329-23.332
				C93.329,57.11,82.887,46.665,70,46.665L70,46.665z M70,23.333c-3.223,0-5.834-2.614-5.834-5.834V5.834
				C64.166,2.613,66.777,0,70,0c3.221,0,5.834,2.613,5.834,5.834v11.665C75.834,20.719,73.217,23.333,70,23.333L70,23.333z
				 M28.752,37.001l-8.249-8.249c-2.278-2.278-2.278-5.971,0-8.249s5.971-2.278,8.249,0l8.249,8.249
				c2.278,2.278,2.278,5.971,0,8.249S31.03,39.279,28.752,37.001L28.752,37.001z M23.333,69.997c0,3.22-2.614,5.831-5.834,5.831
				H5.831C2.611,75.828,0,73.217,0,69.997c0-3.22,2.614-5.834,5.831-5.834h11.667C20.722,64.163,23.333,66.777,23.333,69.997
				L23.333,69.997z M28.752,102.993c2.278-2.275,5.971-2.275,8.249,0c2.278,2.278,2.278,5.974,0,8.249l-8.249,8.249
				c-2.278,2.278-5.971,2.278-8.249,0c-2.278-2.275-2.278-5.972,0-8.249L28.752,102.993L28.752,102.993z M70,116.662
				c3.221,0,5.834,2.61,5.834,5.83v11.668c0,3.221-2.613,5.834-5.834,5.834c-3.223,0-5.834-2.613-5.834-5.834v-11.668
				C64.166,119.272,66.777,116.662,70,116.662L70,116.662z M111.248,102.993l8.249,8.249c2.272,2.277,2.272,5.974,0,8.249
				c-2.278,2.278-5.978,2.278-8.249,0l-8.249-8.249c-2.278-2.275-2.278-5.971,0-8.249
				C105.271,100.715,108.967,100.715,111.248,102.993L111.248,102.993z"/>
		</g>
	</g>
</g>
</svg>
