<?xml version="1.0" encoding="utf-8"?>
<!-- Generator: Adobe Illustrator 16.0.0, SVG Export Plug-In . SVG Version: 6.00 Build 0)  -->
<!DOCTYPE svg PUBLIC "-//W3C//DTD SVG 1.1//EN" "http://www.w3.org/Graphics/SVG/1.1/DTD/svg11.dtd">
<svg version="1.1" id="Layer_1" xmlns="http://www.w3.org/2000/svg" xmlns:xlink="http://www.w3.org/1999/xlink" x="0px" y="0px"
	 width="678px" height="200px" viewBox="0 0 678 200" enable-background="new 0 0 678 200" xml:space="preserve">
<g opacity="0.7">
	<path fill="#FCFCFC" d="M638.521,72.189c0.02-0.002,0.037-0.003,0.057-0.005C638.562,72.186,638.543,72.188,638.521,72.189z"/>
	<path fill="#FCFCFC" d="M638.521,72.189c-1.43,0.151-2.736,0.216-3.977,0.225c-0.186,0.009-0.373,0.017-0.559,0.025
		c-0.977-0.001-1.902-0.044-2.795-0.116c0.16-0.002,0.32-0.004,0.48-0.006c-0.146-0.012-0.283-0.021-0.422-0.033
		c-0.156,0.004-0.311,0.008-0.467,0.011c-0.008-0.001-0.02-0.001-0.029-0.002c-0.158,0.003-0.314,0.011-0.473,0.014
		c-0.061,0.002-0.121,0.003-0.182,0.004c0.209-0.004,0.416-0.014,0.625-0.018c0.176-0.004,0.35-0.009,0.525-0.013
		c-1.023-0.088-2.039-0.217-2.99-0.381c-0.16-0.005-0.322-0.012-0.482-0.016c-1.73-0.305-3.395-0.713-5.105-1.204
		c0.146,0.01,0.293,0.017,0.439,0.027c-1.205-0.339-2.422-0.717-3.711-1.126c-0.219-0.037-0.439-0.074-0.66-0.11
		c-0.318-0.103-0.633-0.202-0.961-0.308l0,0c-2.301-0.725-4.848-1.536-7.832-2.346c-1.127-0.27-2.27-0.542-3.404-0.813
		c0.156,0.024,0.311,0.046,0.465,0.07c-7.398-1.767-14.998-3.529-22.709-5.081c-0.18-0.037-0.359-0.077-0.541-0.114
		c-0.156-0.032-0.314-0.06-0.471-0.091c-0.615-0.122-1.225-0.253-1.84-0.372c-0.689-0.134-1.385-0.254-2.076-0.384
		c-1.256-0.239-2.514-0.474-3.775-0.698c-0.67-0.119-1.342-0.232-2.016-0.347c-1.641-0.282-3.283-0.556-4.93-0.814
		c-0.348-0.055-0.695-0.104-1.043-0.158c-3.65-0.56-7.311-1.078-10.982-1.519c-9.127-1.119-18.299-1.798-27.4-2.325
		c-9.105-0.447-18.141-0.891-26.992-1.326c0.023,0.015,0.049,0.028,0.074,0.043h-0.002c-0.025-0.015-0.051-0.028-0.074-0.043
		c-2.555-0.133-5.09-0.287-7.604-0.471c-15.684-0.504-31.354-0.756-47.004-0.995c-15.648-0.215-31.279-0.396-46.885-0.763
		c-22.77-0.453-45.482-1.339-68.118-2.807c-0.637-0.043-1.275-0.083-1.912-0.128c-7.579-0.473-15.149-1.083-22.716-1.715
		c-0.055-0.002-0.11-0.002-0.165-0.004c-0.115-0.01-0.231-0.018-0.346-0.028c-31.053-1.35-59.839,8.099-91.517,14.122
		c-3.384,0.332-6.644,0.443-9.828,0.408c-10.549-0.168-20.251-1.973-30.579-3.308c-0.096,0.013-0.191,0.023-0.286,0.037
		c-3.785-0.498-7.649-0.948-11.677-1.253c-22.976-2.192-44.389,2.607-65.915,6.919c-10.763,2.193-21.555,4.342-32.584,5.917
		c-11.03,1.603-22.298,2.617-34.014,3.076c-3.121,0.146-5.578,0.264-7.514,0.354c-1.884,0.063-3.181,0.038-3.985-0.022
		c-0.016,0-0.025,0-0.041,0c-0.129-0.004-0.234-0.005-0.31-0.004c0.048,0,0.11,0.002,0.177,0.005
		c-0.177,0.002-0.327,0.003-0.447,0.003c0.226,0.008,0.535,0.021,0.919,0.047c0.082,0.013,0.162,0.022,0.244,0.036
		c0.093,0.016,0.176,0.026,0.279,0.048c6.867,1.101,13.699,1.895,20.502,2.625c5.111,0.524,10.201,0.999,15.282,1.439
		c0.182,0.017,0.364,0.032,0.546,0.048c1.5,0.129,3.002,0.271,4.5,0.39c13.502,1.109,26.912,2.033,40.278,2.965
		c26.731,1.824,53.285,3.732,80.042,4.992c-0.024-0.01-0.049-0.02-0.073-0.029c16.483,0.748,33.045,1.16,49.773,0.892
		c0.018,0.018,0.034,0.034,0.052,0.052c6.759-0.1,13.535-0.307,20.34-0.67c19.019-0.854,37.691-1.246,56.107-1.065
		c8.948,0.081,17.834,0.318,26.671,0.689c0.519,0.021,1.039,0.043,1.557,0.066c2.539,0.111,5.073,0.235,7.604,0.368
		c1.857,0.098,3.715,0.195,5.566,0.306c1.315,0.077,2.628,0.161,3.941,0.244c24.553,1.577,48.768,4.19,72.855,7.196
		c0.038-0.015,0.075-0.028,0.112-0.044c0.001,0.001,0.003,0.001,0.005,0.001c0.453-0.183,0.901-0.348,1.354-0.526
		c-0.49,0.193-0.979,0.373-1.469,0.571c1.766,0.216,3.525,0.432,5.282,0.646c19.972,2.46,40.827,3.074,61.787,1.931
		c20.96-1.117,42.024-3.91,62.417-7.56c12.633-2.762,25.367-5.944,38.439-8.454c0.947-0.187,1.902-0.363,2.854-0.543
		c0.115-0.011,0.232-0.023,0.346-0.035c6.111-1.14,12.299-2.203,18.584-3.15c3.854-0.574,7.758-1.156,11.691-1.741
		c2.318-0.344,4.629-0.687,6.98-1.034c0.076-0.014,0.135-0.023,0.209-0.036c0.1-0.015,0.199-0.03,0.301-0.045
		C637.695,72.322,638.283,72.213,638.521,72.189z M628.656,72.354c-8.605,0.21-17.201,0.66-25.832,1.263
		c-0.008,0.001-0.016,0.001-0.023,0.001c8.615-0.604,17.197-1.053,25.787-1.264C628.611,72.354,628.633,72.354,628.656,72.354z
		 M545.096,81.004c-0.055,0.019-0.107,0.033-0.162,0.052c0.029-0.01,0.061-0.021,0.09-0.031c0.211-0.07,0.43-0.147,0.646-0.223
		c0.219-0.075,0.43-0.146,0.654-0.226c-0.4,0.144-0.793,0.28-1.174,0.409C545.133,80.991,545.113,80.998,545.096,81.004z
		 M510.371,57.116c-0.004-0.002-0.01-0.004-0.014-0.007c0.357,0.16,0.725,0.304,1.086,0.459c-0.205-0.088-0.412-0.171-0.617-0.26
		C510.676,57.242,510.521,57.183,510.371,57.116z M553.307,78.13c2.807-0.854,5.736-1.491,8.568-1.537
		c4.186-0.207,8.336-0.487,12.477-0.789c0,0.001,0,0.001,0,0.001c-4.139,0.302-8.291,0.582-12.475,0.789
		c-2.854,0.045-5.805,0.691-8.631,1.555C553.268,78.143,553.285,78.136,553.307,78.13z M509.201,56.565
		c-0.348-0.162-0.695-0.323-1.039-0.49c0.189,0.092,0.383,0.179,0.572,0.27c0.348,0.165,0.691,0.332,1.041,0.491
		C509.582,56.748,509.393,56.655,509.201,56.565z M542.201,81.796c0.02-0.004,0.041-0.011,0.062-0.015
		c0.053-0.011,0.105-0.021,0.16-0.032c-0.021,0.004-0.045,0.01-0.064,0.015C542.307,81.774,542.252,81.785,542.201,81.796z
		 M542.061,81.823c-0.008,0.002-0.014,0.002-0.021,0.003c0.02-0.003,0.041-0.009,0.061-0.012c0.008-0.002,0.014-0.002,0.021-0.003
		C542.102,81.815,542.08,81.82,542.061,81.823z M543.213,81.565c0.039-0.011,0.08-0.021,0.119-0.032
		c0.02-0.005,0.037-0.008,0.055-0.013c-0.039,0.011-0.078,0.021-0.119,0.032C543.25,81.558,543.232,81.561,543.213,81.565z
		 M543.537,81.479c0.021-0.006,0.047-0.015,0.07-0.021c0.047-0.014,0.094-0.025,0.143-0.039c-0.021,0.006-0.047,0.015-0.068,0.021
		C543.633,81.455,543.586,81.467,543.537,81.479z M544.361,81.234c0.094-0.029,0.189-0.06,0.285-0.09
		c0.053-0.017,0.1-0.029,0.152-0.047c-0.096,0.032-0.189,0.061-0.285,0.091C544.463,81.205,544.412,81.219,544.361,81.234z
		 M549.863,79.288c-0.104,0.038-0.207,0.075-0.312,0.113C549.656,79.363,549.76,79.326,549.863,79.288z M507.582,55.801
		c0.006,0.003,0.01,0.006,0.016,0.009c-0.008-0.005-0.018-0.009-0.027-0.013c-0.096-0.048-0.188-0.101-0.283-0.148
		c-0.287-0.144-0.566-0.298-0.85-0.445c0.193,0.1,0.383,0.203,0.576,0.301C507.205,55.601,507.391,55.706,507.582,55.801z
		 M504.871,54.381c-0.156-0.086-0.307-0.181-0.463-0.269C504.564,54.2,504.713,54.294,504.871,54.381z M431.511,90.672
		c1.603-0.598,3.204-1.179,4.803-1.733c15.323-6.026,32.479-6.297,50.308-6.029c8.914,0.147,17.996,0.426,27.102,0.382
		c9.104-0.039,18.23-0.417,27.236-1.335c0.025-0.001,0.053-0.007,0.078-0.008c-0.025,0.001-0.053,0.008-0.076,0.009
		c-9.006,0.918-18.133,1.296-27.236,1.335c-9.105,0.044-18.188-0.232-27.102-0.381c-17.828-0.268-34.983,0.002-50.308,6.029
		c-1.714,0.594-3.429,1.212-5.147,1.856C431.282,90.754,431.396,90.715,431.511,90.672z"/>
	<path fill="#FCFCFC" d="M18.962,72.187C18.425,72.168,18.384,72.186,18.962,72.187L18.962,72.187z"/>
	<path fill="#FCFCFC" d="M19.062,72.181c-0.04,0.008,0.017,0,0.169-0.002C19.148,72.178,19.086,72.18,19.062,72.181z"/>
</g>
</svg>
