<?xml version="1.0" encoding="utf-8"?>
<!-- Generator: Adobe Illustrator 16.0.0, SVG Export Plug-In . SVG Version: 6.00 Build 0)  -->
<!DOCTYPE svg PUBLIC "-//W3C//DTD SVG 1.1//EN" "http://www.w3.org/Graphics/SVG/1.1/DTD/svg11.dtd">
<svg version="1.1" id="Layer_1" xmlns="http://www.w3.org/2000/svg" xmlns:xlink="http://www.w3.org/1999/xlink" x="0px" y="0px"
	 width="927.365px" height="635.705px" viewBox="0 0 927.365 635.705" enable-background="new 0 0 927.365 635.705"
	 xml:space="preserve">
<g opacity="0.3">
	<g>
		<circle fill="#FFFFFF" cx="36.49" cy="64.816" r="18.265"/>
		<circle fill="#FFFFFF" cx="66.528" cy="54.029" r="24.867"/>
		<ellipse fill="#FFFFFF" cx="94.963" cy="63.497" rx="18.001" ry="17.225"/>
		<path fill-rule="evenodd" clip-rule="evenodd" fill="#FFFFFF" d="M115.995,82.802c0,1.094-0.204,1.98-0.456,1.98H16.113
			c-0.251,0-0.456-0.887-0.456-1.98V68.278c0-1.093,0.205-1.98,0.456-1.98h99.426c0.252,0,0.456,0.887,0.456,1.98V82.802z"/>
		<circle fill="#FFFFFF" cx="114.476" cy="74.8" r="9.983"/>
		<circle fill="#FFFFFF" cx="15.657" cy="74.8" r="9.983"/>
	</g>
</g>
<g opacity="0.3">
	<g>
		<circle fill="#FFFFFF" cx="135.867" cy="179.222" r="14.732"/>
		<circle fill="#FFFFFF" cx="160.096" cy="170.521" r="20.056"/>
		<ellipse fill="#FFFFFF" cx="183.03" cy="178.156" rx="14.519" ry="13.894"/>
		<path fill-rule="evenodd" clip-rule="evenodd" fill="#FFFFFF" d="M199.993,193.728c0,0.882-0.164,1.597-0.368,1.597h-80.192
			c-0.203,0-0.368-0.715-0.368-1.597v-11.714c0-0.882,0.165-1.598,0.368-1.598h80.192c0.204,0,0.368,0.716,0.368,1.598V193.728z"/>
		<circle fill="#FFFFFF" cx="198.769" cy="187.273" r="8.052"/>
		<circle fill="#FFFFFF" cx="119.065" cy="187.273" r="8.052"/>
	</g>
</g>
<g opacity="0.3">
	<g>
		<circle fill="#FFFFFF" cx="56.55" cy="364.161" r="21.246"/>
		<circle fill="#FFFFFF" cx="91.492" cy="351.613" r="28.926"/>
		<path fill="#FFFFFF" d="M145.507,362.624c0,11.068-9.375,20.039-20.94,20.039c-11.565,0-20.939-8.971-20.939-20.039
			c0-11.063,9.374-20.035,20.939-20.035C136.132,342.589,145.507,351.561,145.507,362.624z"/>
		<path fill-rule="evenodd" clip-rule="evenodd" fill="#FFFFFF" d="M149.033,385.082c0,1.274-0.237,2.305-0.53,2.305H32.848
			c-0.293,0-0.53-1.03-0.53-2.305v-16.894c0-1.271,0.237-2.304,0.53-2.304h115.655c0.293,0,0.53,1.032,0.53,2.304V385.082z"/>
		<circle fill="#FFFFFF" cx="147.267" cy="375.774" r="11.613"/>
		<circle fill="#FFFFFF" cx="32.317" cy="375.774" r="11.613"/>
	</g>
</g>
<g opacity="0.3">
	<g>
		<circle fill="#FFFFFF" cx="187.685" cy="484.459" r="15.001"/>
		<circle fill="#FFFFFF" cx="212.356" cy="475.601" r="20.423"/>
		<path fill="#FFFFFF" d="M250.494,483.374c0,7.815-6.619,14.149-14.785,14.149c-8.165,0-14.784-6.334-14.784-14.149
			c0-7.812,6.619-14.146,14.784-14.146C243.875,469.229,250.494,475.562,250.494,483.374z"/>
		<path fill-rule="evenodd" clip-rule="evenodd" fill="#FFFFFF" d="M252.982,499.231c0,0.897-0.167,1.626-0.375,1.626H170.95
			c-0.207,0-0.374-0.729-0.374-1.626v-11.929c0-0.898,0.167-1.626,0.374-1.626h81.658c0.208,0,0.375,0.728,0.375,1.626V499.231z"/>
		<circle fill="#FFFFFF" cx="251.735" cy="492.659" r="8.199"/>
		<circle fill="#FFFFFF" cx="170.576" cy="492.659" r="8.199"/>
	</g>
</g>
<g opacity="0.3">
	<g>
		<circle fill="#FFFFFF" cx="43.679" cy="553.874" r="12.682"/>
		<circle fill="#FFFFFF" cx="64.537" cy="546.384" r="17.267"/>
		<ellipse fill="#FFFFFF" cx="84.28" cy="552.957" rx="12.5" ry="11.961"/>
		<path fill-rule="evenodd" clip-rule="evenodd" fill="#FFFFFF" d="M98.884,566.36c0,0.761-0.142,1.376-0.317,1.376H29.53
			c-0.175,0-0.316-0.615-0.316-1.376v-10.084c0-0.758,0.142-1.374,0.316-1.374h69.037c0.175,0,0.317,0.616,0.317,1.374V566.36z"/>
		<circle fill="#FFFFFF" cx="97.83" cy="560.806" r="6.932"/>
		<circle fill="#FFFFFF" cx="29.214" cy="560.806" r="6.932"/>
	</g>
</g>
<g opacity="0.3">
	<g>
		<circle fill="#FFFFFF" cx="311.081" cy="38.109" r="16.503"/>
		<circle fill="#FFFFFF" cx="338.222" cy="28.362" r="22.468"/>
		<ellipse fill="#FFFFFF" cx="363.914" cy="36.915" rx="16.265" ry="15.565"/>
		<path fill-rule="evenodd" clip-rule="evenodd" fill="#FFFFFF" d="M382.917,54.36c0,0.988-0.184,1.789-0.412,1.789H292.67
			c-0.227,0-0.412-0.8-0.412-1.789V41.237c0-0.988,0.185-1.79,0.412-1.79h89.835c0.228,0,0.412,0.802,0.412,1.79V54.36z"/>
		<circle fill="#FFFFFF" cx="381.545" cy="47.129" r="9.02"/>
		<circle fill="#FFFFFF" cx="292.259" cy="47.129" r="9.02"/>
	</g>
</g>
<g opacity="0.3">
	<g>
		<circle fill="#FFFFFF" cx="318.906" cy="600.396" r="15.272"/>
		<circle fill="#FFFFFF" cx="344.023" cy="591.376" r="20.792"/>
		<ellipse fill="#FFFFFF" cx="367.799" cy="599.291" rx="15.052" ry="14.405"/>
		<path fill-rule="evenodd" clip-rule="evenodd" fill="#FFFFFF" d="M385.385,615.436c0,0.914-0.17,1.654-0.381,1.654h-83.136
			c-0.21,0-0.381-0.74-0.381-1.654V603.29c0-0.914,0.171-1.656,0.381-1.656h83.136c0.211,0,0.381,0.742,0.381,1.656V615.436z"/>
		<circle fill="#FFFFFF" cx="384.116" cy="608.743" r="8.348"/>
		<circle fill="#FFFFFF" cx="301.487" cy="608.743" r="8.348"/>
	</g>
</g>
<g opacity="0.3">
	<g>
		<circle fill="#FFFFFF" cx="815.902" cy="66.469" r="19.871"/>
		<circle fill="#FFFFFF" cx="783.221" cy="54.733" r="27.053"/>
		<ellipse fill="#FFFFFF" cx="752.286" cy="65.033" rx="19.584" ry="18.741"/>
		<path fill-rule="evenodd" clip-rule="evenodd" fill="#FFFFFF" d="M729.405,86.037c0,1.189,0.222,2.155,0.496,2.155H838.07
			c0.274,0,0.496-0.965,0.496-2.155V70.236c0-1.19-0.222-2.155-0.496-2.155H729.901c-0.274,0-0.496,0.965-0.496,2.155V86.037z"/>
		<circle fill="#FFFFFF" cx="731.055" cy="77.33" r="10.861"/>
		<circle fill="#FFFFFF" cx="838.567" cy="77.33" r="10.861"/>
	</g>
</g>
<g opacity="0.3">
	<g>
		<circle fill="#FFFFFF" cx="774.583" cy="207.051" r="11.505"/>
		<circle fill="#FFFFFF" cx="755.661" cy="200.256" r="15.663"/>
		<ellipse fill="#FFFFFF" cx="737.75" cy="206.219" rx="11.339" ry="10.851"/>
		<path fill-rule="evenodd" clip-rule="evenodd" fill="#FFFFFF" d="M724.503,218.379c0,0.689,0.128,1.248,0.287,1.248h62.627
			c0.158,0,0.287-0.559,0.287-1.248v-9.148c0-0.688-0.129-1.248-0.287-1.248h-62.627c-0.159,0-0.287,0.559-0.287,1.248V218.379z"/>
		<circle fill="#FFFFFF" cx="725.459" cy="213.339" r="6.288"/>
		<circle fill="#FFFFFF" cx="787.705" cy="213.339" r="6.288"/>
	</g>
</g>
<g opacity="0.3">
	<g>
		<circle fill="#FFFFFF" cx="867.815" cy="348.052" r="17.194"/>
		<circle fill="#FFFFFF" cx="839.536" cy="337.896" r="23.41"/>
		<ellipse fill="#FFFFFF" cx="812.768" cy="346.808" rx="16.946" ry="16.217"/>
		<path fill-rule="evenodd" clip-rule="evenodd" fill="#FFFFFF" d="M792.969,364.982c0,1.03,0.19,1.865,0.429,1.865h93.6
			c0.237,0,0.431-0.835,0.431-1.865V351.31c0-1.028-0.193-1.863-0.431-1.863h-93.6c-0.238,0-0.429,0.835-0.429,1.863V364.982z"/>
		<circle fill="#FFFFFF" cx="794.398" cy="357.45" r="9.398"/>
		<circle fill="#FFFFFF" cx="887.427" cy="357.45" r="9.398"/>
	</g>
</g>
<g opacity="0.3">
	<g>
		<path fill="#FFFFFF" d="M739.342,483.955c0,12.37,10.03,22.398,22.4,22.398c12.372,0,22.401-10.028,22.401-22.398
			c0-12.374-10.029-22.401-22.401-22.401C749.373,461.554,739.342,471.581,739.342,483.955z"/>
		<circle fill="#FFFFFF" cx="724.902" cy="470.724" r="30.497"/>
		<path fill="#FFFFFF" d="M667.951,482.333c0,11.669,9.885,21.129,22.079,21.129c12.193,0,22.078-9.46,22.078-21.129
			c0-11.666-9.885-21.124-22.078-21.124C677.835,461.209,667.951,470.667,667.951,482.333z"/>
		<path fill-rule="evenodd" clip-rule="evenodd" fill="#FFFFFF" d="M664.234,506.012c0,1.342,0.25,2.428,0.561,2.428h121.939
			c0.309,0,0.56-1.086,0.56-2.428v-17.813c0-1.339-0.251-2.428-0.56-2.428H664.794c-0.311,0-0.561,1.089-0.561,2.428V506.012z"/>
		<circle fill="#FFFFFF" cx="666.097" cy="496.197" r="12.244"/>
		<circle fill="#FFFFFF" cx="787.293" cy="496.197" r="12.244"/>
	</g>
</g>
<g opacity="0.3">
	<g>
		<circle fill="#FFFFFF" cx="878.599" cy="576.506" r="10.803"/>
		<circle fill="#FFFFFF" cx="860.831" cy="570.125" r="14.708"/>
		<ellipse fill="#FFFFFF" cx="844.012" cy="575.725" rx="10.647" ry="10.189"/>
		<path fill-rule="evenodd" clip-rule="evenodd" fill="#FFFFFF" d="M831.572,587.144c0,0.646,0.121,1.171,0.271,1.171h58.808
			c0.15,0,0.27-0.524,0.27-1.171v-8.59c0-0.646-0.119-1.171-0.27-1.171h-58.808c-0.149,0-0.271,0.524-0.271,1.171V587.144z"/>
		<circle fill="#FFFFFF" cx="832.471" cy="582.41" r="5.905"/>
		<circle fill="#FFFFFF" cx="890.92" cy="582.41" r="5.905"/>
	</g>
</g>
<g opacity="0.3">
	<g>
		<circle fill="#FFFFFF" cx="576.121" cy="57.033" r="11.13"/>
		<circle fill="#FFFFFF" cx="557.815" cy="50.459" r="15.153"/>
		<ellipse fill="#FFFFFF" cx="540.488" cy="56.228" rx="10.97" ry="10.498"/>
		<path fill-rule="evenodd" clip-rule="evenodd" fill="#FFFFFF" d="M527.672,67.993c0,0.667,0.124,1.206,0.276,1.206h60.589
			c0.153,0,0.278-0.54,0.278-1.206v-8.851c0-0.666-0.125-1.207-0.278-1.207h-60.589c-0.152,0-0.276,0.541-0.276,1.207V67.993z"/>
		<circle fill="#FFFFFF" cx="528.597" cy="63.116" r="6.083"/>
		<circle fill="#FFFFFF" cx="588.814" cy="63.116" r="6.083"/>
	</g>
</g>
<g opacity="0.3">
	<g>
		<circle fill="#FFFFFF" cx="602.738" cy="603.76" r="19.026"/>
		<circle fill="#FFFFFF" cx="571.447" cy="592.521" r="25.903"/>
		<ellipse fill="#FFFFFF" cx="541.827" cy="602.383" rx="18.752" ry="17.945"/>
		<path fill-rule="evenodd" clip-rule="evenodd" fill="#FFFFFF" d="M519.917,622.495c0,1.141,0.213,2.062,0.476,2.062h103.572
			c0.264,0,0.476-0.922,0.476-2.062v-15.13c0-1.139-0.212-2.062-0.476-2.062H520.392c-0.263,0-0.476,0.924-0.476,2.062V622.495z"/>
		<circle fill="#FFFFFF" cx="521.499" cy="614.159" r="10.4"/>
		<circle fill="#FFFFFF" cx="624.44" cy="614.159" r="10.399"/>
	</g>
</g>
</svg>
