<?xml version="1.0" encoding="utf-8"?>
<!-- Generator: Adobe Illustrator 16.0.0, SVG Export Plug-In . SVG Version: 6.00 Build 0)  -->
<!DOCTYPE svg PUBLIC "-//W3C//DTD SVG 1.1//EN" "http://www.w3.org/Graphics/SVG/1.1/DTD/svg11.dtd">
<svg version="1.1" id="Layer_1" xmlns:sketch="http://www.bohemiancoding.com/sketch/ns"
	 xmlns="http://www.w3.org/2000/svg" xmlns:xlink="http://www.w3.org/1999/xlink" x="0px" y="0px" width="128px" height="93px"
	 viewBox="0 0 128 93" enable-background="new 0 0 128 93" xml:space="preserve">
<title>clouds</title>
<desc>Created with Sketch.</desc>
<g id="Page-1" sketch:type="MSPage">
	<g id="Cloud" sketch:type="MSLayerGroup">
		<g id="Layer_1_1_" sketch:type="MSShapeGroup">
			<path id="clouds" fill="#CECCCD" d="M46.5,93C20.82,93,0,72.183,0,46.5S20.82,0,46.5,0c17.451,0,32.639,9.627,40.591,23.843
				c1.931-0.328,3.89-0.596,5.909-0.596c19.262,0,34.877,15.617,34.877,34.88C127.877,77.383,112.262,93,93,93
				C84.934,93,55.795,93,46.5,93L46.5,93z M93,81.373c12.842,0,23.253-10.411,23.253-23.246c0-12.842-10.411-23.253-23.253-23.253
				c-4.65,0-8.958,1.398-12.594,3.752C76.828,23.174,63.042,11.624,46.5,11.624c-19.259,0-34.874,15.614-34.874,34.876
				c0,19.26,15.614,34.873,34.874,34.873H93L93,81.373z"/>
		</g>
	</g>
</g>
</svg>
