<?xml version="1.0" encoding="utf-8"?>
<!-- Generator: Adobe Illustrator 16.0.0, SVG Export Plug-In . SVG Version: 6.00 Build 0)  -->
<!DOCTYPE svg PUBLIC "-//W3C//DTD SVG 1.1//EN" "http://www.w3.org/Graphics/SVG/1.1/DTD/svg11.dtd">
<svg version="1.1" id="Layer_1" xmlns="http://www.w3.org/2000/svg" xmlns:xlink="http://www.w3.org/1999/xlink" x="0px" y="0px"
	 width="662.967px" height="659.967px" viewBox="0 0 662.967 659.967" enable-background="new 0 0 662.967 659.967"
	 xml:space="preserve">
<g opacity="0.3">
	<polygon fill="#B0A9B7" points="548.463,307.289 536.293,315.644 547.745,324.961 534.932,332.294 545.577,342.522 
		532.202,348.771 541.961,359.845 528.114,364.96 536.918,376.809 522.694,380.753 530.481,393.293 515.977,396.043 
		522.698,409.186 508.016,410.723 513.625,424.377 498.868,424.697 503.333,438.768 488.6,437.871 491.893,452.26 477.284,450.159 
		479.385,464.77 464.997,461.474 465.893,476.208 451.823,471.743 451.502,486.5 437.848,480.889 436.311,495.571 423.168,488.849 
		420.42,503.353 407.879,495.565 403.936,509.79 392.088,500.986 386.973,514.833 375.899,505.072 369.651,518.447 359.424,507.801 
		352.094,520.615 342.776,509.164 334.418,521.333 326.063,509.164 316.746,520.615 309.413,507.802 299.186,518.447 
		292.937,505.072 281.861,514.832 276.747,500.985 264.898,509.789 260.953,495.564 248.413,503.352 245.664,488.848 
		232.521,495.569 230.984,480.887 217.33,486.497 217.009,471.74 202.939,476.206 203.835,461.471 189.446,464.765 191.549,450.155 
		176.937,452.256 180.232,437.868 165.498,438.762 169.964,424.693 155.206,424.373 160.816,410.719 146.136,409.182 
		152.856,396.04 138.353,393.291 146.142,380.751 131.916,376.806 140.721,364.958 126.874,359.843 136.634,348.769 
		123.259,342.521 133.904,332.294 121.092,324.962 132.542,315.644 120.373,307.289 132.542,298.933 121.092,289.615 
		133.904,282.283 123.259,272.055 136.634,265.806 126.874,254.73 140.722,249.616 131.917,237.768 146.142,233.823 
		138.354,221.283 152.858,218.534 146.138,205.391 160.82,203.853 155.209,190.2 169.967,189.879 165.501,175.81 180.236,176.705 
		176.941,162.316 191.552,164.418 189.45,149.808 203.84,153.103 202.944,138.368 217.014,142.835 217.334,128.077 230.988,133.688 
		232.525,119.006 245.668,125.728 248.417,111.224 260.956,119.012 264.901,104.787 276.75,113.592 281.864,99.745 292.938,109.505 
		299.186,96.131 309.414,106.776 316.745,93.964 326.063,105.414 334.418,93.244 342.775,105.414 352.092,93.964 359.424,106.776 
		369.653,96.131 375.901,109.505 386.977,99.746 392.09,113.593 403.939,104.789 407.883,119.014 420.424,111.226 423.172,125.73 
		436.317,119.009 437.854,133.691 451.508,128.081 451.829,142.839 465.899,138.374 465.002,153.108 479.391,149.813 
		477.288,164.424 491.899,162.322 488.604,176.711 503.338,175.816 498.872,189.886 513.631,190.206 508.02,203.859 522.7,205.396 
		515.979,218.539 530.483,221.287 522.694,233.827 536.918,237.771 528.116,249.62 541.961,254.734 532.202,265.809 
		545.575,272.056 534.932,282.284 547.745,289.616 536.293,298.932 	"/>
</g>
<circle fill="#938C9B" cx="-561.613" cy="333.946" r="418.479"/>
<g>
	<polygon fill="#B0A9B7" points="-257.368,338.741 -269.613,350.825 -258.392,363.864 -271.583,374.905 -261.473,388.825 
		-275.532,398.739 -266.609,413.448 -281.444,422.159 -273.777,437.557 -289.285,445.002 -282.926,460.987 -299,467.118 
		-293.988,483.575 -310.516,488.352 -306.882,505.167 -323.747,508.565 -321.512,525.622 -338.599,527.62 -337.773,544.801 
		-354.966,545.391 -355.555,562.583 -372.737,561.758 -374.735,578.844 -391.794,576.61 -395.189,593.473 -412.005,589.84 
		-416.782,606.366 -433.238,601.354 -439.369,617.428 -455.354,611.069 -462.798,626.577 -478.198,618.911 -486.908,633.745 
		-501.616,624.823 -511.528,638.881 -525.447,628.77 -536.488,641.963 -549.528,630.741 -561.611,642.985 -573.695,630.741 
		-586.735,641.963 -597.778,628.77 -611.696,638.881 -621.61,624.823 -636.319,633.745 -645.028,618.909 -660.429,626.577 
		-667.875,611.069 -683.859,617.426 -689.99,601.354 -706.447,606.364 -711.225,589.838 -728.039,593.471 -731.437,576.606 
		-748.495,578.842 -750.492,561.754 -767.675,562.579 -768.263,545.385 -785.456,544.799 -784.63,527.616 -801.717,525.618 
		-799.481,508.561 -816.346,505.163 -812.712,488.348 -829.239,483.571 -824.227,467.114 -840.301,460.983 -833.94,444.999 
		-849.449,437.555 -841.781,422.153 -856.616,413.444 -847.694,398.735 -861.753,388.823 -851.642,374.905 -864.833,363.864 
		-853.611,350.823 -865.856,338.741 -853.611,326.657 -864.833,313.618 -851.642,302.574 -861.753,288.655 -847.693,278.742 
		-856.615,264.033 -841.78,255.323 -849.448,239.923 -833.939,232.478 -840.299,216.493 -824.224,210.362 -829.235,193.905 
		-812.709,189.128 -816.342,172.313 -799.477,168.916 -801.712,151.858 -784.625,149.86 -785.451,132.677 -768.258,132.09 
		-767.67,114.896 -750.486,115.723 -748.488,98.636 -731.431,100.872 -728.034,84.007 -711.219,87.641 -706.441,71.114 
		-689.984,76.126 -683.854,60.052 -667.87,66.413 -660.425,50.905 -645.025,58.572 -636.315,43.737 -621.606,52.66 -611.693,38.6 
		-597.775,48.712 -586.734,35.52 -573.695,46.742 -561.611,34.497 -549.528,46.742 -536.487,35.52 -525.446,48.712 -511.526,38.601 
		-501.613,52.661 -486.904,43.739 -478.194,58.573 -462.794,50.906 -455.35,66.415 -439.364,60.056 -433.234,76.129 
		-416.777,71.118 -411.999,87.645 -395.185,84.012 -391.787,100.876 -374.73,98.642 -372.732,115.729 -355.55,114.902 
		-354.962,132.096 -337.77,132.684 -338.594,149.867 -321.508,151.865 -323.743,168.922 -306.878,172.319 -310.512,189.134 
		-293.985,193.912 -298.998,210.368 -282.924,216.499 -289.284,232.482 -273.776,239.927 -281.443,255.327 -266.608,264.037 
		-275.531,278.745 -261.472,288.658 -271.583,302.576 -258.392,313.618 -269.613,326.657 	"/>
</g>
<g>
	<path fill="#2F303D" stroke="#DCDADA" stroke-width="3" stroke-miterlimit="10" d="M-500.521,261.872
		c0,9.098-7.377,16.474-16.475,16.474h-89.233c-9.098,0-16.474-7.376-16.474-16.474v-89.234c0-9.098,7.376-16.474,16.474-16.474
		h89.233c9.098,0,16.475,7.376,16.475,16.474V261.872z"/>
	<path fill="#DCDADA" d="M-394.128,484.956c0,9.098-7.376,16.475-16.474,16.475h-302.021c-9.098,0-16.474-7.377-16.474-16.475
		V182.935c0-9.099,7.376-16.475,16.474-16.475h302.021c9.098,0,16.474,7.376,16.474,16.475V484.956z"/>
	<rect x="-577.821" y="296.195" fill="#8D8395" width="32.416" height="32.415"/>
	<path fill="#CCCDCD" d="M-394.128,485.112c0,9.098-7.376,16.475-16.474,16.475h-302.021c-9.098,0-16.474-7.377-16.474-16.475
		v-141.4c0-9.098,7.376-16.475,16.474-16.475h302.021c9.098,0,16.474,7.377,16.474,16.475V485.112z"/>
	<path fill="#E5E5E5" d="M-394.128,488.147c0,7.422-7.376,13.439-16.474,13.439h-302.021c-9.098,0-16.474-6.018-16.474-13.439
		V372.782c0-7.422,7.376-13.439,16.474-13.439h302.021c9.098,0,16.474,6.018,16.474,13.439V488.147z"/>
	<path fill="#2F303D" d="M-396.521,480.79c0,10.197-7.765,18.465-17.341,18.465h-295.503c-9.576,0-17.34-8.268-17.34-18.465v-89.256
		c0-10.197,7.764-18.467,17.34-18.467h295.503c9.576,0,17.341,8.27,17.341,18.467V480.79z"/>
	<circle fill="#B4B4B5" cx="-666.377" cy="284.434" r="23.594"/>
	<circle fill="#85A88E" cx="-666.377" cy="284.434" r="19.475"/>
	<path fill="#F1F2F2" d="M-402.499,477.071c0,9.346-7.48,16.926-16.712,16.926h-284.84c-9.229,0-16.714-7.58-16.714-16.926v-81.818
		c0-9.346,7.484-16.926,16.714-16.926h284.84c9.231,0,16.712,7.58,16.712,16.926V477.071z"/>
	<path fill="#2F303D" d="M-404.582,475.27c0,8.938-7.383,16.186-16.491,16.186h-281.076c-9.107,0-16.493-7.248-16.493-16.186
		v-78.219c0-8.936,7.386-16.184,16.493-16.184h281.076c9.108,0,16.491,7.248,16.491,16.184V475.27z"/>
	<circle fill="#2F303D" cx="-454.707" cy="284.434" r="23.594"/>
	<path fill="#2F303D" d="M-410.62,231.469c0,9.1-7.377,16.474-16.475,16.474h-34.731c-9.1,0-16.475-7.374-16.475-16.474v-34.732
		c0-9.098,7.375-16.474,16.475-16.474h34.731c9.098,0,16.475,7.376,16.475,16.474V231.469z"/>
	<path fill="#8D8395" d="M-424.633,217.456c0,9.1-7.375,16.474-16.475,16.474h-6.707c-9.098,0-16.474-7.374-16.474-16.474v-6.707
		c0-9.098,7.376-16.474,16.474-16.474h6.707c9.1,0,16.475,7.376,16.475,16.474V217.456z"/>
	<polygon fill="#7E7686" points="-541.896,359.342 -581.022,359.342 -577.84,327.237 -545.424,327.237 	"/>
	<rect x="-581.022" y="359.342" fill="#8D8395" width="39.126" height="13.725"/>
	<path opacity="0.3" fill="#2F303D" stroke="#2E303D" stroke-width="4" stroke-miterlimit="10" d="M-499.87,267.719
		c0,27.869-30.004,56.616-60.198,56.616c-33.135,0-59.79-28.747-59.79-56.616c0-27.871,26.86-50.464,59.995-50.464
		C-526.73,217.255-499.87,239.848-499.87,267.719z"/>
	<circle fill="#2F303D" stroke="#F1F2F2" stroke-width="4" stroke-miterlimit="10" cx="-559.865" cy="242.363" r="70.825"/>
	<circle fill="#DCDADA" cx="-557.874" cy="244.354" r="5.87"/>
	<path opacity="0.3" fill="#2F303D" stroke="#2E303D" stroke-width="4" stroke-miterlimit="10" d="M-434.273,292.168
		c0,9.492-10.22,19.75-20.503,19.75c-11.284,0-20.363-10.259-20.363-19.75c0-9.492,9.147-17.188,20.432-17.188
		C-443.421,274.98-434.273,282.676-434.273,292.168z"/>
	<polygon fill="#DCDADA" points="-407.006,521.319 -708.743,521.319 -684.198,418.393 -434.211,418.393 	"/>
	<polygon fill="#418787" points="-438.764,478.092 -676.948,478.092 -664.716,418.393 -453.283,418.393 	"/>
</g>
<circle fill="#2F303D" cx="334.417" cy="308.572" r="143.906"/>
<g>
	<path fill-rule="evenodd" clip-rule="evenodd" fill="#2F303D" d="M339.71,482.121c-1.597,5.213-1.013,10.396,1.687,14.911
		c2.738,4.581,6.148,8.82,9.67,12.854c2.852,3.266,3.182,3.228,2.388,7.979c-12.7,0-25.426,0-38.194,0
		c-0.573-3.202-0.431-5.722,2.415-8.035c4.413-3.59,7.784-8.188,10.083-13.471c2.241-5.152,2.55-10.332,0.783-15.767
		c-3.389-10.42-3.752-21.211-3.325-32.051c0.102-2.565,0.396-5.125,0.637-7.684 M334.373,439.103
		c1.944-0.007,3.538-1.608,3.562-3.58c0.024-2.003-1.48-3.588-3.467-3.648c-2.048-0.062-3.79,1.652-3.738,3.68
		C330.778,437.474,332.458,439.111,334.373,439.103z"/>
	<path fill-rule="evenodd" clip-rule="evenodd" fill="#2F303D" d="M353.274,577.307"/>
	<path fill-rule="evenodd" clip-rule="evenodd" fill="#2F303D" d="M334.373,439.103c-1.915,0.008-3.595-1.629-3.644-3.549
		c-0.052-2.027,1.69-3.741,3.738-3.68c1.986,0.061,3.491,1.646,3.467,3.648C337.911,437.495,336.317,439.096,334.373,439.103z"/>
</g>
<path fill-rule="evenodd" clip-rule="evenodd" fill="#2F303D" d="M315.401,538.833h31.195c3.412,0,6.179,2.767,6.179,6.18
	l0.628,17.887c0,3.414,0.02,6.234-3.395,6.234h-28.942c-3.414,0-6.18-2.768-6.18-6.18"/>
<path fill-rule="evenodd" clip-rule="evenodd" fill="#2F303D" d="M348.336,588.604c0,1.271-1.031,2.3-2.301,2.3l0,0
	c-1.271,0-2.3-1.029-2.3-2.3v-18.738c0-1.271,1.028-2.3,2.3-2.3l0,0c1.27,0,2.301,1.029,2.301,2.3V588.604z"/>
<path fill-rule="evenodd" clip-rule="evenodd" fill="#2F303D" d="M353.928,576.792c0,1.198-0.972,2.17-2.171,2.17l0,0
	c-1.198,0-2.17-0.972-2.17-2.17v-10.323c0-1.198,0.972-2.17,2.17-2.17l0,0c1.199,0,2.171,0.972,2.171,2.17V576.792z"/>
<polygon fill-rule="evenodd" clip-rule="evenodd" fill="#2F303D" points="353.95,569.129 352.032,570.544 352.032,540.252 
	353.95,538.836 "/>
<rect x="314.886" y="538.841" fill-rule="evenodd" clip-rule="evenodd" fill="#2F303D" width="39.064" height="24.058"/>
<path fill-rule="evenodd" clip-rule="evenodd" fill="#2F303D" d="M345.021,461.075c0,13.014-10.54,32.647-10.54,32.647
	s-10.839-19.338-10.839-32.35c0-13.013,3.946-41.183,10.759-41.183C341.214,420.19,345.021,448.064,345.021,461.075z"/>
<rect x="314.886" y="520.967" fill-rule="evenodd" clip-rule="evenodd" fill="#2F303D" width="39.064" height="15.081"/>
<rect x="315.021" y="514.211" fill-rule="evenodd" clip-rule="evenodd" fill="#2F303D" width="38.777" height="3.654"/>
<g>
	<path fill-rule="evenodd" clip-rule="evenodd" fill="#2F303D" d="M504.934,255.723c-0.057-8-0.057-8,1.541-8.331
		c0.309,2.746,0.613,5.443,0.918,8.139c0.465-0.073,0.932-0.146,1.398-0.22c-0.34-3.012-0.676-6.025-1.021-9.037
		c-0.662-5.778-0.514-6.623,5.266-7.759c8.902-1.752,17.936-2.889,26.945-4.034c2.992-0.38,4.77,1.521,5.125,4.532
		c0.604,5.101,1.162,10.208,1.738,15.311c2.773,24.592,5.545,49.185,8.318,73.778c0.785,6.967,0.783,6.967-5.904,8.751
		c0.557,3.075-1.324,3.776-3.973,4.03c-3.48,0.334-6.973,0.791-10.385,1.547c-2.465,0.547-4.152,0.392-4.488-2.652
		c-1.676,0.189-3.164,0.357-4.654,0.525c-1.48,0.166-2.959,0.333-4.594,0.518c0.156,1.384,0.604,2.447,0.285,3.178
		c-0.557,1.279-1.34,2.906-2.461,3.395c-1.986,0.863-4.314,0.908-6.469,1.43c-2.941,0.712-4.803-0.012-5.082-3.332
		c-0.057-0.672-0.42-1.316-0.48-1.489c-6.088,0.688-11.957,1.476-17.854,1.934c-1.682,0.13-3.57-0.417-5.139-1.145
		c-7.742-3.589-10.305-9.77-11.086-18.259c-2.627-28.475-6.184-56.863-9.377-85.285c-0.713-6.35,0.635-8.155,7.035-9.082
		c4.158-0.602,8.342-1.019,12.521-1.467c4.869-0.522,6.688,0.77,7.359,5.631c0.801,5.78,1.355,11.594,2.021,17.393
		c0.092,0.812,0.037,1.695,0.361,2.405c0.195,0.431,0.984,0.593,1.508,0.875c-0.004-0.586-0.008-1.172-0.014-1.989
		c1.541,0.093,3.482-1.501,4.762,1.374C500.561,256.216,502.618,255.984,504.934,255.723z M496.043,262.071
		c-0.738-0.945-1.309-1.679-1.881-2.413c-0.24,0.974-0.773,1.978-0.674,2.916c1.172,11.134,2.428,22.258,3.689,33.383
		c0.621,5.467,2.834,7.841,8.35,8.56c6.648,0.863,12.963-0.612,19.053-3.218c2.594-1.111,3.572-3.231,3.379-5.919
		c-0.424-5.928-0.621-11.893-1.447-17.767c-1.197-8.487-3.107-9.892-11.693-10.968c-2.062-0.259-3.982-1.67-5.967-2.551
		c-0.047-0.533-0.098-1.067-0.146-1.6c-1.281,0.954-2.561,1.907-3.895,2.9c-0.039-0.615-0.111-1.739-0.176-2.807
		c1.891-0.369,3.338-0.652,4.98-0.972c-0.279-1.341-0.504-2.415-0.779-3.737c-1.754,0.198-3.246,0.37-4.738,0.535
		c-5.059,0.555-5.059,0.554-4.936,5.541c-0.58-0.528-0.705-1.28-0.953-1.99c-0.309-0.887-0.717-1.74-1.084-2.606
		C496.803,260.167,496.479,260.978,496.043,262.071z"/>
	<path fill-rule="evenodd" clip-rule="evenodd" fill="#2F303D" d="M533.045,343.216c-2.277,0.258-4.357-1.613-4.646-4.176l0,0
		c-0.289-2.564,1.322-4.85,3.6-5.105l13.031-1.47c2.277-0.257,4.357,1.612,4.646,4.176l0,0c0.289,2.563-1.322,4.851-3.6,5.106
		L533.045,343.216z"/>
	<path fill-rule="evenodd" clip-rule="evenodd" fill="#2F303D" d="M508.969,349.304c-1.85,0.207-3.66-2.403-4.047-5.831l0,0
		c-0.387-3.431,0.797-6.378,2.646-6.585l10.58-1.193c1.848-0.209,3.66,2.4,4.047,5.83l0,0c0.387,3.428-0.799,6.377-2.648,6.586
		L508.969,349.304z"/>
	
		<rect x="501.29" y="250.139" transform="matrix(-0.1121 -0.9937 0.9937 -0.1121 312.0967 782.0401)" fill-rule="evenodd" clip-rule="evenodd" fill="#2F303D" width="8.274" height="2.901"/>
	<path fill-rule="evenodd" clip-rule="evenodd" fill="#2F303D" d="M511.387,264.4c-1.088,0.123-2.07-0.659-2.193-1.747
		l-2.393-21.222c-0.121-1.087,0.66-2.068,1.748-2.191l0,0c1.086-0.123,32.758-5.839,32.881-4.751l-28.297,27.72
		C513.256,263.296,512.473,264.277,511.387,264.4L511.387,264.4z"/>
	
		<rect x="506.117" y="260.387" transform="matrix(0.1122 0.9937 -0.9937 0.1122 711.5867 -270.5164)" fill-rule="evenodd" clip-rule="evenodd" fill="#2F303D" width="2.124" height="5.144"/>
	
		<rect x="504.209" y="263.711" transform="matrix(0.1122 0.9937 -0.9937 0.1122 712.194 -267.6009)" fill-rule="evenodd" clip-rule="evenodd" fill="#2F303D" width="3.29" height="2.105"/>
	
		<rect x="491.599" y="257.004" transform="matrix(0.112 0.9937 -0.9937 0.112 696.7623 -262.8539)" fill-rule="evenodd" clip-rule="evenodd" fill="#2F303D" width="7.708" height="2.84"/>
	<polygon fill-rule="evenodd" clip-rule="evenodd" fill="#2F303D" points="498.561,264.075 495.518,254.591 498.846,255.962 
		499.745,263.941 	"/>
	<path fill-rule="evenodd" clip-rule="evenodd" fill="#2F303D" d="M494.163,259.658l-0.553-4.904c0,0,3.576-1.256,4.596-0.465
		c0.98,0.762,1.178,4.78,1.178,4.78L494.163,259.658z"/>
</g>
<g>
	<g id="Ev8mNc_1_">
		<g>
			<path fill-rule="evenodd" clip-rule="evenodd" fill="#2F303D" d="M467.975,214.008c-5.395-6.114-10.689-12.11-15.998-18.126
				c2.672-2.38,32.562-28.736,35.312-31.145c6.896-6.034,13.803-12.059,20.73-18.055c0.516-0.448,1.221-0.776,1.891-0.933
				c6.18-1.438,12.371-2.821,18.555-4.234c1.176-0.268,2.309-0.406,3.195,0.637c0.84,0.99,0.561,2.059,0.166,3.134
				c-2.197,6.002-4.379,12.01-6.598,18.004c-0.209,0.561-0.553,1.147-0.998,1.535c-9.549,8.35-19.121,16.673-28.689,25
				C495.401,189.948,468.059,213.95,467.975,214.008z M521.051,160.366c0.1-0.075,0.209-0.117,0.236-0.189
				c1.105-3.018,2.217-6.034,3.297-9.062c0.5-1.398-1.395-3.479-2.865-3.158c-2.344,0.511-4.682,1.047-7.02,1.58
				c-0.863,0.196-1.721,0.41-2.945,0.704c1.785,1.15,1.723,2.609,1.617,4.139c-0.088,1.273,0.01,2.559,0.023,3.756
				C516.002,159.18,518.999,158.137,521.051,160.366z"/>
			<path fill-rule="evenodd" clip-rule="evenodd" fill="#2F303D" d="M459.75,221c-0.881,0.759-1.828,1.67-2.873,2.455
				c-2.486,1.869-5.705,1.744-7.834-0.525c-2.998-3.2-5.9-6.499-8.691-9.882c-1.961-2.377-1.67-5.66,0.49-7.841
				c0.916-0.925,1.967-1.722,2.867-2.5C449.008,208.749,454.313,214.799,459.75,221z"/>
		</g>
	</g>
	
		<rect x="453.003" y="196.323" transform="matrix(-0.7522 0.6589 -0.6589 -0.7522 935.9191 64.9245)" fill-rule="evenodd" clip-rule="evenodd" fill="#2F303D" width="5.499" height="24.221"/>
</g>
<g id="hEqyVs.tif">
	<g>
		<path fill-rule="evenodd" clip-rule="evenodd" fill="#2F303D" d="M295.457,452.188c4.37,4.445,9.145,9.709,12.096,16.306
			c1.499,3.349,2.324,6.784,0.166,10.282c-1.19,1.932-2.875,2.821-5.023,2.585c-1.903-0.21-3.787-0.694-5.649-1.177
			c-2.667-0.689-5.27-1.673-7.966-2.193c-4.185-0.807-6.756,1.413-6.106,5.639c0.439,2.851,1.654,5.663,2.946,8.284
			c2.003,4.068,4.521,7.883,6.547,11.939c2.487,4.984,1.449,11.851-2.372,15.123c-1.553,1.329-3.634,2.323-5.633,2.805
			c-11.105,2.663-21.838,1.041-32.086-3.656c-18.968-8.692-32.404-22.806-40.12-42.185c-3.298-8.288-4.4-16.919-2.402-25.786
			c2.793-12.389,10.769-19.568,22.83-22.326c11.23-2.569,22.102-0.602,32.619,3.627C276.556,435.98,284.377,441.393,295.457,452.188
			z M233.537,456.423c-2.952-2.985-7.807-3.047-10.791-0.135c-3.262,3.186-3.328,8.143-0.149,11.271
			c2.993,2.946,8.067,2.947,11.037,0.002C236.708,464.514,236.666,459.588,233.537,456.423z M241.217,437.847
			c-3.189,3.068-3.309,7.966-0.272,11.132c2.977,3.101,8.115,3.161,11.172,0.131c2.958-2.933,3.044-7.855,0.188-10.847
			C249.192,435.001,244.361,434.82,241.217,437.847z M272.724,453.773c-3.13,3.148-3.07,7.84,0.14,11.073
			c2.938,2.959,7.797,2.974,10.784,0.031c3.181-3.135,3.268-7.987,0.199-11.114C280.804,450.662,275.81,450.666,272.724,453.773z
			 M265.502,505.567c2.926,2.979,7.805,3.023,10.787,0.1c3.208-3.147,3.3-7.947,0.211-11.096c-3.091-3.151-7.984-3.183-11.103-0.071
			C262.253,497.633,262.297,502.305,265.502,505.567z M247.897,496.371c3.109-3.136,3.042-7.923-0.156-11.077
			c-3.056-3.017-7.892-2.95-10.922,0.152c-3.034,3.104-3.051,7.911-0.042,10.964C239.817,499.49,244.822,499.474,247.897,496.371z"
			/>
	</g>
</g>
<g>
	<g id="GC8Z2R.tif">
		<g>
			<path fill="#2F303D" d="M340.213,152.327c4.666-11.245,9.332-22.489,13.996-33.733c12.561,5.211,17.586,7.296,30.254,12.552
				c-7.797,8.723-9.672,18.169-4.021,28.252c4.782,8.532,12.633,12.606,22.279,11.302c13.184-1.783,19.643-10.288,20.642-23.227
				c6.856,2.845,21.175,8.786,27.968,11.604c-0.115,0.36-0.174,0.59-0.262,0.806c-4.324,10.42-8.643,20.844-12.992,31.253
				c-0.311,0.747-0.789,1.452-1.305,2.082c-2.096,2.567-4.979,3.157-8.092,3.105c-28.276-11.73-56.551-23.461-84.826-35.192
				C341.172,158.804,339.971,155.864,340.213,152.327z"/>
			<path fill-rule="evenodd" clip-rule="evenodd" fill="#2F303D" d="M355.024,116.628c1.904-4.585,3.805-9.17,5.709-13.755
				c4.051-4.156,8.395-3.656,13.381-1.517c16.127,6.921,32.391,13.525,48.6,20.25c9.717,4.031,19.436,8.052,29.145,12.097
				c5.328,2.22,7.229,6.822,5.041,12.116c-1.309,3.167-2.623,6.333-3.943,9.496c-0.215,0.518-0.475,1.016-0.736,1.57
				c-6.918-2.87-21.152-8.804-27.883-11.539c-1.061-0.431-1.5-1.022-1.744-2.135c-3.467-15.904-20.9-23.19-34.676-14.492
				c-1.021,0.647-1.811,0.722-2.912,0.26c-11.826-4.96-16.139-6.745-27.982-11.66C356.373,117.051,355.691,116.858,355.024,116.628z
				"/>
			<path fill-rule="evenodd" clip-rule="evenodd" fill="#2F303D" d="M413.541,153.626c-3.073,7.428-11.714,10.961-19.174,7.839
				c-7.468-3.125-11.063-11.75-7.979-19.142c3.115-7.467,11.899-11.137,19.307-8.066
				C413.094,137.324,416.653,146.109,413.541,153.626z"/>
			<path fill-rule="evenodd" clip-rule="evenodd" fill="#2F303D" d="M395.709,109.081c2.527-1.658,4.77-3.181,7.08-4.594
				c0.391-0.238,1.135-0.151,1.61,0.044c7.155,2.929,14.297,5.892,21.425,8.89c0.463,0.195,1.033,0.69,1.121,1.132
				c0.518,2.587,0.905,5.2,1.379,8.059C417.387,118.075,406.706,113.643,395.709,109.081z M418.415,112.328
				c-2.731-1.133-5.361-2.225-8.034-3.333c-0.548,1.32-1.052,2.532-1.553,3.742c2.757,1.143,5.383,2.233,8.034,3.333
				C417.407,114.757,417.893,113.584,418.415,112.328z"/>
			<path fill-rule="evenodd" clip-rule="evenodd" fill="#2F303D" d="M383.987,105.651c-2.74-1.138-5.479-2.273-8.225-3.412
				c1.326-2.445,1.365-2.46,3.76-1.467c1.035,0.43,2.068,0.858,3.104,1.288C384.943,103.022,384.943,103.022,383.987,105.651z"/>
		</g>
	</g>
	<path fill-rule="evenodd" clip-rule="evenodd" fill="#2F303D" d="M428.01,125.997c-0.9,2.17-3.39,3.201-5.561,2.3l-26.057-10.811
		c-2.17-0.9-3.199-3.39-2.299-5.561l2.51-6.052c0.9-2.17,3.391-3.2,5.562-2.3l26.056,10.811c2.172,0.9,3.201,3.39,2.299,5.56
		L428.01,125.997z"/>
</g>
<g>
	<path fill-rule="evenodd" clip-rule="evenodd" fill="#2F303D" d="M245.558,182.952c1.176,0.793,1.6,2.22,0.946,3.187
		l-59.165,87.689c-0.652,0.966-2.134,1.107-3.31,0.313l0,0c-1.176-0.792-1.6-2.22-0.947-3.186l59.166-87.689
		C242.9,182.299,244.382,182.159,245.558,182.952L245.558,182.952z"/>
	<path fill-rule="evenodd" clip-rule="evenodd" fill="#2F303D" d="M185.994,154.328l-51.188,75.865
		c-1.068,1.582-0.65,3.73,0.931,4.797l46.547,31.407c1.583,1.067,3.73,0.65,4.798-0.932l51.188-75.864
		c1.067-1.583,0.65-3.73-0.932-4.798l-46.546-31.406C189.209,152.329,187.062,152.746,185.994,154.328z M161.693,193.133
		c0.51-0.755,1.536-0.956,2.292-0.445c0.755,0.51,0.955,1.536,0.444,2.292c-0.51,0.756-1.536,0.955-2.291,0.445
		C161.383,194.916,161.184,193.89,161.693,193.133z M234.335,186.936l-50.761,75.232l-42.729-28.83l50.761-75.231L234.335,186.936z"
		/>
</g>
<g>
	<g id="TXOWKr.tif">
		<g>
			<path fill-rule="evenodd" clip-rule="evenodd" fill="#2F303D" d="M74.706,287.8c0.861-0.273,1.723-0.544,2.614-0.827
				c-0.051,1.245-0.101,2.458-0.156,3.784c-1.031-0.479-1.955-0.907-2.878-1.334c-0.207-0.232-0.413-0.462-0.62-0.693
				C74.012,288.419,74.358,288.11,74.706,287.8z"/>
			<path fill-rule="evenodd" clip-rule="evenodd" fill="#2F303D" d="M91.46,296.792c0.413-4.73,0.823-9.427,1.219-13.959
				c23.011,1.188,46.385,2.396,69.692,3.601c-0.3,4.822-0.591,9.519-0.873,14.034C138.391,299.256,115.032,298.029,91.46,296.792z"
				/>
			<path fill-rule="evenodd" clip-rule="evenodd" fill="#2F303D" d="M171.142,305.723c0.076-1.254,0.127-2.095,0.168-2.755
				c-2.571-0.276-5.144-0.555-7.663-0.826c0.295-5.306,0.601-10.793,0.911-16.367c0.09-0.01,0.27-0.063,0.444-0.05
				c16.773,1.259,33.449,3.238,49.878,6.942c2.675,0.602,5.29,1.472,7.938,2.191c0.629,0.17,0.864,0.455,0.801,1.141
				c-0.105,1.151-0.086,2.315-0.123,3.596c-14.824,2.89-29.722,2.973-45.132,3.186c0.099,0.509,0.263,1,0.273,1.495
				c0.011,0.491-0.13,0.987-0.235,1.704c2.013,0.08,3.782,0.119,5.546,0.231c1.372,0.088,2.003,0.7,2.092,1.874
				c0.099,1.314-0.711,2.227-2.037,2.287c-0.232,0.012-0.465-0.009-0.696-0.022c-13.224-0.735-26.449-1.469-39.671-2.21
				c-1.924-0.107-2.714-0.971-2.403-2.578c0.186-0.955,0.76-1.498,1.729-1.58c0.421-0.035,0.849-0.014,1.273,0.01
				c8.546,0.473,17.09,0.945,25.635,1.435C170.29,305.449,170.7,305.617,171.142,305.723z"/>
			<path fill-rule="evenodd" clip-rule="evenodd" fill="#2F303D" d="M90.209,283.179c-0.384,4.35-0.747,8.467-1.133,12.836
				c-0.749-0.198-1.818-0.322-2.737-0.76c-2.015-0.962-3.969-2.056-5.907-3.167c-0.333-0.191-0.646-0.735-0.651-1.121
				c-0.021-1.39,0.051-2.784,0.191-4.166c0.035-0.353,0.378-0.843,0.701-0.974c2.178-0.882,4.368-1.75,6.601-2.476
				C88.077,283.091,89.011,283.234,90.209,283.179z"/>
		</g>
	</g>
	<path fill="#2F303D" d="M140.822,308.552c-0.96-0.059-1.669-1.273-1.582-2.719l0,0c0.086-1.441,0.936-2.564,1.897-2.507
		l44.84,2.698c0.961,0.061,1.669,1.275,1.582,2.719l0,0c-0.087,1.443-0.936,2.565-1.896,2.508L140.822,308.552z"/>
	<path fill="#2F303D" d="M170.791,307.214c-0.121-0.009-0.11-1.842,0.026-4.099l0,0c0.136-2.257,0.344-4.08,0.467-4.072l5.662,0.341
		c0.122,0.008,0.11,1.842-0.026,4.1l0,0c-0.136,2.256-0.345,4.079-0.466,4.071L170.791,307.214z"/>
</g>
<g id="XRwuVG.tif">
	<g>
		<path fill="#86A98F" d="M335.124,381.483c-0.664,0-1.327,0-1.99,0c-2.746-1.819-5.48-3.658-8.241-5.456
			c-16.173-10.526-31.396-22.195-44.072-36.887c-8.578-9.942-15.61-20.807-19.197-33.599c-0.888-3.165-1.433-6.429-2.135-9.646
			c0-3.152,0-6.303,0-9.455c0.195-0.873,0.42-1.74,0.58-2.619c3.797-20.86,20.729-35.459,41.353-35.121
			c13.678,0.224,25.014,5.301,32.104,17.739c0.164,0.287,0.18,0.658,0.261,0.981c2.079-2.805,3.557-5.24,5.472-7.26
			c1.977-2.084,4.205-4.038,6.623-5.577c18.311-11.65,44.367-5.588,56.057,12.946c7.629,12.096,8.484,25.039,4.594,38.481
			c-4.232,14.619-12.795,26.647-23.062,37.564c-12.231,13.004-26.379,23.652-41.367,33.243
			C339.747,378.329,337.448,379.927,335.124,381.483z"/>
	</g>
</g>
</svg>
