<?xml version="1.0" encoding="UTF-8" standalone="no"?>
<svg width="139px" height="139px" viewBox="0 0 139 139" version="1.1" xmlns="http://www.w3.org/2000/svg" xmlns:xlink="http://www.w3.org/1999/xlink" xmlns:sketch="http://www.bohemiancoding.com/sketch/ns">
    <!-- Generator: Sketch 3.4 (15588) - http://www.bohemiancoding.com/sketch -->
    <title>default</title>
    <desc>Created with Sketch.</desc>
    <defs></defs>
    <g id="Page-1" stroke="none" stroke-width="1" fill="none" fill-rule="evenodd" sketch:type="MSPage">
        <path d="M69.5,0 C31.1819196,0 0,31.1819196 0,69.5 L0,139 L13.8069196,124.107143 L27.7689732,139 L41.7310268,124.107143 L55.5379464,139 L69.5,124.107143 L83.3069196,139 L97.2689732,124.107143 L111.231027,139 L125.037946,124.107143 L139,139 L139,69.5 C139,31.1819196 107.81808,0 69.5,0 L69.5,0 Z M47.1607143,74.4642857 C40.3348214,74.4642857 34.75,68.8794643 34.75,62.0535714 C34.75,55.2276786 40.3348214,49.6428571 47.1607143,49.6428571 C53.9866071,49.6428571 59.5714286,55.2276786 59.5714286,62.0535714 C59.5714286,68.8794643 53.9866071,74.4642857 47.1607143,74.4642857 L47.1607143,74.4642857 Z M91.8392857,74.4642857 C85.0133929,74.4642857 79.4285714,68.8794643 79.4285714,62.0535714 C79.4285714,55.2276786 85.0133929,49.6428571 91.8392857,49.6428571 C98.6651786,49.6428571 104.25,55.2276786 104.25,62.0535714 C104.25,68.8794643 98.6651786,74.4642857 91.8392857,74.4642857 L91.8392857,74.4642857 Z" id="default" fill="#FFFFFF" sketch:type="MSShapeGroup"></path>
    </g>
</svg>