<?xml version="1.0" encoding="utf-8"?>
<!-- Generator: Adobe Illustrator 16.0.0, SVG Export Plug-In . SVG Version: 6.00 Build 0)  -->
<!DOCTYPE svg PUBLIC "-//W3C//DTD SVG 1.1//EN" "http://www.w3.org/Graphics/SVG/1.1/DTD/svg11.dtd">
<svg version="1.1" id="Layer_1" xmlns="http://www.w3.org/2000/svg" xmlns:xlink="http://www.w3.org/1999/xlink" x="0px" y="0px"
	 width="292.856px" height="203.571px" viewBox="0 0 292.856 203.571" enable-background="new 0 0 292.856 203.571"
	 xml:space="preserve">
<rect x="-258.679" y="-1211.184" fill-rule="evenodd" clip-rule="evenodd" fill="#DCDADA" width="2379.756" height="1052.184"/>
<g>
	<path fill="#414042" d="M-81.69-1044.5c0,0-14.45,46.631-69.015,46.579c-53.107-0.051-69.016-46.579-69.016-46.579
		s19.933-46.623,69.016-46.579C-95.587-1091.031-81.69-1044.5-81.69-1044.5z"/>
	<g>
		<path fill="#DCDADA" d="M-90.394-1044.5c0,0-12.536,40.45-59.866,40.405c-46.066-0.044-59.867-40.405-59.867-40.405
			s17.291-40.442,59.867-40.404C-102.448-1084.863-90.394-1044.5-90.394-1044.5z"/>
		<circle fill="#A1BCBF" cx="-150.26" cy="-1044.5" r="35.115"/>
		<circle fill="#414042" cx="-150.26" cy="-1044.5" r="14.914"/>
	</g>
</g>
<g>
	<path fill="#414042" d="M300.662-1539.534c0,0-18.266,58.944-87.237,58.878c-67.13-0.064-87.24-58.878-87.24-58.878
		s25.196-58.933,87.24-58.878C283.096-1598.352,300.662-1539.534,300.662-1539.534z"/>
	<g>
		<path fill="#DCDADA" d="M289.66-1539.535c0,0-15.846,51.13-75.674,51.074c-58.23-0.057-75.674-51.074-75.674-51.074
			s21.856-51.12,75.674-51.073C274.423-1590.555,289.66-1539.535,289.66-1539.535z"/>
		<circle fill="#A1BCBF" cx="213.986" cy="-1539.535" r="44.387"/>
		<circle fill="#414042" cx="213.986" cy="-1539.535" r="18.852"/>
	</g>
</g>
<g>
	<path fill="#414042" d="M48.082-863.414c0,0-14.449,46.631-69.014,46.579c-53.107-0.051-69.017-46.579-69.017-46.579
		s19.933-46.623,69.017-46.579C34.185-909.945,48.082-863.414,48.082-863.414z"/>
	<g>
		<circle fill="#A1BCBF" cx="-20.488" cy="-863.414" r="35.115"/>
		<circle fill="#414042" cx="-20.488" cy="-863.414" r="14.914"/>
	</g>
</g>
<g>
	<path fill="#414042" d="M-33.678-687.213c0,0-19.413,62.649-92.72,62.579c-71.35-0.068-92.724-62.579-92.724-62.579
		s26.779-62.637,92.724-62.579C-52.348-749.729-33.678-687.213-33.678-687.213z"/>
	<path fill="#414042" d="M-33.678-687.213c0,0-19.413,62.649-92.72,62.579c-71.35-0.068-92.724-62.579-92.724-62.579
		s26.779-62.637,92.724-62.579C-52.348-749.729-33.678-687.213-33.678-687.213z"/>
	<g>
		<circle fill="#A1BCBF" cx="-125.802" cy="-687.214" r="47.177"/>
		<circle fill="#414042" cx="-125.802" cy="-687.214" r="20.036"/>
	</g>
</g>
<g>
	<path fill="#414042" d="M48.972-494.328c0,0-14.449,46.631-69.014,46.579c-53.107-0.051-69.016-46.579-69.016-46.579
		s19.932-46.623,69.016-46.579C35.075-540.859,48.972-494.328,48.972-494.328z"/>
	<g>
		<path fill="#DCDADA" d="M40.269-494.328c0,0-12.535,40.45-59.867,40.405c-46.066-0.044-59.865-40.405-59.865-40.405
			s17.289-40.442,59.865-40.404C28.214-534.691,40.269-494.328,40.269-494.328z"/>
		<circle fill="#A1BCBF" cx="-19.598" cy="-494.328" r="35.114"/>
		<circle fill="#414042" cx="-19.598" cy="-494.328" r="14.913"/>
	</g>
</g>
<g>
	<path fill="#414042" d="M-81.69-287.414c0,0-14.449,46.631-69.014,46.579c-53.107-0.051-69.016-46.579-69.016-46.579
		s19.932-46.623,69.016-46.579C-95.587-333.945-81.69-287.414-81.69-287.414z"/>
	<g>
		<circle fill="#A1BCBF" cx="-150.26" cy="-287.414" r="35.114"/>
		<circle fill="#414042" cx="-150.26" cy="-287.414" r="14.913"/>
	</g>
</g>
<g>
	<path fill="#414042" d="M274.693,101.785c0,0-26.854,86.667-128.263,86.568c-98.702-0.095-128.269-86.568-128.269-86.568
		s37.045-86.648,128.269-86.568C248.867,15.305,274.693,101.785,274.693,101.785z"/>
	<path fill="#414042" d="M274.693,101.785c0,0-26.854,86.667-128.263,86.568c-98.702-0.095-128.269-86.568-128.269-86.568
		s37.045-86.648,128.269-86.568C248.867,15.305,274.693,101.785,274.693,101.785z"/>
	<g>
		<circle fill="#A1BCBF" cx="147.255" cy="101.785" r="65.262"/>
		<circle fill="#414042" cx="147.255" cy="101.785" r="27.717"/>
	</g>
</g>
</svg>
