<?xml version="1.0" encoding="utf-8"?>
<!-- Generator: Adobe Illustrator 16.0.0, SVG Export Plug-In . SVG Version: 6.00 Build 0)  -->
<!DOCTYPE svg PUBLIC "-//W3C//DTD SVG 1.1//EN" "http://www.w3.org/Graphics/SVG/1.1/DTD/svg11.dtd">
<svg version="1.1" id="Layer_1" xmlns:sketch="http://www.bohemiancoding.com/sketch/ns"
	 xmlns="http://www.w3.org/2000/svg" xmlns:xlink="http://www.w3.org/1999/xlink" x="0px" y="0px" width="155px" height="137px"
	 viewBox="0 0 155 137" enable-background="new 0 0 155 137" xml:space="preserve">
<title>few-clouds</title>
<desc>Created with Sketch.</desc>
<g id="Page-1" sketch:type="MSPage">
	<path id="few-clouds" sketch:type="MSShapeGroup" fill="#CECCCD" d="M149.258,74.203h-11.482c-3.169,0-5.741-2.555-5.741-5.709
		c0-3.151,2.572-5.703,5.741-5.703h11.482c3.17,0,5.742,2.555,5.742,5.703C155,71.648,152.428,74.203,149.258,74.203L149.258,74.203
		z M126.703,36.205c-2.242,2.229-5.877,2.229-8.119,0c-2.241-2.227-2.241-5.843,0-8.069l8.119-8.072
		c2.242-2.229,5.877-2.229,8.119,0c2.241,2.227,2.241,5.843,0,8.072L126.703,36.205L126.703,36.205z M118.243,80.754L118.243,80.754
		c5.021,5.954,8.056,13.615,8.056,21.993c0,18.91-15.422,34.247-34.447,34.247H45.926C20.563,136.994,0,116.551,0,91.329
		c0-25.221,20.563-45.665,45.926-45.665c4.513,0,8.871,0.663,12.984,1.867c6.301-8.069,16.128-13.284,27.201-13.284
		c19.023,0,34.445,15.337,34.445,34.247C120.555,72.818,119.713,76.946,118.243,80.754L118.243,80.754z M11.48,91.329
		c0,18.917,15.419,34.247,34.443,34.247H91.85c12.683,0,22.963-10.225,22.963-22.829c0-12.61-10.28-22.835-22.963-22.835
		c-4.594,0-8.851,1.375-12.439,3.685c-3.534-15.174-17.149-26.515-33.487-26.515C26.899,57.082,11.48,72.413,11.48,91.329
		L11.48,91.329z M86.107,45.665c-6.35,0-12.1,2.563-16.253,6.705c6.717,4.099,12.3,9.856,16.16,16.709
		c1.906-0.322,3.838-0.585,5.836-0.585c6.1,0,11.824,1.596,16.793,4.358l0,0c0.276-1.409,0.432-2.866,0.432-4.358
		C109.074,55.889,98.791,45.665,86.107,45.665L86.107,45.665z M86.107,22.83c-3.169,0-5.738-2.555-5.738-5.706V5.709
		C80.369,2.555,82.941,0,86.107,0c3.173,0,5.742,2.555,5.742,5.709v11.415C91.85,20.278,89.283,22.83,86.107,22.83L86.107,22.83z
		 M45.516,36.205L37.4,28.136c-2.242-2.229-2.242-5.846,0-8.072c2.239-2.229,5.876-2.229,8.116,0l8.119,8.072
		c2.242,2.227,2.242,5.843,0,8.069C51.395,38.435,47.758,38.435,45.516,36.205L45.516,36.205z"/>
</g>
</svg>
