<?xml version="1.0" encoding="utf-8"?>
<!-- Generator: Adobe Illustrator 16.0.0, SVG Export Plug-In . SVG Version: 6.00 Build 0)  -->
<!DOCTYPE svg PUBLIC "-//W3C//DTD SVG 1.1//EN" "http://www.w3.org/Graphics/SVG/1.1/DTD/svg11.dtd">
<svg version="1.1" id="Layer_1" xmlns="http://www.w3.org/2000/svg" xmlns:xlink="http://www.w3.org/1999/xlink" x="0px" y="0px"
	 width="2649.266px" height="1817.732px" viewBox="0 0 2649.266 1817.732" enable-background="new 0 0 2649.266 1817.732"
	 xml:space="preserve">
<g>
	<polygon opacity="0.2" fill="#DCDADA" points="170.039,1549.434 170.039,1751.878 902.429,1751.878 902.429,1552.225 
		654.658,1552.225 654.658,1400.679 363.35,1400.679 364.131,1549.963 	"/>
	<polygon opacity="0.2" fill="#DCDADA" points="229.125,1586.22 229.125,1751.878 812.092,1751.878 812.092,1588.503 
		631.699,1588.503 631.699,1464.495 399.823,1464.495 400.446,1586.652 	"/>
</g>
<g>
	<polygon opacity="0.2" fill="#DCDADA" points="1986.015,1579.629 1986.015,1726.9 2518.803,1726.9 2518.803,1581.66 
		2278.558,1581.66 2278.558,1471.416 2066.641,1471.416 2067.21,1580.014 	"/>
	<polygon opacity="0.2" fill="#DCDADA" points="2028.998,1606.39 2028.998,1726.9 2453.086,1726.9 2453.086,1608.051 
		2261.856,1608.051 2261.856,1517.839 2093.174,1517.839 2093.628,1606.704 	"/>
</g>
<g>
	<polygon opacity="0.2" fill="#DCDADA" points="1304.71,391.432 1304.71,498.931 915.807,498.931 915.807,392.914 1091.171,392.914 
		1091.171,312.442 1245.857,312.442 1245.442,391.712 	"/>
	<polygon opacity="0.2" fill="#DCDADA" points="1273.335,410.965 1273.335,498.931 963.776,498.931 963.776,412.178 
		1103.362,412.178 1103.362,346.329 1226.49,346.329 1226.159,411.195 	"/>
</g>
<g>
	<polygon opacity="0.2" fill="#DCDADA" points="90.843,590.286 90.843,682.419 424.157,682.419 424.157,591.556 273.859,591.556 
		273.859,522.586 141.283,522.586 141.639,590.526 	"/>
	<polygon opacity="0.2" fill="#DCDADA" points="117.732,607.027 117.732,682.419 383.045,682.419 383.045,608.066 263.411,608.066 
		263.411,551.629 157.882,551.629 158.166,607.224 	"/>
</g>
<g>
	<polygon fill="#414042" points="2591.848,1034.475 2576.864,1058.594 2587.742,1084.82 2569.08,1106.223 2575.711,1133.829 
		2554.027,1152.17 2556.625,1180.443 2532.657,1195.683 2531.662,1224.061 2506.067,1236.38 2501.992,1264.482 2475.287,1274.164 
		2468.618,1301.769 2441.18,1309.119 2432.335,1336.106 2404.429,1341.412 2393.753,1367.729 2365.565,1371.238 2353.337,1396.869 
		2324.999,1398.792 2311.438,1423.745 2283.037,1424.259 2268.319,1448.551 2239.924,1447.804 2224.192,1471.454 2195.85,1469.567 
		2179.224,1492.597 2150.97,1489.672 2133.548,1512.104 2105.408,1508.227 2087.266,1530.082 2059.262,1525.326 2040.466,1546.622 
		2012.612,1541.051 1993.225,1561.804 1965.538,1555.467 1945.601,1575.695 1918.086,1568.639 1897.639,1588.355 1870.307,1580.621 
		1849.386,1599.838 1822.244,1591.457 1800.885,1610.183 1773.941,1601.187 1752.169,1619.431 1725.429,1609.845 1703.266,1627.614 
		1676.735,1617.463 1654.208,1634.763 1627.894,1624.065 1605.017,1640.903 1578.922,1629.678 1555.711,1646.057 1529.843,1634.319 
		1506.317,1650.241 1480.68,1638.006 1456.854,1653.475 1431.453,1640.754 1407.338,1655.771 1382.179,1642.575 1357.789,1657.14 
		1332.877,1643.481 1308.22,1657.595 1283.568,1643.481 1258.661,1657.141 1234.274,1642.576 1209.118,1655.771 1185.005,1640.755 
		1159.606,1653.476 1135.781,1638.007 1110.144,1650.243 1086.619,1634.321 1060.751,1646.059 1037.542,1629.681 1011.447,1640.905 
		988.569,1624.068 962.255,1634.766 939.725,1617.466 913.195,1627.617 891.034,1609.849 864.293,1619.435 842.518,1601.19 
		815.572,1610.186 794.209,1591.46 767.064,1599.84 746.141,1580.623 718.806,1588.356 698.354,1568.639 670.835,1575.693 
		650.892,1555.464 623.2,1561.799 603.807,1541.044 575.953,1546.616 557.158,1525.319 529.153,1530.074 511.008,1508.218 
		482.866,1512.093 465.44,1489.66 437.184,1492.584 420.56,1469.554 392.218,1471.44 376.487,1447.79 348.091,1448.536 
		333.373,1424.243 304.974,1423.729 291.412,1398.773 263.072,1396.85 250.845,1371.216 222.657,1367.707 211.983,1341.389 
		184.079,1336.084 175.236,1309.097 147.798,1301.745 141.13,1274.14 114.426,1264.458 110.354,1236.357 84.762,1224.038 
		83.769,1195.663 59.803,1180.424 62.405,1152.154 40.723,1133.814 47.357,1106.212 28.695,1084.811 39.574,1058.589 
		24.592,1034.475 39.575,1010.355 28.697,984.129 47.359,962.726 40.728,935.12 62.413,916.78 59.814,888.506 83.782,873.267 
		84.777,844.889 110.371,832.57 114.447,804.468 141.152,794.786 147.822,767.181 175.26,759.831 184.105,732.843 212.01,727.538 
		222.687,701.22 250.874,697.712 263.102,672.081 291.439,670.159 305.001,645.205 333.401,644.691 348.12,620.399 376.516,621.146 
		392.247,597.497 420.589,599.383 437.214,576.354 465.469,579.278 482.892,556.847 511.031,560.724 529.173,538.869 
		557.178,543.625 575.973,522.328 603.827,527.9 623.215,507.146 650.901,513.484 670.839,493.256 698.353,500.312 718.799,480.595 
		746.132,488.33 767.052,469.113 794.194,477.494 815.553,458.768 842.497,467.764 864.27,449.521 891.009,459.105 913.172,441.336 
		939.702,451.487 962.231,434.187 988.544,444.885 1011.421,428.047 1037.517,439.272 1060.729,422.894 1086.597,434.632 
		1110.123,418.709 1135.761,430.944 1159.586,415.476 1184.986,428.197 1209.102,413.181 1234.261,426.375 1258.651,411.81 
		1283.563,425.468 1308.22,411.355 1332.871,425.468 1357.778,411.81 1382.166,426.374 1407.322,413.18 1431.436,428.196 
		1456.834,415.475 1480.66,430.943 1506.296,418.707 1529.821,434.629 1555.689,422.892 1578.899,439.27 1604.993,428.044 
		1627.872,444.881 1654.188,434.184 1676.717,451.484 1703.246,441.332 1725.408,459.102 1752.148,449.516 1773.923,467.76 
		1800.869,458.764 1822.232,477.49 1849.377,469.11 1870.3,488.327 1897.636,480.593 1918.088,500.311 1945.606,493.256 
		1965.549,513.486 1993.242,507.15 2012.635,527.906 2040.488,522.334 2059.283,543.63 2087.288,538.876 2105.434,560.732 
		2133.575,556.856 2151,579.29 2179.256,576.366 2195.88,599.396 2224.222,597.51 2239.952,621.16 2268.349,620.414 
		2283.067,644.707 2311.467,645.221 2325.028,670.176 2353.368,672.101 2365.597,697.734 2393.785,701.243 2404.458,727.561 
		2432.362,732.866 2441.204,759.853 2468.643,767.206 2475.31,794.81 2502.013,804.492 2506.085,832.593 2531.678,844.912 
		2532.669,873.287 2556.635,888.525 2554.034,916.796 2575.716,935.135 2569.083,962.737 2587.744,984.138 2576.865,1010.36 	"/>
</g>
<ellipse fill="#659998" cx="1305.419" cy="1028.769" rx="1078.608" ry="520.553"/>
<g>
	<polygon fill="#86A98F" points="183.538,730.137 183.538,1307.993 558.538,1434.492 558.879,615.917 	"/>
	<polygon fill="#75947D" points="932.879,729.819 932.879,1307.78 558.538,1434.492 558.879,615.917 	"/>
</g>
<polygon fill="#A9DCD9" points="932.879,729.924 932.879,1307.78 1307.879,1434.279 1308.22,615.704 "/>
<polygon fill="#393947" points="1682.22,729.606 1673.879,1287.56 1307.879,1434.279 1308.22,615.704 "/>
<polygon fill="#48484A" points="1081.838,1280.534 1308.89,1350.282 1534.602,1267.524 1304.986,1203.707 "/>
<polygon fill="#1A1925" points="1307.517,1350.282 1538.497,1267.524 1308.882,1203.707 "/>
<g>
	<g>
		<g enable-background="new    ">
			<g>
				<polygon fill="#C0C0C1" points="1523.413,911.697 1524.378,1216.232 1308.206,1289.321 1307.241,984.785 				"/>
			</g>
			<g>
				<polygon fill="#909193" points="1308.206,1289.321 1087.008,1227.711 1086.043,923.176 1307.241,984.785 				"/>
			</g>
			<g>
				<polygon fill="#A8A8A9" points="1307.241,984.785 1086.043,923.176 1302.215,850.087 1523.413,911.697 				"/>
			</g>
		</g>
	</g>
</g>
<polygon fill="#86A98F" points="1085.209,923.704 1305.209,987.704 1523.209,911.704 1308.22,847.704 "/>
<polyline fill="#C8C7C7" points="1211.028,959.888 1211.028,1104.704 1307.209,1126.704 1389.209,1094.704 1389.209,958.888 
	1333.209,942.704 1363.209,931.704 1317.209,919.704 "/>
<polygon fill="#DCDADA" points="1325.209,1053.704 1211.028,1104.67 1307.722,1133.704 1389.722,1100.704 1343.538,1079.704 
	1344.209,1065.704 "/>
<polyline fill="#828384" points="1317.209,1056.704 1317.209,919.704 1363.209,931.704 1336.209,942.704 1357.206,1069.704 "/>
<polygon fill="#999A9B" points="1336.209,942.704 1336.838,1080.615 1390.21,1100.704 1390.209,957.888 "/>
<path opacity="0.7" fill="#418787" d="M1622.646,1025.204"/>
<polygon fill="#7A6F67" points="1086.209,923.704 1086.209,1014.704 1211.028,1053.704 1211.028,959.888 "/>
<polygon fill="#A09186" points="1523.209,911.704 1523.209,1002.704 1390.21,1051.704 1390.21,957.888 "/>
<polygon fill="#A09186" points="1317.209,919.704 1317.209,1007.704 1211.028,1053.704 1211.028,959.888 "/>
<polygon fill="#7A6F67" points="1336.14,942.704 1336.632,1035.493 1390.21,1051.704 1390.209,957.888 "/>
<polygon fill="#695F58" points="1317.209,919.704 1317.209,1007.704 1336.709,1014.204 1336.209,942.704 1363.209,931.704 "/>
<polygon fill="#7A6F67" points="1086.209,1014.204 1086.209,1053.077 1139.528,1069.737 1139.528,1029.661 "/>
<polygon fill="#A09186" points="1523.209,1002.704 1523.209,1040.287 1496.05,1050.294 1496.05,1011.978 "/>
<polygon fill="#A09186" points="1291.277,1018.938 1291.277,1056.742 1264.118,1068.749 1264.118,1030.433 "/>
<polygon fill="#31313C" points="1412.734,750.402 1413.819,806.508 1486.601,829.571 1485.512,773.355 "/>
<polygon fill="#31313C" points="1476.638,770.67 1477.724,826.776 1550.504,849.838 1549.416,793.623 "/>
<polygon fill="#31313C" points="1460.629,710.01 1461.715,766.117 1534.494,789.179 1533.407,732.962 "/>
<polygon fill="#31313C" points="1534.479,788.346 1535.563,844.453 1608.344,867.515 1607.256,811.298 "/>
<polygon fill="#F1F2F2" points="1121.229,822.25 1122.544,878.352 1050.816,904.504 1049.5,848.293 "/>
<polygon fill="#F1F2F2" points="1134.631,760.962 1135.945,817.062 1064.218,843.216 1062.9,787.004 "/>
<polygon fill="#F1F2F2" points="1064.198,842.383 1065.512,898.484 993.785,924.637 992.468,868.426 "/>
<polygon fill="#F1F2F2" points="1184.209,799.269 1185.522,855.37 1113.795,881.523 1112.479,825.312 "/>
<polygon opacity="0.7" fill="#404743" points="1122.686,926.253 1183.607,943.704 1244.53,922.752 1182.738,905.578 "/>
<g>
	<g>
		<g enable-background="new    ">
			<g>
				<polygon fill="#83827D" points="1205.461,813.859 1205.556,919.029 1181.672,926.789 1181.578,821.62 				"/>
			</g>
			<g>
				<polygon fill="#70706B" points="1181.672,926.789 1158.333,920.153 1158.238,814.983 1181.578,821.62 				"/>
			</g>
			<g>
				<polygon fill="#797874" points="1181.578,821.62 1158.238,814.983 1182.122,807.223 1205.461,813.859 				"/>
			</g>
		</g>
	</g>
</g>
<g>
	<g>
		<g enable-background="new    ">
			<g>
				<polygon fill="#57715F" points="1241.6,788.419 1241.075,820.113 1181.918,838.199 1182.443,806.505 				"/>
			</g>
			<g>
				<polygon fill="#4F6857" points="1181.918,838.199 1123.868,820.592 1124.393,788.898 1182.443,806.505 				"/>
			</g>
			<g>
				<polygon fill="#536D5B" points="1182.443,806.505 1124.393,788.898 1183.55,770.812 1241.6,788.419 				"/>
			</g>
		</g>
	</g>
</g>
<g>
	<g>
		<g enable-background="new    ">
			<g>
				<polygon fill="#64806C" points="1266.228,767.154 1265.703,798.857 1182.067,824.427 1182.592,792.725 				"/>
			</g>
			<g>
				<polygon fill="#526C5B" points="1182.067,824.427 1094.992,798.018 1095.517,766.315 1182.592,792.725 				"/>
			</g>
			<g>
				<polygon fill="#5B7663" points="1182.592,792.725 1095.517,766.315 1179.153,740.745 1266.228,767.154 				"/>
			</g>
		</g>
	</g>
</g>
<g>
	<g>
		<g enable-background="new    ">
			<g>
				<polygon fill="#6B8873" points="1228.309,735.081 1227.784,766.783 1181.189,781.029 1181.714,749.327 				"/>
			</g>
			<g>
				<polygon fill="#546E5C" points="1181.189,781.029 1144.908,770.025 1145.433,738.323 1181.714,749.327 				"/>
			</g>
			<g>
				<polygon fill="#5F7B68" points="1181.714,749.327 1145.433,738.323 1192.027,724.077 1228.309,735.081 				"/>
			</g>
		</g>
	</g>
</g>
<polygon fill="#858688" points="1235.759,1211.98 1235.759,1218.901 1244.853,1221.452 1244.853,1214.472 "/>
<polygon fill="#858688" points="1250.092,1203.708 1250.092,1210.629 1259.186,1213.179 1259.186,1206.198 "/>
<polygon fill="#858688" points="1247.483,1213.999 1247.483,1217.97 1252.7,1219.433 1252.7,1215.429 "/>
<polygon fill="#858688" points="1256.345,1219.433 1256.345,1223.94 1262.268,1225.602 1262.268,1221.056 "/>
<polygon fill="#858688" points="1254.646,1226.136 1254.646,1228.722 1258.044,1229.675 1258.044,1227.067 "/>
<polygon fill="#858688" points="1262.268,1214.12 1262.268,1217.934 1267.279,1219.34 1267.279,1215.492 "/>
<polygon fill="#858688" points="1270.167,1209.561 1270.167,1213.375 1275.179,1214.78 1275.179,1210.933 "/>
<polygon fill="#858688" points="1268.729,1215.232 1268.729,1217.421 1271.604,1218.227 1271.604,1216.021 "/>
<polygon fill="#858688" points="1273.612,1218.227 1273.612,1220.711 1276.877,1221.627 1276.877,1219.121 "/>
<polygon fill="#858688" points="1272.677,1221.921 1272.677,1223.346 1274.55,1223.871 1274.55,1222.435 "/>
<polygon fill="#858688" points="1149.028,1065.026 1149.028,1071.947 1158.122,1074.498 1158.122,1067.518 "/>
<polygon fill="#858688" points="1163.361,1056.754 1163.361,1063.675 1172.455,1066.225 1172.455,1059.244 "/>
<polygon fill="#858688" points="1160.753,1067.045 1160.753,1071.016 1165.97,1072.479 1165.97,1068.475 "/>
<polygon fill="#858688" points="1169.614,1072.479 1169.614,1076.986 1175.537,1078.647 1175.537,1074.102 "/>
<polygon fill="#858688" points="1167.916,1079.182 1167.916,1081.768 1171.313,1082.721 1171.313,1080.113 "/>
<polygon fill="#858688" points="1175.537,1067.166 1175.537,1070.979 1180.549,1072.386 1180.549,1068.538 "/>
<polygon fill="#858688" points="1183.437,1062.606 1183.437,1066.421 1188.448,1067.826 1188.448,1063.979 "/>
<polygon fill="#858688" points="1181.999,1068.278 1181.999,1070.467 1184.874,1071.272 1184.874,1069.066 "/>
<polygon fill="#858688" points="1186.882,1071.272 1186.882,1073.757 1190.146,1074.673 1190.146,1072.167 "/>
<polygon fill="#858688" points="1185.946,1074.967 1185.946,1076.392 1187.819,1076.917 1187.819,1075.48 "/>
<polygon fill="#858688" points="1102.126,1153.647 1102.126,1160.567 1111.22,1163.118 1111.22,1156.138 "/>
<polygon fill="#858688" points="1116.459,1145.374 1116.459,1152.296 1125.553,1154.845 1125.553,1147.864 "/>
<polygon fill="#858688" points="1113.851,1155.665 1113.851,1159.636 1119.067,1161.099 1119.067,1157.095 "/>
<polygon fill="#858688" points="1122.712,1161.099 1122.712,1165.606 1128.635,1167.269 1128.635,1162.722 "/>
<polygon fill="#858688" points="1121.014,1167.802 1121.014,1170.388 1124.411,1171.341 1124.411,1168.733 "/>
<polygon fill="#858688" points="1128.635,1155.786 1128.635,1159.601 1133.646,1161.007 1133.646,1157.159 "/>
<polygon fill="#858688" points="1136.534,1151.228 1136.534,1155.042 1141.546,1156.446 1141.546,1152.599 "/>
<polygon fill="#858688" points="1135.097,1156.899 1135.097,1159.087 1137.972,1159.894 1137.972,1157.687 "/>
<polygon fill="#858688" points="1139.979,1159.894 1139.979,1162.378 1143.244,1163.294 1143.244,1160.788 "/>
<polygon fill="#858688" points="1139.044,1163.587 1139.044,1165.013 1140.917,1165.538 1140.917,1164.101 "/>
<polygon fill="#ABACAC" points="1485.768,1166.632 1485.768,1173.552 1476.674,1176.103 1476.674,1169.122 "/>
<polygon fill="#ABACAC" points="1471.435,1158.358 1471.435,1165.28 1462.341,1167.829 1462.341,1160.849 "/>
<polygon fill="#ABACAC" points="1474.043,1168.649 1474.043,1172.62 1468.826,1174.083 1468.826,1170.079 "/>
<polygon fill="#ABACAC" points="1465.182,1174.083 1465.182,1178.591 1459.259,1180.253 1459.259,1175.706 "/>
<polygon fill="#ABACAC" points="1466.88,1180.786 1466.88,1183.372 1463.482,1184.325 1463.482,1181.718 "/>
<polygon fill="#ABACAC" points="1459.259,1168.771 1459.259,1172.585 1454.247,1173.991 1454.247,1170.144 "/>
<polygon fill="#ABACAC" points="1451.359,1164.212 1451.359,1168.026 1446.348,1169.431 1446.348,1165.583 "/>
<polygon fill="#ABACAC" points="1452.797,1169.884 1452.797,1172.071 1449.922,1172.878 1449.922,1170.671 "/>
<polygon fill="#ABACAC" points="1447.914,1172.878 1447.914,1175.362 1444.649,1176.278 1444.649,1173.772 "/>
<polygon fill="#ABACAC" points="1448.85,1176.571 1448.85,1177.997 1446.977,1178.522 1446.977,1177.085 "/>
<polygon fill="#ABACAC" points="1432.101,1065.066 1432.101,1071.985 1423.007,1074.536 1423.007,1067.556 "/>
<polygon fill="#ABACAC" points="1417.768,1056.793 1417.768,1063.715 1408.674,1066.263 1408.674,1059.283 "/>
<polygon fill="#ABACAC" points="1420.376,1067.083 1420.376,1071.054 1415.159,1072.517 1415.159,1068.513 "/>
<polygon fill="#ABACAC" points="1411.515,1072.517 1411.515,1077.024 1405.592,1078.687 1405.592,1074.14 "/>
<polygon fill="#ABACAC" points="1413.213,1079.22 1413.213,1081.806 1409.815,1082.759 1409.815,1080.151 "/>
<polygon fill="#ABACAC" points="1338.482,1263.597 1338.482,1267.411 1333.471,1268.817 1333.471,1264.97 "/>
<polygon fill="#ABACAC" points="1330.583,1259.038 1330.583,1262.853 1325.571,1264.257 1325.571,1260.409 "/>
<polygon fill="#ABACAC" points="1332.021,1264.71 1332.021,1266.897 1329.146,1267.704 1329.146,1265.497 "/>
<polygon fill="#ABACAC" points="1327.138,1267.704 1327.138,1270.188 1323.873,1271.104 1323.873,1268.599 "/>
<polygon fill="#ABACAC" points="1328.073,1271.397 1328.073,1272.823 1326.2,1273.349 1326.2,1271.911 "/>
<polygon fill="#ABACAC" points="1359.041,1140.665 1359.041,1147.585 1349.947,1150.136 1349.947,1143.155 "/>
<polygon fill="#ABACAC" points="1344.708,1132.392 1344.708,1139.313 1335.614,1141.862 1335.614,1134.882 "/>
<polygon fill="#ABACAC" points="1347.316,1142.683 1347.316,1146.653 1342.1,1148.116 1342.1,1144.112 "/>
<polygon fill="#ABACAC" points="1338.455,1148.116 1338.455,1152.624 1332.532,1154.286 1332.532,1149.739 "/>
<polygon fill="#ABACAC" points="1340.153,1154.819 1340.153,1157.405 1336.756,1158.358 1336.756,1155.751 "/>
<polygon fill="#ABACAC" points="1332.532,1142.804 1332.532,1146.618 1327.521,1148.024 1327.521,1144.177 "/>
<polygon fill="#ABACAC" points="1324.633,1138.245 1324.633,1142.06 1319.621,1143.464 1319.621,1139.616 "/>
<polygon fill="#ABACAC" points="1326.07,1143.917 1326.07,1146.104 1323.195,1146.911 1323.195,1144.704 "/>
<polygon fill="#ABACAC" points="1321.188,1146.911 1321.188,1149.396 1317.923,1150.312 1317.923,1147.806 "/>
<polygon fill="#ABACAC" points="1322.123,1150.604 1322.123,1152.03 1320.25,1152.556 1320.25,1151.118 "/>
<polygon fill="#847870" points="1142.244,1011.52 1142.244,1013.047 1144.252,1013.61 1144.252,1012.069 "/>
<polygon fill="#847870" points="1145.409,1009.692 1145.409,1011.221 1147.417,1011.784 1147.417,1010.242 "/>
<polygon fill="#847870" points="1144.833,1011.965 1144.833,1012.842 1145.984,1013.165 1145.984,1012.28 "/>
<polygon fill="#847870" points="1146.789,1013.165 1146.789,1014.16 1148.098,1014.527 1148.098,1013.523 "/>
<polygon fill="#847870" points="1146.414,1014.645 1146.414,1015.216 1147.165,1015.426 1147.165,1014.851 "/>
<polygon fill="#847870" points="1145.691,1016.206 1145.691,1017.734 1147.699,1018.298 1147.699,1016.756 "/>
<polygon fill="#847870" points="1148.856,1014.38 1148.856,1015.908 1150.864,1016.471 1150.864,1014.93 "/>
<polygon fill="#847870" points="1148.28,1016.652 1148.28,1017.529 1149.432,1017.852 1149.432,1016.968 "/>
<polygon fill="#847870" points="1150.236,1017.852 1150.236,1018.847 1151.545,1019.214 1151.545,1018.21 "/>
<polygon fill="#847870" points="1149.861,1019.332 1149.861,1019.902 1150.612,1020.113 1150.612,1019.537 "/>
<polygon fill="#847870" points="1148.325,1011.524 1148.325,1013.053 1150.333,1013.616 1150.333,1012.074 "/>
<polygon fill="#847870" points="1151.49,1009.698 1151.49,1011.227 1153.498,1011.789 1153.498,1010.248 "/>
<polygon fill="#847870" points="1150.914,1011.971 1150.914,1012.848 1152.065,1013.17 1152.065,1012.286 "/>
<polygon fill="#847870" points="1152.87,1013.17 1152.87,1014.165 1154.179,1014.532 1154.179,1013.528 "/>
<polygon fill="#847870" points="1152.495,1014.65 1152.495,1015.221 1153.246,1015.432 1153.246,1014.855 "/>
<polygon fill="#847870" points="1174.582,1028.996 1174.582,1030.524 1176.59,1031.088 1176.59,1029.546 "/>
<polygon fill="#847870" points="1177.747,1027.17 1177.747,1028.698 1179.755,1029.261 1179.755,1027.72 "/>
<polygon fill="#847870" points="1177.171,1029.442 1177.171,1030.319 1178.322,1030.642 1178.322,1029.758 "/>
<polygon fill="#847870" points="1179.127,1030.642 1179.127,1031.637 1180.436,1032.004 1180.436,1031 "/>
<polygon fill="#847870" points="1178.752,1032.122 1178.752,1032.692 1179.503,1032.903 1179.503,1032.327 "/>
<polygon fill="#847870" points="1178.029,1033.684 1178.029,1035.211 1180.037,1035.774 1180.037,1034.233 "/>
<polygon fill="#847870" points="1181.194,1031.856 1181.194,1033.385 1183.202,1033.948 1183.202,1032.406 "/>
<polygon fill="#847870" points="1180.618,1034.129 1180.618,1035.006 1181.77,1035.329 1181.77,1034.444 "/>
<polygon fill="#847870" points="1182.574,1035.329 1182.574,1036.324 1183.883,1036.691 1183.883,1035.688 "/>
<polygon fill="#847870" points="1182.199,1036.809 1182.199,1037.38 1182.95,1037.59 1182.95,1037.015 "/>
<polygon fill="#847870" points="1180.663,1029.002 1180.663,1030.529 1182.671,1031.093 1182.671,1029.552 "/>
<polygon fill="#847870" points="1183.828,1027.175 1183.828,1028.703 1185.836,1029.267 1185.836,1027.725 "/>
<polygon fill="#847870" points="1183.252,1029.447 1183.252,1030.324 1184.403,1030.647 1184.403,1029.763 "/>
<polygon fill="#847870" points="1185.208,1030.647 1185.208,1031.643 1186.517,1032.01 1186.517,1031.006 "/>
<polygon fill="#847870" points="1184.833,1032.127 1184.833,1032.698 1185.584,1032.908 1185.584,1032.333 "/>
<polygon fill="#847870" points="1112.868,1045.67 1112.868,1047.198 1114.876,1047.762 1114.876,1046.22 "/>
<polygon fill="#847870" points="1116.033,1043.844 1116.033,1045.372 1118.041,1045.935 1118.041,1044.394 "/>
<polygon fill="#847870" points="1115.457,1046.116 1115.457,1046.993 1116.608,1047.315 1116.608,1046.432 "/>
<polygon fill="#847870" points="1117.413,1047.315 1117.413,1048.311 1118.722,1048.678 1118.722,1047.674 "/>
<polygon fill="#847870" points="1117.038,1048.796 1117.038,1049.366 1117.789,1049.577 1117.789,1049.001 "/>
<polygon fill="#847870" points="1116.315,1050.357 1116.315,1051.885 1118.323,1052.448 1118.323,1050.907 "/>
<polygon fill="#847870" points="1119.48,1048.53 1119.48,1050.059 1121.488,1050.622 1121.488,1049.08 "/>
<polygon fill="#847870" points="1118.904,1050.803 1118.904,1051.68 1120.056,1052.003 1120.056,1051.118 "/>
<polygon fill="#847870" points="1120.86,1052.003 1120.86,1052.998 1122.169,1053.365 1122.169,1052.361 "/>
<polygon fill="#847870" points="1120.485,1053.482 1120.485,1054.054 1121.236,1054.264 1121.236,1053.688 "/>
<polygon fill="#847870" points="1118.949,1045.676 1118.949,1047.203 1120.957,1047.767 1120.957,1046.226 "/>
<polygon fill="#847870" points="1122.114,1043.849 1122.114,1045.377 1124.122,1045.94 1124.122,1044.398 "/>
<polygon fill="#847870" points="1121.538,1046.121 1121.538,1046.998 1122.689,1047.321 1122.689,1046.437 "/>
<polygon fill="#847870" points="1123.494,1047.321 1123.494,1048.316 1124.803,1048.684 1124.803,1047.68 "/>
<polygon fill="#847870" points="1123.119,1048.801 1123.119,1049.372 1123.87,1049.582 1123.87,1049.007 "/>
<polygon fill="#847870" points="1110.065,970.344 1110.065,971.872 1112.073,972.436 1112.073,970.894 "/>
<polygon fill="#847870" points="1113.23,968.518 1113.23,970.046 1115.238,970.608 1115.238,969.067 "/>
<polygon fill="#847870" points="1112.654,970.79 1112.654,971.667 1113.806,971.989 1113.806,971.105 "/>
<polygon fill="#847870" points="1114.61,971.989 1114.61,972.984 1115.919,973.352 1115.919,972.348 "/>
<polygon fill="#847870" points="1114.235,973.47 1114.235,974.04 1114.986,974.251 1114.986,973.675 "/>
<polygon fill="#847870" points="1113.513,975.031 1113.513,976.559 1115.521,977.122 1115.521,975.581 "/>
<polygon fill="#847870" points="1116.678,973.204 1116.678,974.732 1118.686,975.296 1118.686,973.754 "/>
<polygon fill="#847870" points="1116.102,975.477 1116.102,976.354 1117.253,976.677 1117.253,975.792 "/>
<polygon fill="#847870" points="1118.058,976.677 1118.058,977.672 1119.366,978.039 1119.366,977.035 "/>
<polygon fill="#847870" points="1117.683,978.156 1117.683,978.728 1118.434,978.938 1118.434,978.362 "/>
<polygon fill="#847870" points="1116.146,970.35 1116.146,971.877 1118.154,972.44 1118.154,970.899 "/>
<polygon fill="#847870" points="1119.312,968.522 1119.312,970.051 1121.319,970.614 1121.319,969.072 "/>
<polygon fill="#847870" points="1118.735,970.795 1118.735,971.672 1119.887,971.995 1119.887,971.11 "/>
<polygon fill="#847870" points="1120.691,971.995 1120.691,972.99 1122,973.357 1122,972.354 "/>
<polygon fill="#847870" points="1120.316,973.475 1120.316,974.046 1121.067,974.256 1121.067,973.681 "/>
<polygon fill="#534B45" points="1361.839,993.227 1361.839,994.755 1363.847,995.318 1363.847,993.776 "/>
<polygon fill="#534B45" points="1365.004,991.4 1365.004,992.929 1367.012,993.491 1367.012,991.95 "/>
<polygon fill="#534B45" points="1364.428,993.673 1364.428,994.55 1365.579,994.872 1365.579,993.988 "/>
<polygon fill="#534B45" points="1366.384,994.872 1366.384,995.867 1367.692,996.234 1367.692,995.23 "/>
<polygon fill="#534B45" points="1366.009,996.353 1366.009,996.923 1366.76,997.134 1366.76,996.558 "/>
<polygon fill="#534B45" points="1365.286,997.914 1365.286,999.441 1367.294,1000.005 1367.294,998.464 "/>
<polygon fill="#534B45" points="1368.451,996.087 1368.451,997.615 1370.459,998.179 1370.459,996.637 "/>
<polygon fill="#534B45" points="1367.875,998.359 1367.875,999.236 1369.026,999.56 1369.026,998.675 "/>
<polygon fill="#534B45" points="1369.831,999.56 1369.831,1000.555 1371.14,1000.922 1371.14,999.918 "/>
<polygon fill="#534B45" points="1369.456,1001.039 1369.456,1001.61 1370.207,1001.82 1370.207,1001.245 "/>
<polygon fill="#534B45" points="1367.92,993.232 1367.92,994.76 1369.928,995.323 1369.928,993.782 "/>
<polygon fill="#534B45" points="1371.085,991.405 1371.085,992.934 1373.093,993.497 1373.093,991.955 "/>
<polygon fill="#534B45" points="1370.509,993.678 1370.509,994.555 1371.66,994.878 1371.66,993.993 "/>
<polygon fill="#534B45" points="1372.465,994.878 1372.465,995.873 1373.773,996.24 1373.773,995.236 "/>
<polygon fill="#534B45" points="1372.09,996.357 1372.09,996.929 1372.841,997.139 1372.841,996.563 "/>
<g>
	<polyline opacity="0.7" fill="#418787" points="1217.771,963.367 1217.771,1101.286 1307.209,1127.704 1383.978,1098.136 
		1383.209,962.204 1336.238,949.101 1336.209,942.704 1354.589,935.216 1317.209,924.704 	"/>
	<polygon opacity="0.4" fill="#5DB5B3" points="1307.209,992.038 1217.771,963.392 1317.209,924.704 1354.589,935.216 
		1336.209,942.704 1336.238,949.101 1383.209,962.204 	"/>
	<polygon opacity="0.4" fill="#90C4C2" points="1307.209,992.038 1307.209,1127.704 1383.978,1098.136 1383.209,962.204 	"/>
</g>
<polygon opacity="0.4" fill="#90C4C2" points="1234.68,1073.274 1234.68,1080.196 1243.773,1082.745 1243.773,1075.765 "/>
<polygon opacity="0.4" fill="#90C4C2" points="1249.013,1065.002 1249.013,1071.923 1258.106,1074.473 1258.106,1067.492 "/>
<polygon opacity="0.4" fill="#90C4C2" points="1246.404,1075.293 1246.404,1079.265 1251.621,1080.728 1251.621,1076.722 "/>
<polygon opacity="0.4" fill="#90C4C2" points="1255.266,1080.728 1255.266,1085.235 1261.188,1086.896 1261.188,1082.349 "/>
<polygon opacity="0.4" fill="#90C4C2" points="1253.567,1087.43 1253.567,1090.017 1256.965,1090.97 1256.965,1088.36 "/>
<polygon opacity="0.4" fill="#90C4C2" points="1287.942,1005.955 1287.942,1012.876 1297.036,1015.426 1297.036,1008.445 "/>
<polygon opacity="0.4" fill="#90C4C2" points="1285.334,1016.246 1285.334,1020.218 1290.551,1021.681 1290.551,1017.676 "/>
<polygon opacity="0.4" fill="#90C4C2" points="1294.195,1021.681 1294.195,1026.188 1300.118,1027.849 1300.118,1023.303 "/>
<polygon opacity="0.4" fill="#90C4C2" points="1292.497,1028.383 1292.497,1030.97 1295.895,1031.923 1295.895,1029.314 "/>
<polygon opacity="0.4" fill="#A1D5D1" points="1353.463,1082.185 1353.463,1089.106 1344.369,1091.655 1344.369,1084.675 "/>
<polygon opacity="0.4" fill="#A1D5D1" points="1339.13,1073.911 1339.13,1080.833 1330.036,1083.383 1330.036,1076.402 "/>
<polygon opacity="0.4" fill="#A1D5D1" points="1341.738,1084.203 1341.738,1088.175 1336.521,1089.638 1336.521,1085.632 "/>
<polygon opacity="0.4" fill="#A1D5D1" points="1332.877,1089.638 1332.877,1094.146 1326.954,1095.806 1326.954,1091.259 "/>
<polygon opacity="0.4" fill="#A1D5D1" points="1334.575,1096.34 1334.575,1098.927 1331.178,1099.88 1331.178,1097.271 "/>
<polygon fill="#847870" points="1190.146,965.14 1190.146,966.667 1192.154,967.23 1192.154,965.689 "/>
<polygon fill="#847870" points="1193.312,963.312 1193.312,964.841 1195.319,965.404 1195.319,963.862 "/>
<polygon fill="#847870" points="1192.735,965.585 1192.735,966.462 1193.887,966.785 1193.887,965.9 "/>
<polygon fill="#847870" points="1194.691,966.785 1194.691,967.78 1196,968.147 1196,967.144 "/>
<polygon fill="#847870" points="1194.316,968.265 1194.316,968.836 1195.067,969.046 1195.067,968.471 "/>
<polygon fill="#847870" points="1193.594,969.826 1193.594,971.354 1195.602,971.918 1195.602,970.376 "/>
<polygon fill="#847870" points="1196.759,968 1196.759,969.528 1198.767,970.091 1198.767,968.55 "/>
<polygon fill="#847870" points="1196.183,970.272 1196.183,971.149 1197.334,971.472 1197.334,970.588 "/>
<polygon fill="#847870" points="1198.139,971.472 1198.139,972.467 1199.447,972.834 1199.447,971.83 "/>
<polygon fill="#847870" points="1197.764,972.952 1197.764,973.522 1198.515,973.733 1198.515,973.157 "/>
<polygon fill="#847870" points="1196.228,965.145 1196.228,966.673 1198.235,967.236 1198.235,965.694 "/>
<polygon fill="#847870" points="1199.393,963.318 1199.393,964.847 1201.4,965.409 1201.4,963.868 "/>
<polygon fill="#847870" points="1198.816,965.591 1198.816,966.468 1199.968,966.79 1199.968,965.906 "/>
<polygon fill="#847870" points="1200.772,966.79 1200.772,967.785 1202.081,968.152 1202.081,967.148 "/>
<polygon fill="#847870" points="1200.397,968.271 1200.397,968.841 1201.148,969.052 1201.148,968.476 "/>
<polygon fill="#90837A" points="1469.178,993.52 1469.178,995.047 1467.17,995.61 1467.17,994.069 "/>
<polygon fill="#90837A" points="1466.013,991.692 1466.013,993.221 1464.005,993.784 1464.005,992.242 "/>
<polygon fill="#90837A" points="1466.589,993.965 1466.589,994.842 1465.438,995.165 1465.438,994.28 "/>
<polygon fill="#90837A" points="1464.633,995.165 1464.633,996.16 1463.324,996.527 1463.324,995.523 "/>
<polygon fill="#90837A" points="1465.008,996.645 1465.008,997.216 1464.257,997.426 1464.257,996.851 "/>
<polygon fill="#90837A" points="1465.73,998.206 1465.73,999.734 1463.723,1000.298 1463.723,998.756 "/>
<polygon fill="#90837A" points="1462.565,996.38 1462.565,997.908 1460.558,998.471 1460.558,996.93 "/>
<polygon fill="#90837A" points="1463.142,998.652 1463.142,999.529 1461.99,999.852 1461.99,998.968 "/>
<polygon fill="#90837A" points="1461.186,999.852 1461.186,1000.847 1459.877,1001.214 1459.877,1000.21 "/>
<polygon fill="#90837A" points="1461.561,1001.332 1461.561,1001.902 1460.81,1002.113 1460.81,1001.537 "/>
<polygon fill="#90837A" points="1463.097,993.524 1463.097,995.053 1461.089,995.616 1461.089,994.074 "/>
<polygon fill="#90837A" points="1459.932,991.698 1459.932,993.227 1457.924,993.789 1457.924,992.248 "/>
<polygon fill="#90837A" points="1460.508,993.971 1460.508,994.848 1459.356,995.17 1459.356,994.286 "/>
<polygon fill="#90837A" points="1458.552,995.17 1458.552,996.165 1457.243,996.532 1457.243,995.528 "/>
<polygon fill="#90837A" points="1458.927,996.65 1458.927,997.221 1458.176,997.432 1458.176,996.855 "/>
<polygon fill="#90837A" points="1518.156,1025.031 1518.156,1026.559 1516.148,1027.122 1516.148,1025.581 "/>
<polygon fill="#90837A" points="1514.991,1023.204 1514.991,1024.732 1512.983,1025.296 1512.983,1023.754 "/>
<polygon fill="#90837A" points="1515.567,1025.477 1515.567,1026.354 1514.416,1026.677 1514.416,1025.792 "/>
<polygon fill="#90837A" points="1513.611,1026.677 1513.611,1027.672 1512.303,1028.039 1512.303,1027.035 "/>
<polygon fill="#90837A" points="1513.986,1028.156 1513.986,1028.728 1513.235,1028.938 1513.235,1028.362 "/>
<polygon fill="#90837A" points="1514.709,1029.718 1514.709,1031.246 1512.701,1031.81 1512.701,1030.268 "/>
<polygon fill="#90837A" points="1511.544,1027.892 1511.544,1029.42 1509.536,1029.982 1509.536,1028.441 "/>
<polygon fill="#90837A" points="1512.12,1030.164 1512.12,1031.041 1510.969,1031.363 1510.969,1030.479 "/>
<polygon fill="#90837A" points="1510.164,1031.363 1510.164,1032.358 1508.855,1032.726 1508.855,1031.722 "/>
<polygon fill="#90837A" points="1510.539,1032.844 1510.539,1033.414 1509.788,1033.625 1509.788,1033.049 "/>
<polygon fill="#90837A" points="1512.075,1025.036 1512.075,1026.564 1510.067,1027.128 1510.067,1025.586 "/>
<polygon fill="#90837A" points="1508.91,1023.21 1508.91,1024.738 1506.902,1025.301 1506.902,1023.76 "/>
<polygon fill="#90837A" points="1509.486,1025.482 1509.486,1026.359 1508.335,1026.682 1508.335,1025.798 "/>
<polygon fill="#90837A" points="1507.53,1026.682 1507.53,1027.677 1506.222,1028.044 1506.222,1027.04 "/>
<polygon fill="#90837A" points="1507.905,1028.162 1507.905,1028.732 1507.154,1028.943 1507.154,1028.367 "/>
<polygon fill="#90837A" points="1499.812,960.197 1499.812,961.726 1497.805,962.289 1497.805,960.747 "/>
<polygon fill="#90837A" points="1496.647,958.371 1496.647,959.899 1494.64,960.462 1494.64,958.921 "/>
<polygon fill="#90837A" points="1497.224,960.644 1497.224,961.521 1496.072,961.843 1496.072,960.959 "/>
<polygon fill="#90837A" points="1495.268,961.843 1495.268,962.838 1493.959,963.205 1493.959,962.201 "/>
<polygon fill="#90837A" points="1495.643,963.323 1495.643,963.894 1494.892,964.104 1494.892,963.528 "/>
<polygon fill="#90837A" points="1496.365,964.885 1496.365,966.412 1494.357,966.976 1494.357,965.435 "/>
<polygon fill="#90837A" points="1493.2,963.058 1493.2,964.586 1491.192,965.149 1491.192,963.607 "/>
<polygon fill="#90837A" points="1493.776,965.33 1493.776,966.207 1492.625,966.53 1492.625,965.646 "/>
<polygon fill="#90837A" points="1491.82,966.53 1491.82,967.525 1490.512,967.893 1490.512,966.889 "/>
<polygon fill="#90837A" points="1492.195,968.01 1492.195,968.581 1491.444,968.791 1491.444,968.216 "/>
<polygon fill="#90837A" points="1493.731,960.203 1493.731,961.73 1491.724,962.294 1491.724,960.753 "/>
<polygon fill="#90837A" points="1490.566,958.376 1490.566,959.904 1488.559,960.468 1488.559,958.926 "/>
<polygon fill="#90837A" points="1491.143,960.648 1491.143,961.525 1489.991,961.849 1489.991,960.964 "/>
<polygon fill="#90837A" points="1489.187,961.849 1489.187,962.844 1487.878,963.211 1487.878,962.207 "/>
<polygon fill="#90837A" points="1489.562,963.328 1489.562,963.899 1488.811,964.109 1488.811,963.534 "/>
<polygon fill="#90837A" points="1415.783,1026.78 1415.783,1028.309 1413.775,1028.872 1413.775,1027.33 "/>
<polygon fill="#90837A" points="1412.618,1024.954 1412.618,1026.482 1410.61,1027.045 1410.61,1025.504 "/>
<polygon fill="#90837A" points="1413.194,1027.227 1413.194,1028.104 1412.043,1028.426 1412.043,1027.542 "/>
<polygon fill="#90837A" points="1411.238,1028.426 1411.238,1029.421 1409.93,1029.788 1409.93,1028.784 "/>
<polygon fill="#90837A" points="1411.613,1029.906 1411.613,1030.477 1410.862,1030.688 1410.862,1030.111 "/>
<polygon fill="#90837A" points="1412.336,1031.468 1412.336,1032.995 1410.328,1033.559 1410.328,1032.018 "/>
<polygon fill="#90837A" points="1409.171,1029.641 1409.171,1031.169 1407.163,1031.732 1407.163,1030.19 "/>
<polygon fill="#90837A" points="1409.747,1031.913 1409.747,1032.79 1408.596,1033.113 1408.596,1032.229 "/>
<polygon fill="#90837A" points="1407.791,1033.113 1407.791,1034.108 1406.482,1034.476 1406.482,1033.472 "/>
<polygon fill="#90837A" points="1408.166,1034.593 1408.166,1035.164 1407.415,1035.374 1407.415,1034.799 "/>
<polygon fill="#90837A" points="1409.702,1026.786 1409.702,1028.313 1407.694,1028.877 1407.694,1027.336 "/>
<polygon fill="#90837A" points="1406.537,1024.959 1406.537,1026.487 1404.529,1027.051 1404.529,1025.509 "/>
<polygon fill="#90837A" points="1407.113,1027.231 1407.113,1028.108 1405.962,1028.432 1405.962,1027.547 "/>
<polygon fill="#90837A" points="1405.157,1028.432 1405.157,1029.427 1403.849,1029.794 1403.849,1028.79 "/>
<polygon fill="#90837A" points="1405.532,1029.911 1405.532,1030.482 1404.781,1030.692 1404.781,1030.117 "/>
<polygon fill="#90837A" points="1438.067,972.294 1438.067,973.822 1436.06,974.386 1436.06,972.844 "/>
<polygon fill="#90837A" points="1434.902,970.468 1434.902,971.996 1432.895,972.559 1432.895,971.018 "/>
<polygon fill="#90837A" points="1435.479,972.74 1435.479,973.617 1434.327,973.939 1434.327,973.056 "/>
<polygon fill="#90837A" points="1433.522,973.939 1433.522,974.935 1432.214,975.302 1432.214,974.298 "/>
<polygon fill="#90837A" points="1433.897,975.42 1433.897,975.99 1433.146,976.201 1433.146,975.625 "/>
<polygon fill="#90837A" points="1434.62,976.981 1434.62,978.509 1432.612,979.072 1432.612,977.531 "/>
<polygon fill="#90837A" points="1431.455,975.154 1431.455,976.683 1429.447,977.246 1429.447,975.704 "/>
<polygon fill="#90837A" points="1432.031,977.427 1432.031,978.304 1430.88,978.627 1430.88,977.742 "/>
<polygon fill="#90837A" points="1430.075,978.627 1430.075,979.622 1428.767,979.989 1428.767,978.985 "/>
<polygon fill="#90837A" points="1430.45,980.106 1430.45,980.678 1429.699,980.888 1429.699,980.312 "/>
<polygon fill="#90837A" points="1431.986,972.3 1431.986,973.827 1429.979,974.391 1429.979,972.85 "/>
<polygon fill="#90837A" points="1428.821,970.473 1428.821,972.001 1426.813,972.564 1426.813,971.022 "/>
<polygon fill="#90837A" points="1429.397,972.745 1429.397,973.622 1428.246,973.945 1428.246,973.061 "/>
<polygon fill="#90837A" points="1427.441,973.945 1427.441,974.94 1426.133,975.308 1426.133,974.304 "/>
<polygon fill="#90837A" points="1427.816,975.425 1427.816,975.996 1427.065,976.206 1427.065,975.631 "/>
<polygon fill="#5B7663" points="1210.514,797.357 1210.514,799.95 1207.106,800.906 1207.106,798.29 "/>
<polygon fill="#5B7663" points="1205.143,794.258 1205.143,796.851 1201.735,797.807 1201.735,795.19 "/>
<polygon fill="#5B7663" points="1206.12,798.114 1206.12,799.603 1204.166,800.15 1204.166,798.649 "/>
<polygon fill="#5B7663" points="1202.801,800.15 1202.801,801.839 1200.58,802.462 1200.58,800.758 "/>
<polygon fill="#5B7663" points="1203.438,802.661 1203.438,803.63 1202.162,803.987 1202.162,803.011 "/>
<polygon fill="#5B7663" points="1204.663,805.312 1204.663,807.904 1201.256,808.86 1201.256,806.245 "/>
<polygon fill="#5B7663" points="1199.292,802.212 1199.292,804.806 1195.885,805.761 1195.885,803.145 "/>
<polygon fill="#5B7663" points="1200.27,806.068 1200.27,807.557 1198.316,808.104 1198.316,806.604 "/>
<polygon fill="#5B7663" points="1196.95,808.104 1196.95,809.793 1194.729,810.416 1194.729,808.712 "/>
<polygon fill="#5B7663" points="1197.587,810.616 1197.587,811.585 1196.312,811.941 1196.312,810.965 "/>
<polygon fill="#5B7663" points="1200.193,797.366 1200.193,799.959 1196.786,800.916 1196.786,798.3 "/>
<polygon fill="#5B7663" points="1194.822,794.267 1194.822,796.86 1191.415,797.815 1191.415,795.199 "/>
<polygon fill="#5B7663" points="1195.801,798.123 1195.801,799.611 1193.846,800.159 1193.846,798.658 "/>
<polygon fill="#5B7663" points="1192.48,800.159 1192.48,801.848 1190.26,802.471 1190.26,800.768 "/>
<polygon fill="#5B7663" points="1193.117,802.671 1193.117,803.64 1191.843,803.996 1191.843,803.02 "/>
<polygon fill="#627E6A" points="1225.076,751.365 1225.076,753.958 1221.669,754.914 1221.669,752.298 "/>
<polygon fill="#627E6A" points="1219.705,748.266 1219.705,750.858 1216.298,751.814 1216.298,749.198 "/>
<polygon fill="#627E6A" points="1220.683,752.122 1220.683,753.61 1218.729,754.158 1218.729,752.657 "/>
<polygon fill="#627E6A" points="1217.363,754.158 1217.363,755.847 1215.143,756.47 1215.143,754.766 "/>
<polygon fill="#627E6A" points="1218,756.669 1218,757.638 1216.725,757.995 1216.725,757.019 "/>
<polygon fill="#627E6A" points="1219.226,759.319 1219.226,761.912 1215.818,762.868 1215.818,760.253 "/>
<polygon fill="#627E6A" points="1213.854,756.22 1213.854,758.813 1210.447,759.769 1210.447,757.152 "/>
<polygon fill="#627E6A" points="1214.832,760.076 1214.832,761.564 1212.879,762.112 1212.879,760.611 "/>
<polygon fill="#627E6A" points="1211.513,762.112 1211.513,763.801 1209.292,764.424 1209.292,762.72 "/>
<polygon fill="#627E6A" points="1212.149,764.624 1212.149,765.593 1210.875,765.949 1210.875,764.973 "/>
<polygon fill="#627E6A" points="1214.756,751.374 1214.756,753.967 1211.349,754.924 1211.349,752.308 "/>
<polygon fill="#627E6A" points="1209.385,748.274 1209.385,750.868 1205.978,751.823 1205.978,749.207 "/>
<polygon fill="#627E6A" points="1210.363,752.131 1210.363,753.619 1208.408,754.167 1208.408,752.666 "/>
<polygon fill="#627E6A" points="1207.043,754.167 1207.043,755.855 1204.822,756.479 1204.822,754.775 "/>
<polygon fill="#627E6A" points="1207.68,756.679 1207.68,757.647 1206.405,758.004 1206.405,757.027 "/>
<polygon fill="#496151" points="1099.938,782.123 1099.938,784.717 1103.346,785.673 1103.346,783.057 "/>
<polygon fill="#496151" points="1105.31,779.023 1105.31,781.617 1108.717,782.572 1108.717,779.957 "/>
<polygon fill="#496151" points="1104.332,782.88 1104.332,784.368 1106.286,784.916 1106.286,783.415 "/>
<polygon fill="#496151" points="1107.651,784.916 1107.651,786.604 1109.872,787.228 1109.872,785.524 "/>
<polygon fill="#496151" points="1107.015,787.428 1107.015,788.396 1108.29,788.754 1108.29,787.776 "/>
<polygon fill="#496151" points="1105.789,790.078 1105.789,792.671 1109.196,793.627 1109.196,791.011 "/>
<polygon fill="#496151" points="1111.16,786.978 1111.16,789.571 1114.567,790.527 1114.567,787.911 "/>
<polygon fill="#496151" points="1110.183,790.834 1110.183,792.322 1112.136,792.87 1112.136,791.369 "/>
<polygon fill="#496151" points="1113.502,792.87 1113.502,794.56 1115.723,795.183 1115.723,793.479 "/>
<polygon fill="#496151" points="1112.865,795.382 1112.865,796.351 1114.14,796.708 1114.14,795.73 "/>
<polygon fill="#496151" points="1110.259,782.133 1110.259,784.726 1113.666,785.682 1113.666,783.065 "/>
<polygon fill="#496151" points="1115.63,779.032 1115.63,781.626 1119.037,782.582 1119.037,779.966 "/>
<polygon fill="#496151" points="1114.651,782.89 1114.651,784.378 1116.606,784.925 1116.606,783.425 "/>
<polygon fill="#496151" points="1117.972,784.925 1117.972,786.614 1120.192,787.237 1120.192,785.533 "/>
<polygon fill="#496151" points="1117.335,787.437 1117.335,788.405 1118.609,788.763 1118.609,787.786 "/>
<polygon fill="#8D8B86" points="1190.409,843.717 1190.409,889.537 1188.092,890.299 1188.092,844.44 "/>
<polygon fill="#8D8B86" points="1195.046,861.299 1195.046,907.12 1192.729,907.882 1192.729,862.023 "/>
<polygon fill="#7D7D78" points="1162.128,871.122 1162.128,916.942 1164.445,917.704 1164.445,871.846 "/>
<polygon fill="#7D7D78" points="1166.392,847.83 1166.392,893.651 1168.709,894.413 1168.709,848.555 "/>
<polygon opacity="0.4" fill="#393947" points="1682.22,729.606 1673.879,1287.56 1307.879,1434.279 1308.219,615.704 "/>
<polygon fill="#C8C7C7" points="1440.642,707.768 1440.642,710.306 1443.979,711.242 1443.979,708.683 "/>
<polygon fill="#C8C7C7" points="1392.988,775.549 1392.988,778.087 1396.325,779.023 1396.325,776.464 "/>
<polygon fill="#C8C7C7" points="1372.105,719.03 1372.105,721.568 1375.442,722.505 1375.442,719.945 "/>
<polygon fill="#C8C7C7" points="1334.854,666.817 1334.854,669.355 1338.19,670.292 1338.19,667.732 "/>
<polygon fill="#C8C7C7" points="1391.319,678.944 1391.319,681.482 1394.656,682.419 1394.656,679.859 "/>
<polygon fill="#C8C7C7" points="1337.211,753.833 1337.211,756.371 1340.548,757.308 1340.548,754.748 "/>
<polygon fill="#C8C7C7" points="1557.474,775.549 1557.474,778.087 1560.811,779.023 1560.811,776.464 "/>
<polygon fill="#C8C7C7" points="1595.399,748.665 1595.399,751.203 1598.736,752.139 1598.736,749.58 "/>
<polygon fill="#C8C7C7" points="1640.062,827.834 1640.062,830.372 1643.399,831.308 1643.399,828.749 "/>
<polygon fill="#C8C7C7" points="1479.553,854.036 1479.553,856.574 1482.89,857.511 1482.89,854.951 "/>
<polygon fill="#C8C7C7" points="1606.675,915.967 1606.675,918.505 1610.012,919.441 1610.012,916.882 "/>
<polygon fill="#C8C7C7" points="1647.241,892.676 1647.241,895.214 1650.578,896.15 1650.578,893.591 "/>
<polygon fill="#C8C7C7" points="1648.909,753.187 1648.909,755.725 1652.246,756.66 1652.246,754.102 "/>
<polygon fill="#C8C7C7" points="1337.461,803.574 1337.461,806.112 1340.798,807.049 1340.798,804.489 "/>
<polygon fill="#C8C7C7" points="1389.651,819.409 1389.651,821.947 1392.988,822.884 1392.988,820.324 "/>
<polygon fill="#C8C7C7" points="1554.137,888.562 1554.137,891.1 1557.474,892.036 1557.474,889.477 "/>
<polygon fill="#C8C7C7" points="1521.541,706.03 1521.541,708.568 1524.877,709.505 1524.877,706.945 "/>
<polygon fill="#C8C7C7" points="1467.51,677.207 1467.51,679.745 1470.847,680.682 1470.847,678.122 "/>
<polygon fill="#75947D" points="1682.549,729.891 1673.879,1288.567 2057.549,1434.247 2057.89,615.671 "/>
<polygon fill="#86A98F" points="2431.89,729.573 2423.549,1287.526 2057.549,1434.247 2057.89,615.671 "/>
<linearGradient id="SVGID_1_" gradientUnits="userSpaceOnUse" x1="1702.4707" y1="1193.9131" x2="2138.7751" y2="942.0126">
	<stop  offset="0.2525" style="stop-color:#414042;stop-opacity:0"/>
	<stop  offset="1" style="stop-color:#07172A"/>
</linearGradient>
<polyline opacity="0.5" fill="url(#SVGID_1_)" points="1848.896,856.661 2266.203,1162.724 1839.81,1276.995 1575.044,973.204 "/>
<path opacity="0.8" fill="#545456" d="M2263.81,1153.763c0,4.949-4.067,8.961-9.086,8.961h-405.828
	c-5.019,0-9.086-4.012-9.086-8.961V865.622c0-4.949,4.067-8.961,9.086-8.961h405.828c5.019,0,9.086,4.012,9.086,8.961V1153.763z"/>
<g>
	<defs>
		<path id="SVGID_2_" d="M2275.289,1153.763c0,4.949-4.067,8.961-9.086,8.961h-405.828c-5.019,0-9.086-4.012-9.086-8.961V865.622
			c0-4.949,4.067-8.961,9.086-8.961h405.828c5.019,0,9.086,4.012,9.086,8.961V1153.763z"/>
	</defs>
	<clipPath id="SVGID_3_">
		<use xlink:href="#SVGID_2_"  overflow="visible"/>
	</clipPath>
	<path clip-path="url(#SVGID_3_)" fill="#BFBFBF" d="M2275.289,1153.762c0,4.949-4.067,8.962-9.086,8.962h-405.828
		c-5.019,0-9.086-4.013-9.086-8.962v-288.14c0-4.949,4.067-8.962,9.086-8.962h405.828c5.019,0,9.086,4.013,9.086,8.962V1153.762z"/>
</g>
<path opacity="0.3" fill="#828282" d="M2276.289,1153.762c0,4.949-4.067,8.962-9.086,8.962h-405.828
	c-5.019,0-9.086-4.013-9.086-8.962v-288.14c0-4.949,4.067-8.962,9.086-8.962L2276.289,1153.762z"/>
<g>
	<path fill="#5C5C5C" d="M1986.451,1127.046c0,7.593-6.156,13.749-13.749,13.749h-84.785c-7.592,0-13.748-6.156-13.748-13.749
		v-84.785c0-7.593,6.156-13.749,13.748-13.749h84.785c7.593,0,13.749,6.156,13.749,13.749V1127.046z"/>
	<path fill="#DADADA" d="M1986.451,1118.262c0,7.594-6.156,13.749-13.749,13.749h-84.785c-7.592,0-13.748-6.155-13.748-13.749
		v-84.784c0-7.594,6.156-13.749,13.748-13.749h84.785c7.593,0,13.749,6.155,13.749,13.749V1118.262z"/>
</g>
<g>
	<path fill="#5C5C5C" d="M2118.975,985.448c0,7.593-6.156,13.749-13.749,13.749h-84.785c-7.592,0-13.748-6.156-13.748-13.749
		v-84.785c0-7.593,6.156-13.749,13.748-13.749h84.785c7.593,0,13.749,6.156,13.749,13.749V985.448z"/>
	<path fill="#DADADA" d="M2118.975,976.664c0,7.594-6.156,13.749-13.749,13.749h-84.785c-7.592,0-13.748-6.155-13.748-13.749V891.88
		c0-7.594,6.156-13.749,13.748-13.749h84.785c7.593,0,13.749,6.155,13.749,13.749V976.664z"/>
</g>
<g>
	<path fill="#5C5C5C" d="M2118.975,1127.539c0,7.594-6.156,13.749-13.749,13.749h-84.785c-7.592,0-13.748-6.155-13.748-13.749
		v-84.784c0-7.594,6.156-13.749,13.748-13.749h84.785c7.593,0,13.749,6.155,13.749,13.749V1127.539z"/>
	<path fill="#DADADA" d="M2118.975,1118.756c0,7.593-6.156,13.748-13.749,13.748h-84.785c-7.592,0-13.748-6.155-13.748-13.748
		v-84.785c0-7.593,6.156-13.749,13.748-13.749h84.785c7.593,0,13.749,6.156,13.749,13.749V1118.756z"/>
</g>
<g>
	<path fill="#5C5C5C" d="M2252.409,1127.175c0,7.594-6.156,13.749-13.749,13.749h-84.785c-7.592,0-13.748-6.155-13.748-13.749
		v-84.784c0-7.594,6.156-13.749,13.748-13.749h84.785c7.593,0,13.749,6.155,13.749,13.749V1127.175z"/>
	<path fill="#DADADA" d="M2252.409,1118.392c0,7.593-6.156,13.748-13.749,13.748h-84.785c-7.592,0-13.748-6.155-13.748-13.748
		v-84.785c0-7.593,6.156-13.749,13.748-13.749h84.785c7.593,0,13.749,6.156,13.749,13.749V1118.392z"/>
</g>
<g>
	<defs>
		<path id="SVGID_4_" d="M1986.451,1127.147c0,7.593-6.156,13.749-13.749,13.749h-84.785c-7.592,0-13.748-6.156-13.748-13.749
			v-84.785c0-7.593,6.156-13.749,13.748-13.749h84.785c7.593,0,13.749,6.156,13.749,13.749V1127.147z"/>
	</defs>
	<defs>
		<path id="SVGID_5_" d="M1986.451,1118.363c0,7.594-6.156,13.749-13.749,13.749h-84.785c-7.592,0-13.748-6.155-13.748-13.749
			v-84.784c0-7.594,6.156-13.749,13.748-13.749h84.785c7.593,0,13.749,6.155,13.749,13.749V1118.363z"/>
	</defs>
	<clipPath id="SVGID_6_">
		<use xlink:href="#SVGID_4_"  overflow="visible"/>
	</clipPath>
	<clipPath id="SVGID_7_" clip-path="url(#SVGID_6_)">
		<use xlink:href="#SVGID_5_"  overflow="visible"/>
	</clipPath>
</g>
<g>
	<defs>
		<path id="SVGID_8_" d="M2118.451,987.057c0,7.593-6.156,13.749-13.749,13.749h-84.785c-7.592,0-13.748-6.156-13.748-13.749
			v-84.785c0-7.593,6.156-13.749,13.748-13.749h84.785c7.593,0,13.749,6.156,13.749,13.749V987.057z"/>
	</defs>
	<defs>
		<path id="SVGID_9_" d="M2118.451,978.272c0,7.594-6.156,13.749-13.749,13.749h-84.785c-7.592,0-13.748-6.155-13.748-13.749
			v-84.784c0-7.594,6.156-13.749,13.748-13.749h84.785c7.593,0,13.749,6.155,13.749,13.749V978.272z"/>
	</defs>
	<clipPath id="SVGID_10_">
		<use xlink:href="#SVGID_8_"  overflow="visible"/>
	</clipPath>
	<clipPath id="SVGID_11_" clip-path="url(#SVGID_10_)">
		<use xlink:href="#SVGID_9_"  overflow="visible"/>
	</clipPath>
</g>
<g>
	<defs>
		<path id="SVGID_12_" d="M2117.451,1127.896c0,7.593-6.156,13.749-13.749,13.749h-84.785c-7.592,0-13.748-6.156-13.748-13.749
			v-84.785c0-7.593,6.156-13.749,13.748-13.749h84.785c7.593,0,13.749,6.156,13.749,13.749V1127.896z"/>
	</defs>
	<defs>
		<path id="SVGID_13_" d="M2117.451,1119.112c0,7.594-6.156,13.749-13.749,13.749h-84.785c-7.592,0-13.748-6.155-13.748-13.749
			v-84.784c0-7.594,6.156-13.749,13.748-13.749h84.785c7.593,0,13.749,6.155,13.749,13.749V1119.112z"/>
	</defs>
	<clipPath id="SVGID_14_">
		<use xlink:href="#SVGID_12_"  overflow="visible"/>
	</clipPath>
	<clipPath id="SVGID_15_" clip-path="url(#SVGID_14_)">
		<use xlink:href="#SVGID_13_"  overflow="visible"/>
	</clipPath>
</g>
<g>
	<defs>
		<path id="SVGID_16_" d="M2252.409,1127.504c0,7.593-6.156,13.749-13.749,13.749h-84.785c-7.592,0-13.748-6.156-13.748-13.749
			v-84.785c0-7.593,6.156-13.749,13.748-13.749h84.785c7.593,0,13.749,6.156,13.749,13.749V1127.504z"/>
	</defs>
	<defs>
		<path id="SVGID_17_" d="M2252.409,1118.72c0,7.594-6.156,13.749-13.749,13.749h-84.785c-7.592,0-13.748-6.155-13.748-13.749
			v-84.784c0-7.594,6.156-13.749,13.748-13.749h84.785c7.593,0,13.749,6.155,13.749,13.749V1118.72z"/>
	</defs>
	<clipPath id="SVGID_18_">
		<use xlink:href="#SVGID_16_"  overflow="visible"/>
	</clipPath>
	<clipPath id="SVGID_19_" clip-path="url(#SVGID_18_)">
		<use xlink:href="#SVGID_17_"  overflow="visible"/>
	</clipPath>
</g>
<linearGradient id="SVGID_20_" gradientUnits="userSpaceOnUse" x1="275.1245" y1="1171.3101" x2="630.3008" y2="966.2489">
	<stop  offset="0.2525" style="stop-color:#414042;stop-opacity:0"/>
	<stop  offset="1" style="stop-color:#07172A"/>
</linearGradient>
<polyline opacity="0.3" fill="url(#SVGID_20_)" points="394.042,891.542 735.386,1148.263 386.61,1244.111 170.039,989.297 "/>
<g opacity="0.8">
	<defs>
		<path id="SVGID_21_" opacity="0.8" d="M503.044,1067.466c-5.98,13.734-10.443,24.885-19.986,37.342
			c-11.928,15.572-25.719,29.236-43.767,36.298c-17.46,6.834-36.55,5.642-53.811-3.787c-30.277-16.542-46.095-43.4-53.417-74.755
			c-12.72-54.486-8.229-106.364,31.936-150.479c15.101-16.588,34.524-24.499,58.016-24.199c47.159,0.602,94.332,0.18,141.499,0.18
			c45.608,0.001,91.242,0.95,136.814-0.309c35.112-0.966,59.522,14.359,77.592,41.443c33.968,50.913,32.062,131.615-4.61,180.601
			c-19.113,25.528-43.91,40.583-78.205,32.99c-23.958-5.308-40.339-20.708-52.343-40.334c-6.68-10.923-10.825-23.771-16.549-35.271"
			/>
	</defs>
	<use xlink:href="#SVGID_21_"  overflow="visible" fill-rule="evenodd" clip-rule="evenodd" fill="#545456"/>
	<clipPath id="SVGID_22_">
		<use xlink:href="#SVGID_21_"  overflow="visible"/>
	</clipPath>
	<g clip-path="url(#SVGID_22_)">
		<path fill-rule="evenodd" clip-rule="evenodd" fill="#545456" d="M503.044,1068.489c-5.98,13.734-10.443,24.884-19.986,37.342
			c-11.928,15.571-25.719,29.234-43.767,36.299c-17.46,6.832-36.55,5.64-53.811-3.789c-30.277-16.54-46.095-43.4-53.417-74.754
			c-12.72-54.486-8.229-106.364,31.936-150.479c15.101-16.589,34.524-24.501,58.016-24.201c47.159,0.604,94.332,0.18,141.499,0.18
			c45.608,0.002,91.242,0.951,136.814-0.307c35.112-0.968,59.522,14.358,77.592,41.443c33.968,50.912,32.062,131.613-4.61,180.601
			c-19.113,25.526-43.91,40.582-78.205,32.989c-23.958-5.308-40.339-20.709-52.343-40.335c-6.68-10.922-10.825-23.77-16.549-35.271
			 M680.545,978.489c0.115-9.426-8.687-18.242-18.409-18.441c-9.798-0.206-18.694,8.179-18.92,17.83
			c-0.229,9.826,8.01,18.017,18.29,18.185C671.672,996.228,680.426,988.148,680.545,978.489z M701.907,957.409
			c9.91,0.188,18.392-8.013,18.579-17.965c0.194-10.257-7.577-17.96-18.149-17.992c-10.063-0.03-18.954,8.193-19.049,17.62
			C683.197,948.214,692.346,957.229,701.907,957.409z M760.834,978.356c0.116-9.972-7.68-17.954-17.851-18.276
			c-9.858-0.311-18.317,7.806-18.5,17.75c-0.188,10.382,7.323,18.082,17.801,18.238
			C752.625,996.227,760.717,988.498,760.834,978.356z M720.399,1017.429c0.05-10.526-7.192-17.586-18.099-17.647
			c-10.313-0.059-18.999,7.979-18.875,17.464c0.132,9.988,8.011,17.551,18.422,17.678
			C712.35,1035.054,720.352,1027.506,720.399,1017.429z"/>
		<path fill-rule="evenodd" clip-rule="evenodd" fill="#545456" d="M680.545,978.489c-0.119,9.659-8.873,17.738-19.04,17.573
			c-10.28-0.168-18.519-8.358-18.29-18.185c0.226-9.651,9.123-18.036,18.92-17.83C671.859,960.247,680.661,969.063,680.545,978.489z
			"/>
		<path fill-rule="evenodd" clip-rule="evenodd" fill="#545456" d="M701.907,957.409c-9.561-0.181-18.71-9.195-18.619-18.337
			c0.095-9.427,8.985-17.65,19.049-17.62c10.572,0.032,18.344,7.735,18.149,17.992C720.298,949.396,711.817,957.598,701.907,957.409
			z"/>
		<path fill-rule="evenodd" clip-rule="evenodd" fill="#545456" d="M760.834,978.356c-0.117,10.142-8.209,17.87-18.55,17.712
			c-10.478-0.156-17.988-7.856-17.801-18.238c0.183-9.944,8.642-18.061,18.5-17.75C753.155,960.402,760.951,968.385,760.834,978.356
			z"/>
		<path fill-rule="evenodd" clip-rule="evenodd" fill="#545456" d="M720.399,1017.429c-0.047,10.077-8.049,17.625-18.552,17.494
			c-10.411-0.127-18.29-7.689-18.422-17.678c-0.124-9.485,8.562-17.522,18.875-17.464
			C713.207,999.843,720.449,1006.902,720.399,1017.429z"/>
	</g>
	<path clip-path="url(#SVGID_22_)" fill-rule="evenodd" clip-rule="evenodd" fill="#545456" d="M408.447,961.741
		c0.117-1.495,0.284-2.679,0.291-3.864c0.028-5.998,0.263-12.008-0.038-17.99c-0.549-10.929,9.296-17.798,17.048-17.539
		c9.889,0.334,16.856,7.308,16.908,17.641c0.03,5.996,0.209,12.002-0.061,17.988c-0.144,3.211,1.072,3.913,4.119,3.82
		c6.544-0.196,13.1-0.104,19.65-0.057c9.577,0.069,16.937,7.062,17.014,16.092c0.079,9.095-7.006,16.318-16.525,16.562
		c-7.006,0.179-14.021,0.112-21.029,0.003c-2.367-0.038-3.218,0.664-3.186,3.033c0.085,6.763-0.182,13.528-0.101,20.291
		c0.115,9.419-8.638,16.091-16.281,16.046c-9.609-0.057-17.315-6.645-17.511-15.604c-0.144-6.663-0.146-13.331,0.031-19.99
		c0.076-2.869-0.767-3.899-3.883-3.789c-6.542,0.229-13.099,0.137-19.649,0.06c-8.566-0.103-14.847-4.902-16.749-12.66
		c-1.812-7.381,1.638-14.818,9.001-18.348c2.356-1.131,5.271-1.547,7.949-1.621C393.003,961.604,400.572,961.741,408.447,961.741z"
		/>
	<path opacity="0.5" clip-path="url(#SVGID_22_)" fill="#545456" d="M762.608,1155.649c16.657-2.05,53.133-12.312,46.354-31.622"/>
	<path opacity="0.5" clip-path="url(#SVGID_22_)" fill="#545456" d="M808.962,1124.027c-0.257-0.729-0.575-1.475-0.96-2.23
		c-12.172-24.002-50.49-19.248-75.694-20.681c-23.818-1.354-46.72-7.989-67.451-17.561c-14.647-6.764-36.024-23.379-51.826-9.807
		c-7.841,6.734-0.422,18.034,4.074,24.542c12.039,17.425,32.674,39.793,53.802,50.222c25.803,12.736,63.085,10.659,91.701,7.137"/>
	<path opacity="0.5" clip-path="url(#SVGID_22_)" fill="#545456" d="M555.015,1102.861c-0.344-1.136-0.77-2.291-1.284-3.472
		c-16.297-37.337-56.935-18.317-90.68-20.547c-31.891-2.107-73.217-24.053-100.973-38.943
		c-19.611-10.522-48.231-36.369-69.389-15.256c-10.497,10.478-0.564,28.055,5.454,38.179c16.118,27.11,43.747,61.907,72.034,78.132
		c34.547,19.813,84.463,16.581,122.775,11.103"/>
</g>
<g>
	<defs>
		<path id="SVGID_23_" d="M511.642,1067.187c-5.98,14.213-10.443,25.751-19.986,38.643c-11.928,16.113-25.719,30.253-43.767,37.562
			c-17.46,7.071-36.55,5.837-53.811-3.92c-30.277-17.117-46.095-44.911-53.417-77.357c-12.72-56.383-8.229-110.067,31.936-155.719
			c15.101-17.165,34.524-25.354,58.016-25.042c47.159,0.623,94.332,0.185,141.499,0.185c45.608,0.003,91.242,0.985,136.814-0.317
			c35.112-1,59.523,14.859,77.592,42.887c33.968,52.686,32.062,136.197-4.61,186.889c-19.113,26.417-43.911,41.995-78.205,34.139
			c-23.958-5.492-40.339-21.431-52.343-41.739c-6.68-11.303-10.825-24.598-16.549-36.498"/>
	</defs>
	<clipPath id="SVGID_24_">
		<use xlink:href="#SVGID_23_"  overflow="visible"/>
	</clipPath>
	<path clip-path="url(#SVGID_24_)" fill-rule="evenodd" clip-rule="evenodd" fill="#DADADA" d="M511.642,1068.245
		c-5.98,14.212-10.443,25.751-19.986,38.643c-11.928,16.113-25.719,30.253-43.767,37.562c-17.46,7.071-36.55,5.837-53.811-3.92
		c-30.277-17.117-46.095-44.911-53.417-77.357c-12.72-56.383-8.229-110.067,31.936-155.719
		c15.101-17.165,34.524-25.353,58.016-25.042c47.159,0.624,94.332,0.185,141.499,0.185c45.608,0.003,91.242,0.985,136.814-0.316
		c35.112-1.002,59.523,14.858,77.592,42.887c33.968,52.685,32.062,136.196-4.61,186.889c-19.113,26.416-43.911,41.994-78.205,34.138
		c-23.958-5.492-40.339-21.43-52.343-41.739c-6.68-11.303-10.825-24.598-16.549-36.499 M689.143,975.111
		c0.115-9.753-8.687-18.876-18.41-19.083c-9.798-0.213-18.694,8.464-18.92,18.45c-0.229,10.169,8.01,18.645,18.29,18.818
		C680.27,993.468,689.024,985.107,689.143,975.111z M710.504,953.298c9.91,0.195,18.391-8.291,18.579-18.59
		c0.194-10.614-7.577-18.587-18.149-18.62c-10.063-0.031-18.954,8.479-19.049,18.234
		C691.794,943.782,700.943,953.111,710.504,953.298z M769.431,974.975c0.116-10.32-7.679-18.579-17.85-18.913
		c-9.858-0.321-18.318,8.077-18.5,18.369c-0.187,10.742,7.324,18.711,17.801,18.873C761.223,993.467,769.315,985.47,769.431,974.975
		z M728.996,1015.407c0.05-10.893-7.192-18.198-18.099-18.263c-10.313-0.061-18.999,8.257-18.875,18.073
		c0.132,10.335,8.011,18.162,18.422,18.293C720.947,1033.646,728.949,1025.835,728.996,1015.407z"/>
	<path clip-path="url(#SVGID_24_)" fill-rule="evenodd" clip-rule="evenodd" fill="#8D8395" d="M689.143,975.111
		c-0.119,9.996-8.873,18.356-19.04,18.186c-10.28-0.174-18.519-8.649-18.29-18.818c0.226-9.986,9.123-18.663,18.92-18.45
		C680.456,956.235,689.258,965.358,689.143,975.111z"/>
	<path clip-path="url(#SVGID_24_)" fill-rule="evenodd" clip-rule="evenodd" fill="#428888" d="M710.504,953.298
		c-9.561-0.187-18.71-9.516-18.62-18.976c0.095-9.756,8.986-18.266,19.049-18.234c10.572,0.033,18.343,8.006,18.149,18.62
		C728.895,945.007,720.414,953.493,710.504,953.298z"/>
	<path clip-path="url(#SVGID_24_)" fill-rule="evenodd" clip-rule="evenodd" fill="#C7C787" d="M769.431,974.975
		c-0.117,10.495-8.208,18.492-18.549,18.329c-10.478-0.162-17.988-8.131-17.801-18.873c0.183-10.292,8.642-18.69,18.5-18.369
		C761.752,956.396,769.548,964.654,769.431,974.975z"/>
	<path clip-path="url(#SVGID_24_)" fill-rule="evenodd" clip-rule="evenodd" fill="#86A98F" d="M728.996,1015.407
		c-0.047,10.428-8.049,18.238-18.552,18.104c-10.411-0.131-18.29-7.958-18.422-18.293c-0.124-9.816,8.562-18.134,18.875-18.073
		C721.804,997.209,729.046,1004.515,728.996,1015.407z"/>
	<path clip-path="url(#SVGID_24_)" fill-rule="evenodd" clip-rule="evenodd" fill="#8D8395" d="M417.044,957.781
		c0.117-1.548,0.284-2.772,0.291-4c0.028-6.206,0.263-12.425-0.038-18.615c-0.549-11.311,9.296-18.418,17.048-18.149
		c9.889,0.345,16.856,7.561,16.908,18.254c0.03,6.205,0.209,12.42-0.061,18.614c-0.144,3.322,1.072,4.05,4.119,3.954
		c6.544-0.203,13.1-0.108,19.65-0.059c9.577,0.071,16.937,7.306,17.014,16.651c0.079,9.412-7.006,16.887-16.525,17.139
		c-7.006,0.186-14.021,0.115-21.029,0.002c-2.367-0.039-3.218,0.688-3.186,3.139c0.085,6.999-0.182,14-0.101,20.998
		c0.115,9.747-8.638,16.651-16.281,16.605c-9.609-0.059-17.315-6.877-17.511-16.148c-0.144-6.894-0.146-13.794,0.031-20.686
		c0.076-2.969-0.767-4.035-3.883-3.92c-6.542,0.237-13.099,0.142-19.649,0.062c-8.566-0.106-14.847-5.073-16.749-13.103
		c-1.812-7.637,1.638-15.334,9.001-18.986c2.356-1.169,5.271-1.6,7.949-1.677C401.601,957.639,409.169,957.781,417.044,957.781z"/>
	<path opacity="0.5" clip-path="url(#SVGID_24_)" fill="#5C5C5C" d="M771.205,1158.44c16.657-2.121,53.132-12.74,46.354-32.723"/>
	<path opacity="0.5" clip-path="url(#SVGID_24_)" fill="#5C5C5C" d="M817.559,1125.718c-0.256-0.755-0.575-1.525-0.959-2.31
		c-12.172-24.837-50.49-19.917-75.694-21.399c-23.819-1.401-46.72-8.268-67.452-18.173c-14.647-6.998-36.024-24.192-51.826-10.147
		c-7.841,6.969-0.422,18.661,4.074,25.396c12.039,18.033,32.674,41.18,53.803,51.972c25.803,13.18,63.084,11.03,91.701,7.385"/>
	<path opacity="0.5" clip-path="url(#SVGID_24_)" fill="#5C5C5C" d="M563.612,1103.815c-0.344-1.176-0.77-2.371-1.284-3.593
		c-16.297-38.639-56.935-18.956-90.68-21.264c-31.891-2.18-73.217-24.89-100.973-40.299c-19.611-10.889-48.231-37.637-69.389-15.787
		c-10.497,10.842-0.564,29.032,5.454,39.508c16.118,28.055,43.747,64.063,72.034,80.853c34.547,20.504,84.463,17.159,122.775,11.489
		"/>
</g>
<path opacity="0.2" fill="#828282" d="M1985.927,1128.881c0,1.785-1.072,3.231-2.395,3.231h-106.969
	c-1.323,0-2.395-1.447-2.395-3.231v-103.898c0-1.785,1.072-3.231,2.395-3.231L1985.927,1128.881z"/>
<text transform="matrix(1 0 0 1 1900.1006 1109.3911)" fill="#428888" font-family="'MyriadPro-Bold'" font-size="93.1186">A</text>
<path opacity="0.2" fill="#828282" d="M2117.189,986.221c0,1.785-1.072,3.231-2.395,3.231h-106.969
	c-1.323,0-2.395-1.447-2.395-3.231V882.323c0-1.785,1.072-3.231,2.395-3.231L2117.189,986.221z"/>
<path opacity="0.2" fill="#828282" d="M2118.713,1130.636c0,1.785-1.072,3.231-2.395,3.231H2009.35
	c-1.323,0-2.395-1.447-2.395-3.231v-103.898c0-1.785,1.072-3.231,2.395-3.231L2118.713,1130.636z"/>
<path opacity="0.2" fill="#828282" d="M2252.147,1127.891c0,1.785-1.072,3.231-2.395,3.231h-106.969
	c-1.323,0-2.395-1.447-2.395-3.231v-103.898c0-1.785,1.072-3.231,2.395-3.231L2252.147,1127.891z"/>
<text transform="matrix(1 0 0 1 2164.5078 1107.8203)" fill="#428888" font-family="'MyriadPro-Bold'" font-size="93.1186">D</text>
<text transform="matrix(1 0 0 1 2036.6934 1109.9814)" fill="#428888" font-family="'MyriadPro-Bold'" font-size="93.1186">S</text>
<text transform="matrix(1 0 0 1 2022.0352 971.7778)" fill="#428888" font-family="'MyriadPro-Bold'" font-size="93.1186">W</text>
<g>
	<polygon opacity="0.2" fill="#DCDADA" points="197.327,129.66 197.327,276.931 730.115,276.931 730.115,131.69 489.871,131.69 
		489.871,21.446 277.954,21.446 278.522,130.044 	"/>
	<polygon opacity="0.2" fill="#DCDADA" points="240.31,156.42 240.31,276.931 664.399,276.931 664.399,158.081 473.169,158.081 
		473.169,67.869 304.487,67.869 304.94,156.734 	"/>
</g>
<g>
	<polygon opacity="0.2" fill="#DCDADA" points="1599.49,176.083 1599.49,323.354 2132.278,323.354 2132.278,178.113 
		1952.034,178.113 1952.034,67.869 1740.117,67.869 1740.686,176.467 	"/>
	<polygon opacity="0.2" fill="#DCDADA" points="1642.473,202.843 1642.473,323.354 2066.562,323.354 2066.562,204.504 
		1935.332,204.504 1935.332,114.292 1766.65,114.292 1767.104,203.158 	"/>
</g>
<g>
	<polygon opacity="0.2" fill="#DCDADA" points="2196.268,445.24 2196.268,551.629 2581.157,551.629 2581.157,446.706 
		2407.603,446.706 2407.603,367.065 2254.513,367.065 2254.924,445.517 	"/>
	<polygon opacity="0.2" fill="#DCDADA" points="2227.319,464.571 2227.319,551.629 2533.682,551.629 2533.682,465.771 
		2395.537,465.771 2395.537,400.602 2273.681,400.602 2274.008,464.799 	"/>
</g>
</svg>
