<?xml version="1.0" encoding="utf-8"?>
<!-- Generator: Adobe Illustrator 16.0.0, SVG Export Plug-In . SVG Version: 6.00 Build 0)  -->
<!DOCTYPE svg PUBLIC "-//W3C//DTD SVG 1.1//EN" "http://www.w3.org/Graphics/SVG/1.1/DTD/svg11.dtd">
<svg version="1.1" id="Layer_1" xmlns="http://www.w3.org/2000/svg" xmlns:xlink="http://www.w3.org/1999/xlink" x="0px" y="0px"
	 width="34.87px" height="33.004px" viewBox="0 0 34.87 33.004" enable-background="new 0 0 34.87 33.004" xml:space="preserve">
<g>
	<g>
		<g>
			<path fill="#E6E7E8" d="M24.795,12.588V9.735h-1.658v1.461L17.436,6.41l-5.707,4.79L6.022,15.99h2.737v10.1h17.387v-10.1h2.702
				L24.795,12.588z M11.686,22.125h-1.344v-1.343h1.344V22.125z M11.686,20.295h-1.344v-1.343h1.344V20.295z M13.517,22.125h-1.343
				v-1.343h1.343V22.125z M13.517,20.295h-1.343v-1.343h1.343V20.295z M18.926,25.482h-3.051v-6.673h3.051V25.482z M22.732,22.125
				H21.39v-1.343h1.342V22.125z M22.732,20.295H21.39v-1.343h1.342V20.295z M24.563,22.125h-1.344v-1.343h1.344V22.125z
				 M24.563,20.295h-1.344v-1.343h1.344V20.295z"/>
			<path fill="#E6E7E8" d="M18.743,18.992h-2.685v6.308h2.685V18.992z M18.56,25.116h-2.318v-5.941h2.318V25.116z"/>
		</g>
		<circle fill="#E6E7E8" cx="18.135" cy="21.786" r="0.126"/>
	</g>
</g>
</svg>
