<?xml version="1.0" encoding="utf-8"?>
<!-- Generator: Adobe Illustrator 16.0.0, SVG Export Plug-In . SVG Version: 6.00 Build 0)  -->
<!DOCTYPE svg PUBLIC "-//W3C//DTD SVG 1.1//EN" "http://www.w3.org/Graphics/SVG/1.1/DTD/svg11.dtd">
<svg version="1.1" id="Layer_1" xmlns="http://www.w3.org/2000/svg" xmlns:xlink="http://www.w3.org/1999/xlink" x="0px" y="0px"
	 width="353px" height="353px" viewBox="0 0 353 353" enable-background="new 0 0 353 353" xml:space="preserve">
<g id="_x31_vwW94.tif">
	<g>
		<path fill-rule="evenodd" clip-rule="evenodd" d="M144.679,228.938c0,30.272,0,60.064,0,90.209c-29.906,0-59.489,0-89.613,0
			c-0.104-1.221-0.328-2.635-0.329-4.05c-0.019-39.661-0.06-79.322,0.109-118.982c0.009-2.094,1.275-4.847,2.88-6.173
			c38.265-31.607,76.656-63.063,115.029-94.54c1.416-1.161,2.879-2.263,4.654-3.653c10.26,8.395,20.543,16.794,30.811,25.215
			c29.102,23.869,58.158,47.793,87.346,71.555c3.123,2.543,4.523,5.09,4.507,9.201c-0.151,37.994-0.083,75.988-0.106,113.982
			c-0.002,2.446-0.246,4.891-0.389,7.553c-30.047,0-59.626,0-89.656,0c0-30.111,0-60.029,0-90.316
			C188.098,228.938,166.723,228.938,144.679,228.938z"/>
		<path fill-rule="evenodd" clip-rule="evenodd" d="M232.416,73.673c0-6.505-0.071-11.753,0.018-16.999
			c0.117-6.854,2.21-8.917,9.013-8.938c11.327-0.036,22.655-0.012,33.983-0.01c9.156,0.002,10.891,1.764,10.897,11.18
			c0.015,17.492,0.168,34.986-0.101,52.473c-0.075,4.926,1.303,8.176,5.283,11.309c14.25,11.216,28.149,22.875,41.787,34.043
			c-7.911,7.855-15.655,15.544-23.867,23.698c-6.917-5.632-14.748-11.977-22.546-18.361c-33.882-27.74-67.741-55.507-101.639-83.228
			c-7.188-5.878-8.514-5.875-15.438-0.214c-39.96,32.667-79.899,65.36-119.85,98.039c-1.799,1.473-3.646,2.887-5.118,4.05
			c-7.854-7.854-15.579-15.579-23.723-23.723c3.672-3.045,7.813-6.518,11.993-9.941c44.05-36.082,88.096-72.168,132.17-108.222
			c8.25-6.748,15.638-6.769,23.876-0.103c12.555,10.157,25.037,20.402,37.562,30.596C228.217,70.541,229.789,71.671,232.416,73.673z
			"/>
	</g>
</g>
</svg>
