<?xml version="1.0" encoding="utf-8"?>
<!-- Generator: Adobe Illustrator 16.0.0, SVG Export Plug-In . SVG Version: 6.00 Build 0)  -->
<!DOCTYPE svg PUBLIC "-//W3C//DTD SVG 1.1//EN" "http://www.w3.org/Graphics/SVG/1.1/DTD/svg11.dtd">
<svg version="1.1" id="Layer_1" xmlns="http://www.w3.org/2000/svg" xmlns:xlink="http://www.w3.org/1999/xlink" x="0px" y="0px"
	 width="640px" height="235.421px" viewBox="0 0 640 235.421" enable-background="new 0 0 640 235.421" xml:space="preserve">
<rect x="255" y="49.747" fill="#494049" width="19.047" height="26.998"/>
<rect x="274.047" y="47.042" fill="#F2F5CD" width="15.619" height="21.093"/>
<rect x="239.381" y="49.747" fill="#F2F5CD" width="15.619" height="21.093"/>
<g>
	<g>
		<g>
			<g>
				<g>
					<path fill="#39323A" d="M288.782,34.108v-9.243h-5.37V29.6l-18.475-15.508L246.448,29.61L227.96,45.13h8.869v36.767h56.331
						V45.13h8.752L288.782,34.108z M246.31,65.007h-4.352v-4.351h4.352V65.007z M246.31,59.075h-4.352v-4.351h4.352V59.075z
						 M252.241,65.007h-4.352v-4.35h4.352V65.007z M252.241,59.075h-4.352v-4.35h4.352V59.075z M269.769,75.881h-9.887V54.262h9.887
						V75.881z M282.099,65.007h-4.35v-4.351h4.35V65.007z M282.099,59.075h-4.35v-4.351h4.35V59.075z M288.03,65.007h-4.351v-4.35
						h4.351V65.007z M288.03,59.075h-4.351v-4.35h4.351V59.075z"/>
					<path fill="#39323A" d="M269.175,54.854h-8.7v20.434h8.7V54.854z M268.582,74.694h-7.515V55.448h7.515V74.694z"/>
				</g>
				<circle fill="#39323A" cx="267.204" cy="63.905" r="0.408"/>
			</g>
		</g>
		<g>
			<g>
				<rect x="301.906" y="57.589" fill="#39323A" width="2.408" height="19.156"/>
				<rect x="311.404" y="57.589" fill="#39323A" width="2.408" height="19.156"/>
				<rect x="321.257" y="57.589" fill="#39323A" width="2.407" height="19.156"/>
				<rect x="330.755" y="57.589" fill="#39323A" width="2.407" height="19.156"/>
				<rect x="340.253" y="57.589" fill="#39323A" width="2.408" height="19.156"/>
				<rect x="350.105" y="57.589" fill="#39323A" width="2.407" height="19.156"/>
				<rect x="359.604" y="57.589" fill="#39323A" width="2.407" height="19.156"/>
			</g>
			<rect x="292.533" y="60.294" fill="#39323A" width="69.478" height="2.408"/>
			<rect x="292.533" y="65.071" fill="#39323A" width="69.478" height="2.408"/>
		</g>
	</g>
</g>
<path fill="#FFFFFF" d="M633.469,109.113l-6.293-29.999l-5.529,26.361c-0.521-0.152-1.062-0.309-1.604-0.464l-5.432-25.897
	l-6.875-32.781l-6.875,32.781l-4.139,19.735c-2.031-0.493-4.119-0.992-6.281-1.496l-3.826-18.239l-3.477,16.575
	c-2.404-0.534-4.896-1.073-7.447-1.614l-3.137-14.961l-6.877-32.781l-6.875,32.781l-2.334,11.127
	c-53.305-10.001-131.262-19.562-234.58-19.562c-105.724,0-181.425,8.499-232.743,17.852l-2.111-10.066l-6.81-32.471l-6.811,32.471
	l-2.874,13.702c-2.932,0.614-5.771,1.227-8.504,1.837l-4.37-15.539l-4.333,17.201c-1.321,0.324-5.709,1.743-6.974,2.062
	l-2.805-13.373l-6.875-32.781l-6.875,32.781l-4,19.069c-1.46,0.445-2.864,0.881-4.193,1.304l-0.985-4.695l-6.875-32.781
	l-6.876,32.781l-2.246,10.709c-3.085,1.242-4.576,1.962-4.576,1.962v19.856L0,132.814h0.053v66.037h643.671v-86.147
	C643.725,112.704,640.305,111.341,633.469,109.113z"/>
</svg>
