<?xml version="1.0" encoding="utf-8"?>
<!-- Generator: Adobe Illustrator 16.0.0, SVG Export Plug-In . SVG Version: 6.00 Build 0)  -->
<!DOCTYPE svg PUBLIC "-//W3C//DTD SVG 1.1//EN" "http://www.w3.org/Graphics/SVG/1.1/DTD/svg11.dtd">
<svg version="1.1" id="Layer_1" xmlns="http://www.w3.org/2000/svg" xmlns:xlink="http://www.w3.org/1999/xlink" x="0px" y="0px"
	 width="1816.071px" height="739.286px" viewBox="0 0 1816.071 739.286" enable-background="new 0 0 1816.071 739.286"
	 xml:space="preserve">
<g>
	<path fill="#E6E7E8" d="M659.038,328.729V141.92h17.251v186.809H659.038z"/>
	<path fill="#E6E7E8" d="M763.449,328.729v-56.52c0-13.768,0.036-27.238,0.113-40.403c0.075-13.165,0.188-26.632,0.341-40.403
		l-20.201,137.326h-15.208l-19.976-137.326c0.149,13.771,0.263,27.238,0.341,40.403c0.074,13.165,0.113,26.635,0.113,40.403v56.52
		h-15.889V141.92h23.152l19.748,145.952l19.748-145.952h23.833v186.809H763.449z"/>
	<path fill="#E6E7E8" d="M843.118,328.729l-4.085-31.324h-27.92l-4.085,31.324H790.23L815.88,141.92h20.202l24.287,186.809H843.118z
		 M836.99,281.517c-1.969-16.038-3.938-31.892-5.902-47.554c-1.968-15.662-3.858-31.739-5.674-48.234
		c-1.969,16.496-3.973,32.572-6.016,48.234s-4.125,31.516-6.242,47.554H836.99z"/>
	<path fill="#E6E7E8" d="M925.516,329.864l-5.675-10.214c-1.816,3.632-4.767,6.395-8.853,8.285
		c-4.086,1.89-8.704,2.837-13.847,2.837c-4.085,0-7.831-0.532-11.235-1.589c-3.405-1.057-6.355-2.837-8.853-5.334
		c-2.497-2.497-4.465-5.788-5.901-9.874c-1.44-4.086-2.156-9.08-2.156-14.981V171.882c0-10.441,2.419-18.386,7.264-23.833
		c4.841-5.448,12.257-8.171,22.244-8.171s17.212,2.724,21.677,8.171c4.462,5.448,6.696,13.392,6.696,23.833v32.913h-15.435v-32.913
		c0-4.841-0.986-8.473-2.951-10.895c-1.969-2.419-5.299-3.632-9.987-3.632c-4.391,0-7.529,1.213-9.42,3.632
		c-1.894,2.422-2.837,6.054-2.837,10.895v127.112c0,4.845,1.135,8.512,3.404,11.009c2.27,2.497,5.143,3.746,8.626,3.746
		c8.171,0,12.633-4.462,13.392-13.392V257.91h-14.3v-16.343h30.87v88.297H925.516z"/>
	<path fill="#E6E7E8" d="M943.899,328.729V141.92h17.251v186.809H943.899z"/>
	<path fill="#E6E7E8" d="M1024.931,328.729l-32.231-136.418c0.148,14.226,0.227,28.033,0.227,41.425s0,27.203,0,41.425v53.569
		h-14.981V141.92h20.656l28.6,136.872c-0.152-12.86-0.227-25.458-0.227-37.793c0-12.332,0-24.929,0-37.793V141.92h15.208v186.809
		H1024.931z"/>
	<path fill="#E6E7E8" d="M1113.682,329.864l-5.675-10.214c-1.815,3.632-4.767,6.395-8.853,8.285
		c-4.085,1.89-8.703,2.837-13.846,2.837c-4.086,0-7.831-0.532-11.236-1.589c-3.404-1.057-6.355-2.837-8.852-5.334
		c-2.497-2.497-4.466-5.788-5.902-9.874c-1.439-4.086-2.156-9.08-2.156-14.981V171.882c0-10.441,2.419-18.386,7.264-23.833
		c4.841-5.448,12.257-8.171,22.245-8.171c9.987,0,17.212,2.724,21.677,8.171c4.462,5.448,6.696,13.392,6.696,23.833v32.913h-15.436
		v-32.913c0-4.841-0.985-8.473-2.95-10.895c-1.969-2.419-5.299-3.632-9.987-3.632c-4.392,0-7.53,1.213-9.42,3.632
		c-1.895,2.422-2.838,6.054-2.838,10.895v127.112c0,4.845,1.135,8.512,3.405,11.009c2.27,2.497,5.143,3.746,8.625,3.746
		c8.172,0,12.633-4.462,13.393-13.392V257.91h-14.301v-16.343h30.87v88.297H1113.682z"/>
	<path fill="#E6E7E8" d="M1209.691,328.729l-4.086-31.324h-27.919l-4.086,31.324h-16.797l25.649-186.809h20.201l24.288,186.809
		H1209.691z M1203.562,281.517c-1.968-16.038-3.937-31.892-5.901-47.554c-1.969-15.662-3.858-31.739-5.675-48.234
		c-1.969,16.496-3.972,32.572-6.015,48.234s-4.125,31.516-6.242,47.554H1203.562z"/>
	<path fill="#E6E7E8" d="M1285.049,328.729l-32.232-136.418c0.149,14.226,0.228,28.033,0.228,41.425s0,27.203,0,41.425v53.569
		h-14.981V141.92h20.655l28.601,136.872c-0.152-12.86-0.227-25.458-0.227-37.793c0-12.332,0-24.929,0-37.793V141.92h15.208v186.809
		H1285.049z"/>
	<path fill="#E6E7E8" d="M1318.642,328.729V141.92h29.055c9.987,0,17.399,2.837,22.244,8.512c4.842,5.675,7.264,13.506,7.264,23.493
		v123.026c0,21.188-9.838,31.778-29.508,31.778H1318.642z M1359.953,174.152c0-4.689-1.021-8.32-3.064-10.896
		c-2.043-2.571-5.106-3.859-9.192-3.859h-11.804v152.308h11.804c8.171,0,12.257-4.916,12.257-14.754V174.152z"/>
	<path fill="#E6E7E8" d="M1423.504,328.729V141.92h29.054c9.987,0,17.4,2.837,22.245,8.512c4.841,5.675,7.264,13.506,7.264,23.493
		v123.026c0,21.188-9.839,31.778-29.509,31.778H1423.504z M1464.815,174.152c0-4.689-1.021-8.32-3.064-10.896
		c-2.043-2.571-5.107-3.859-9.193-3.859h-11.803v152.308h11.803c8.172,0,12.258-4.916,12.258-14.754V174.152z"/>
	<path fill="#E6E7E8" d="M1542.442,328.729l-4.085-31.324h-27.92l-4.085,31.324h-16.798l25.649-186.809h20.202l24.287,186.809
		H1542.442z M1536.314,281.517c-1.969-16.038-3.938-31.892-5.902-47.554c-1.968-15.662-3.858-31.739-5.674-48.234
		c-1.969,16.496-3.973,32.572-6.016,48.234s-4.125,31.516-6.242,47.554H1536.314z"/>
	<path fill="#E6E7E8" d="M1578.307,328.729V159.398h-20.882V141.92h58.789v17.478h-20.883v169.332H1578.307z"/>
	<path fill="#E6E7E8" d="M1666.604,328.729l-4.086-31.324h-27.919l-4.086,31.324h-16.797l25.649-186.809h20.202l24.287,186.809
		H1666.604z M1660.475,281.517c-1.968-16.038-3.937-31.892-5.901-47.554c-1.968-15.662-3.858-31.739-5.675-48.234
		c-1.968,16.496-3.972,32.572-6.015,48.234s-4.125,31.516-6.242,47.554H1660.475z"/>
	<path fill="#E6E7E8" d="M676.062,601.112l-23.152-186.809h17.932c0.908,7.717,1.93,16.534,3.064,26.443
		c1.135,9.913,2.27,20.202,3.405,30.871c1.135,10.668,2.305,21.301,3.518,31.891c1.21,10.594,2.306,20.429,3.292,29.508
		c0.982,9.08,1.815,17.024,2.496,23.834c0.682,6.81,1.171,11.654,1.476,14.527c0.302-3.025,0.83-7.906,1.589-14.641
		c0.756-6.732,1.625-14.641,2.61-23.721c0.982-9.079,2.117-18.914,3.405-29.508c1.283-10.59,2.571-21.223,3.858-31.891
		c1.284-10.669,2.532-20.958,3.745-30.871c1.21-9.909,2.345-18.727,3.405-26.443h17.251l-24.742,186.809H676.062z"/>
	<path fill="#E6E7E8" d="M735.759,601.112V414.303h17.251v186.809H735.759z"/>
	<path fill="#E6E7E8" d="M808.846,545.728c0-2.873-0.078-5.221-0.227-7.036c-0.153-1.816-0.454-3.405-0.908-4.768
		c-0.454-1.361-1.061-2.609-1.816-3.745c-0.759-1.135-1.667-2.384-2.724-3.745c-2.27-2.725-4.54-5.256-6.81-7.604
		c-2.27-2.345-4.617-4.689-7.036-7.037c-2.423-2.344-4.881-4.842-7.377-7.49c-2.497-2.646-5.107-5.636-7.831-8.967
		c-3.029-3.479-4.806-7.071-5.335-10.781c-0.531-3.706-0.794-8.207-0.794-13.506V443.13c0-20.577,9.683-30.87,29.054-30.87
		c10.441,0,17.779,2.535,22.018,7.604c4.235,5.072,6.356,12.825,6.356,23.267v34.048H809.3V445.4c0-4.688-0.795-8.473-2.384-11.349
		c-1.589-2.873-4.731-4.312-9.42-4.312c-8.022,0-12.03,4.465-12.03,13.392v27.692c0,3.937,0.263,6.81,0.795,8.625
		c0.528,1.816,1.624,3.785,3.291,5.902c4.54,5.752,9.193,10.82,13.96,15.207c4.767,4.391,9.568,9.459,14.413,15.209
		c1.664,1.968,3.025,3.937,4.086,5.901c1.057,1.968,1.891,4.085,2.497,6.355c0.603,2.271,1.021,4.845,1.248,7.718
		c0.228,2.876,0.341,6.129,0.341,9.76v26.785c0,9.986-2.234,17.63-6.696,22.925c-4.465,5.299-11.917,7.944-22.358,7.944
		c-10.14,0-17.517-2.646-22.131-7.944c-4.617-5.295-6.923-12.938-6.923-22.925v-39.723h16.57v37.225
		c0,4.846,0.868,8.779,2.61,11.804c1.737,3.029,4.88,4.54,9.42,4.54c4.387,0,7.525-1.17,9.42-3.519
		c1.89-2.345,2.837-5.788,2.837-10.327V545.728z"/>
	<path fill="#E6E7E8" d="M881.254,414.303h17.251v157.074c0,21.188-9.761,31.777-29.281,31.777s-29.281-10.59-29.281-31.777V414.303
		h17.251v157.074c0,9.838,4.008,14.754,12.03,14.754c8.019,0,12.03-4.916,12.03-14.754V414.303z"/>
	<path fill="#E6E7E8" d="M959.562,601.112l-4.086-31.324h-27.919l-4.086,31.324h-16.797l25.649-186.809h20.201l24.288,186.809
		H959.562z M953.434,553.899c-1.968-16.037-3.937-31.891-5.901-47.553c-1.969-15.662-3.858-31.739-5.675-48.234
		c-1.969,16.495-3.972,32.572-6.015,48.234s-4.125,31.516-6.242,47.553H953.434z"/>
	<path fill="#E6E7E8" d="M988.388,601.112V414.303h17.251v169.785h33.366v17.023H988.388z"/>
	<path fill="#E6E7E8" d="M1050.125,601.112V414.303h17.251v186.809H1050.125z"/>
	<path fill="#E6E7E8" d="M1123.213,545.728c0-2.873-0.078-5.221-0.227-7.036c-0.153-1.816-0.454-3.405-0.908-4.768
		c-0.454-1.361-1.061-2.609-1.816-3.745c-0.759-1.135-1.667-2.384-2.724-3.745c-2.27-2.725-4.54-5.256-6.81-7.604
		c-2.27-2.345-4.617-4.689-7.036-7.037c-2.423-2.344-4.881-4.842-7.377-7.49c-2.497-2.646-5.107-5.636-7.831-8.967
		c-3.029-3.479-4.806-7.071-5.335-10.781c-0.531-3.706-0.794-8.207-0.794-13.506V443.13c0-20.577,9.683-30.87,29.054-30.87
		c10.441,0,17.779,2.535,22.018,7.604c4.235,5.072,6.356,12.825,6.356,23.267v34.048h-16.116V445.4
		c0-4.688-0.795-8.473-2.384-11.349c-1.589-2.873-4.731-4.312-9.42-4.312c-8.022,0-12.03,4.465-12.03,13.392v27.692
		c0,3.937,0.263,6.81,0.795,8.625c0.528,1.816,1.624,3.785,3.291,5.902c4.54,5.752,9.193,10.82,13.96,15.207
		c4.767,4.391,9.568,9.459,14.413,15.209c1.664,1.968,3.025,3.937,4.086,5.901c1.057,1.968,1.891,4.085,2.497,6.355
		c0.603,2.271,1.021,4.845,1.248,7.718c0.228,2.876,0.341,6.129,0.341,9.76v26.785c0,9.986-2.234,17.63-6.696,22.925
		c-4.465,5.299-11.917,7.944-22.358,7.944c-10.14,0-17.517-2.646-22.131-7.944c-4.617-5.295-6.923-12.938-6.923-22.925v-39.723
		h16.57v37.225c0,4.846,0.868,8.779,2.61,11.804c1.737,3.029,4.88,4.54,9.42,4.54c4.387,0,7.525-1.17,9.42-3.519
		c1.89-2.345,2.837-5.788,2.837-10.327V545.728z"/>
	<path fill="#E6E7E8" d="M1199.935,601.112l-4.086-31.324h-27.919l-4.086,31.324h-16.797l25.649-186.809h20.201l24.288,186.809
		H1199.935z M1193.806,553.899c-1.968-16.037-3.937-31.891-5.901-47.553c-1.969-15.662-3.858-31.739-5.675-48.234
		c-1.969,16.495-3.972,32.572-6.015,48.234s-4.125,31.516-6.242,47.553H1193.806z"/>
	<path fill="#E6E7E8" d="M1235.799,601.112V431.781h-20.882v-17.478h58.789v17.478h-20.883v169.331H1235.799z"/>
	<path fill="#E6E7E8" d="M1285.053,601.112V414.303h17.251v186.809H1285.053z"/>
	<path fill="#E6E7E8" d="M1318.19,444.038c0-21.184,9.761-31.777,29.281-31.777c19.67,0,29.508,10.594,29.508,31.777v127.34
		c0,21.188-9.838,31.777-29.508,31.777c-19.521,0-29.281-10.59-29.281-31.777V444.038z M1359.729,444.038
		c0-9.533-4.085-14.299-12.257-14.299c-8.022,0-12.03,4.766-12.03,14.299v127.34c0,9.838,4.008,14.754,12.03,14.754
		c8.172,0,12.257-4.916,12.257-14.754V444.038z"/>
	<path fill="#E6E7E8" d="M1438.947,601.112l-32.232-136.418c0.149,14.226,0.228,28.033,0.228,41.425s0,27.203,0,41.425v53.568
		h-14.981V414.303h20.655l28.601,136.872c-0.152-12.86-0.227-25.458-0.227-37.793c0-12.331,0-24.929,0-37.793v-61.286h15.208
		v186.809H1438.947z"/>
	<path fill="#E6E7E8" d="M1471.179,601.112v-28.373h16.115v28.373H1471.179z"/>
</g>
<g>
	<path fill="#E6E7E8" d="M336.187,292.457h-11.803v152.307h11.803c8.172,0,12.258-4.916,12.258-14.754V307.211
		c0-4.689-1.021-8.32-3.064-10.896C343.337,293.744,340.272,292.457,336.187,292.457z"/>
	<path fill="#E6E7E8" d="M333.349,103.383c-146.355,0-265,118.645-265,265c0,146.356,118.645,265,265,265s265-118.645,265-265
		C598.349,222.027,479.704,103.383,333.349,103.383z M202.269,461.788l-4.085-31.324h-27.92l-4.085,31.324h-16.798l25.649-186.809
		h20.202l24.287,186.809H202.269z M278.307,461.788l-4.085-31.324h-27.92l-4.085,31.324h-16.798l25.649-186.809h20.202
		l24.287,186.809H278.307z M365.695,430.01c0,21.188-9.839,31.777-29.509,31.777h-29.054V274.979h29.054
		c9.987,0,17.4,2.838,22.245,8.512c4.841,5.676,7.264,13.506,7.264,23.494V430.01z M403.599,461.788h-17.023V305.622h-9.987v-16.797
		h4.993c2.419,0,4.16-0.642,5.221-1.93c1.057-1.284,1.589-3.44,1.589-6.469v-5.448h15.208V461.788z M443.547,461.788h-17.023
		V305.622h-9.987v-16.797h4.993c2.419,0,4.16-0.642,5.221-1.93c1.057-1.284,1.589-3.44,1.589-6.469v-5.448h15.208V461.788z
		 M517.316,432.735c0,10.139-2.384,17.857-7.15,23.152c-4.767,5.299-12.144,7.943-22.131,7.943s-17.329-2.645-22.018-7.943
		c-4.692-5.295-7.037-13.014-7.037-23.152v-44.717c0-6.811,1.284-11.953,3.859-15.436c2.571-3.479,5.901-5.901,9.987-7.263
		c-3.784-1.511-6.81-3.895-9.08-7.15c-2.27-3.252-3.404-8.058-3.404-14.413v-38.588c0-10.441,2.117-18.422,6.355-23.947
		c4.234-5.521,11.35-8.285,21.337-8.285s17.099,2.764,21.337,8.285c4.234,5.525,6.355,13.506,6.355,23.947v38.588
		c0,6.355-1.1,11.161-3.292,14.413c-2.195,3.256-5.185,5.64-8.966,7.15c3.934,1.362,7.225,3.784,9.874,7.263
		c2.646,3.482,3.973,8.625,3.973,15.436V432.735z"/>
	<path fill="#E6E7E8" d="M184.564,318.787c-1.969,16.496-3.973,32.572-6.016,48.234c-2.043,15.663-4.125,31.516-6.242,47.553h23.834
		c-1.969-16.037-3.938-31.891-5.902-47.553C188.271,351.359,186.38,335.283,184.564,318.787z"/>
	<path fill="#E6E7E8" d="M260.603,318.787c-1.969,16.496-3.973,32.572-6.016,48.234c-2.043,15.663-4.125,31.516-6.242,47.553h23.834
		c-1.969-16.037-3.938-31.891-5.902-47.553C264.309,351.359,262.418,335.283,260.603,318.787z"/>
	<path fill="#E6E7E8" d="M488.035,374.625c-8.022,0-12.03,4.086-12.03,12.258v45.623c0,4.846,0.908,8.438,2.724,10.783
		c1.816,2.348,4.916,3.518,9.307,3.518c4.387,0,7.525-1.17,9.42-3.518c1.891-2.346,2.837-5.938,2.837-10.783v-45.623
		c0-4.234-0.946-7.338-2.837-9.307C495.561,375.612,492.422,374.625,488.035,374.625z"/>
	<path fill="#E6E7E8" d="M488.035,358.51c8.019,0,12.03-4.16,12.03-12.484v-40.857c0-5.295-0.795-9.08-2.384-11.35
		s-4.806-3.404-9.646-3.404c-4.692,0-7.831,1.135-9.42,3.404s-2.384,6.055-2.384,11.35v40.857c0,4.391,0.908,7.568,2.725,9.533
		C480.771,357.527,483.797,358.51,488.035,358.51z"/>
</g>
</svg>
