<?xml version="1.0" encoding="utf-8"?>
<!-- Generator: Adobe Illustrator 16.0.0, SVG Export Plug-In . SVG Version: 6.00 Build 0)  -->
<!DOCTYPE svg PUBLIC "-//W3C//DTD SVG 1.1//EN" "http://www.w3.org/Graphics/SVG/1.1/DTD/svg11.dtd">
<svg version="1.1" id="Layer_1" xmlns="http://www.w3.org/2000/svg" xmlns:xlink="http://www.w3.org/1999/xlink" x="0px" y="0px"
	 width="429.081px" height="53.914px" viewBox="0 0 429.081 53.914" enable-background="new 0 0 429.081 53.914"
	 xml:space="preserve">
<g>
	<path fill="#FFFFFF" d="M11.526,44.333H32.84v8.864H0V3.545h11.526V44.333z"/>
	<path fill="#FFFFFF" d="M50.404,7.74H38.843V0h11.562V7.74z M50.404,53.198H38.843V16.301h11.562V53.198z"/>
	<path fill="#FFFFFF" d="M70.695,7.125v9.177h5.832v7.979h-5.832v16.916c0,1.317,0.268,2.266,0.802,2.847
		c0.533,0.581,1.255,0.867,2.165,0.867c0.592,0,1.063-0.021,1.417-0.067c0.352-0.046,0.8-0.135,1.346-0.273l0.785,8.527
		c-1.16,0.295-2.207,0.505-3.138,0.632c-0.933,0.122-2.036,0.185-3.308,0.185c-3.799,0-6.679-1.011-8.646-3.031
		c-1.966-2.026-2.949-5.23-2.949-9.618V24.281h-5.15v-7.979h5.15V7.125H70.695z"/>
	<path fill="#FFFFFF" d="M95.351,7.125v9.177h5.833v7.979h-5.833v16.916c0,1.317,0.268,2.266,0.803,2.847
		c0.532,0.581,1.255,0.867,2.164,0.867c0.592,0,1.063-0.021,1.417-0.067c0.352-0.046,0.801-0.135,1.346-0.273l0.785,8.527
		c-1.16,0.295-2.206,0.505-3.137,0.632c-0.933,0.122-2.036,0.185-3.308,0.185c-3.799,0-6.68-1.011-8.646-3.031
		c-1.967-2.026-2.95-5.23-2.95-9.618V24.281h-5.15v-7.979h5.15V7.125H95.351z"/>
	<path fill="#FFFFFF" d="M118.849,53.198h-11.562V0h11.562V53.198z"/>
	<path fill="#FFFFFF" d="M142.276,53.914c-5.592,0-9.974-1.692-13.146-5.078c-3.171-3.39-4.756-7.673-4.756-12.856v-1.297
		c0-5.639,1.494-10.232,4.484-13.778s7.314-5.311,12.977-5.285c4.979,0,8.837,1.486,11.578,4.468
		c2.739,2.978,4.107,7.058,4.107,12.242v6.034h-21.144l-0.067,0.206c0.182,1.933,0.897,3.495,2.147,4.691
		c1.251,1.191,3.047,1.789,5.389,1.789c2.206,0,4.042-0.181,5.508-0.547c1.468-0.362,3.144-0.943,5.03-1.739l2.762,7.024
		c-1.592,1.162-3.729,2.139-6.411,2.935S145.233,53.914,142.276,53.914z M141.835,24.483c-1.843,0-3.201,0.585-4.076,1.756
		c-0.876,1.175-1.382,2.759-1.517,4.759l0.067,0.173h9.957v-0.889c0-1.908-0.335-3.353-1.004-4.329
		C144.591,24.975,143.447,24.483,141.835,24.483z"/>
	<path fill="#FFFFFF" d="M203.013,35.739h0.204l6.003-32.193h11.663l-11.39,49.652h-10.845l-8.355-30.656h-0.204l-8.287,30.656
		h-10.846L159.531,3.545h11.698l6.003,32.228l0.204,0.033l8.423-32.261h8.695L203.013,35.739z"/>
	<path fill="#FFFFFF" d="M239.946,53.914c-5.593,0-9.975-1.692-13.147-5.078c-3.171-3.39-4.756-7.673-4.756-12.856v-1.297
		c0-5.639,1.494-10.232,4.484-13.778s7.316-5.311,12.977-5.285c4.978,0,8.835,1.486,11.58,4.468
		c2.737,2.978,4.105,7.058,4.105,12.242v6.034h-21.144l-0.067,0.206c0.182,1.933,0.897,3.495,2.147,4.691
		c1.251,1.191,3.049,1.789,5.391,1.789c2.207,0,4.043-0.181,5.508-0.547c1.466-0.362,3.142-0.943,5.028-1.739l2.763,7.024
		c-1.592,1.162-3.731,2.139-6.409,2.935C245.72,53.518,242.902,53.914,239.946,53.914z M239.504,24.483
		c-1.845,0-3.2,0.585-4.076,1.756c-0.876,1.175-1.382,2.759-1.517,4.759l0.067,0.173h9.955v-0.889c0-1.908-0.333-3.353-1.002-4.329
		C242.258,24.975,241.116,24.483,239.504,24.483z"/>
	<path fill="#FFFFFF" d="M281.383,53.165c-0.434-0.771-0.805-1.646-1.107-2.624c-0.308-0.977-0.539-2-0.699-3.069
		c-1.002,1.954-2.231,3.516-3.702,4.687c-1.465,1.171-3.381,1.756-5.748,1.756c-3.865,0-6.872-0.993-9.02-2.981
		c-2.147-1.991-3.222-4.699-3.222-8.136c0-3.659,1.377-6.484,4.127-8.473c2.75-1.991,6.923-2.985,12.516-2.985h4.741v-2.623
		c0-1.571-0.375-2.775-1.124-3.617c-0.75-0.843-1.903-1.26-3.444-1.26c-1.344,0-2.338,0.312-2.986,0.936
		c-0.648,0.627-0.973,1.6-0.973,2.918l-11.185-0.034l-0.067-0.206c-0.16-3.364,1.246-6.178,4.211-8.439
		c2.965-2.265,6.881-3.394,11.749-3.394c4.569,0,8.271,1.137,11.101,3.411c2.83,2.273,4.244,5.524,4.244,9.753v13.913
		c0,1.954,0.165,3.773,0.497,5.457c0.329,1.681,0.821,3.365,1.482,5.045L281.383,53.165z M273.268,45.698
		c1.407,0,2.653-0.332,3.731-0.989c1.078-0.661,1.836-1.444,2.27-2.354v-4.877h-4.637c-1.844,0-3.175,0.442-3.991,1.331
		c-0.817,0.884-1.229,2.013-1.229,3.373c0,1.049,0.361,1.895,1.077,2.543S272.131,45.698,273.268,45.698z"/>
	<path fill="#FFFFFF" d="M310.334,7.125v9.177h5.832v7.979h-5.832v16.916c0,1.317,0.27,2.266,0.8,2.847
		c0.535,0.581,1.255,0.867,2.164,0.867c0.594,0,1.065-0.021,1.42-0.067c0.35-0.046,0.8-0.135,1.343-0.273l0.788,8.527
		c-1.158,0.295-2.207,0.505-3.138,0.632c-0.935,0.122-2.038,0.185-3.31,0.185c-3.799,0-6.679-1.011-8.642-3.031
		c-1.971-2.026-2.952-5.23-2.952-9.618V24.281h-5.149v-7.979h5.149V7.125H310.334z"/>
	<path fill="#FFFFFF" d="M332.947,20.87c1.111-1.659,2.472-2.952,4.076-3.87c1.6-0.922,3.368-1.381,5.302-1.381
		c3.819,0,6.817,1.331,9.003,3.987c2.182,2.662,3.272,6.789,3.272,12.381v21.211h-11.526V31.919c0-2.821-0.366-4.763-1.091-5.832
		c-0.729-1.069-1.831-1.604-3.31-1.604c-1.297,0-2.417,0.189-3.377,0.564c-0.952,0.375-1.735,0.905-2.35,1.588v26.562h-11.53V0
		h11.53V20.87z"/>
	<path fill="#FFFFFF" d="M377.382,53.914c-5.592,0-9.976-1.692-13.146-5.078c-3.176-3.39-4.759-7.673-4.759-12.856v-1.297
		c0-5.639,1.495-10.232,4.485-13.778c2.989-3.546,7.314-5.311,12.974-5.285c4.981,0,8.839,1.486,11.58,4.468
		c2.737,2.978,4.11,7.058,4.11,12.242v6.034h-21.147l-0.067,0.206c0.185,1.933,0.9,3.495,2.147,4.691
		c1.255,1.191,3.049,1.789,5.39,1.789c2.207,0,4.043-0.181,5.508-0.547c1.466-0.362,3.142-0.943,5.028-1.739l2.763,7.024
		c-1.592,1.162-3.727,2.139-6.409,2.935S380.338,53.914,377.382,53.914z M376.936,24.483c-1.84,0-3.2,0.585-4.076,1.756
		c-0.876,1.175-1.381,2.759-1.516,4.759l0.067,0.173h9.959v-0.889c0-1.908-0.333-3.353-1.007-4.329
		C379.694,24.975,378.553,24.483,376.936,24.483z"/>
	<path fill="#FFFFFF" d="M417.896,26.121l-3.752-0.033c-1.318,0-2.4,0.244-3.242,0.732c-0.839,0.488-1.466,1.18-1.874,2.063v24.314
		h-11.525V16.301h10.843l0.409,5.419c0.774-1.929,1.798-3.432,3.073-4.501c1.272-1.065,2.759-1.601,4.464-1.601
		c0.522,0,0.99,0.034,1.398,0.101c0.412,0.068,0.842,0.173,1.297,0.308L417.896,26.121z"/>
	<path fill="#FFFFFF" d="M429.081,53.198h-11.492v-9.686h11.492V53.198z"/>
</g>
</svg>
