<?xml version="1.0" encoding="utf-8"?>
<!-- Generator: Adobe Illustrator 16.0.0, SVG Export Plug-In . SVG Version: 6.00 Build 0)  -->
<!DOCTYPE svg PUBLIC "-//W3C//DTD SVG 1.1//EN" "http://www.w3.org/Graphics/SVG/1.1/DTD/svg11.dtd">
<svg version="1.1" id="Layer_1" xmlns="http://www.w3.org/2000/svg" xmlns:xlink="http://www.w3.org/1999/xlink" x="0px" y="0px"
	 width="612.5px" height="612.5px" viewBox="0 0 612.5 612.5" enable-background="new 0 0 612.5 612.5" xml:space="preserve">
<g>
	<path fill="#E6E7E8" d="M309.088,230.324h-11.803V382.63h11.803c8.172,0,12.258-4.915,12.258-14.754V245.078
		c0-4.688-1.021-8.32-3.064-10.896C316.238,231.611,313.174,230.324,309.088,230.324z"/>
	<path fill="#E6E7E8" d="M306.25,41.25c-146.355,0-265,118.645-265,265c0,146.354,118.645,264.999,265,264.999
		s265-118.645,265-264.999C571.25,159.895,452.605,41.25,306.25,41.25z M175.17,399.655l-4.085-31.324h-27.92l-4.085,31.324h-16.798
		l25.649-186.809h20.202l24.287,186.809H175.17z M251.208,399.655l-4.085-31.324h-27.92l-4.085,31.324H198.32l25.649-186.809h20.202
		l24.287,186.809H251.208z M338.597,367.876c0,21.188-9.839,31.778-29.509,31.778h-29.054V212.846h29.054
		c9.987,0,17.4,2.837,22.245,8.512c4.841,5.675,7.264,13.506,7.264,23.493V367.876z M376.5,399.655h-17.023V243.489h-9.987v-16.797
		h4.993c2.419,0,4.16-0.642,5.221-1.93c1.057-1.283,1.589-3.439,1.589-6.469v-5.447H376.5V399.655z M416.448,399.655h-17.023
		V243.489h-9.987v-16.797h4.993c2.419,0,4.16-0.642,5.221-1.93c1.057-1.283,1.589-3.439,1.589-6.469v-5.447h15.208V399.655z
		 M490.218,370.601c0,10.14-2.384,17.857-7.15,23.152c-4.767,5.299-12.144,7.944-22.131,7.944s-17.329-2.646-22.018-7.944
		c-4.692-5.295-7.037-13.013-7.037-23.152v-44.717c0-6.81,1.284-11.952,3.859-15.436c2.571-3.479,5.901-5.9,9.987-7.263
		c-3.784-1.511-6.81-3.895-9.08-7.15c-2.27-3.252-3.404-8.058-3.404-14.413v-38.588c0-10.441,2.117-18.421,6.355-23.946
		c4.234-5.522,11.35-8.285,21.337-8.285s17.099,2.763,21.337,8.285c4.234,5.525,6.355,13.505,6.355,23.946v38.588
		c0,6.355-1.1,11.161-3.292,14.413c-2.195,3.256-5.185,5.64-8.966,7.15c3.934,1.362,7.225,3.784,9.874,7.263
		c2.646,3.483,3.973,8.626,3.973,15.436V370.601z"/>
	<path fill="#E6E7E8" d="M157.466,256.654c-1.969,16.496-3.973,32.572-6.016,48.234s-4.125,31.516-6.242,47.554h23.834
		c-1.969-16.038-3.938-31.892-5.902-47.554C161.172,289.226,159.281,273.15,157.466,256.654z"/>
	<path fill="#E6E7E8" d="M233.504,256.654c-1.969,16.496-3.973,32.572-6.016,48.234s-4.125,31.516-6.242,47.554h23.834
		c-1.969-16.038-3.938-31.892-5.902-47.554C237.21,289.226,235.319,273.15,233.504,256.654z"/>
	<path fill="#E6E7E8" d="M460.937,312.492c-8.022,0-12.03,4.086-12.03,12.258v45.624c0,4.845,0.908,8.438,2.724,10.782
		c1.816,2.348,4.916,3.518,9.307,3.518c4.387,0,7.525-1.17,9.42-3.518c1.891-2.345,2.837-5.938,2.837-10.782V324.75
		c0-4.234-0.946-7.338-2.837-9.307C468.462,313.478,465.323,312.492,460.937,312.492z"/>
	<path fill="#E6E7E8" d="M460.937,296.376c8.019,0,12.03-4.16,12.03-12.484v-40.857c0-5.295-0.795-9.079-2.384-11.349
		c-1.589-2.271-4.806-3.405-9.646-3.405c-4.692,0-7.831,1.135-9.42,3.405c-1.589,2.27-2.384,6.054-2.384,11.349v40.857
		c0,4.391,0.908,7.568,2.725,9.533C453.673,295.394,456.698,296.376,460.937,296.376z"/>
</g>
</svg>
