<?xml version="1.0" encoding="UTF-8" standalone="no"?>
<svg width="286px" height="61px" viewBox="0 0 286 61" version="1.1" xmlns="http://www.w3.org/2000/svg" xmlns:xlink="http://www.w3.org/1999/xlink" xmlns:sketch="http://www.bohemiancoding.com/sketch/ns">
    <!-- Generator: Sketch 3.4 (15588) - http://www.bohemiancoding.com/sketch -->
    <title>logo</title>
    <desc>Created with Sketch.</desc>
    <defs></defs>
    <g id="Page-1" stroke="none" stroke-width="1" fill="none" fill-rule="evenodd" sketch:type="MSPage">
        <g id="logo" sketch:type="MSLayerGroup">
            <text id="Wee-Weather-App" sketch:type="MSTextLayer" font-family="Cooper Black" font-size="23.9180887" font-weight="686" line-spacing="29" fill="#FFFFFF">
                <tspan x="65.7" y="37">Wee Weather App</tspan>
            </text>
            <path d="M47.9683,31.999 L43.7989571,31.999 C42.6466,31.999 41.7132429,31.104 41.7132429,30 C41.7132429,28.896 42.6466,28 43.7989571,28 L47.9683,28 C49.1206571,28 50.0540143,28.896 50.0540143,30 C50.0540143,31.104 49.1217,31.999 47.9683,31.999 L47.9683,31.999 Z M39.7766571,18.688 C38.9621857,19.469 37.6398429,19.469 36.8274571,18.688 C36.0129857,17.907 36.0129857,16.641 36.8274571,15.86 L39.7766571,13.032 C40.5890429,12.251 41.9113857,12.251 42.7258571,13.032 C43.5382429,13.813 43.5382429,15.079 42.7258571,15.86 L39.7766571,18.688 L39.7766571,18.688 Z M25.0296143,41.998 C18.1186,41.998 12.5153286,36.626 12.5153286,30 C12.5153286,23.373 18.1175571,18.001 25.0296143,18.001 C31.9406286,18.001 37.5418143,23.373 37.5418143,30 C37.5418143,36.626 31.9406286,41.998 25.0296143,41.998 L25.0296143,41.998 Z M25.0296143,22.001 C20.4222714,22.001 16.6867571,25.582 16.6867571,30 C16.6867571,34.417 20.4233143,37.999 25.0296143,37.999 C29.6359143,37.999 33.3703857,34.417 33.3703857,30 C33.3703857,25.582 29.6369571,22.001 25.0296143,22.001 L25.0296143,22.001 Z M25.0296143,14.002 C23.8772571,14.002 22.9439,13.106 22.9439,12.002 L22.9439,8.003 C22.9439,6.899 23.8772571,6.003 25.0296143,6.003 C26.1809286,6.003 27.1153286,6.899 27.1153286,8.003 L27.1153286,12.002 C27.1153286,13.106 26.1798857,14.002 25.0296143,14.002 L25.0296143,14.002 Z M10.2825714,18.688 L7.33337143,15.86 C6.5189,15.079 6.5189,13.813 7.33337143,13.032 C8.14784286,12.251 9.4681,12.251 10.2825714,13.032 L13.2317714,15.86 C14.0462429,16.641 14.0462429,17.907 13.2317714,18.688 C12.4173,19.469 11.0970429,19.469 10.2825714,18.688 L10.2825714,18.688 Z M8.34494286,30 C8.34494286,31.104 7.41054286,31.999 6.25922857,31.999 L2.0878,31.999 C0.936485714,31.999 0.00312857143,31.104 0.00312857143,30 C0.00312857143,28.896 0.937528571,28 2.0878,28 L6.25922857,28 C7.41158571,28 8.34494286,28.896 8.34494286,30 L8.34494286,30 Z M10.2825714,41.312 C11.0970429,40.532 12.4173,40.532 13.2317714,41.312 C14.0462429,42.093 14.0462429,43.36 13.2317714,44.14 L10.2825714,46.968 C9.4681,47.749 8.14784286,47.749 7.33337143,46.968 C6.5189,46.188 6.5189,44.921 7.33337143,44.14 L10.2825714,41.312 L10.2825714,41.312 Z M25.0296143,45.998 C26.1809286,45.998 27.1153286,46.893 27.1153286,47.997 L27.1153286,51.997 C27.1153286,53.101 26.1809286,53.997 25.0296143,53.997 C23.8772571,53.997 22.9439,53.101 22.9439,51.997 L22.9439,47.997 C22.9439,46.893 23.8772571,45.998 25.0296143,45.998 L25.0296143,45.998 Z M39.7766571,41.312 L42.7258571,44.14 C43.5382429,44.921 43.5382429,46.188 42.7258571,46.968 C41.9113857,47.749 40.5890429,47.749 39.7766571,46.968 L36.8274571,44.14 C36.0129857,43.36 36.0129857,42.093 36.8274571,41.312 C37.6398429,40.531 38.9611429,40.531 39.7766571,41.312 L39.7766571,41.312 Z" id="Shape" fill="#F1EB71" sketch:type="MSShapeGroup"></path>
        </g>
    </g>
</svg>