<?xml version="1.0" encoding="utf-8"?>
<!-- Generator: Adobe Illustrator 16.0.0, SVG Export Plug-In . SVG Version: 6.00 Build 0)  -->
<!DOCTYPE svg PUBLIC "-//W3C//DTD SVG 1.1//EN" "http://www.w3.org/Graphics/SVG/1.1/DTD/svg11.dtd">
<svg version="1.1" id="Layer_1" xmlns:sketch="http://www.bohemiancoding.com/sketch/ns"
	 xmlns="http://www.w3.org/2000/svg" xmlns:xlink="http://www.w3.org/1999/xlink" x="0px" y="0px" width="134px" height="133px"
	 viewBox="0 0 134 133" enable-background="new 0 0 134 133" xml:space="preserve">
<title>rain</title>
<desc>Created with Sketch.</desc>
<g id="Page-1" sketch:type="MSPage">
	<g id="Cloud-Drizzle" sketch:type="MSLayerGroup">
		<g id="Layer_1_1_" sketch:type="MSShapeGroup">
			<path id="rain" fill="#CECCCD" d="M109.32,94.621V81.377c7.217-4.188,12.087-11.975,12.087-20.92
				c0-13.356-10.823-24.185-24.179-24.185c-4.844,0-9.324,1.454-13.103,3.903c-3.725-16.071-18.057-28.085-35.262-28.085
				c-20.034,0-36.271,16.24-36.271,36.275c0,10.729,4.683,20.343,12.086,26.984v14.855C10.238,81.836,0.5,66.255,0.5,48.364
				C0.5,21.652,22.152,0,48.864,0c18.151,0,33.946,10.013,42.218,24.799c2.008-0.342,4.039-0.62,6.146-0.62
				c20.034,0,36.271,16.243,36.271,36.277C133.5,76.24,123.399,89.639,109.32,94.621L109.32,94.621z M42.818,60.459
				c3.337,0,6.046,2.706,6.046,6.046v12.086c0,3.342-2.709,6.047-6.046,6.047c-3.34,0-6.046-2.705-6.046-6.047V66.506
				C36.771,63.162,39.478,60.459,42.818,60.459L42.818,60.459z M42.818,96.731c3.337,0,6.046,2.706,6.046,6.046v12.086
				c0,3.342-2.709,6.047-6.046,6.047c-3.34,0-6.046-2.705-6.046-6.047v-12.086C36.771,99.434,39.478,96.731,42.818,96.731
				L42.818,96.731z M66.997,72.546c3.341,0,6.046,2.709,6.046,6.046v12.094c0,3.337-2.705,6.046-6.046,6.046
				c-3.337,0-6.041-2.709-6.041-6.046V78.592C60.957,75.255,63.663,72.546,66.997,72.546L66.997,72.546z M66.997,108.824
				c3.341,0,6.046,2.705,6.046,6.039v12.094c0,3.34-2.705,6.046-6.046,6.046c-3.337,0-6.041-2.706-6.041-6.046v-12.094
				C60.957,111.526,63.663,108.824,66.997,108.824L66.997,108.824z M91.182,60.459c3.338,0,6.047,2.706,6.047,6.046v12.086
				c0,3.342-2.709,6.047-6.047,6.047c-3.34,0-6.046-2.705-6.046-6.047V66.506C85.136,63.162,87.842,60.459,91.182,60.459
				L91.182,60.459z M91.182,96.731c3.338,0,6.047,2.706,6.047,6.046v12.086c0,3.342-2.709,6.047-6.047,6.047
				c-3.34,0-6.046-2.705-6.046-6.047v-12.086C85.136,99.434,87.842,96.731,91.182,96.731L91.182,96.731z"/>
		</g>
	</g>
</g>
</svg>
