<?xml version="1.0" encoding="utf-8"?>
<!-- Generator: Adobe Illustrator 16.0.0, SVG Export Plug-In . SVG Version: 6.00 Build 0)  -->
<!DOCTYPE svg PUBLIC "-//W3C//DTD SVG 1.1//EN" "http://www.w3.org/Graphics/SVG/1.1/DTD/svg11.dtd">
<svg version="1.1" id="Layer_1" xmlns="http://www.w3.org/2000/svg" xmlns:xlink="http://www.w3.org/1999/xlink" x="0px" y="0px"
	 width="599.214px" height="661.714px" viewBox="0 0 599.214 661.714" enable-background="new 0 0 599.214 661.714"
	 xml:space="preserve">
<linearGradient id="SVGID_1_" gradientUnits="userSpaceOnUse" x1="576.1343" y1="118.2188" x2="226.0714" y2="320.3276" gradientTransform="matrix(1.161 0.161 0.161 1.161 -62.9908 -62.9917)">
	<stop  offset="0" style="stop-color:#2A202A"/>
	<stop  offset="0.7843" style="stop-color:#003457;stop-opacity:0"/>
</linearGradient>
<path opacity="0.1" fill="url(#SVGID_1_)" d="M127.125,158.375c144.119-144.117,433.43-88.465,433.43-88.465
	s55.654,289.315-88.463,433.432"/>
<g>
	<path fill="#DCDADA" d="M452.891,387.848C336.698,504.042,137.312,493.041,137.312,493.041s-11-199.386,105.193-315.58
		C358.7,61.268,558.084,72.268,558.084,72.268S569.084,271.654,452.891,387.848z"/>
	<path fill="#8D8395" d="M545.655,203.544C536.866,229.68,391.288,96.201,429.692,84.082
		c59.441-18.758,128.311-11.897,128.311-11.897S569.295,120.691,545.655,203.544"/>
	<circle fill="#8D8395" cx="400.517" cy="229.838" r="82.435"/>
	<circle fill="#DCDADA" cx="400.515" cy="229.837" r="74.162"/>
	<g>
		<defs>
			<circle id="SVGID_2_" cx="403.107" cy="228.166" r="76.585"/>
		</defs>
		<clipPath id="SVGID_3_">
			<use xlink:href="#SVGID_2_"  overflow="visible"/>
		</clipPath>
		<g clip-path="url(#SVGID_3_)">
			
				<linearGradient id="SVGID_4_" gradientUnits="userSpaceOnUse" x1="1812.312" y1="-210.6968" x2="1812.312" y2="-400.2363" gradientTransform="matrix(0.7071 0.7071 -0.7071 0.7071 -1139.2371 -833.2357)">
				<stop  offset="0.5001" style="stop-color:#BDBDBD"/>
				<stop  offset="1" style="stop-color:#000000"/>
			</linearGradient>
			<path fill-rule="evenodd" clip-rule="evenodd" fill="url(#SVGID_4_)" d="M376.821,198.277c-0.191,0.669-0.166,1.583-0.607,1.968
				c-5.309,4.625-8.148,10.767-9.809,17.536c-1.078,4.396-1.309,8.976,0.061,13.582c1.004,3.377,2.121,6.729,3.092,10.114
				c0.213,0.745,0.332,1.793-0.027,2.337c-2.896,4.371-5.768,8.775-8.986,12.894c-1.092,1.398-3.262,1.879-4.756,3.013
				c-1.691,1.286-3.379,2.668-4.699,4.313c-1.537,1.913-2.529,4.271-4.039,6.211c-0.801,1.032-2.086,1.841-3.344,2.307
				c-2.709,1.004-4.859,2.522-6.568,4.858c-0.758,1.033-2.186,1.665-3.445,2.183c-2.387,0.978-4.201,2.291-5.252,4.838
				c-1.191,2.888-3.508,4.867-6.803,5.288c-2.237,0.285-3.819,1.144-4.761,3.288c-0.927,2.113-2.247,4.012-5.156,3.546
				c-2.737-0.438-4.012,1.631-5.523,3.133c-2.671,2.653-5.671,4.458-10.385,4.158c2.267-3.868,4.416-7.378,6.39-10.994
				c0.675-1.24,1.278-2.719,1.272-4.13c-0.016-3.412,0.942-6.301,3.113-8.744c2.92-3.289,4.275-7.383,5.754-11.5
				c1.353-3.77,3.463-7.223,5.256-10.807c1.276-2.556,2.048-5.175,0.887-8.173c-1.24-3.206,0.908-5.178,2.591-7.044
				c1.811-2.008,2.688-4.031,2.131-6.855c-0.578-2.939,0.066-5.431,2.467-7.359c1.863-1.496,3.48-3.314,5.045-5.132
				c0.732-0.852,1.328-1.974,1.555-3.09c0.5-2.46,1.861-4.103,3.988-5.206c3.977-2.061,6.904-5.021,8.502-9.342
				c0.408-1.106,1.609-2.14,2.73-2.625c5.082-2.197,9.035-5.568,11.844-10.301c1.756-2.958,4.5-4.674,7.736-5.758
				c4.945-1.657,9.988-3.12,14.764-5.137c2.639-1.114,4.916-3.07,7.178-4.863c3.023-2.396,5.916-4.959,8.793-7.53
				c4.447-3.975,9.723-3.524,15.262-2.056c1.682,0.446,3.443,0.882,5.129,0.858c5.619-0.074,10.109,2.543,14.25,6.249
				c0.859,0.77,1.824,1.487,2.846,1.988c3.242,1.593,5.344,4.178,6.811,7.354c1.553,3.364,0.395,5.587-2.285,7.646
				c-2.996,2.303-5.738,2.16-9.26,0.952c-3.451-1.184-7.168-1.368-10.711-2.294c-4.654-1.218-9.232-2.817-13.879-4.089
				c-2.697-0.737-5.469-1.462-8.195-1.602c-1.713-0.088-3.406,0.918-5.438,0.967c0.836-0.471,1.625-1.044,2.514-1.392
				c3.246-1.272,6.662-0.664,10.021,0.072c3.568,0.781,7.078,2.032,10.658,2.641c3.047,0.519,6.191,0.686,9.229,0.511
				c3.002-0.173,5.818-0.188,8.49,1.689c0.426,0.3,0.961,0.433,1.447,0.643c0.141-0.174,0.283-0.347,0.426-0.521
				c-1.264-1.059-2.4-2.406-3.82-3.124c-4.121-2.083-8.32-4.006-12.555-5.819c-5.197-2.225-10.336-3.606-15.051,0.411
				c-0.705,0.601-2.27,0.241-3.441,0.272c-1.049,0.028-2.121-0.118-3.156-0.013c-4.025,0.408-7.475,2.603-11.793,2.489
				c-3.154-0.083-4.359,3.272-5.844,5.691c-1.824,2.974-4.012,5.763-5.428,8.939c-1.93,4.337-5.391,6.515-9.596,8.007
				c-4.025,1.428-6.135,4.169-5.945,8.707c0.037,0.872-0.76,1.865-1.434,2.545c-1.223,1.235-2.771,2.159-3.932,3.443
				c-0.732,0.812-1.477,2.045-1.398,3.084c0.219,2.911-0.705,5.255-2.262,7.451c-0.264,0.372-0.34,0.882-0.256,1.471
				c1.803-2.509,4.469-4.5,4.67-7.944c0.102-1.763,0.773-2.91,2.125-3.846c2.629-1.82,4.639-3.957,5.008-7.543
				c0.316-3.062,3.096-4.425,5.566-5.447c3.531-1.463,5.666-4.199,7.746-7.104c0.619-0.864,1.234-1.732,1.852-2.598
				C376.391,198.054,376.606,198.166,376.821,198.277z"/>
			
				<ellipse transform="matrix(0.7071 0.7071 -0.7071 0.7071 372.2941 -10.1084)" opacity="0.4" fill-rule="evenodd" clip-rule="evenodd" stroke="#000000" stroke-miterlimit="10" cx="198.349" cy="444.348" rx="70.666" ry="10.925"/>
			<path fill-rule="evenodd" clip-rule="evenodd" d="M364.151,308.919c0.754-0.361,1.67-0.417,2.512-0.615
				c0.125,0.242,0.252,0.485,0.377,0.729c-0.633,1.958-1.658,3.857-1.828,5.886c-0.496,5.923-0.947,11.883-0.861,17.858
				c0.092,6.37,0.865,12.774,1.236,19.165c0.09,1.579,0.77,2.049,2.141,1.865c1.469-0.198,2.939-0.409,4.389-0.691
				c6.734-1.311,13.463-2.643,20.189-3.979c1.48-0.294,2.713-0.752,2.145-2.781c-0.811-2.903-1.379-3.507-3.668-3.303
				c-5.576,0.496-11.148,1.025-16.721,1.549c-1.938,0.181-2.65-0.662-2.096-2.507c1.273-4.236,2.545-8.474,3.828-12.706
				c2.193-7.226,4.021-14.615,6.725-21.615c1.846-4.78,1.863-9.251-0.203-13.983c-1.281-2.932-2.678-5.5-6.443-6.553
				c-4.525-1.267-9.041-3.191-13.156-5.591c-3.775-2.202-7.121-5.202-10.625-7.916c-0.047-0.528-0.268-1.042-0.697-1.473
				c-0.898-0.897-2.619-1.025-3.496,0c-0.17,0.197-0.35,0.375-0.543,0.547c-0.016,0.014-0.027,0.023-0.041,0.034
				c-0.166,0.118-0.34,0.228-0.512,0.336c-0.635,0.4-1.312,0.734-1.984,1.063c-1.414,0.69-2.848,1.304-4.176,2.151
				c-1.668,1.062-3.609,1.932-4.951,3.419c-0.465,0.515-0.879,1.075-1.332,1.6c-0.207,0.238-0.428,0.461-0.66,0.673
				c-0.057,0.025-0.125,0.05-0.191,0.062c-0.111,0.02-0.219,0.051-0.32,0.088c-0.559,0.042-1.088,0.265-1.443,0.717
				c-1.582,2.004-3.426,3.773-5.295,5.504c-0.404,0.375-0.771,0.722-1.021,0.892c-0.432,0.296-0.908,0.525-1.385,0.743
				c0.014-0.006-0.76,0.321-0.35,0.155c-0.359,0.145-0.717,0.287-1.072,0.435c-0.574,0.237-1.137,0.49-1.684,0.789
				c-2.089,1.143-3.351,3.316-4.866,5.057c-0.311,0.357-0.649,0.687-1.007,0.996c0.16-0.149-0.341,0.217-0.372,0.235
				c-0.023,0.014-0.464,0.19-0.44,0.192c-1.017,0.326-2.12,0.411-3.169,0.571c-1.193,0.182-2.293,0.529-3.396,1.021
				c-1.142,0.51-2.126,1.436-3.031,2.278c-0.396,0.368-0.786,0.742-1.187,1.106c-0.177,0.161-0.359,0.314-0.543,0.468
				c0.219-0.188-0.342,0.237-0.355,0.245c-0.203,0.135-0.422,0.244-0.641,0.353c0.408-0.2-0.206,0.021-0.268,0.034
				c-0.021,0.005-0.372,0.052-0.438,0.063c-0.29,0.026-0.581,0.041-0.87,0.051c-2.009,0.075-4.043-0.231-6.038,0.044
				c0.709-1.466,1.656-3.102,2.505-4.683c0.522-0.972,0.39-2.177-0.402-2.969c-0.712-0.711-2.093-1.04-2.969-0.402
				c-0.116,0.084-0.234,0.161-0.357,0.234c-0.07,0.04-0.276,0.129-0.374,0.172c-0.394,0.135-0.8,0.238-1.202,0.34
				c-1.021,0.254-2.058,0.449-3.077,0.713c-2.463,0.64-4.822,1.825-5.644,4.403c-0.088,0.275-0.112,0.557-0.086,0.832
				c-0.074,0.308-0.109,0.622-0.097,0.882c0.184,3.547-1.264,5.682-4.7,5.973c-2.352,0.2-4.783,0.025-7.169-0.225
				c-1.76-0.185-3.673-1.366-5.222-1.038c-3.22,0.684-6.344,1.876-9.329,3.215c-7.755,3.478-15.424,7.125-23.102,10.756
				c-2.288,1.081-4.489,2.329-6.951,3.616c0.927,1.247,1.533,2.135,2.214,2.963c1.979,2.408,3.992,4.789,5.984,7.186
				c3.059,3.682,5.81,7.683,9.232,10.982c6.273,6.043,12.929,11.689,19.452,17.471c5.433,4.814,10.875,9.62,16.371,14.359
				c3.353,2.891,6.941,5.51,10.201,8.498c3.988,3.657,7.72,7.596,11.609,11.362c1.658,1.605,3.471,3.046,5.151,4.627
				c3.365,3.164,6.688,6.375,10.325,9.85c1.669-4.527,3.332-8.365,4.499-12.378c1.473-5.062,2.447-10.299,3.805-15.406
				c1.879-7.072,3.939-14.085,5.873-21.14c1.523-5.555,3.482-11.025,4.322-16.732c0.994-6.755,3.443-12.931,5.219-19.369
				c0.688-2.495,2.004-4.846,2.258-7.392c0.146-1.496,0.557-1.899,1.697-2.438C350.979,315.319,357.542,312.075,364.151,308.919z"/>
			<path fill-rule="evenodd" clip-rule="evenodd" d="M314.763,247.259c1.289,3.863,2.223,7.43,0.366,10.945
				c-0.489,0.926-0.791,1.388-2.049,1.398c-7.263,0.066-14.511,0.321-21.765,0.507c-0.296,0.008-0.596-0.007-0.894-0.03
				c-3.474-0.275-3.266-0.226-3.905,3.325c-0.652,3.633-1.826,7.135-2.666,10.726c-0.755,3.225-1.335,6.501-2.06,9.736
				c-0.252,1.126-0.075,2.679-2.191,2.189c-1.809-0.419-3.653-0.307-3.479-3.09c0.4-6.403,0.536-12.841,0.99-19.237
				c0.238-3.347,0.804-6.667,1.483-9.926c0.188-0.907,1.185-2.102,2.025-2.24c8.418-1.392,16.868-2.657,25.34-3.806
				C308.819,247.367,311.767,247.416,314.763,247.259z"/>
			<path fill-rule="evenodd" clip-rule="evenodd" d="M209.451,432.057c1.959-1.955,3.894-3.933,5.875-5.862
				c5.425-5.287,10.91-10.513,16.297-15.837c10.308-10.187,20.538-20.45,30.862-30.618c1.698-1.675,3.769-2.966,5.564-4.548
				c1.27-1.121,2.28-0.879,3.501,0.291c2.876,2.753,5.768,5.495,8.758,8.123c1.955,1.718,4.133,3.175,6.13,4.849
				c0.994,0.832,1.745,1.954,2.708,2.831c3.596,3.272,7.231,6.501,10.859,9.737c0.926,0.826,1.163,1.473,0.105,2.363
				c-3.961,3.338-8.181,6.184-13.017,8.311c-4.064,1.789-7.55,4.742-11.595,6.584c-6.986,3.182-14.177,5.972-21.339,8.799
				c-9.552,3.77-19.146,7.443-28.745,11.104c-4.785,1.824-9.559,3.705-14.466,5.215c-3.153,0.971-6.524,1.385-9.835,1.875
				c-0.695,0.104-1.922-0.367-2.23-0.918c-0.29-0.515,0.079-1.715,0.564-2.221C202.722,438.716,206.103,435.403,209.451,432.057z"/>
			<path fill-rule="evenodd" clip-rule="evenodd" d="M195.514,441.254c0.932-2.918,1.709-5.907,2.823-8.745
				c2.822-7.178,5.903-14.239,8.683-21.435c4.339-11.234,8.46-22.566,12.799-33.803c1.163-3.01,2.768-5.827,4.188-8.722
				c3.833-7.808,7.674-15.611,11.522-23.41c0.286-0.579,0.669-1.106,0.973-1.603c2.999,2.545,5.983,4.971,8.848,7.533
				c4.646,4.158,9.247,8.37,13.802,12.63c2.372,2.22,4.677,4.524,6.839,6.945c0.43,0.481,0.415,1.927,0.011,2.469
				c-1.56,2.104-3.304,4.077-5.088,5.996c-1.932,2.075-3.933,4.09-5.994,6.037c-6.032,5.695-12.234,11.219-18.13,17.049
				c-5.052,4.996-9.763,10.336-14.658,15.491c-0.793,0.834-1.815,1.444-2.645,2.247c-4.437,4.295-8.843,8.621-13.263,12.932
				c-2.762,2.695-5.514,5.4-8.319,8.051c-0.46,0.436-1.17,0.609-1.765,0.905C195.932,441.632,195.724,441.444,195.514,441.254z"/>
			<g>
				<path fill-rule="evenodd" clip-rule="evenodd" fill="#F3F3F3" d="M397.03,347.438c-0.572-1.485-1.092-2.831-1.699-4.411
					c4.35-1.297,8.615-2.568,13.037-3.886c0.324,0.428,0.717,0.944,1.225,1.612c0.258-0.454,0.703-0.861,0.619-1.147
					c-1.139-3.86,0.926-6.384,2.988-9c1.238-1.571,2.16-3.397,3.27-5.077c0.471-0.713,1.059-1.343,2.143-1.8
					c-0.391,2.389-0.785,4.776-1.238,7.543c0.811-0.318,1.275-0.443,1.682-0.666c4.887-2.672,10.188-3.591,15.924-2.887
					c2.096,0.256,2.65,1.485,1.777,2.896c-1.244,2.013-2.752,3.941-4.506,5.513c-4.27,3.829-9.543,6.308-15.26,6.841
					C410.086,343.611,403.692,345.627,397.03,347.438z"/>
				<path fill-rule="evenodd" clip-rule="evenodd" fill="#F3F3F3" d="M277.032,296.15c0.083-3.113,0.161-5.993,0.25-9.293
					c1.131,0.235,2.496,0.14,3.143,0.776c0.499,0.492,0.18,1.915,0.078,2.898c-0.159,1.544-0.487,3.058-0.662,4.599
					c-0.252,2.229,1.85,2.316,3.301,3.242c-0.433,0.298-0.698,0.513-0.993,0.682c-2.619,1.489-2.647,1.574-1.045,4.257
					c0.853,1.427,0.797,2.485-0.688,3.379c-3.277,1.974-6.673,2.525-10.436,0.675c-2.064-1.015-2.574-2.121-1.594-4.185
					C270.225,299.308,272.887,296.375,277.032,296.15z"/>
				<path fill-rule="evenodd" clip-rule="evenodd" fill="#F3F3F3" d="M379.506,197.194c0.154-4.037,1.215-7.744,4.004-10.637
					c0.746-0.773,2.07-1.342,3.166-1.324c1.205,0.018,2.453,0.821,3.682,1.282c-0.373,1.052-0.455,2.402-1.172,3.106
					c-2.881,2.826-5.955,5.451-8.959,8.152C379.987,197.58,379.749,197.387,379.506,197.194z"/>
				<path fill-rule="evenodd" clip-rule="evenodd" fill="#F3F3F3" d="M406.993,181.137c4.494-2.772,9.561-0.557,14.93,3.712
					C419.086,185.932,412.213,184.254,406.993,181.137z"/>
				<path fill-rule="evenodd" clip-rule="evenodd" d="M395.247,240.026c-4.391-4.205-8.312-8.976-12.314-13.675
					c-0.479-0.562-0.689-1.445-0.77-2.189c-0.025-0.254,0.877-0.863,1.105-0.749c0.701,0.35,1.525,0.853,1.873,1.503
					c3.416,6.409,8.156,11.736,13.672,16.415c2.6,2.205,5.316,4.292,8.828,2.288c0.27-0.152,1.021,0.483,1.549,0.752
					c-0.324,0.513-0.562,1.407-0.988,1.478c-3.795,0.626-7.154-0.716-10.141-3.271C397.098,241.756,396.163,240.903,395.247,240.026
					z"/>
			</g>
			
				<linearGradient id="SVGID_5_" gradientUnits="userSpaceOnUse" x1="1870.2163" y1="-283.9185" x2="1870.2163" y2="-398.8491" gradientTransform="matrix(0.7071 0.7071 -0.7071 0.7071 -1139.2371 -833.2357)">
				<stop  offset="0.5001" style="stop-color:#BDBDBD"/>
				<stop  offset="1" style="stop-color:#000000"/>
			</linearGradient>
			<path fill-rule="evenodd" clip-rule="evenodd" fill="url(#SVGID_5_)" d="M408.614,262.166c-0.373,3.127-2.654,4.351-5.014,5.357
				c-2.979,1.273-5.297,3.034-5.951,6.441c-0.326,1.702-1.301,2.773-2.93,3.512c-2.826,1.28-4.191,3.667-4.131,6.989
				c0.268,0.038,0.551,0.157,0.625,0.077c1.883-1.987,3.756-3.984,5.602-6.007c0.729-0.798,1.504-1.583,2.061-2.503
				c1.668-2.753,4.01-4.556,6.793-6.244c2.562-1.55,4.686-4.207,6.156-6.881c1.35-2.456,3.328-3.764,5.535-5.011
				c2.609-1.477,5.441-2.624,7.891-4.312c2.711-1.87,4.867-4.481,5.691-7.761c1.195-4.753,3.43-8.689,7.107-11.797
				c6.326-5.346,7.885-12.69,7.475-20.876c-0.193-3.825-1.785-7.053-4.299-9.984c-1.105-1.289-2.604-2.5-3.104-3.975
				c-0.463-1.37-0.418-3.572,0.41-4.49c4.156-4.617,10.729-4.501,15.309,1.212c3.764,4.695,5.973,9.844,7.352,15.266
				c0.996,3.913,1.148,7.991,2.309,11.969c0.436,1.489-0.074,3.646-0.961,4.901c-3.334,4.719-4.199,10.38-5.848,15.784
				c-2.188,7.172-5.037,14.016-11.432,18.542c-1.219,0.863-1.98,2.491-2.652,3.923c-1.691,3.605-3.438,7.022-7.025,9.224
				c-1.947,1.193-3.389,3.173-5.006,4.85c-3.162,3.277-7.072,5.037-11.758,5.217c-3.301,0.127-6.248,1.08-8.826,2.998
				c-3.895,2.896-8.559,2.334-13.01,1.448c-4.889-0.974-9.719-2.572-14.492-4.192c-3.959-1.344-5.225-5.108-6.693-8.483
				c-2.387-5.481-2.41-10.493,2.203-14.529c2.203-1.926,4.756-2.373,7.668-2.014c5.482,0.678,10.967,1.41,16.455,1.87
				C404.252,262.866,406.391,262.365,408.614,262.166z"/>
			<path opacity="0.3" fill-rule="evenodd" clip-rule="evenodd" d="M397.518,276.416c0.277-0.777,0.422-1.592,0.375-2.382
				c1.363-0.963,2.494-2.182,3.145-3.817c0.049-0.126,0.08-0.251,0.104-0.375c0.945-0.128,1.889-0.258,2.832-0.393
				c0.848-0.121,1.562-0.984,1.766-1.765c0.129-0.493,0.1-0.969-0.053-1.4c0.582-0.06,1.158-0.145,1.725-0.271
				c1.316-0.293,2.096-1.752,1.764-3.019c-0.35-1.34-1.705-2.057-3.02-1.764c-0.129,0.029-0.258,0.052-0.389,0.073
				c-0.029,0.003-0.059,0.006-0.088,0.009c-0.457,0.041-0.914,0.052-1.373,0.057c-1.084,0.01-2.17-0.046-3.252-0.112
				c-2.686-0.164-5.365-0.42-8.053-0.596c-5.334-0.348-11.289-0.718-16.275,1.56c-2.086,0.952-3.652,2.677-4.377,4.845
				c-0.811,2.421-0.164,5.203,0.76,7.489c0.346,0.854,1.014,1.529,1.812,1.765c-0.203,0.487-0.33,1.02-0.373,1.603
				c-0.111,1.506,0.721,3.064,1.516,4.278c0.574,0.881,1.605,1.405,2.611,1.217c-0.033,0.839,0.355,1.702,1.211,2.244
				c0.889,0.562,1.807,0.878,2.736,1.016c0.244,0.316,0.555,0.576,0.908,0.742c1.543-0.176,4.705-0.902,6.287-2.575
				c2.779-2.36,3.158-3.85,5.375-6.818"/>
			<path opacity="0.3" fill-rule="evenodd" clip-rule="evenodd" d="M343.452,276.505c0.004,0.005,0.008,0.01,0.012,0.015
				c0.188-0.175,0.377-0.347,0.566-0.519C343.834,276.167,343.641,276.335,343.452,276.505z"/>
			<path opacity="0.3" fill-rule="evenodd" clip-rule="evenodd" d="M348.073,270.698c2.131-1.688,4.377-3.525,5.529-6.051
				c0.357-0.778,1.328-0.437,1.529,0.219c0.473-0.729,0.955-1.449,1.443-2.168c0.557-0.188,1.053-0.569,1.367-1.109
				c0.746-1.28,1.477-2.568,2.193-3.864c1.564-1.583,3.125-3.194,4.531-4.901c0.096-0.098,0.189-0.195,0.287-0.291
				c0.188-0.189,0.336-0.403,0.451-0.632c2.299-2.981,4.062-6.278,4.514-10.22c0.393-3.424-0.623-6.667-1.287-9.979
				c0.07-0.422,0.143-0.844,0.221-1.265c0.172-0.941-0.1-1.887-0.768-2.486c-0.059-0.692-0.098-1.387-0.119-2.082
				c-0.002-0.061-0.002-0.122-0.004-0.182c0.08-0.605,0.188-1.213,0.348-1.94c0.135-0.619,0.047-1.248-0.225-1.776
				c0.008-0.07,0.012-0.142,0.02-0.212c0.023-0.247,0.051-0.493,0.078-0.739c0.006-0.044,0.01-0.081,0.014-0.113
				c0.006-0.04,0.018-0.117,0.037-0.255c0.279-1.957,0.736-3.88,1.307-5.771c0.125-0.414,0.254-0.826,0.389-1.236
				c0.074-0.23,0.154-0.458,0.234-0.687c0.01-0.024,0.129-0.335,0.158-0.418c0.307-0.721,0.682-1.409,1.113-2.062
				c0.066-0.096,0.135-0.19,0.203-0.285c-0.098,0.144,0.299-0.371,0.309-0.38c0.367-0.44,0.77-0.85,1.178-1.251
				c0.789-0.775,1.662-1.465,2.506-2.178c1.967-1.661,3.559-3.512,4.432-5.964c0.455-1.268-0.545-2.7-1.764-3.018
				c-1.387-0.362-2.564,0.495-3.02,1.764c-0.697,1.958-2.799,3.414-4.527,4.887c-1.77,1.508-3.365,3.284-4.422,5.369
				c-1.004,1.982-1.645,4.219-2.174,6.368c-0.539,2.197-0.883,4.447-1.057,6.701c-0.08,1.03-0.102,2.061-0.08,3.093
				c0.057,2.859,0.617,5.739,0.344,8.599c-0.609,6.391-4.4,13.072-7.439,18.587c-4.377,7.942-9.635,15.356-15.311,22.415
				c0.996-0.438,2.012-0.807,3.045-1.077C345.104,272.938,346.618,271.852,348.073,270.698z"/>
			<path opacity="0.3" fill-rule="evenodd" clip-rule="evenodd" d="M349.336,271.857c-0.758,0.597-1.531,1.179-2.303,1.763
				c0.025,0,0.053-0.001,0.078-0.002c0.287-0.003,0.543,0.168,0.701,0.401C348.336,273.31,348.844,272.589,349.336,271.857z"/>
			<path opacity="0.4" fill-rule="evenodd" clip-rule="evenodd" d="M359.819,311.257c-2.688,1.231-5.6,1.893-8.484,2.62
				c-0.225-0.083-0.484-0.105-0.771-0.04c-4.707,1.056-9.617,0.718-14.285,1.988c-1.443,0.393-1.16,2.352-0.004,2.653
				c0.016,0.017,0.031,0.036,0.049,0.053c1.035,1.041,2.119,2.137,2.924,3.393c0.586,1.094,0.963,2.297,1.076,3.539
				c0.025,0.283,0.119,0.521,0.26,0.712c0.066,1.21-0.051,2.439-0.195,3.628c-0.146,1.199,1.732,1.186,1.875,0
				c0.127-1.051,0.217-2.121,0.199-3.183c0.379-0.195,0.641-0.58,0.59-1.157c-0.113-1.229-0.393-2.419-0.832-3.544
				c0.139,0.07,0.277,0.143,0.422,0.21c1.51,0.706,2.822-1.425,1.537-2.265c0.684-0.125,1.363-0.302,2.027-0.519
				c3.248-0.646,6.426-1.643,9.568-2.689c0.715-0.238,0.996-0.86,0.951-1.45c1.523-0.429,3.018-0.923,4.439-1.576
				C362.768,312.895,361.403,310.531,359.819,311.257z"/>
			<path opacity="0.4" fill-rule="evenodd" clip-rule="evenodd" d="M315.648,259.694c0.977-1.21,1.03-2.72,0.268-4.014
				c0.172-0.666,0.254-1.35,0.209-2.046c0.254-0.453,0.472-0.928,0.64-1.425c0.741-2.181-0.315-4.166-2.054-5.45
				c-0.195-0.144-0.413-0.23-0.641-0.273c-0.868-1.501-3.547-1.453-3.921,0.501c-0.261,1.371-0.542,2.738-0.931,4.08
				c-0.344,1.192-0.647,1.948-1.36,3.051c-0.37,0.571-1.206,1.369-1.886,1.816c-1.192,0.782-2.523,1.255-3.885,1.647
				c-0.252,0.073-0.483,0.188-0.689,0.336c-4.373-0.121-8.746-0.214-13.077-0.836c-0.354-0.114-0.71-0.224-1.067-0.325
				c-1.032-0.397-2.088-0.726-3.193-0.913c-0.88-0.15-1.602,0.87-0.901,1.57c0.2,0.2,0.399,0.399,0.601,0.597
				c1.131,2.781,2.178,5.958,1.688,8.99c-0.19,1.182,1.621,1.672,1.814,0.475c0.24-1.489,0.187-2.971-0.054-4.431
				c0.63,0.147,1.396-0.322,1.139-1.107c-0.037-0.112-0.069-0.226-0.104-0.339c0.07-0.01,0.141-0.025,0.205-0.049
				c0.133,0.072,0.281,0.117,0.439,0.117c0.511,0,0.938-0.427,0.938-0.938c-0.001-0.095,0-0.19,0-0.286
				c0.909,0.296,1.855,0.515,2.812,0.684c0.296,0.115,0.595,0.226,0.895,0.329c0.282,0.096,0.531,0.044,0.726-0.089
				c1.118,0.138,2.228,0.222,3.28,0.293c1.69,0.113,3.394,0.148,5.095,0.116c0.51,0.063,1.031,0.036,1.554-0.05
				c1.739-0.077,3.473-0.226,5.191-0.451c0.413-0.054,0.624-0.306,0.677-0.604c0.529,0.619,1.341,0.821,2.158,0.674
				C313.429,261.124,314.837,260.7,315.648,259.694z M298.094,259.812c-0.054-0.011-0.108-0.019-0.168-0.022
				c-0.587-0.029-1.164-0.104-1.732-0.204c1.435,0.057,2.871,0.095,4.308,0.134c0.002,0.06,0.004,0.118,0.01,0.174
				C299.704,259.88,298.898,259.856,298.094,259.812z"/>
			<path opacity="0.4" fill-rule="evenodd" clip-rule="evenodd" d="M366.672,352.404c0.365-3.737,0.412-7.493,0.506-11.244
				c0.094-3.762,0.365-7.467,0.842-11.199c0.877-6.885-0.465-13.842,0.432-20.715c0.154-1.181-1.658-1.675-1.814-0.476
				c-0.094,0.713-0.158,1.428-0.211,2.143c-0.605-0.348-1.619,0.146-1.416,1.045c0.551,2.437-0.965,4.577-1.412,6.896
				c-0.264,1.371,0.098,2.95,0.299,4.314c0.217,1.469,0.441,2.926,0.43,4.415c-0.041,5.698-1.477,11.441-0.221,17.105
				c0.131,0.586,0.641,0.764,1.092,0.649c-0.068,2.36-0.17,4.717-0.4,7.067C364.68,353.609,366.557,353.599,366.672,352.404z
				 M366.192,328.14c0.049-0.014,0.096-0.03,0.141-0.05c-0.039,0.529-0.09,1.06-0.152,1.589c-0.043,0.351-0.082,0.7-0.121,1.051
				C366.125,329.864,366.174,329.002,366.192,328.14z"/>
			<path opacity="0.4" fill-rule="evenodd" clip-rule="evenodd" d="M302.025,400.565c-0.265-0.265-0.534-0.526-0.805-0.788
				c-5.086-4.963-10.631-9.417-16.139-13.908c-0.02-0.508-0.203-1.007-0.596-1.396c-3.037-3.014-6.498-5.531-9.986-7.995
				c-0.713-0.867-1.502-1.687-2.31-2.494c-0.441-0.441-0.965-0.629-1.48-0.628c-1.651-1.55-3.298-3.107-4.956-4.647
				c-0.991-0.921-1.981-1.842-2.973-2.762c-0.027-0.035-0.049-0.063-0.063-0.082c-0.158-0.21-0.316-0.42-0.474-0.631
				c-0.219-0.291-0.475-0.54-0.76-0.73c-0.174-0.386-0.357-0.767-0.553-1.143c-0.085-0.387-0.271-0.759-0.555-1.07
				c-0.029-0.031-0.059-0.063-0.088-0.095c-1.503-2.567-3.426-4.901-5.342-7.173c-2.689-3.188-5.206-6.082-7.028-9.894
				c-0.091-0.19-0.177-0.383-0.262-0.574c-0.007-0.015-0.125-0.295-0.155-0.364c-0.13-0.331-0.251-0.666-0.364-1.003
				c-0.261-0.772-0.46-1.563-0.613-2.362c-0.034-0.178-0.062-0.355-0.09-0.533c-0.003-0.023-0.006-0.04-0.009-0.058
				c-0.004-0.028-0.007-0.06-0.012-0.104c-0.037-0.346-0.058-0.693-0.071-1.04c-0.013-0.341-0.009-0.681,0.003-1.022
				c0.006-0.168,0.017-0.336,0.028-0.505c0.005-0.062,0.04-0.391,0.046-0.468c0.088-0.597,0.222-1.187,0.385-1.768
				c0.09-0.32,0.197-0.636,0.309-0.949c0.016-0.042,0.078-0.2,0.108-0.277c0.065-0.15,0.132-0.301,0.202-0.449
				c0.287-0.625,0.628-1.225,0.991-1.808c0.188-0.3,0.388-0.592,0.592-0.88c0.068-0.098,0.14-0.192,0.21-0.287
				c-0.032,0.049,0.279-0.352,0.326-0.41c0.897-1.099,1.909-2.1,2.969-3.038c0.554-0.492,1.129-0.958,1.713-1.412
				c0.028-0.022,0.062-0.048,0.109-0.083c0.174-0.13,0.35-0.258,0.525-0.385c0.358-0.261,0.724-0.512,1.088-0.762
				c3.605-2.458,7.562-4.416,11.517-6.238c7.022-3.237,14.318-5.816,21.548-8.552c3.754,0.121,7.502-0.448,11.081-1.613
				c4.132-1.345,7.996-3.397,11.733-5.585c1.258-0.735,2.493-1.508,3.756-2.233c0.193-0.022,0.396-0.093,0.601-0.224
				c3.265-2.089,7.229-2.236,10.932-1.444c1.852,0.396,3.641,1.038,5.334,1.882c1.664,0.829,2.809,2.32,4.236,3.476
				c1.242,1.006,2.812,1.75,4.445,1.51c1.525-0.224,1.615-1.97,1.043-3.044c-0.549-1.03-1.5-1.911-2.357-2.681
				c-0.537-0.482-1.119-0.996-1.744-1.422c-0.395-0.314-0.797-0.653-1.182-1.015c-0.008-0.01-0.016-0.02-0.025-0.029
				c-0.436-0.477-0.861-0.963-1.271-1.464c-0.053-0.064-0.104-0.129-0.154-0.194c0.043,0.053-0.098-0.13-0.178-0.237
				c-0.553-0.888-0.881-1.871-0.793-2.95c0.059-0.713,0.369-1.427,0.736-2.093c0.412-0.491,0.859-0.952,1.32-1.395
				c1.191-1.139,2.154-1.851,3.248-2.644c1.225-0.889,2.482-1.732,3.713-2.612c3.115-2.224,5.557-4.976,7.582-8.231
				c2.154-3.466,3.789-7.216,6.215-10.52c0.689-0.938,0.119-2.383-0.801-2.906c-1.096-0.624-2.219-0.134-2.906,0.802
				c-1.82,2.479-3.209,5.208-4.693,7.886c-0.465,0.154-0.885,0.472-1.211,0.895c0,0,0,0.001-0.002,0.002
				c-0.076,0.096-0.16,0.189-0.24,0.283c-0.176,0.196-0.361,0.382-0.549,0.565c-0.408,0.398-0.85,0.762-1.297,1.114
				c0.072-0.062-0.494,0.362-0.605,0.44c-0.275,0.197-0.555,0.388-0.838,0.577c-0.646,0.437-1.305,0.855-1.965,1.269
				c-2.762,1.727-5.592,3.342-8.26,5.213c-2.576,1.809-5.127,3.857-6.764,6.597c-0.314,0.526-0.57,1.064-0.766,1.613
				c-0.186,0.013-0.375,0.067-0.562,0.174c-0.156,0.09-0.299,0.225-0.412,0.383c-0.789-0.198-1.59,0.147-2.111,0.732
				c-1.359,0.067-2.679,0.761-3.595,2.11c-0.222,0.328-0.23,0.756-0.093,1.133c-0.868,0.266-1.722,0.583-2.559,0.935
				c-3.622,1.523-6.865,3.849-10.304,5.729c-3.641,1.988-7.148,3.548-11.215,4.422c-0.045-0.004-0.091-0.007-0.14-0.005
				c-0.294,0.012-0.586,0.032-0.877,0.057c-0.118-0.194-0.267-0.374-0.44-0.531c0.471-0.543,0.868-1.181,1.189-1.904
				c0.967-2.17,1.227-4.626,2.391-6.708c0.589-1.053-1.04-1.983-1.632-0.926c-0.153,0.276-0.292,0.56-0.421,0.846
				c-0.425-0.556-1.467-0.594-1.659,0.284c-0.015,0.069-0.033,0.137-0.051,0.204c-0.765,0.187-1.504,0.457-2.233,0.757
				c-0.135,0.029-0.27,0.058-0.402,0.089c-1.365,0.31-2.734,0.601-4.078,0.998c-2.025,0.598-4.563,1.615-5.343,3.737
				c-0.251,0.268-0.294,0.567-0.2,0.828c-0.036,0.464,0.184,0.921,0.681,1.042c0.151,0.037,0.303,0.064,0.456,0.087
				c-0.314,0.653-0.541,1.375-0.764,2.022c-0.051,0.146-0.05,0.286-0.017,0.419c-2.413,0.787-4.812,1.608-7.201,2.456
				c-2.954,0.169-5.839-1.148-8.873-1.043c-0.325,0.011-0.565,0.149-0.718,0.345c-0.33-0.424-0.865-0.406-1.241-0.156
				c-0.088-0.005-0.178,0-0.268,0.022c-2.346,0.562-5.063,1.593-6.908,3.337c-1.87,0.301-3.729,0.679-5.568,1.183
				c-0.469,0.129-0.706,0.588-0.68,1.014c-3.587,0.441-7.149,1.396-9.812,3.992c-0.449,0.438-0.619,1.016-0.581,1.583
				c-4.931,0.902-10.623,0.712-14.427,4.385c-0.868,0.838-0.775,1.888-0.229,2.642c-0.063,0.469,0.013,0.959,0.243,1.364
				c0.445,0.783,1.25,1.122,2.061,1.042c-0.262,0.602-0.279,1.307,0.11,1.852c1.453,2.032,3.03,4.332,4.968,6.115
				c0.111,2.204,1.856,4.188,3.276,5.765c-1.341,0.515-2.231,2.318-0.905,3.644c4.086,4.084,8.246,8.092,12.442,12.062
				c0.093,0.329,0.276,0.656,0.576,0.957c0.447,0.449,0.89,0.904,1.329,1.36c0.806,1.284,1.442,2.684,1.97,4.085
				c0.764,2.025,1.34,4.163,1.637,6.318c0.042,2.043-0.103,4.09-0.364,5.991c-0.16,1.159-0.383,2.308-0.655,3.445
				c-0.301,0.609-0.613,1.214-0.954,1.805c-1.156,2.004-2.544,3.915-3.901,5.802c-0.154,0.065-0.306,0.164-0.446,0.306
				c-6.534,6.546-12.555,13.578-19.063,20.146c-6.476,6.535-11.879,14.023-18.367,20.539c-0.177,0.178-0.288,0.369-0.347,0.564
				c-4.332,4.164-8.664,8.328-12.914,12.576c-1.088,1.088,0.6,2.775,1.688,1.688c4.231-4.229,8.548-8.38,12.867-12.529
				c0.219-0.053,0.437-0.17,0.635-0.37c0.932-0.936,1.838-1.894,2.729-2.865c10.165-9.788,20.226-19.685,29.096-30.688
				c0.274-0.339,0.545-0.682,0.816-1.024c0.386,0.161,0.847,0.125,1.232-0.261l3.746-3.746c0.7,0.137,1.446-0.096,2.04-0.593
				c0.924-0.771,1.709-1.68,2.384-2.678c1.626-1.367,3.354-2.603,5.109-3.806c0.702-0.324,1.414-0.623,2.142-0.891
				c1.678-0.618,3.411-1.069,5.165-1.415c1.641,0.058,3.28,0.124,4.916,0.243c0.841,0.395,1.682,0.789,2.522,1.186
				c8.125,6.023,16.814,11.326,24.204,18.279c0.234,0.222,0.468,0.444,0.696,0.668c0.241,0.236,0.481,0.472,0.72,0.709
				C300.917,405.715,304.05,402.583,302.025,400.565z M293.96,300.835c-0.042,0.125-0.087,0.248-0.133,0.37
				c-0.134-0.016-0.271,0-0.406,0.055c0.261-0.367,0.519-0.737,0.761-1.115C294.111,300.376,294.037,300.606,293.96,300.835z
				 M290.712,301.799c-0.096,0.139-0.188,0.279-0.279,0.42c-0.088-0.007-0.176-0.012-0.264-0.018
				c0.002-0.012,0.003-0.022,0.005-0.033C290.363,302.053,290.543,301.931,290.712,301.799z M292.822,298.762
				c-0.064,0.108-0.133,0.214-0.201,0.321c-0.041-0.08-0.083-0.16-0.127-0.239C292.603,298.817,292.712,298.79,292.822,298.762z
				 M290.562,299.264c0.068,0.103,0.135,0.209,0.199,0.316c-0.022-0.003-0.044-0.007-0.067-0.009
				c-0.575-0.029-1.145-0.013-1.709,0.042C289.504,299.486,290.033,299.374,290.562,299.264z M244.625,329.814
				c0.062-0.106,0.128-0.21,0.194-0.312c0.055-0.062,0.109-0.123,0.164-0.185c-0.188,0.285-0.373,0.573-0.549,0.868
				c-0.081,0.137-0.16,0.274-0.236,0.413C244.335,330.334,244.476,330.072,244.625,329.814z"/>
			<path opacity="0.4" fill-rule="evenodd" clip-rule="evenodd" d="M385.629,300.328c-0.02-1.963-0.473-3.812-1.635-5.417
				c-0.127-0.176-0.277-0.326-0.445-0.445c-0.033-2.011-1.422-3.891-2.727-5.322c-1.58-1.732-3.623-3.361-5.859-4.142
				c-0.605-0.21-1.158,0.059-1.488,0.51c-0.248-0.143-0.5-0.283-0.752-0.422c-0.303-0.323-0.604-0.648-0.898-0.976
				c-0.48-0.531-1.074-0.557-1.557-0.312c-2.385-1.228-4.828-2.486-6.582-4.571c-1.203-1.431-3.242,0.631-2.049,2.049
				c2.441,2.904,5.945,4.33,9.232,6.067c3.178,3.374,6.662,6.474,10.426,9.178c0.133,0.097,0.277,0.155,0.428,0.187
				c0.705,1.11,0.994,2.259,1.008,3.615C382.75,302.197,385.647,302.199,385.629,300.328z"/>
			<path fill-rule="evenodd" clip-rule="evenodd" fill="#F3F3F3" d="M376.834,285.16c-10.547-2.225-18.666-8.104-26.135-15.733
				c1.842-3.548,2.922-7.651,7.697-8.968c2.018-0.556,3.678-2.16,5.691-3.406c2.729,2.479,5.818,5.286,9.143,8.307
				C368.25,272.261,374.182,278.291,376.834,285.16z"/>
			<path fill-rule="evenodd" clip-rule="evenodd" fill="#E3E3E3" d="M418.924,328.704c4.688-2.028,9.027-3.152,13.758-2.723
				c0.453,0.041,0.924-0.029,1.354,0.092c1.719,0.489,3.773,0.417,4.65,2.522c0.869,2.087-0.197,3.543-1.371,5.046
				c-4.939,6.315-11.572,10.269-19.553,11.143c-5.91,0.647-11.596,1.662-17.164,3.396c-4.85,1.511-9.68,3.1-14.613,4.356
				c-3.555,0.907-7.266,1.327-10.906,1.971c-2.336,0.413-4.664,0.86-7.004,1.257c-1.904,0.322-2.812-0.467-3.359-2.469
				c-2.223-8.135-1.584-16.205-1.377-24.287c0.115-4.484,0.42-8.95,0.59-13.43c0.027-0.719-0.207-1.467-0.357-2.436
				c-2.365,1.095-4.535,2.14-6.74,3.111c-2.686,1.182-5.387,2.337-8.109,3.438c-2.531,1.023-3.369,3.357-4.18,5.633
				c-1.848,5.189-3.689,10.386-5.289,15.669c-2.242,7.4-4.418,14.833-6.336,22.344c-2.572,10.08-4.764,20.282-7.322,30.365
				c-1.496,5.896-3.367,11.673-5.12,17.485c-0.468,1.551-1.047,3.071-1.703,4.541c-0.858,1.918-1.533,1.889-3.146,0.311
				c-3.569-3.49-7.218-6.9-10.812-10.364c-0.843-0.812-1.414-0.929-2.503-0.29c-7.978,4.694-15.829,9.645-24.142,13.738
				c-8.502,4.186-17.359,7.776-26.281,11.113c-13.487,5.043-27.137,9.719-40.783,14.383c-4.082,1.395-8.388,2.232-12.595,3.31
				c-0.349,0.089-0.736,0.125-1.102,0.081c-3.756-0.433-5.021-1.82-4.341-5.452c0.542-2.894,1.55-5.683,2.497-8.458
				c1.165-3.408,2.418-6.783,3.747-10.121c3.391-8.517,6.879-16.988,10.264-25.507c2.648-6.668,5.087-13.435,7.836-20.054
				c1.942-4.675,4.252-9.177,6.394-13.759c1.924-4.112,3.803-8.248,5.772-12.336c1.428-2.964,2.924-5.894,4.478-8.784
				c0.892-1.657,0.918-2.896-0.661-4.537c-2.191-2.278-3.922-4.992-5.916-7.465c-1.121-1.389-2.213-2.903-3.614-3.945
				c-1.764-1.312-1.442-2.275-0.064-3.083c2.893-1.7,5.786-3.447,8.864-4.796c9.122-3.998,18.271-7.949,27.538-11.634
				c3.862-1.536,6.522-3.905,8.568-7.48c1.201-2.097,3.576-3.46,5.374-5.205c0.631-0.614,1.559-1.336,1.581-2.085
				c0.067-2.264-0.225-4.562-0.411-6.847c-0.16-1.956-0.577-3.932-0.521-5.863c0.235-8.076-0.279-16.261,1.73-24.092
				c0.419-1.637,0.495-3.41,1.107-4.947c0.308-0.769,1.385-1.506,2.254-1.649c6.384-1.056,12.801-1.968,19.21-2.905
				c4.475-0.653,8.971-1.205,13.427-1.933c4.354-0.71,7.846-5.121,7.901-9.632c0.021-1.779-0.258-3.8,0.452-5.25
				c0.855-1.743,2.477-3.164,4.02-4.421c2.732-2.227,5.379-4.312,5.906-8.295c0.184-1.39,1.518-2.834,2.744-3.675
				c3.789-2.603,7.018-5.512,8.938-9.91c0.777-1.778,2.754-3.179,4.523-4.215c3.957-2.316,7.264-5.073,9.766-9.049
				c1.287-2.048,3.904-3.399,6.213-4.52c2.74-1.332,5.766-2.156,8.717-3.062c8.477-2.599,15.736-7.08,21.99-13.128
				c3.502-3.386,7.639-5.646,12.623-6.131c1.881-0.184,3.893,0.378,5.842,0.656c3.736,0.534,7.498,0.926,11.191,1.74
				c1.979,0.437,3.982,1.401,5.727,2.536c2.713,1.765,5.033,4.252,7.846,5.76c5.107,2.739,7.494,6.963,8.691,12.219
				c0.174,0.768,1.055,1.807,1.783,2.039c6.299,2.004,10.094,6.652,12.703,12.305c1.371,2.965,2.088,6.219,2.904,9.38
				c0.998,3.874,2.105,7.773,2.557,11.69c0.271,2.358,0.018,5.181-1.127,7.062c-1.715,2.814-2.668,5.811-3.535,8.924
				c-1.369,4.9-2.494,9.901-4.182,14.67c-1.389,3.921-4.037,7.105-7.389,9.571c-2.521,1.852-4.461,4.01-5.383,7.188
				c-1.168,4.026-3.898,6.868-7.324,9.231c-3.34,2.305-6.252,5.197-9.512,7.621c-1.229,0.913-2.875,1.709-4.398,1.734
				c-4.586,0.073-8.816,0.824-12.867,2.903c-5.223,2.679-10.961,2.061-16.668,0.237c-4.008-1.281-7.992-2.646-12.385-4.105
				c0.85,1.687,1.398,3.119,2.23,4.373c3.562,5.359,2.875,10.738,1.252,16.094c-1.926,6.354-4.025,12.645-5.943,19.002
				c-1.639,5.422-3.129,10.899-4.766,16.635c2.426-0.143,4.295-0.248,6.162-0.365c4.625-0.287,9.324-0.249,13.852-0.968
				c4.225-0.672,8.281-2.113,12.377-3.312c0.65-0.189,1.381-0.757,1.637-1.358c1.951-4.612,6.488-7.542,7.645-12.69
				c0.207-0.92,1.08-1.754,1.861-2.361c0.447-0.349,1.49-0.438,1.969-0.137c0.494,0.311,0.922,1.284,0.865,1.883
				C419.788,325.395,419.348,326.801,418.924,328.704z M366.663,308.305c0.125,0.242,0.252,0.485,0.375,0.729
				c-0.631,1.958-1.656,3.857-1.826,5.887c-0.496,5.923-0.947,11.883-0.861,17.858c0.092,6.37,0.865,12.774,1.236,19.165
				c0.09,1.579,0.77,2.049,2.141,1.865c1.469-0.198,2.939-0.409,4.389-0.691c6.732-1.311,13.463-2.643,20.189-3.979
				c1.48-0.294,2.713-0.752,2.145-2.781c-0.811-2.903-1.379-3.506-3.668-3.303c-5.576,0.496-11.148,1.025-16.721,1.549
				c-1.938,0.181-2.65-0.662-2.096-2.507c1.273-4.235,2.545-8.474,3.828-12.706c2.193-7.226,4.021-14.615,6.725-21.615
				c1.846-4.78,1.863-9.251-0.203-13.983c-1.281-2.932-2.678-5.5-6.443-6.553c-4.525-1.267-9.043-3.192-13.156-5.591
				c-4.119-2.403-7.729-5.758-11.592-8.653c-0.484-0.364-1.406-0.832-1.707-0.638c-3.293,2.129-6.514,4.362-9.729,6.603
				c-1.955,1.365-3.896,2.754-5.779,4.211c-0.881,0.682-1.848,1.415-2.357,2.369c-1.244,2.333-2.717,4.198-5.381,5.138
				c-2.193,0.776-4.525,1.747-6.126,3.312c-2.313,2.264-4.935,3.768-7.917,4.905c-1.146,0.438-2.275,1.056-3.192,1.843
				c-3.959,3.395-8.541,5.219-13.965,5.205c-1.402-0.003-2.786,0.28-4.178,0.433c-0.101-0.198-0.201-0.396-0.302-0.593
				c2.41-2.712,6.835-4.077,5.959-9.17c-4.373,1.641-8.727,3.211-12.997,4.963c-0.525,0.215-0.879,1.391-0.841,2.129
				c0.185,3.546-1.263,5.682-4.699,5.973c-2.352,0.2-4.783,0.025-7.169-0.225c-1.76-0.185-3.673-1.366-5.222-1.038
				c-3.22,0.684-6.344,1.876-9.33,3.214c-7.754,3.479-15.423,7.125-23.101,10.756c-2.288,1.082-4.489,2.329-6.951,3.616
				c0.927,1.247,1.533,2.135,2.214,2.963c1.979,2.408,3.991,4.788,5.984,7.186c3.059,3.682,5.81,7.683,9.232,10.982
				c6.273,6.043,12.929,11.689,19.452,17.471c5.433,4.814,10.874,9.619,16.371,14.359c3.353,2.891,6.941,5.51,10.201,8.498
				c3.988,3.657,7.72,7.597,11.609,11.362c1.658,1.605,3.471,3.046,5.151,4.627c3.365,3.164,6.688,6.375,10.325,9.85
				c1.669-4.527,3.332-8.365,4.499-12.377c1.473-5.063,2.447-10.3,3.805-15.406c1.879-7.073,3.939-14.086,5.873-21.141
				c1.523-5.555,3.482-11.025,4.322-16.732c0.994-6.755,3.443-12.931,5.219-19.369c0.688-2.495,2.004-4.845,2.256-7.392
				c0.148-1.496,0.559-1.899,1.699-2.438c6.623-3.126,13.188-6.37,19.797-9.526C364.905,308.559,365.821,308.502,366.663,308.305z
				 M376.821,198.277c-0.215-0.111-0.43-0.224-0.643-0.336c-0.617,0.866-1.232,1.734-1.852,2.598
				c-2.08,2.905-4.215,5.642-7.746,7.104c-2.471,1.022-5.25,2.386-5.566,5.447c-0.369,3.587-2.379,5.724-5.008,7.543
				c-1.352,0.936-2.023,2.083-2.125,3.846c-0.201,3.444-2.867,5.435-4.67,7.944c-0.084-0.589-0.008-1.1,0.256-1.471
				c1.557-2.196,2.48-4.54,2.262-7.451c-0.078-1.038,0.666-2.272,1.398-3.084c1.16-1.284,2.707-2.208,3.932-3.443
				c0.674-0.68,1.471-1.673,1.434-2.545c-0.189-4.538,1.92-7.28,5.945-8.707c4.205-1.492,7.666-3.67,9.596-8.007
				c1.416-3.177,3.604-5.965,5.428-8.939c1.484-2.419,2.689-5.774,5.844-5.691c4.318,0.114,7.768-2.082,11.793-2.489
				c1.035-0.105,2.107,0.042,3.156,0.013c1.172-0.031,2.736,0.328,3.441-0.272c4.715-4.017,9.854-2.636,15.051-0.411
				c4.234,1.813,8.434,3.736,12.555,5.819c1.42,0.718,2.557,2.065,3.82,3.124c-0.143,0.174-0.285,0.348-0.426,0.521
				c-0.486-0.209-1.021-0.343-1.447-0.643c-2.672-1.877-5.49-1.861-8.49-1.689c-3.037,0.174-6.182,0.008-9.229-0.511
				c-3.58-0.608-7.09-1.859-10.658-2.641c-3.359-0.735-6.775-1.344-10.021-0.072c-0.889,0.348-1.678,0.922-2.514,1.392
				c2.031-0.049,3.725-1.055,5.438-0.967c2.727,0.14,5.498,0.864,8.195,1.602c4.646,1.271,9.225,2.87,13.879,4.088
				c3.543,0.927,7.26,1.11,10.711,2.295c3.52,1.207,6.264,1.351,9.26-0.953c2.68-2.059,3.838-4.282,2.285-7.645
				c-1.467-3.178-3.568-5.763-6.811-7.355c-1.021-0.501-1.986-1.219-2.846-1.988c-4.141-3.706-8.631-6.323-14.25-6.249
				c-1.688,0.023-3.447-0.413-5.129-0.858c-5.541-1.469-10.814-1.919-15.262,2.056c-2.877,2.57-5.77,5.133-8.793,7.53
				c-2.262,1.793-4.539,3.749-7.178,4.863c-4.775,2.017-9.818,3.479-14.764,5.137c-3.236,1.084-5.982,2.801-7.736,5.758
				c-2.809,4.733-6.762,8.104-11.844,10.301c-1.121,0.485-2.324,1.52-2.73,2.625c-1.598,4.321-4.525,7.281-8.502,9.342
				c-2.127,1.103-3.49,2.745-3.988,5.206c-0.229,1.115-0.822,2.238-1.555,3.089c-1.564,1.818-3.182,3.638-5.045,5.133
				c-2.4,1.929-3.045,4.42-2.467,7.359c0.555,2.824-0.32,4.848-2.131,6.855c-1.683,1.866-3.831,3.838-2.591,7.044
				c1.161,2.998,0.39,5.617-0.887,8.173c-1.793,3.583-3.903,7.038-5.256,10.807c-1.479,4.117-2.834,8.211-5.754,11.5
				c-2.171,2.443-3.129,5.332-3.113,8.744c0.006,1.411-0.598,2.89-1.272,4.13c-1.974,3.614-4.123,7.125-6.39,10.994
				c4.714,0.3,7.714-1.504,10.385-4.158c1.512-1.502,2.786-3.571,5.523-3.133c2.909,0.467,4.229-1.433,5.156-3.546
				c0.941-2.145,2.522-3.004,4.761-3.288c3.295-0.421,5.611-2.399,6.803-5.288c1.051-2.547,2.865-3.859,5.252-4.838
				c1.26-0.518,2.688-1.149,3.443-2.183c1.711-2.335,3.861-3.854,6.57-4.858c1.258-0.466,2.543-1.275,3.344-2.307
				c1.51-1.941,2.502-4.299,4.039-6.211c1.32-1.646,3.008-3.027,4.699-4.313c1.494-1.134,3.664-1.615,4.756-3.013
				c3.219-4.119,6.09-8.523,8.986-12.894c0.359-0.543,0.24-1.592,0.027-2.337c-0.971-3.385-2.088-6.737-3.092-10.114
				c-1.369-4.606-1.139-9.186-0.061-13.583c1.658-6.768,4.5-12.909,9.809-17.535C376.655,199.86,376.629,198.946,376.821,198.277z
				 M408.614,262.166c-2.225,0.199-4.361,0.7-6.49,0.522c-5.488-0.46-10.973-1.192-16.455-1.87
				c-2.912-0.359-5.465,0.088-7.668,2.015c-4.613,4.035-4.59,9.047-2.203,14.528c1.469,3.375,2.732,7.14,6.693,8.483
				c4.773,1.62,9.604,3.218,14.492,4.192c4.451,0.886,9.115,1.448,13.01-1.448c2.578-1.918,5.525-2.871,8.826-2.998
				c4.686-0.18,8.596-1.939,11.758-5.217c1.617-1.677,3.059-3.657,5.006-4.85c3.588-2.202,5.334-5.619,7.025-9.224
				c0.672-1.432,1.434-3.06,2.652-3.923c6.395-4.526,9.244-11.37,11.432-18.542c1.648-5.403,2.514-11.064,5.848-15.783
				c0.887-1.255,1.396-3.413,0.961-4.901c-1.16-3.978-1.312-8.056-2.309-11.969c-1.379-5.422-3.588-10.571-7.352-15.266
				c-4.58-5.713-11.152-5.829-15.309-1.212c-0.828,0.918-0.875,3.12-0.41,4.49c0.498,1.474,1.998,2.686,3.104,3.975
				c2.514,2.931,4.105,6.159,4.299,9.984c0.41,8.186-1.148,15.53-7.475,20.876c-3.678,3.108-5.912,7.044-7.107,11.797
				c-0.824,3.28-2.98,5.891-5.691,7.761c-2.449,1.688-5.281,2.835-7.891,4.312c-2.207,1.247-4.186,2.556-5.535,5.011
				c-1.471,2.674-3.594,5.332-6.156,6.881c-2.785,1.688-5.125,3.491-6.793,6.245c-0.557,0.919-1.332,1.705-2.061,2.502
				c-1.846,2.022-3.719,4.02-5.602,6.007c-0.074,0.08-1.129,0.341-1.396,0.303c-0.062-3.324,2.076-6.089,4.902-7.369
				c1.629-0.738,2.604-1.811,2.93-3.512c0.654-3.407,2.973-5.167,5.951-6.441C405.959,266.517,408.241,265.293,408.614,262.166z
				 M209.45,432.056c-3.347,3.347-6.728,6.66-10.001,10.077c-0.485,0.506-0.854,1.706-0.564,2.221
				c0.308,0.551,1.534,1.021,2.23,0.918c3.311-0.49,6.681-0.904,9.835-1.875c4.907-1.509,9.681-3.391,14.466-5.215
				c9.6-3.66,19.193-7.334,28.745-11.104c7.162-2.827,14.353-5.617,21.339-8.799c4.045-1.842,7.53-4.795,11.595-6.584
				c4.836-2.127,9.056-4.973,13.017-8.311c1.058-0.891,0.82-1.537-0.105-2.363c-3.628-3.236-7.264-6.465-10.859-9.737
				c-0.963-0.877-1.714-1.999-2.708-2.83c-1.997-1.675-4.175-3.132-6.13-4.85c-2.99-2.628-5.883-5.37-8.758-8.123
				c-1.222-1.17-2.231-1.412-3.502-0.292c-1.795,1.583-3.865,2.875-5.563,4.549c-10.324,10.168-20.556,20.433-30.862,30.618
				c-5.387,5.324-10.873,10.55-16.297,15.837C213.344,428.125,211.41,430.102,209.45,432.056z M195.514,441.254
				c0.209,0.19,0.418,0.378,0.626,0.567c0.594-0.296,1.305-0.47,1.765-0.905c2.806-2.65,5.558-5.355,8.318-8.051
				c4.421-4.311,8.827-8.637,13.264-12.932c0.829-0.803,1.852-1.413,2.645-2.247c4.896-5.155,9.606-10.495,14.658-15.491
				c5.896-5.83,12.098-11.354,18.13-17.049c2.061-1.947,4.062-3.962,5.993-6.037c1.785-1.918,3.529-3.891,5.089-5.996
				c0.404-0.542,0.419-1.987-0.012-2.468c-2.161-2.422-4.466-4.727-6.838-6.946c-4.555-4.26-9.155-8.472-13.802-12.63
				c-2.864-2.562-5.85-4.989-8.848-7.533c-0.304,0.496-0.687,1.023-0.973,1.603c-3.849,7.799-7.689,15.603-11.522,23.41
				c-1.421,2.896-3.025,5.712-4.188,8.722c-4.339,11.236-8.46,22.568-12.799,33.803c-2.779,7.195-5.86,14.257-8.683,21.435
				C197.223,435.347,196.446,438.336,195.514,441.254z M312.436,262.685c-7.281-0.461-14.585-0.911-21.888-1.402
				c-1.367-0.092-1.485,0.79-1.723,1.777c-1.746,7.254-3.553,14.487-5.301,21.74c-0.625,2.589-1.236,5.19-1.678,7.827
				c-0.488,2.911,1.983,5.11,4.829,4.222c4.145-1.294,8.249-2.712,12.29-4.259c2.839-1.087,3.09-1.813,2.258-4.942
				c-0.557-2.095-0.266-3.902,1.084-5.446c1.196-1.369,2.539-2.622,3.62-4.079c1.017-1.371,2.05-2.834,2.591-4.447
				C309.808,269.837,309.417,265.313,312.436,262.685z M314.763,247.259c-2.996,0.157-5.944,0.108-8.804,0.496
				c-8.472,1.149-16.922,2.415-25.34,3.806c-0.841,0.138-1.838,1.334-2.025,2.24c-0.68,3.259-1.245,6.579-1.483,9.926
				c-0.455,6.395-0.59,12.834-0.99,19.237c-0.174,2.783,1.671,2.671,3.479,3.09c2.116,0.49,1.938-1.063,2.191-2.189
				c0.725-3.234,1.305-6.511,2.06-9.736c0.84-3.591,2.014-7.092,2.666-10.726c0.64-3.55,0.431-3.6,3.905-3.325
				c0.298,0.024,0.598,0.038,0.894,0.03c7.254-0.187,14.502-0.441,21.765-0.507c1.258-0.011,1.56-0.473,2.049-1.398
				C316.986,254.688,316.051,251.122,314.763,247.259z M376.772,285.223c-2.652-6.87-8.584-12.899-3.604-19.801
				c-3.324-3.021-6.414-5.828-9.143-8.306c-2.014,1.246-3.676,2.852-5.691,3.406c-4.775,1.317-5.857,5.42-7.697,8.968
				C358.106,277.119,366.225,282.998,376.772,285.223z M397.03,347.438c6.662-1.811,13.057-3.825,19.961-4.469
				c5.717-0.533,10.99-3.012,15.26-6.841c1.754-1.571,3.262-3.5,4.506-5.513c0.873-1.411,0.318-2.641-1.777-2.896
				c-5.736-0.704-11.037,0.215-15.924,2.887c-0.406,0.223-0.871,0.348-1.682,0.666c0.453-2.767,0.846-5.154,1.238-7.543
				c-1.084,0.457-1.672,1.087-2.143,1.8c-1.109,1.68-2.031,3.506-3.27,5.077c-2.062,2.616-4.129,5.141-2.988,9
				c0.084,0.286-0.361,0.694-0.619,1.147c-0.508-0.668-0.9-1.185-1.225-1.612c-4.422,1.317-8.688,2.589-13.037,3.886
				C395.938,344.606,396.458,345.952,397.03,347.438z M277.032,296.15c-4.145,0.225-6.808,3.157-8.646,7.032
				c-0.979,2.063-0.471,3.169,1.595,4.185c3.763,1.85,7.158,1.299,10.435-0.674c1.485-0.895,1.541-1.953,0.688-3.38
				c-1.604-2.682-1.574-2.768,1.045-4.257c0.295-0.169,0.561-0.384,0.993-0.682c-1.451-0.926-3.553-1.013-3.301-3.242
				c0.175-1.542,0.502-3.057,0.662-4.6c0.102-0.983,0.421-2.407-0.078-2.898c-0.647-0.637-2.013-0.541-3.144-0.777
				C277.193,290.157,277.115,293.037,277.032,296.15z M379.506,197.194c0.24,0.192,0.48,0.385,0.721,0.578
				c3.002-2.7,6.078-5.326,8.959-8.152c0.717-0.704,0.799-2.054,1.172-3.106c-1.229-0.461-2.477-1.263-3.682-1.282
				c-1.096-0.018-2.422,0.551-3.166,1.324C380.721,189.45,379.661,193.157,379.506,197.194z M406.993,181.137
				c5.219,3.118,12.094,4.794,14.93,3.712C416.553,180.58,411.487,178.365,406.993,181.137z"/>
			<path fill-rule="evenodd" clip-rule="evenodd" fill="#F3F3F3" d="M437.223,231.344c-1.486,1.486-3.482,3.182-5.096,5.195
				c-1.18,1.472-2.123,3.26-2.699,5.085c-1.242,3.938-2.461,7.851-5.457,10.775c-0.658,0.642-1.549,1.063-2.375,1.516
				c-3.697,2.028-7.283,4.289-11.164,5.942c-2.361,1.006-5.18,1.604-7.795,1.425c-5.029-0.344-10.098-1.111-15.078-2.188
				c-4.406-0.954-8.08-0.54-10.904,2.867c-0.744,0.895-1.541,1.114-2.488,0.272c-2.5-2.221-5.01-4.436-7.424-6.749
				c-1.062-1.018-1.195-2.062-0.104-3.296c1.768-2.001,3.248-4.262,4.881-6.453c2.367,2.635,4.439,4.941,6.512,7.247
				c0.24-0.182,0.48-0.364,0.719-0.546c-0.711-1.02-1.459-2.015-2.127-3.06c-4.004-6.265-7.57-12.742-8.438-20.09
				c-0.803-6.794,0.676-13.099,3.621-19c3.281-6.574,8.893-10.804,14.637-14.965c2.293-1.661,4.398-3.617,6.352-5.666
				c2.588-2.716,5.67-3.755,9.484-2.951c1.342,0.284,2.705,0.573,3.994,1.063c6.738,2.572,13.678,3.875,20.68,4.985
				c2.271,0.361,4.529,1.374,6.672,2.387c0.801,0.378,1.332,1.562,1.844,2.453c1.178,2.045,1.93,4.441,3.467,6.149
				c3.209,3.559,5.029,7.396,4.166,11.911c-0.734,3.847-1.871,7.598-2.967,11.343c-0.264,0.905-1.061,1.622-1.635,2.458
				 M395.399,239.938c0.885,0.883,1.715,1.83,2.66,2.638c2.988,2.555,6.348,3.897,10.143,3.271c0.426-0.07,0.664-0.965,0.988-1.478
				c-0.527-0.27-1.279-0.905-1.549-0.752c-3.512,2.004-6.229-0.083-8.828-2.288c-5.516-4.678-10.256-10.006-13.672-16.415
				c-0.348-0.65-1.172-1.153-1.873-1.503c-0.229-0.114-1.131,0.495-1.105,0.749c0.08,0.744,0.291,1.627,0.77,2.189"/>
			<path opacity="0.2" fill-rule="evenodd" clip-rule="evenodd" fill="#676767" d="M401.149,212.292
				c-2.541,1.779-6.57,2.512-8.861,0.943l-2.309-3.957c-2.799-3.48-4.281-11.071-3.639-12.197c0,0,0.262-3.415,5.014-5.171
				c5.561-2.057,12.215,0.459,14.359,1.685c4.695,2.682,5.035,7.157,5.035,7.157c0.334,0.336-0.043,4.487-1.371,5.815
				L401.149,212.292z"/>
			<path opacity="0.2" fill-rule="evenodd" clip-rule="evenodd" fill="#676767" d="M412.477,223.62
				c-1.779,2.542-2.512,6.57-0.945,8.86l3.959,2.311c3.48,2.798,11.07,4.28,12.195,3.637c0,0,3.416-0.262,5.172-5.011
				c2.057-5.563-0.459-12.216-1.684-14.36c-2.684-4.695-7.16-5.035-7.16-5.035c-0.334-0.335-4.484,0.043-5.812,1.371L412.477,223.62
				z"/>
			<path fill-rule="evenodd" clip-rule="evenodd" d="M424.186,211.137c1.043-0.9,3.127-2.7,3.127-2.7
				c3.502,3.722,10.508,11.166,10.508,11.166c1.346,1.347-0.646,12.728-0.646,12.728c0.014-0.203,0.025-0.407,0.037-0.61
				c-0.42-2.365-0.84-4.732-1.258-7.098c-0.277-0.591-0.551-1.182-0.826-1.772c-3.467-3.416-6.936-6.834-10.402-10.251"/>
			<path fill-rule="evenodd" clip-rule="evenodd" d="M412.834,201.682c-3.416-3.466-6.832-6.934-10.25-10.4
				c-0.59-0.275-1.182-0.55-1.771-0.826c-2.365-0.419-4.732-0.839-7.098-1.259c-0.205,0.012-0.408,0.024-0.611,0.037
				c0,0,11.381-1.993,12.729-0.646c0,0,7.443,7.005,11.164,10.507c0,0-1.799,2.085-2.699,3.127"/>
			<path fill-rule="evenodd" clip-rule="evenodd" d="M395.309,239.963c-4.391-4.204-8.312-8.976-12.314-13.675
				c-0.479-0.562-0.689-1.445-0.768-2.189c-0.027-0.255,0.875-0.863,1.104-0.75c0.701,0.35,1.527,0.854,1.873,1.504
				c3.416,6.408,8.158,11.736,13.674,16.414c2.6,2.206,5.314,4.292,8.828,2.289c0.268-0.152,1.02,0.483,1.547,0.752
				c-0.324,0.512-0.561,1.407-0.988,1.478c-3.793,0.626-7.152-0.716-10.141-3.27C397.163,241.693,396.225,240.84,395.309,239.963z"
				/>
			<path fill-rule="evenodd" clip-rule="evenodd" fill="#F3F3F3" d="M376.739,285.063c-10.549-2.226-18.668-8.104-26.135-15.733
				c1.84-3.549,2.92-7.652,7.697-8.968c2.016-0.556,3.676-2.161,5.689-3.406c2.729,2.479,5.818,5.286,9.143,8.306
				C368.153,272.163,374.084,278.193,376.739,285.063z"/>
			<path fill-rule="evenodd" clip-rule="evenodd" fill="#F3F3F3" d="M406.959,180.977c4.492-2.773,9.559-0.557,14.93,3.712
				C419.053,185.772,412.178,184.094,406.959,180.977z"/>
			<path fill-rule="evenodd" clip-rule="evenodd" fill="#F3F3F3" d="M379.473,197.034c0.152-4.038,1.215-7.744,4.002-10.638
				c0.746-0.774,2.072-1.341,3.166-1.325c1.207,0.02,2.453,0.821,3.682,1.281c-0.373,1.052-0.455,2.402-1.172,3.107
				c-2.879,2.825-5.955,5.451-8.959,8.151C379.952,197.42,379.713,197.226,379.473,197.034z"/>
			<path fill-rule="evenodd" clip-rule="evenodd" d="M414.241,233.53c-3.121-2.063-2.561-6.948-1.213-8.784s2.291-3.177,5.396-6.861
				c3.107-3.683,6.359-3.247,7.389-2.837c1.027,0.411,2.225,1.299,3.174,3.465s1.17,4.047-0.045,8.555
				c-1.217,4.508-1.084,5.03,0.408,6.832c1.488,1.8,2.768,0.537,2.232,1.386c-1.504,2.377-11.08-0.877-11.08-0.877
				S417.362,235.593,414.241,233.53z"/>
			<path fill-rule="evenodd" clip-rule="evenodd" fill="#FFFFFF" d="M424.354,217.792c-0.164-0.202-0.143-0.085-0.232,0.031
				c0.197-0.257,1.01,0.308,1.518,0.982c0.516,0.685,0.723,1.481,0.73,1.502c0.023,0.146,0.074,0.651,0.078,0.764
				c0.268,2.582-0.053,5.147-1.693,8.102c-1.422,2.562-3.178,3.741-4.797,4.225c-2.533,0.758-4.738-0.187-4.826-0.198
				c-0.029-0.023-0.059-0.046-0.086-0.068c-6.088-4.969,3.492-15.732,9.152-15.373C424.215,217.746,424.598,217.652,424.354,217.792
				z"/>
			<path fill-rule="evenodd" clip-rule="evenodd" d="M389.627,204.633c0,0-3.055-9.625-0.646-11.196
				c0.859-0.561-0.43,0.761,1.34,2.232c1.77,1.471,2.289,1.595,6.822,0.271c4.533-1.322,6.41-1.136,8.557-0.221
				s3.01,2.108,3.398,3.141s0.758,4.316-2.99,7.535c-3.748,3.221-5.109,4.202-6.975,5.604c-1.863,1.402-6.76,2.071-8.756-1.046
				C388.377,207.835,389.627,204.633,389.627,204.633z"/>
			<path fill-rule="evenodd" clip-rule="evenodd" fill="#FFFFFF" d="M406.403,200.813c0.359,5.659-10.402,15.24-15.371,9.153
				c-0.023-0.028-0.047-0.057-0.07-0.086c-0.012-0.088-0.955-2.292-0.197-4.826c0.484-1.62,1.662-3.374,4.225-4.797
				c2.955-1.64,5.521-1.96,8.102-1.693c0.113,0.005,0.619,0.055,0.764,0.078c0.021,0.007,0.818,0.215,1.504,0.729
				c0.674,0.508,1.238,1.321,0.98,1.518c0.117-0.09,0.234-0.067,0.031-0.233C406.51,200.415,406.417,200.796,406.403,200.813z"/>
		</g>
	</g>
	
		<ellipse transform="matrix(0.7071 0.7071 -0.7071 0.7071 279.6184 -215.8027)" opacity="0.5" fill="#418787" cx="400.306" cy="229.628" rx="74.458" ry="74.163"/>
	<path opacity="0.3" fill="#535355" d="M402.311,343.121C286.117,459.315,142.337,508.953,142.337,508.953
		s-16.05-99.106,21.307-204.297c16.98-47.815,43.57-94.973,80.655-130.491c35.555-34.052,83.459-59.956,128.598-75.628
		c95.191-33.052,186.064-27.142,186.064-27.142S518.504,226.928,402.311,343.121z"/>
	<path fill="#C7C786" d="M161.426,546.465C140.269,567.623,41.4,589.874,41.4,589.874s22.251-98.869,43.408-120.025
		c21.158-21.158,55.46-21.158,76.618-0.001S182.584,525.307,161.426,546.465z"/>
	<path fill="#B9866E" d="M161.426,518.054c-13.311,13.312-75.518,27.312-75.518,27.312s14-62.207,27.312-75.518
		c13.312-13.312,34.895-13.312,48.207-0.001C174.738,483.159,174.738,504.742,161.426,518.054z"/>
	<path fill="#7B7383" d="M153.574,354.01c-26.823-7.46-115.057,0.604-115.057,0.604s38.522-71.744,62.197-86.341
		c23.675-14.597,68.946-23.054,83.543,0.622C198.854,292.571,180.371,361.461,153.574,354.01z"/>
	<path fill="#8D8395" d="M275.261,475.697c7.459,26.822-0.604,115.058-0.604,115.058s71.744-38.522,86.34-62.198
		c14.598-23.675,23.055-68.945-0.621-83.542C336.7,430.417,267.81,448.9,275.261,475.697z"/>
	<path fill="#8D8395" d="M193.581,511.314c-3.388,3.388-9.382,2.886-13.389-1.121l-60.45-60.45c-4.006-4.006-4.508-10-1.12-13.388
		l13.685-13.685c3.388-3.388,9.381-2.886,13.388,1.121l60.45,60.449c4.006,4.007,4.509,10.001,1.121,13.389L193.581,511.314z"/>
	<path fill="#7B7383" d="M189.338,507.072c-3.388,3.388-9.198,3.07-12.978-0.71l-57.03-57.029c-3.779-3.779-4.097-9.59-0.709-12.978
		l13.685-13.685c3.388-3.388,9.198-3.068,12.977,0.71l57.03,57.029c3.78,3.78,4.098,9.59,0.71,12.978L189.338,507.072z"/>
	<path fill="#7B7383" d="M274.1,473.756c6.593,20.694,2.863,89.714,2.863,89.714s54.814-32.11,65.506-50.989
		c10.693-18.881,15.975-54.417-2.904-65.109C320.684,436.676,267.515,453.083,274.1,473.756z"/>
</g>
</svg>
