<?xml version="1.0" encoding="utf-8"?>
<!-- Generator: Adobe Illustrator 16.0.0, SVG Export Plug-In . SVG Version: 6.00 Build 0)  -->
<!DOCTYPE svg PUBLIC "-//W3C//DTD SVG 1.1//EN" "http://www.w3.org/Graphics/SVG/1.1/DTD/svg11.dtd">
<svg version="1.1" id="Layer_1" xmlns:sketch="http://www.bohemiancoding.com/sketch/ns"
	 xmlns="http://www.w3.org/2000/svg" xmlns:xlink="http://www.w3.org/1999/xlink" x="0px" y="0px" width="129px" height="117px"
	 viewBox="0 0 129 117" enable-background="new 0 0 129 117" xml:space="preserve">
<title>snow</title>
<desc>Created with Sketch.</desc>
<g id="Page-1" sketch:type="MSPage">
	<g id="Cloud-Snow" sketch:type="MSLayerGroup">
		<g id="Layer_1_1_" sketch:type="MSShapeGroup">
			<path id="snow" fill="#CECCCD" d="M104.892,91.207V78.441c6.962-4.036,11.653-11.549,11.653-20.171
				c0-12.868-10.436-23.306-23.31-23.306c-4.662,0-8.983,1.398-12.626,3.762c-3.588-15.494-17.408-27.074-33.992-27.074
				c-19.311,0-34.962,15.657-34.962,34.968c0,10.342,4.517,19.608,11.656,26.004V86.95C9.392,78.885,0,63.865,0,46.621
				C0,20.873,20.873,0,46.618,0c17.496,0,32.721,9.651,40.694,23.906c1.935-0.329,3.896-0.597,5.924-0.597
				c19.312,0,34.965,15.657,34.965,34.961C128.2,73.49,118.459,86.399,104.892,91.207L104.892,91.207z M40.79,69.93
				c3.22,0,5.828,2.611,5.828,5.828c0,3.22-2.608,5.828-5.828,5.828c-3.217,0-5.825-2.608-5.825-5.828
				C34.965,72.541,37.573,69.93,40.79,69.93L40.79,69.93z M40.79,93.241c3.22,0,5.828,2.608,5.828,5.828
				c0,3.217-2.608,5.822-5.828,5.822c-3.217,0-5.825-2.608-5.825-5.822C34.965,95.847,37.573,93.241,40.79,93.241L40.79,93.241z
				 M64.102,81.586c3.217,0,5.828,2.607,5.828,5.828c0,3.217-2.611,5.827-5.828,5.827c-3.22,0-5.828-2.61-5.828-5.827
				C58.273,84.19,60.882,81.586,64.102,81.586L64.102,81.586z M64.102,104.892c3.217,0,5.828,2.61,5.828,5.827
				c0,3.221-2.611,5.828-5.828,5.828c-3.22,0-5.828-2.607-5.828-5.828C58.273,107.502,60.882,104.892,64.102,104.892L64.102,104.892
				z M87.408,69.93c3.219,0,5.827,2.611,5.827,5.828c0,3.22-2.608,5.828-5.827,5.828c-3.218,0-5.826-2.608-5.826-5.828
				C81.582,72.541,84.193,69.93,87.408,69.93L87.408,69.93z M87.408,93.241c3.219,0,5.827,2.608,5.827,5.828
				c0,3.217-2.608,5.822-5.827,5.822c-3.218,0-5.826-2.608-5.826-5.822C81.582,95.847,84.193,93.241,87.408,93.241L87.408,93.241z"
				/>
		</g>
	</g>
</g>
</svg>
