<?xml version="1.0" encoding="utf-8"?>
<!-- Generator: Adobe Illustrator 16.0.0, SVG Export Plug-In . SVG Version: 6.00 Build 0)  -->
<!DOCTYPE svg PUBLIC "-//W3C//DTD SVG 1.1//EN" "http://www.w3.org/Graphics/SVG/1.1/DTD/svg11.dtd">
<svg version="1.1" id="Layer_1" xmlns:sketch="http://www.bohemiancoding.com/sketch/ns"
	 xmlns="http://www.w3.org/2000/svg" xmlns:xlink="http://www.w3.org/1999/xlink" x="0px" y="0px" width="135px" height="135px"
	 viewBox="0 0 135 135" enable-background="new 0 0 135 135" xml:space="preserve">
<title>thunder</title>
<desc>Created with Sketch.</desc>
<g id="Page-1" sketch:type="MSPage">
	<g id="Cloud-Lightning" sketch:type="MSLayerGroup">
		<g id="Layer_1_1_" sketch:type="MSShapeGroup">
			<path id="thunder" fill="#CECCCD" d="M98.176,98.185h-3.26l11.001-13.538c9.761-3.243,16.806-12.437,16.806-23.283
				c0-13.557-10.988-24.542-24.544-24.542c-4.913,0-9.46,1.473-13.296,3.958c-3.78-16.312-18.331-28.506-35.793-28.506
				c-20.332,0-36.815,16.484-36.815,36.821c0,16.711,11.145,30.801,26.401,35.299l-4.139,11.59C14.529,89.783,0,71.137,0,49.092
				C0,21.982,21.979,0,49.089,0C67.512,0,83.545,10.163,91.94,25.174c2.037-0.35,4.103-0.629,6.238-0.629
				c20.335,0,36.818,16.481,36.818,36.815C134.997,81.695,118.51,98.185,98.176,98.185L98.176,98.185z M61.36,55.226h30.679
				L73.631,85.91h21.477L55.223,135L66.27,98.185H46.018L61.36,55.226L61.36,55.226z"/>
		</g>
	</g>
</g>
</svg>
