<?xml version="1.0" encoding="utf-8"?>
<!-- Generator: Adobe Illustrator 16.0.0, SVG Export Plug-In . SVG Version: 6.00 Build 0)  -->
<!DOCTYPE svg PUBLIC "-//W3C//DTD SVG 1.1//EN" "http://www.w3.org/Graphics/SVG/1.1/DTD/svg11.dtd">
<svg version="1.1" id="Layer_1" xmlns="http://www.w3.org/2000/svg" xmlns:xlink="http://www.w3.org/1999/xlink" x="0px" y="0px"
	 width="4685.064px" height="2588.557px" viewBox="0 0 4685.064 2588.557" enable-background="new 0 0 4685.064 2588.557"
	 xml:space="preserve">
<polyline fill-rule="evenodd" clip-rule="evenodd" fill="#DBDADA" points="0,2580.729 0,0 4685.063,0 4685.063,2580.729 "/>
<g>
	<g>
		<circle fill="#FFFFFF" cx="530.803" cy="533.273" r="159.959"/>
		<circle fill="#FFFFFF" cx="793.875" cy="438.805" r="217.776"/>
		<ellipse fill="#FFFFFF" cx="1042.894" cy="521.712" rx="157.651" ry="150.856"/>
		<path fill-rule="evenodd" clip-rule="evenodd" fill="#FFFFFF" d="M1227.089,690.789c0,9.579-1.788,17.345-3.993,17.345H352.354
			c-2.206,0-3.993-7.766-3.993-17.345V563.592c0-9.579,1.788-17.345,3.993-17.345h870.742c2.205,0,3.993,7.767,3.993,17.345V690.789
			z"/>
		<circle fill="#FFFFFF" cx="1213.792" cy="620.703" r="87.43"/>
		<circle fill="#FFFFFF" cx="348.36" cy="620.703" r="87.43"/>
	</g>
</g>
<polyline fill="#86A98F" points="0,2588.557 0,2089.418 4685.064,2089.418 4685.064,2588.557 "/>
<g>
	<g>
		<circle fill="#FFFFFF" cx="1588.346" cy="814.854" r="118.807"/>
		<circle fill="#FFFFFF" cx="1783.736" cy="744.69" r="161.748"/>
		<ellipse fill="#FFFFFF" cx="1968.689" cy="806.268" rx="117.092" ry="112.045"/>
		<path fill-rule="evenodd" clip-rule="evenodd" fill="#FFFFFF" d="M2105.497,931.845c0,7.115-1.328,12.883-2.966,12.883h-646.726
			c-1.638,0-2.966-5.768-2.966-12.883v-94.472c0-7.115,1.328-12.883,2.966-12.883h646.726c1.638,0,2.966,5.768,2.966,12.883V931.845
			z"/>
		<circle fill="#FFFFFF" cx="2095.622" cy="879.791" r="64.937"/>
		<circle fill="#FFFFFF" cx="1452.84" cy="879.791" r="64.937"/>
	</g>
</g>
<g>
	<g>
		<circle fill="#FFFFFF" cx="3727.763" cy="624.54" r="159.959"/>
		<circle fill="#FFFFFF" cx="3990.834" cy="530.071" r="217.776"/>
		<ellipse fill="#FFFFFF" cx="4239.853" cy="612.979" rx="157.651" ry="150.855"/>
		<path fill-rule="evenodd" clip-rule="evenodd" fill="#FFFFFF" d="M4424.049,782.056c0,9.578-1.788,17.344-3.993,17.344h-870.742
			c-2.206,0-3.993-7.766-3.993-17.344V654.858c0-9.578,1.787-17.345,3.993-17.345h870.742c2.205,0,3.993,7.767,3.993,17.345V782.056
			z"/>
		<circle fill="#FFFFFF" cx="4410.752" cy="711.97" r="87.43"/>
		<circle fill="#FFFFFF" cx="3545.32" cy="711.97" r="87.43"/>
	</g>
</g>
<polygon fill="#86A98F" points="569.451,1222.961 103.731,2110.113 524.381,2110.113 1035.17,2110.113 "/>
<polygon fill="#86A98F" points="938.073,1483.97 570.525,2184.113 902.504,2184.113 1305.621,2184.113 "/>
<g>
	<linearGradient id="SVGID_1_" gradientUnits="userSpaceOnUse" x1="3431.9473" y1="1465.7515" x2="3431.9473" y2="549.1416">
		<stop  offset="0.5001" style="stop-color:#BCB795"/>
		<stop  offset="1" style="stop-color:#5A4A42"/>
	</linearGradient>
	<path fill-rule="evenodd" clip-rule="evenodd" fill="url(#SVGID_1_)" d="M3379.191,827.746c1.633,2.941,4.852,5.975,4.656,8.805
		c-2.341,33.971,8.946,64.684,26.419,93.505c11.35,18.724,26.226,35.168,46.653,46.238c14.981,8.119,30.264,15.762,45.158,24.014
		c3.275,1.814,7.27,4.997,7.896,8.085c5.038,24.85,10.285,49.728,13.365,74.819c1.045,8.515-4.73,17.58-5.957,26.564
		c-1.391,10.186-2.438,20.682-1.328,30.824c1.29,11.794,5.957,23.251,7.435,35.045c0.786,6.271-0.838,13.435-3.545,19.328
		c-5.831,12.699-7.99,25.245-5.854,39.079c0.945,6.124-1.771,13.16-4.316,19.241c-4.814,11.507-6.529,22.201-1.412,34.506
		c5.801,13.95,4.65,28.638-5.18,41.338c-6.678,8.626-9.146,16.972-5.032,27.526c4.054,10.395,6.031,21.406-5.507,29.76
		c-10.859,7.859-8.145,19.292-8.176,29.599c-0.059,18.206-4.148,34.634-21.293,49.728c-5.479-20.976-10.132-40.333-15.748-59.441
		c-1.928-6.554-4.924-13.671-9.77-18.476c-11.721-11.613-18.323-24.766-19.258-40.546c-1.258-21.23-10.619-39.87-19.644-59.003
		c-8.261-17.516-12.861-36.54-18.987-54.924c-4.368-13.109-10.689-24.699-24.908-30.983c-15.208-6.72-14.602-20.812-15.232-32.942
		c-0.68-13.057-4.598-22.974-16.156-30.731c-12.029-8.075-18.348-18.795-16.729-33.602c1.255-11.482,0.566-23.234-0.302-34.8
		c-0.406-5.419-2.211-11.293-5.25-15.883c-6.705-10.119-7.66-20.396-4.157-31.438c6.547-20.646,6.436-40.783-2.879-61.019
		c-2.384-5.176-1.812-12.826,0.363-18.317c9.857-24.887,11.855-49.938,5.273-75.73c-4.112-16.112-0.597-31.363,6.764-46.139
		c11.248-22.579,23.487-44.825,32.922-68.056c5.21-12.829,6.31-27.305,7.915-41.173c2.146-18.535,3.271-37.187,4.316-55.815
		c1.618-28.8,21.193-45.299,45.158-59.22c7.278-4.229,14.788-8.758,20.48-14.606c18.954-19.467,43.262-25.874,70.097-27.356
		c5.564-0.309,11.321-1.156,16.527-2.933c16.533-5.638,32.562-3.987,48.438,1.864c16.812,6.193,20.453,17.756,18.332,33.957
		c-2.371,18.122-12.243,27.011-28.408,34.917c-15.852,7.754-29.194,19.838-44.472,28.78c-20.083,11.752-41.209,21.94-61.441,33.481
		c-11.75,6.703-23.701,13.702-33.509,22.55c-6.156,5.555-8.504,14.785-15.281,21.896c1.247-4.463,1.981-9.122,3.834-13.356
		c6.749-15.446,20.511-25.047,34.515-34.021c14.878-9.532,31.155-17.257,45.48-27.418c12.188-8.646,23.51-18.825,33.3-29.81
		c9.672-10.852,19.256-20.542,34.809-23.256c2.479-0.432,4.769-1.807,7.146-2.747c-0.107-1.081-0.216-2.161-0.325-3.242
		c-7.947,0.7-16.438-0.025-23.745,2.376c-21.214,6.968-42.155,14.759-62.83,23.036c-25.381,10.164-47.68,23.018-50.063,52.871
		c-0.356,4.467-6.937,8.583-10.837,12.699c-3.494,3.684-7.66,6.856-10.837,10.748c-12.377,15.161-16.66,34.463-31.814,48.84
		c-11.072,10.502-3.725,26.099-0.526,39.441c3.933,16.409,5.984,33.429,12.012,49.129c8.229,21.433,3.844,40.717-5.438,60.198
		c-8.883,18.648-6.719,35.235,9.447,50.103c3.109,2.858,3.778,8.98,3.803,13.605c0.04,8.409-2.098,16.86-1.673,25.22
		c0.269,5.282,1.942,12.043,5.763,15.33c10.699,9.204,15.562,20.376,17.741,33.217c0.369,2.17,1.857,4.177,4.163,5.896
		c-2.42-14.745-0.109-30.668-11.203-43.129c-5.68-6.381-7.308-12.598-5.887-20.417c2.769-15.215,2.336-29.392-8.67-42.926
		c-9.39-11.548-4.541-25.714,0.406-37.66c7.072-17.077,5.022-33.737,2.199-50.781c-0.84-5.074-1.701-10.145-2.552-15.218
		C3376.961,828.443,3378.075,828.096,3379.191,827.746z"/>
	
		<ellipse opacity="0.4" fill-rule="evenodd" clip-rule="evenodd" stroke="#000000" stroke-miterlimit="10" cx="3610.35" cy="2279.496" rx="341.741" ry="52.834"/>
	<path fill-rule="evenodd" clip-rule="evenodd" fill="#29332B" d="M3714.215,1249.417c1.35-3.813,4.285-7.137,6.484-10.688
		c1.26,0.402,2.522,0.801,3.783,1.202c4.53,8.864,7.523,18.858,13.881,26.378c18.556,21.955,37.393,43.875,58.12,64.014
		c22.098,21.47,46.644,40.732,69.759,61.311c5.719,5.093,9.647,4.373,13.705-0.944c4.349-5.701,8.648-11.448,12.64-17.369
		c18.547-27.508,37.005-55.07,55.438-82.646c4.055-6.066,6.707-11.849-2.178-16.848c-12.705-7.147-16.705-7.271-23.838,1.253
		c-17.375,20.767-34.619,41.631-51.887,62.476c-6,7.243-11.319,6.8-15.733-1.409c-10.129-18.84-20.274-37.675-30.354-56.54
		c-17.211-32.209-36.229-63.724-50.921-96.908c-10.03-22.66-25.271-38.008-48.513-47.121c-14.41-5.647-27.964-9.654-44.438-0.383
		c-19.809,11.148-41.839,20.011-64.112,25.875c-20.439,5.38-42.139,6.561-63.406,9.268c-1.957-1.649-4.472-2.652-7.419-2.652
		c-6.134,0-12.462,5.45-11.955,11.956c0.097,1.252,0.094,2.473,0.021,3.727c-0.01,0.098-0.017,0.172-0.026,0.255
		c-0.166,0.973-0.383,1.939-0.601,2.902c-0.804,3.539-1.976,6.996-3.151,10.424c-2.469,7.193-5.273,14.192-6.925,21.632
		c-2.071,9.331-5.732,18.944-5.237,28.621c0.172,3.351,0.669,6.682,0.91,10.028c0.11,1.521,0.118,3.037,0.047,4.557
		c-0.109,0.277-0.26,0.602-0.446,0.865c-0.315,0.448-0.569,0.919-0.795,1.398c-1.764,2.05-2.813,4.622-2.486,7.384
		c1.454,12.26,1.192,24.619,0.724,36.932c-0.1,2.659-0.173,5.104-0.441,6.536c-0.469,2.492-1.314,4.908-2.195,7.278
		c0.023-0.061-1.505,3.699-0.671,1.73c-0.727,1.716-1.462,3.428-2.178,5.147c-1.154,2.778-2.21,5.568-3.056,8.456
		c-3.234,11.047-0.116,22.799,0.651,33.936c0.158,2.284,0.128,4.567-0.038,6.847c0.041-1.059-0.426,1.907-0.468,2.075
		c-0.032,0.129-0.934,2.24-0.845,2.168c-2.365,4.591-5.844,8.655-8.883,12.788c-3.459,4.703-6.036,9.649-8.123,15.104
		c-2.159,5.647-2.354,12.177-2.577,18.155c-0.097,2.612-0.148,5.226-0.273,7.837c-0.056,1.155-0.153,2.306-0.259,3.458
		c0.11-1.392-0.357,1.979-0.372,2.051c-0.238,1.159-0.608,2.281-0.988,3.398c0.708-2.08-0.632,0.778-0.794,1.032
		c-0.059,0.09-1.1,1.451-1.281,1.718c-0.901,1.078-1.85,2.119-2.805,3.148c-6.608,7.12-14.611,13.034-20.492,20.795
		c-2.59-7.436-4.944-16.268-7.448-24.578c-1.54-5.111-6.113-8.777-11.528-8.777c-4.865,0-10.71,3.604-11.529,8.777
		c-0.108,0.688-0.25,1.351-0.424,2.026c-0.098,0.377-0.5,1.385-0.687,1.867c-0.884,1.809-1.913,3.551-2.948,5.272
		c-2.625,4.366-5.5,8.574-8.081,12.966c-6.236,10.606-10.249,22.726-4.244,34.352c0.643,1.243,1.524,2.285,2.552,3.14
		c0.799,1.305,1.75,2.502,2.686,3.345c12.754,11.498,15.111,23.752,4.353,36.501c-7.359,8.717-16.271,16.438-25.288,23.743
		c-6.646,5.386-17.228,7.886-21.4,14.306c-8.673,13.351-15.279,28.112-20.909,42.898c-14.624,38.409-28.379,77.108-42.218,115.774
		c-4.126,11.524-7.386,23.319-11.402,36.14c7.434,1.092,12.545,2.058,17.706,2.563c14.999,1.466,30.023,2.724,45.032,4.108
		c23.049,2.128,46.138,6.407,69.129,5.979c42.117-0.784,84.184-4.232,126.258-6.771c35.041-2.116,70.082-4.29,105.084-6.881
		c21.349-1.582,42.58-4.896,63.945-5.825c26.142-1.135,52.369-0.426,78.555-0.848c11.153-0.18,22.282-1.45,33.438-1.791
		c22.327-0.687,44.664-1.072,68.986-1.628c-9.776-21.189-17.209-39.998-26.94-57.708c-12.279-22.349-26.853-43.59-39.676-65.694
		c-17.761-30.612-34.691-61.64-52.202-92.376c-13.788-24.205-25.8-49.608-42.439-71.996c-19.7-26.5-32.444-55.987-48.39-84.08
		c-6.177-10.882-9.715-23.422-17.559-32.993c-4.609-5.623-4.596-8.398-2.535-14.145
		C3691.056,1316.348,3702.404,1282.812,3714.215,1249.417z"/>
	<path fill-rule="evenodd" clip-rule="evenodd" fill="#29332B" d="M3334.483,1207.448c17.614,8.805,33.004,17.806,38.675,36.174
		c1.493,4.84,2.039,7.45-2.223,11.789c-24.611,25.061-48.528,50.718-72.693,76.161c-0.985,1.039-2.058,2.015-3.156,2.952
		c-12.823,10.939-11.941,10.399-1.983,24.722c10.188,14.654,18.148,30.645,27.554,45.796c8.447,13.609,17.671,26.796,26.254,40.335
		c2.988,4.713,8.899,9.418-0.008,14.976c-7.619,4.753-13.548,11.445-22.466,1.336c-20.526-23.267-42.083-45.748-62.396-69.17
		c-10.634-12.263-20.045-25.545-28.873-39.016c-2.451-3.743-3.132-11.239-0.734-14.585c24.028-33.546,48.593-66.769,73.636-99.667
		C3314.521,1228.148,3324.767,1218.23,3334.483,1207.448z"/>
	<path fill-rule="evenodd" clip-rule="evenodd" fill="#333333" d="M3606.291,2199.503c0.007-13.38-0.139-26.759,0.035-40.135
		c0.475-36.629,1.363-73.255,1.577-109.883c0.409-70.081,0.298-140.164,0.831-210.241c0.088-11.533,2.747-23.026,3.474-34.579
		c0.513-8.172,4.794-10.801,12.968-10.977c19.251-0.418,38.52-0.933,57.724-2.172c12.562-0.812,24.991-3.274,37.543-4.38
		c6.243-0.552,12.648,0.713,18.94,0.417c23.488-1.106,46.962-2.494,70.438-3.836c5.99-0.341,9.012,1.061,8.441,7.718
		c-2.139,24.96-6.834,49.124-16.092,72.931c-7.784,20.017-9.604,42.033-17.138,62.164c-13.011,34.775-28.057,68.903-42.885,103.062
		c-19.771,45.548-40.011,90.92-60.324,136.262c-10.128,22.604-20.018,45.36-31.634,67.303
		c-7.467,14.104-17.575,27.046-27.222,40.043c-2.026,2.73-7.827,5.317-10.766,4.49c-2.748-0.771-5.59-6.135-5.663-9.526
		C3606.048,2245.285,3606.284,2222.392,3606.291,2199.503z"/>
	<path fill-rule="evenodd" clip-rule="evenodd" fill="#333333" d="M3590.085,2278.615c-6.801-13.168-14.364-26.047-20.254-39.561
		c-14.896-34.192-28.505-68.877-43.607-102.986c-23.58-53.257-48.24-106.101-71.825-159.356
		c-6.321-14.272-10.461-29.392-15.499-44.15c-13.591-39.808-27.146-79.624-40.65-119.455c-1.005-2.96-1.501-6.069-2.16-8.81
		c18.957-1.549,37.46-3.462,56.019-4.492c30.107-1.671,60.241-2.998,90.382-4.006c15.701-0.523,31.47-0.521,47.136,0.364
		c3.122,0.176,8.011,5.168,8.488,8.403c1.854,12.532,2.636,25.239,3.092,37.903c0.494,13.7,0.543,27.435,0.149,41.139
		c-1.149,40.104-3.47,80.197-3.694,120.3c-0.193,34.357,1.962,68.728,2.848,103.095c0.143,5.564-1.27,11.148-1.36,16.73
		c-0.479,29.857-0.752,59.717-1.128,89.573c-0.233,18.658-0.391,37.32-0.92,55.973c-0.086,3.065-1.914,6.089-2.937,9.131
		C3592.804,2278.479,3591.444,2278.546,3590.085,2278.615z"/>
	<g>
		<path fill-rule="evenodd" clip-rule="evenodd" fill="#FFEFDF" d="M3958.366,1268.704c-7.042-3.125-13.411-5.952-20.896-9.274
			c10.438-19.307,20.677-38.243,31.287-57.869c2.582,0.352,5.688,0.775,9.707,1.323c-0.668-2.43-0.541-5.35-1.805-6.039
			c-17.099-9.303-18.666-24.999-20.561-40.995c-1.139-9.609-4.232-19.005-6.183-28.545c-0.826-4.044-0.973-8.208,1.177-13.479
			c6.825,9.507,13.648,19.016,21.553,30.029c1.693-3.861,2.846-5.876,3.476-8.025c7.577-25.851,22.553-47.116,44.579-64.331
			c8.045-6.287,14.143-3.979,15.984,3.828c2.63,11.14,4.067,22.892,3.449,34.259c-1.508,27.695-11.071,54.206-28.796,75.575
			C3989.93,1210.971,3974.955,1239.726,3958.366,1268.704z"/>
		<path fill-rule="evenodd" clip-rule="evenodd" fill="#FFEFDF" d="M3372.639,1503.66c-10.358-10.928-19.944-21.044-30.927-32.633
			c4.675-3.062,9.017-8.056,13.406-8.091c3.387-0.028,7.159,5.932,10.177,9.645c4.731,5.824,8.788,12.124,13.464,17.991
			c6.761,8.484,14.247,1.595,22.373-0.202c-0.457,2.499-0.633,4.145-1.068,5.729c-3.86,14.045-3.665,14.438,10.988,18.132
			c7.801,1.965,11.228,5.772,9.207,13.909c-4.459,17.955-14.183,31.452-33.374,37.99c-10.537,3.591-16.06,1.551-19.768-8.858
			C3360.158,1537.734,3359.233,1518.604,3372.639,1503.66z"/>
		<path fill-rule="evenodd" clip-rule="evenodd" fill="#FFEFDF" d="M3384.674,814.853c-13.281-14.325-22.328-30.633-22.688-50.064
			c-0.096-5.193,2.496-11.667,6.301-15.354c4.187-4.058,11.193-5.583,16.972-8.209c2.32,4.876,6.656,9.77,6.609,14.628
			c-0.182,19.512-1.719,39.011-2.756,58.517C3387.631,814.532,3386.152,814.691,3384.674,814.853z"/>
		<path fill-rule="evenodd" clip-rule="evenodd" fill="#FFEFDF" d="M3423.759,665.954c5.88-24.846,30.78-34.592,63.745-38.36
			C3481.508,640.994,3452.265,658.768,3423.759,665.954z"/>
		<path fill-rule="evenodd" clip-rule="evenodd" d="M3584.965,907.5c-29.396,0.636-59.122-2.272-88.875-4.658
			c-3.562-0.286-7.301-2.581-10.113-4.854c-0.965-0.779,0.04-5.946,1.211-6.339c3.594-1.205,8.136-2.304,11.547-1.266
			c33.596,10.231,68.023,12.24,102.885,9.375c16.429-1.35,32.852-3.501,38.012-22.364c0.394-1.438,5.143-1.839,7.866-2.722
			c0.642,2.864,2.891,6.731,1.673,8.432c-10.835,15.115-26.909,22.012-45.863,23.498
			C3597.209,907.08,3591.096,907.366,3584.965,907.5z"/>
	</g>
	<linearGradient id="SVGID_2_" gradientUnits="userSpaceOnUse" x1="3711.9697" y1="1111.6558" x2="3711.9697" y2="555.8477">
		<stop  offset="0.5001" style="stop-color:#BCB795"/>
		<stop  offset="1" style="stop-color:#5A4A42"/>
	</linearGradient>
	<path fill-rule="evenodd" clip-rule="evenodd" fill="url(#SVGID_2_)" d="M3706.382,937.497c9.421,11.969,5.798,23.957,1.183,35.462
		c-5.834,14.542-7.741,28.493,1.673,42.376c4.701,6.935,5.032,13.936,1.986,22.031c-5.283,14.04-1.795,26.871,9.781,38.023
		c1.043-0.785,2.413-1.345,2.398-1.872c-0.36-13.233-0.788-26.467-1.39-39.692c-0.236-5.221-0.275-10.559-1.514-15.605
		c-3.711-15.12-1.871-29.294,1.886-44.587c3.451-14.058,1.63-30.407-2.486-44.579c-3.78-13.017-1.489-24.256,1.791-36.068
		c3.877-13.967,9.638-27.58,12.236-41.722c2.88-15.67,1.323-31.97-7.071-46.009c-12.164-20.338-17.987-41.438-16.039-64.639
		c3.353-39.917-16.427-70.359-45.828-96.944c-13.738-12.424-30.221-18.019-48.836-19.446c-8.192-0.628-17.461,0.358-24.209-2.976
		c-6.271-3.098-13.643-10.788-13.955-16.757c-1.572-30.001,21.298-52.078,56.501-48.204c28.927,3.183,54.09,13.237,77.341,27.062
		c16.787,9.979,31.25,23.406,48.826,33.035c6.577,3.602,12.212,12.723,13.471,20.045c4.734,27.543,21.138,49.855,33.976,73.969
		c17.042,32.006,30.706,65.149,24.314,102.496c-1.221,7.125,1.744,15.294,4.345,22.487c6.551,18.11,12.26,35.771,7.517,55.568
		c-2.571,10.736-0.73,22.438-0.529,33.699c0.393,22.025-6.967,41.413-22.372,58.05c-10.853,11.719-17.668,25.059-19.927,40.432
		c-3.413,23.222-21.28,37.25-39.534,49.44c-20.051,13.39-42.03,24.439-63.896,35.224c-18.136,8.947-35.333,0.401-51.895-6.115
		c-26.904-10.586-44.126-27.645-42.146-57.223c0.946-14.118,8.149-24.377,19.334-33.103c21.064-16.436,42.326-32.686,62.663-49.882
		C3693.862,954.807,3699.461,945.782,3706.382,937.497z"/>
	<path opacity="0.3" fill-rule="evenodd" clip-rule="evenodd" fill="#27221E" d="M3717.169,1024.169
		c-1.714-3.604-4.009-6.891-6.869-9.425c1.372-7.959,1.069-15.993-2.298-23.813c-0.26-0.603-0.58-1.134-0.928-1.63
		c2.791-3.674,5.579-7.349,8.348-11.036c2.484-3.308,1.971-8.703,0-12.068c-1.245-2.125-2.976-3.654-4.973-4.608
		c1.791-2.191,3.47-4.454,4.973-6.82c3.497-5.506,1.174-13.157-4.289-16.357c-5.778-3.385-12.869-1.2-16.356,4.289
		c-0.344,0.541-0.713,1.064-1.085,1.586c-0.092,0.11-0.18,0.222-0.271,0.332c-1.419,1.697-2.945,3.306-4.493,4.884
		c-3.673,3.746-7.578,7.263-11.505,10.738c-9.746,8.626-19.787,16.915-29.57,25.5c-19.438,17.054-41.062,36.153-50.325,60.995
		c-3.873,10.385-3.335,21.639,1.598,31.53c5.515,11.056,17.227,18.356,28.214,23.011c4.096,1.736,8.689,1.766,12.229-0.162
		c0.966,2.363,2.36,4.616,4.205,6.76c4.765,5.534,12.949,8.008,19.812,9.448c4.975,1.043,10.297-0.688,13.094-4.769
		c2.754,2.984,7.031,4.607,11.812,3.531c4.962-1.116,9.179-3.169,12.838-5.882c1.91,0.249,3.863,0.071,5.639-0.565
		c4.677-5.883,13.007-19.178,12.693-30.309c1.434-17.57-2.365-23.96-4.933-41.693"/>
	<path opacity="0.3" fill-rule="evenodd" clip-rule="evenodd" fill="#27221E" d="M3532.59,1209.36
		c0.03,0.005,0.061,0.002,0.092,0.007c0.039-1.236,0.101-2.474,0.157-3.709C3532.741,1206.892,3532.658,1208.125,3532.59,1209.36z"
		/>
	<path opacity="0.3" fill-rule="evenodd" clip-rule="evenodd" fill="#27221E" d="M3528.537,1173.695
		c1.512-13.053,2.902-27.02-1.785-39.6c-1.445-3.878,3.042-6.03,5.979-4.484c-0.884-4.104-1.696-8.22-2.483-12.343
		c1.262-2.552,1.649-5.548,0.878-8.47c-1.829-6.927-3.73-13.833-5.71-20.717c-0.062-10.755-0.232-21.609-1.265-32.257
		c-0.006-0.657-0.017-1.314-0.019-1.971c-0.005-1.29-0.227-2.533-0.619-3.704c-2.33-18.062-7.574-35.365-19.512-50.389
		c-10.366-13.047-24.929-20.661-38.521-29.727c-1.207-1.681-2.405-3.369-3.577-5.073c-2.624-3.813-6.794-6.118-11.12-5.884
		c-2.575-2.165-5.082-4.408-7.533-6.71c-0.213-0.201-0.421-0.408-0.633-0.61c-1.799-2.34-3.506-4.786-5.448-7.819
		c-1.655-2.584-4.104-4.428-6.834-5.311c-0.221-0.264-0.445-0.523-0.665-0.787c-0.767-0.921-1.513-1.859-2.259-2.797
		c-0.134-0.167-0.245-0.308-0.344-0.431c-0.112-0.157-0.338-0.463-0.743-1.002c-5.736-7.645-10.75-15.785-15.262-24.202
		c-0.986-1.841-1.953-3.692-2.899-5.554c-0.532-1.043-1.039-2.097-1.543-3.151c-0.055-0.114-0.709-1.585-0.894-1.968
		c-1.419-3.514-2.483-7.148-3.238-10.862c-0.107-0.552-0.197-1.106-0.289-1.661c0.161,0.82-0.238-2.291-0.244-2.355
		c-0.242-2.762-0.266-5.541-0.241-8.31c0.048-5.351,0.668-10.692,1.117-16.018c1.047-12.4,0.154-24.175-5.235-35.548
		c-2.791-5.888-11.105-7.366-16.357-4.29c-5.979,3.503-7.08,10.469-4.289,16.358c4.305,9.082,2.1,21.249,1.228,32.197
		c-0.892,11.205-0.278,22.74,3.239,33.482c3.344,10.21,8.8,20.049,14.344,29.209c5.665,9.358,12.184,18.225,19.299,26.53
		c3.251,3.793,6.707,7.392,10.305,10.848c9.971,9.581,21.732,17.516,30.583,28.232c19.772,23.938,29.649,59.75,38.118,89.002
		c12.192,42.125,19.562,85.459,24.298,129.002c1.903-4.903,4.118-9.641,6.727-14.095
		C3526.041,1191.515,3527.504,1182.615,3528.537,1173.695z"/>
	<path opacity="0.3" fill-rule="evenodd" clip-rule="evenodd" fill="#27221E" d="M3536.818,1173.343
		c-0.551,4.634-1.206,9.267-1.846,13.903c0.088-0.091,0.172-0.185,0.26-0.274c0.97-0.994,2.43-1.285,3.773-1.027
		C3538.367,1181.729,3537.643,1177.527,3536.818,1173.343z"/>
	<path opacity="0.4" fill-rule="evenodd" clip-rule="evenodd" d="M3707.395,1272.228c-4.979,13.4-12.679,25.621-20.058,37.968
		c-1.046,0.487-2.01,1.296-2.774,2.504c-12.481,19.702-30.429,35.339-42.048,55.65c-3.591,6.278,4.076,12.006,9.06,9.083
		c0.114,0.007,0.227,0.018,0.346,0.018c7.103,0.016,14.553,0.06,21.6,1.604c5.743,1.733,11.153,4.56,15.784,8.419
		c1.058,0.882,2.192,1.366,3.323,1.547c4.361,3.909,8.167,8.516,11.738,13.072c3.604,4.601,9.976-1.866,6.412-6.413
		c-3.158-4.03-6.508-7.994-10.198-11.566c0.627-1.964,0.207-4.173-1.947-5.969c-4.582-3.818-9.613-6.932-14.962-9.272
		c0.72-0.239,1.442-0.468,2.157-0.727c7.584-2.751,4.784-14.521-2.484-13.004c1.914-2.767,3.626-5.688,5.162-8.699
		c8.897-13.319,16.352-27.597,23.525-41.924c1.631-3.257,0.459-6.344-1.707-8.208c3.734-6.675,7.153-13.473,9.791-20.574
		C3723.083,1267.743,3710.329,1264.327,3707.395,1272.228z"/>
	<path opacity="0.4" fill-rule="evenodd" clip-rule="evenodd" d="M3380.029,1246.948c-0.804-7.476-5.779-12.83-12.815-14.646
		c-1.688-2.862-3.745-5.478-6.285-7.708c-0.677-2.42-1.555-4.784-2.677-7.061c-4.93-9.989-15.329-13.167-25.66-11.614
		c-1.162,0.175-2.205,0.626-3.126,1.258c-8.104-2.166-17.099,7.163-11.69,15.119c3.795,5.581,7.502,11.218,10.764,17.13
		c2.898,5.256,4.448,8.883,5.779,15.092c0.69,3.216,0.562,8.802-0.236,12.656c-1.399,6.753-4.34,12.92-7.649,18.919
		c-0.613,1.111-1.013,2.298-1.212,3.503c-15.361,14.542-30.637,29.178-47.578,41.863c-1.604,0.82-3.195,1.658-4.762,2.541
		c-4.886,2.168-9.618,4.656-14.04,7.792c-3.524,2.499-2.505,8.451,2.288,8.45c1.365,0,2.729-0.004,4.094-0.012
		c13.379,5.644,27.817,12.929,36.512,24.973c3.389,4.694,11.262,0.174,7.831-4.578c-4.271-5.916-9.524-10.797-15.337-14.966
		c2.656-1.656,3.668-5.875,0.106-7.683c-0.51-0.258-1.009-0.536-1.513-0.804c0.206-0.272,0.388-0.562,0.535-0.868
		c0.696-0.207,1.354-0.559,1.896-1.101c1.747-1.746,1.747-4.666,0-6.412c-0.326-0.326-0.653-0.653-0.979-0.979
		c4.123-2.097,8.112-4.583,11.954-7.276c1.408-0.618,2.804-1.26,4.185-1.937c1.298-0.637,1.97-1.664,2.177-2.784
		c4.293-3.355,8.374-6.857,12.22-10.218c6.17-5.395,12.11-11.094,17.818-17.023c1.956-1.524,3.648-3.403,5.145-5.484
		c5.678-6.21,11.104-12.648,16.208-19.294c1.229-1.599,1.091-3.18,0.246-4.38c3.929,0.305,7.396-1.777,9.686-5.075
		C3377.33,1259.42,3380.697,1253.158,3380.029,1246.948z M3320.406,1307.381c-0.22,0.144-0.438,0.303-0.649,0.494
		c-2.111,1.907-4.334,3.626-6.625,5.228c5.101-4.713,10.144-9.493,15.188-14.271c0.208,0.195,0.416,0.387,0.63,0.559
		C3326.141,1302.104,3323.3,1304.78,3320.406,1307.381z"/>
	<path opacity="0.4" fill-rule="evenodd" clip-rule="evenodd" d="M3871.545,1389.496c-11.535-14.029-24.22-27.029-36.726-40.18
		c-12.543-13.188-24.288-26.779-35.423-41.17c-20.539-26.548-48.92-45.749-69.359-72.318c-3.514-4.565-11.398-0.059-7.831,4.579
		c2.122,2.758,4.343,5.425,6.611,8.047c-3.269,0.884-5.05,6.038-1.275,8.419c10.216,6.445,12.353,18.951,18.757,28.408
		c3.786,5.59,10.419,9.752,15.773,13.729c5.764,4.282,11.513,8.496,16.567,13.625c19.34,19.627,34.068,44.176,57.73,59.25
		c2.452,1.562,4.806,0.419,5.957-1.511c7.834,8.301,15.55,16.711,22.806,25.534
		C3868.85,1400.431,3875.228,1393.975,3871.545,1389.496z M3786.925,1308.16c0.117-0.21,0.221-0.428,0.306-0.652
		c1.675,1.951,3.314,3.935,4.91,5.962c1.057,1.342,2.117,2.675,3.179,4.006C3792.59,1314.292,3789.806,1311.172,3786.925,1308.16z"
		/>
	<path opacity="0.4" fill-rule="evenodd" clip-rule="evenodd" d="M3815.164,1775.249c-1.818,0.005-3.635,0.027-5.451,0.06
		c-34.365,0.418-68.551,4.152-102.743,7.624c-1.808-1.668-4.142-2.747-6.816-2.736c-20.686,0.084-41.13,3.313-61.481,6.819
		c-5.411-0.528-10.903-0.634-16.43-0.636c-3.018,0-5.447,1.148-7.209,2.913c-10.949,0.351-21.9,0.655-32.841,1.057
		c-6.537,0.241-13.073,0.483-19.61,0.726c-0.208-0.028-0.381-0.052-0.496-0.068c-1.259-0.176-2.518-0.354-3.775-0.534
		c-1.74-0.249-3.473-0.223-5.092,0.1c-1.914-0.729-3.849-1.399-5.798-2.018c-1.615-1.032-3.523-1.667-5.564-1.763
		c-0.207-0.01-0.414-0.015-0.62-0.023c-13.915-3.639-28.475-5.043-42.793-6.258c-20.098-1.706-38.602-2.999-57.869-9.802
		c-0.96-0.339-1.91-0.703-2.861-1.067c-0.068-0.026-1.429-0.583-1.773-0.716c-1.576-0.687-3.133-1.42-4.674-2.184
		c-3.53-1.749-6.919-3.771-10.177-5.982c-0.721-0.489-1.425-1.002-2.128-1.516c-0.092-0.067-0.158-0.115-0.232-0.168
		c-0.103-0.085-0.226-0.184-0.394-0.318c-1.312-1.051-2.566-2.17-3.8-3.311c-1.211-1.118-2.359-2.301-3.486-3.503
		c-0.556-0.594-1.091-1.208-1.625-1.823c-0.203-0.232-1.2-1.475-1.444-1.759c-1.743-2.343-3.306-4.815-4.733-7.361
		c-0.785-1.403-1.497-2.847-2.184-4.301c-0.094-0.198-0.424-0.955-0.586-1.321c-0.291-0.736-0.573-1.478-0.847-2.223
		c-1.146-3.123-2.034-6.335-2.785-9.574c-0.386-1.666-0.7-3.349-0.991-5.033c-0.097-0.565-0.178-1.133-0.261-1.7
		c0.058,0.279-0.25-2.154-0.287-2.52c-0.69-6.821-0.652-13.704-0.239-20.539c0.216-3.574,0.588-7.136,1.031-10.687
		c0.024-0.167,0.054-0.378,0.092-0.655c0.149-1.04,0.314-2.077,0.479-3.114c0.335-2.116,0.719-4.224,1.116-6.328
		c3.916-20.736,10.759-40.955,18.049-60.714c12.943-35.084,29.073-68.852,44.438-102.924c13.251-12.428,24.124-27.188,32.38-43.41
		c9.531-18.727,15.726-38.96,21.03-59.222c1.783-6.816,3.363-13.682,5.201-20.481c0.584-0.74,1.036-1.671,1.288-2.82
		c4.017-18.307,17.073-32.362,32.443-42.316c7.684-4.976,15.999-8.903,24.671-11.807c8.531-2.855,17.542-1.668,26.374-2.598
		c7.691-0.811,15.604-3.642,20.368-10.043c4.451-5.98-1.219-12.257-6.846-13.975c-5.398-1.647-11.662-1.405-17.232-1.102
		c-3.483,0.189-7.234,0.423-10.828,1.103c-2.424,0.271-4.952,0.487-7.51,0.565c-0.061-0.004-0.119-0.013-0.181-0.015
		c-3.127-0.139-6.245-0.345-9.36-0.657c-0.399-0.042-0.797-0.09-1.194-0.136c0.333,0.032-0.771-0.115-1.414-0.202
		c-4.921-1.148-9.413-3.384-12.802-7.377c-2.238-2.638-3.615-6.139-4.64-9.675c-0.271-3.086-0.315-6.192-0.247-9.286
		c0.178-7.969,1.031-13.689,2.061-20.143c1.151-7.228,2.562-14.412,3.77-21.631c3.052-18.259,1.986-36.02-2.223-54.069
		c-4.483-19.228-11.72-37.64-14.716-57.233c-0.852-5.562-7.747-8.555-12.679-7.198c-5.884,1.618-8.046,7.129-7.198,12.677
		c2.249,14.706,6.827,28.789,10.914,43.018c-1.062,2.118-1.413,4.643-1.083,7.199c0.001,0.005,0.001,0.009,0.002,0.015
		c0.065,0.595,0.103,1.193,0.141,1.791c0.079,1.268,0.079,2.538,0.062,3.805c-0.037,2.758-0.298,5.51-0.631,8.248
		c0.04-0.465-0.451,2.928-0.558,3.569c-0.272,1.618-0.577,3.229-0.891,4.84c-0.719,3.704-1.543,7.387-2.39,11.063
		c-3.535,15.344-7.688,30.548-10.411,46.067c-2.632,14.999-4.34,30.722-0.578,45.69c0.723,2.873,1.699,5.586,2.899,8.137
		c-0.584,0.674-1.043,1.505-1.32,2.513c-0.233,0.849-0.254,1.791-0.104,2.724c-3.369,2.019-4.936,5.94-4.711,9.721
		c-4.425,4.876-6.562,11.76-5.077,19.506c0.359,1.88,1.793,3.374,3.554,4.193c-2.059,3.876-3.896,7.88-5.554,11.943
		c-7.175,17.597-10.314,36.64-15.646,54.824c-5.646,19.249-12.31,36.578-23.227,53.47c-0.168,0.139-0.334,0.288-0.493,0.461
		c-0.964,1.044-1.896,2.111-2.809,3.192c-1.063-0.259-2.188-0.366-3.315-0.31c-0.25-3.464-1.076-7.005-2.448-10.583
		c-4.113-10.724-11.627-20.013-14.767-31.109c-1.59-5.618-10.342-3.228-8.746,2.411c0.417,1.471,0.91,2.911,1.452,4.332
		c-3.351-0.449-7.044,2.986-4.704,6.645c0.184,0.288,0.354,0.579,0.527,0.87c-1.977,3.253-3.581,6.707-5.053,10.222
		c-0.361,0.563-0.72,1.124-1.072,1.683c-3.609,5.728-7.293,11.408-10.532,17.359c-4.882,8.969-10.083,21.126-5.493,31.048
		c0.062,1.776,0.938,2.944,2.148,3.517c1.463,1.707,3.779,2.52,5.893,1.235c0.641-0.389,1.256-0.815,1.859-1.261
		c1.16,3.308,2.85,6.552,4.303,9.528c0.328,0.672,0.811,1.151,1.376,1.49c-5.559,10.942-10.954,21.955-16.229,33.022
		c-9.517,10.681-23.893,16.039-33.904,26.774c-1.074,1.151-1.429,2.443-1.279,3.637c-2.572-0.318-4.341,1.57-4.772,3.709
		c-0.32,0.281-0.607,0.61-0.841,0.991c-6.104,9.943-11.871,22.761-12.211,35.037c-5.371,7.423-10.432,15.074-14.996,23.086
		c-1.166,2.044-0.407,4.422,1.144,5.79c-10.757,13.774-19.673,29.222-19.901,47.203c-0.037,3.031,1.352,5.59,3.423,7.401
		c-13.778,19.944-33.892,38.758-34.34,64.326c-0.103,5.834,3.806,9.103,8.246,9.816c1.387,1.823,3.328,3.234,5.504,3.833
		c4.195,1.154,8.108-0.436,10.606-3.482c1.163,2.952,3.512,5.424,6.707,5.955c11.919,1.979,25.176,4.449,37.898,3.924
		c7.92,7.158,20.669,7.968,30.919,8.507c-2.823,6.347,0.296,15.56,9.36,15.557c27.94-0.01,55.872-0.529,83.798-1.301
		c1.444,0.811,3.188,1.297,5.244,1.301c3.067,0.005,6.132,0.051,9.196,0.112c7.144,1.631,14.106,4.243,20.708,7.23
		c9.535,4.314,18.815,9.652,27.203,16.008c7.122,6.843,13.63,14.334,19.237,21.735c3.414,4.507,6.58,9.198,9.536,14.017
		c1.06,3.114,2.054,6.25,2.908,9.435c2.901,10.805,4.691,22.09,6.501,33.183c-0.305,0.748-0.481,1.602-0.48,2.572
		c0.041,44.725,3.498,89.359,3.704,134.081c0.203,44.485,7.335,88.573,7.426,133.042c0.003,1.215,0.28,2.25,0.744,3.119
		c-0.577,29.05-1.146,58.102-1.156,87.16c-0.003,7.444,11.54,7.444,11.543,0c0.011-28.927,0.577-57.881,1.155-86.842
		c0.568-0.928,0.909-2.07,0.906-3.436c-0.014-6.384-0.191-12.759-0.464-19.13c1.288-68.238,1.853-136.48-5.446-204.434
		c-0.225-2.101-0.469-4.201-0.711-6.301c1.871-0.769,3.322-2.466,3.322-5.104v-25.623c2.859-1.926,4.615-5.272,4.948-9.004
		c0.518-5.792,0.099-11.586-1.005-17.307c0.883-10.234,2.572-20.371,4.459-30.486c1.289-3.506,2.704-6.967,4.273-10.368
		c3.625-7.854,8.009-15.32,12.828-22.501c5.809-5.411,11.639-10.795,17.64-15.977c4.227-1.526,8.453-3.054,12.681-4.574
		c48.378-7.19,96.233-18.767,145.278-20.258c1.556-0.047,3.112-0.078,4.668-0.099c1.627-0.019,3.253-0.035,4.88-0.037
		C3828.986,1796.651,3828.99,1775.226,3815.164,1775.249z M3446.548,1461.794c0.282,0.571,0.552,1.145,0.813,1.719
		c-0.51,0.404-0.928,0.929-1.201,1.578c-0.361-2.147-0.747-4.292-1.213-6.413C3445.494,1459.713,3446.031,1460.75,3446.548,1461.794
		z M3438.737,1476.197c0.15,0.799,0.312,1.596,0.482,2.389c-0.323,0.279-0.645,0.561-0.967,0.844
		c-0.03-0.045-0.062-0.089-0.095-0.132C3438.412,1478.263,3438.611,1477.227,3438.737,1476.197z M3435.569,1458.598
		c0.144,0.593,0.282,1.187,0.412,1.784c-0.418-0.133-0.837-0.262-1.261-0.382
		C3435.006,1459.534,3435.291,1459.067,3435.569,1458.598z M3429.557,1468.043c0.588,0.12,1.176,0.254,1.761,0.398
		c-0.087,0.068-0.175,0.127-0.258,0.203c-2.066,1.863-3.956,3.868-5.702,5.982
		C3426.699,1472.418,3428.121,1470.231,3429.557,1468.043z M3376.941,1729.596c-0.152-0.574-0.278-1.154-0.4-1.734
		c-0.029-0.396-0.049-0.792-0.071-1.189c0.331,1.619,0.687,3.236,1.093,4.846c0.189,0.744,0.391,1.483,0.6,2.22
		C3377.729,1732.364,3377.313,1730.987,3376.941,1729.596z"/>
	<path opacity="0.4" fill-rule="evenodd" clip-rule="evenodd" d="M3758.283,1146.594c-6.781-6.643-14.647-11.424-24.116-12.933
		c-1.032-0.165-2.062-0.165-3.037-0.005c-6.995-6.76-18.173-8.439-27.527-8.87c-11.329-0.523-23.886,0.894-34.196,5.871
		c-2.792,1.347-3.76,4.162-3.348,6.83c-1.343,0.365-2.683,0.744-4.02,1.136c-2.139-0.074-4.275-0.159-6.409-0.267
		c-3.453-0.174-5.575,1.767-6.385,4.253c-12.355,3.959-25.009,8.012-38.137,6.877c-9.009-0.779-8.935,13.244,0,14.017
		c18.279,1.58,35.133-5.524,52.315-10.825c22.402,0.669,44.923-0.646,67.033-4.266c0.789-0.129,1.486-0.423,2.102-0.828
		c6.214,1.385,11.123,4.325,15.812,8.918C3754.829,1162.832,3764.747,1152.927,3758.283,1146.594z"/>
	<path fill-rule="evenodd" clip-rule="evenodd" fill="#FFEFDF" d="M3676.347,1124.798c-43.677,28.455-91.546,36.12-143.172,35.571
		c-5.84-18.429-16.175-36.157-4.345-56.99c4.994-8.794,5.187-19.963,7.811-31.109c17.805-0.854,37.971-1.821,59.669-2.862
		C3602.877,1110.041,3643.785,1110.377,3676.347,1124.798z"/>
	<path fill-rule="evenodd" clip-rule="evenodd" fill="#DBDADA" d="M3969.17,1129.776c9.096-22.966,20.09-41.652,37.737-56.359
		c1.688-1.406,3.053-3.262,4.946-4.317c7.551-4.202,14.332-11.476,24.524-7.278c10.112,4.163,11.444,12.788,12.563,21.945
		c4.709,38.484-4.451,74.683-28.752,104.964c-18.002,22.426-33.969,45.336-47.084,70.31c-11.422,21.75-22.509,43.697-35.074,64.868
		c-9.057,15.26-20.312,29.382-30.557,44.03c-6.573,9.404-13.01,18.893-19.655,28.252c-5.404,7.61-11.212,8.022-19.927,3.046
		c-35.418-20.221-60.832-50-87.759-78.341c-14.942-15.731-29.171-32.049-43.911-47.95c-2.367-2.553-5.726-4.303-9.551-7.102
		c-4.345,11.832-8.193,22.822-12.416,33.688c-5.141,13.224-10.42,26.409-15.968,39.488c-5.156,12.155-0.038,23.001,4.973,33.555
		c11.423,24.061,22.897,48.13,35.492,71.665c17.645,32.977,35.612,65.836,54.743,98.075c25.674,43.263,53.062,85.641,78.795,128.875
		c15.043,25.274,28.401,51.427,42.285,77.293c3.706,6.904,6.925,14.084,9.704,21.358c3.625,9.493,1.214,11.697-9.697,11.82
		c-24.143,0.269-48.276,1.088-72.417,1.531c-5.662,0.104-8.012,1.658-9.546,7.568c-11.234,43.333-21.152,87.108-35.577,129.531
		c-14.756,43.387-32.77,85.952-51.871,127.879c-28.873,63.367-59.559,126.027-90.279,188.642
		c-9.187,18.727-21.047,36.313-31.749,54.384c-0.886,1.498-2.094,2.944-3.485,4.048c-14.327,11.361-23.398,10.939-33.493-3.805
		c-8.044-11.747-14.131-24.728-20.38-37.463c-7.672-15.635-14.934-31.464-21.803-47.423
		c-17.525-40.714-34.566-81.612-52.124-122.318c-13.742-31.859-28.546-63.332-41.778-95.369
		c-9.345-22.63-16.841-45.922-25.183-68.913c-7.489-20.641-15.205-41.211-22.451-61.925c-5.251-15.014-10.151-30.145-14.726-45.349
		c-2.619-8.712-6.764-13.041-17.774-13.254c-15.282-0.295-30.475-3.656-45.757-5.295c-8.583-0.92-17.494-2.361-25.848-1.132
		c-10.526,1.546-12.712-2.847-10.77-10.324c4.08-15.706,8.002-31.572,13.917-46.716c17.517-44.861,35.29-89.659,54.381-133.948
		c7.958-18.461,8.954-35.66,3.721-54.884c-3.068-11.277,0.397-24.063,0.575-36.175c0.063-4.26,0.76-9.903-1.726-12.54
		c-7.505-7.968-16.368-14.831-24.819-22.005c-7.235-6.142-15.414-11.476-21.828-18.274c-26.812-28.418-56.56-54.647-76.473-88.302
		c-4.16-7.03-9.964-13.351-13.125-20.705c-1.582-3.677-0.417-9.881,2.064-13.347c18.22-25.438,37.045-50.5,55.762-75.626
		c13.06-17.534,26.55-34.795,39.301-52.522c12.458-17.32,9.315-44.339-5.925-59.958c-6.009-6.157-13.875-12.111-16.403-19.497
		c-3.038-8.881-2.355-19.285-1.378-28.86c1.731-16.964,3.647-33.142-8.166-48.564c-4.12-5.38-4.499-14.881-3.187-21.949
		c4.055-21.861,5.15-42.85-3.318-64.457c-3.424-8.736-1.456-20.285,1.052-29.874c5.612-21.456,7.496-42.192,2.454-64.343
		c-2.597-11.404,1.727-24.97,5.785-36.698c4.817-13.921,12.343-27.086,19.343-40.279c20.095-37.87,29.602-78.023,30.309-120.093
		c0.394-23.555,6.807-45.425,22.196-64.131c5.807-7.058,14.604-12.018,22.217-17.728c14.601-10.951,28.803-22.473,44.222-32.321
		c8.263-5.275,18.411-8.825,28.253-10.91c15.314-3.243,31.753-2.67,46.531-7.133c26.83-8.104,49.431-1.814,71.501,12.066
		c3.222,2.027,9.79,2.571,13.072,0.873c28.396-14.687,57.269-11.766,85.518-1.363c14.825,5.458,28.404,14.128,42.006,22.151
		c16.663,9.83,33.78,19.38,48.719,31.229c8.994,7.133,17.775,17.659,20.292,28.006c3.767,15.483,10.756,28.991,18.428,42.604
		c12.082,21.437,25.332,42.388,35.868,64.469c8.665,18.156,10.496,38.099,7.461,57.991c-2.282,14.955-1.538,28.964,6.181,42.988
		c9.773,17.759,10.149,36.817,6.52,56.616c-3.541,19.303-3.601,39.145-6.467,58.585c-1.079,7.321-3.98,15.676-9.113,20.973
		c-15.434,15.929-27.327,32.957-34.072,53.923c-8.694,27.018-30.436,44.529-56.19,57.81c-18.079,9.321-36.371,18.279-56.386,28.31
		c8.677,2.865,15.448,5.881,22.585,7.321c30.501,6.152,46.546,26.896,59.312,50.763c15.145,28.311,29.478,57,44.647,85.298
		c12.947,24.146,26.584,47.971,40.604,73.18c7.799-8.78,13.828-15.533,19.818-22.319c14.83-16.799,31.03-32.735,44.056-50.679
		c12.151-16.743,21.091-35.542,31.004-53.646c1.573-2.871,2.134-7.31,0.947-10.24c-9.099-22.445-3.605-47.977-17.252-69.539
		c-2.439-3.855-2.308-9.694-1.715-14.438c0.34-2.724,3.599-6.595,6.261-7.2c2.759-0.624,7.547,1.234,9.398,3.48
		C3960.807,1115.503,3964.115,1121.814,3969.17,1129.776z M3720.697,1238.729c1.262,0.403,2.523,0.801,3.785,1.203
		c4.529,8.863,7.523,18.857,13.881,26.378c18.556,21.955,37.393,43.875,58.12,64.014c22.098,21.471,46.644,40.732,69.759,61.311
		c5.719,5.094,9.647,4.374,13.705-0.943c4.349-5.701,8.648-11.448,12.64-17.369c18.547-27.508,37.005-55.071,55.438-82.646
		c4.055-6.066,6.707-11.849-2.178-16.847c-12.705-7.147-16.705-7.27-23.838,1.253c-17.375,20.767-34.619,41.632-51.887,62.476
		c-6,7.242-11.319,6.801-15.733-1.409c-10.129-18.839-20.274-37.675-30.354-56.539c-17.211-32.21-36.229-63.725-50.921-96.908
		c-10.03-22.66-25.271-38.009-48.513-47.121c-14.41-5.648-27.964-9.655-44.439-0.383c-19.809,11.147-41.838,20.01-64.112,25.874
		c-22.307,5.872-46.115,6.736-69.224,10.047c-2.908,0.417-7.657,1.967-8.02,3.655c-3.98,18.54-7.365,37.195-10.691,55.854
		c-2.022,11.351-3.908,22.734-5.359,34.16c-0.68,5.342-1.484,11.159,0.036,16.161c3.72,12.237,5.062,23.648-0.829,35.977
		c-4.851,10.155-9.498,21.442-9.616,32.27c-0.171,15.653-3.993,29.757-10.3,43.846c-2.423,5.413-4.172,11.39-4.619,17.218
		c-1.928,25.147-11.359,47.055-29.953,65.556c-4.807,4.784-8.566,10.483-12.809,15.764c-1.02-0.333-2.039-0.664-3.058-0.997
		c-1.039-17.517,9.432-37.313-10.982-51.735c-9.337,20.567-18.857,40.825-27.472,61.415c-1.061,2.535,1.752,7.761,4.41,10.155
		c12.754,11.498,15.111,23.752,4.353,36.5c-7.359,8.718-16.271,16.438-25.289,23.744c-6.646,5.385-17.228,7.886-21.399,14.305
		c-8.674,13.352-15.279,28.112-20.909,42.898c-14.624,38.41-28.379,77.108-42.218,115.774c-4.127,11.525-7.387,23.319-11.403,36.141
		c7.434,1.092,12.544,2.059,17.706,2.562c15,1.467,30.024,2.725,45.033,4.108c23.049,2.129,46.138,6.408,69.129,5.979
		c42.116-0.784,84.184-4.232,126.257-6.771c35.041-2.116,70.082-4.29,105.084-6.881c21.349-1.581,42.581-4.896,63.945-5.825
		c26.143-1.135,52.37-0.425,78.556-0.847c11.153-0.18,22.282-1.451,33.438-1.791c22.327-0.688,44.664-1.073,68.986-1.628
		c-9.776-21.189-17.209-39.998-26.94-57.708c-12.279-22.35-26.853-43.59-39.676-65.693c-17.761-30.613-34.691-61.641-52.202-92.376
		c-13.788-24.205-25.8-49.609-42.439-71.997c-19.701-26.5-32.445-55.987-48.391-84.08c-6.176-10.882-9.714-23.422-17.558-32.992
		c-4.61-5.624-4.596-8.399-2.536-14.146c11.965-33.344,23.314-66.881,35.125-100.274
		C3715.564,1245.604,3718.5,1242.281,3720.697,1238.729z M3379.19,827.746c-1.115,0.35-2.23,0.697-3.345,1.045
		c0.852,5.073,1.712,10.145,2.553,15.218c2.823,17.045,4.873,33.705-2.199,50.782c-4.947,11.945-9.796,26.112-0.406,37.66
		c11.006,13.533,11.438,27.71,8.67,42.925c-1.422,7.819,0.207,14.037,5.887,20.417c11.094,12.46,8.782,28.384,11.203,43.129
		c-2.307-1.72-3.795-3.726-4.163-5.896c-2.179-12.84-7.042-24.012-17.741-33.217c-3.82-3.286-5.494-10.047-5.764-15.329
		c-0.425-8.36,1.714-16.811,1.673-25.221c-0.023-4.624-0.692-10.746-3.803-13.604c-16.165-14.868-18.329-31.456-9.446-50.104
		c9.281-19.481,13.665-38.765,5.437-60.198c-6.027-15.699-8.078-32.719-12.011-49.128c-3.199-13.343-10.546-28.939,0.525-39.442
		c15.155-14.376,19.438-33.679,31.815-48.84c3.177-3.892,7.343-7.064,10.836-10.748c3.9-4.116,10.48-8.232,10.838-12.699
		c2.384-29.854,24.683-42.708,50.062-52.87c20.675-8.277,41.617-16.068,62.83-23.036c7.308-2.401,15.798-1.676,23.746-2.377
		c0.108,1.082,0.218,2.161,0.324,3.243c-2.376,0.938-4.665,2.314-7.146,2.746c-15.553,2.714-25.136,12.404-34.808,23.256
		c-9.79,10.984-21.112,21.164-33.3,29.81c-14.326,10.161-30.604,17.886-45.48,27.419c-14.006,8.974-27.766,18.574-34.515,34.02
		c-1.853,4.234-2.587,8.894-3.835,13.356c6.778-7.109,9.126-16.34,15.281-21.896c9.809-8.848,21.759-15.848,33.51-22.55
		c20.232-11.541,41.357-21.729,61.44-33.48c15.277-8.942,28.62-21.026,44.473-28.78c16.165-7.906,26.036-16.796,28.408-34.918
		c2.121-16.2-1.521-27.764-18.332-33.956c-15.878-5.852-31.905-7.502-48.439-1.864c-5.206,1.777-10.962,2.624-16.526,2.934
		c-26.835,1.482-51.143,7.89-70.097,27.356c-5.692,5.847-13.202,10.375-20.481,14.605c-23.964,13.922-43.539,30.42-45.158,59.221
		c-1.045,18.628-2.17,37.279-4.315,55.815c-1.605,13.867-2.706,28.343-7.915,41.172c-9.435,23.231-21.675,45.477-32.922,68.057
		c-7.36,14.774-10.876,30.026-6.765,46.138c6.583,25.793,4.585,50.844-5.272,75.731c-2.176,5.491-2.748,13.141-0.364,18.316
		c9.314,20.236,9.426,40.375,2.88,61.019c-3.503,11.042-2.548,21.319,4.156,31.439c3.04,4.59,4.844,10.463,5.251,15.882
		c0.868,11.565,1.556,23.318,0.302,34.801c-1.619,14.806,4.699,25.526,16.728,33.601c11.56,7.758,15.478,17.675,16.157,30.731
		c0.63,12.131,0.023,26.224,15.232,32.943c14.219,6.283,20.539,17.874,24.908,30.982c6.126,18.384,10.727,37.41,18.987,54.925
		c9.024,19.132,18.386,37.772,19.644,59.003c0.934,15.779,7.537,28.933,19.258,40.545c4.846,4.806,7.842,11.921,9.769,18.476
		c5.616,19.108,10.269,38.466,15.749,59.441c17.144-15.094,21.233-31.521,21.292-49.727c0.032-10.307-2.683-21.74,8.176-29.6
		c11.539-8.353,9.562-19.364,5.507-29.759c-4.114-10.554-1.646-18.9,5.032-27.527c9.83-12.701,10.981-27.387,5.181-41.337
		c-5.117-12.307-3.402-22.998,1.412-34.507c2.545-6.08,5.262-13.118,4.316-19.241c-2.136-13.834,0.022-26.38,5.854-39.079
		c2.707-5.893,4.331-13.057,3.545-19.328c-1.478-11.793-6.146-23.251-7.436-35.044c-1.109-10.143-0.062-20.64,1.329-30.825
		c1.227-8.984,7.002-18.05,5.956-26.564c-3.08-25.092-8.327-49.969-13.365-74.82c-0.627-3.087-4.62-6.271-7.896-8.084
		c-14.895-8.253-30.177-15.895-45.159-24.015c-20.427-11.07-35.304-27.514-46.653-46.238c-17.472-28.82-28.76-59.534-26.419-93.504
		C3384.042,833.722,3380.824,830.688,3379.19,827.746z M3706.382,937.497c-6.921,8.286-12.521,17.31-20.406,23.979
		c-20.337,17.195-41.599,33.445-62.663,49.882c-11.184,8.726-18.387,18.984-19.334,33.102
		c-1.979,29.577,15.242,46.637,42.147,57.222c16.561,6.517,33.758,15.063,51.894,6.116c21.865-10.786,43.846-21.834,63.896-35.225
		c18.254-12.19,36.121-26.217,39.534-49.439c2.259-15.374,9.074-28.714,19.927-40.433c15.405-16.637,22.765-36.025,22.372-58.05
		c-0.201-11.261-2.042-22.963,0.529-33.699c4.743-19.798-0.966-37.458-7.517-55.568c-2.601-7.193-5.565-15.362-4.345-22.486
		c6.392-37.348-7.272-70.491-24.314-102.497c-12.838-24.113-29.241-46.426-33.976-73.969c-1.259-7.323-6.894-16.443-13.471-20.045
		c-17.576-9.629-32.04-23.057-48.826-33.036c-23.252-13.825-48.415-23.878-77.342-27.062c-35.202-3.873-58.072,18.204-56.5,48.205
		c0.312,5.969,7.684,13.659,13.955,16.756c6.747,3.335,16.016,2.348,24.209,2.977c18.614,1.428,35.096,7.022,48.836,19.446
		c29.401,26.585,49.18,57.028,45.827,96.944c-1.947,23.2,3.876,44.3,16.039,64.639c8.396,14.039,9.952,30.339,7.072,46.009
		c-2.599,14.142-8.359,27.755-12.237,41.722c-3.28,11.812-5.571,23.051-1.79,36.068c4.116,14.171,5.937,30.521,2.486,44.579
		c-3.757,15.292-5.598,29.467-1.886,44.587c1.238,5.046,1.277,10.384,1.514,15.604c0.601,13.225,1.029,26.46,1.39,39.692
		c0.015,0.527-2.699,5.026-3.743,5.81c-11.574-11.151-13.72-27.922-8.438-41.96c3.047-8.095,2.715-15.097-1.985-22.031
		c-9.414-13.884-7.508-27.834-1.673-42.376C3712.18,961.454,3715.803,949.467,3706.382,937.497z M3606.283,2199.505
		c0,22.888-0.235,45.781,0.256,68.66c0.072,3.392,2.915,8.754,5.662,9.525c2.938,0.828,8.739-1.76,10.767-4.49
		c9.646-12.997,19.754-25.939,27.222-40.042c11.616-21.943,21.506-44.7,31.633-67.303c20.313-45.342,40.555-90.714,60.325-136.262
		c14.828-34.16,29.874-68.289,42.885-103.063c7.533-20.129,9.354-42.146,17.138-62.163c9.258-23.807,13.953-47.972,16.092-72.931
		c0.57-6.657-2.451-8.06-8.441-7.718c-23.476,1.341-46.949,2.729-70.438,3.835c-6.292,0.297-12.697-0.969-18.941-0.417
		c-12.551,1.106-24.98,3.567-37.543,4.38c-19.203,1.238-38.473,1.753-57.723,2.172c-8.174,0.176-12.455,2.804-12.969,10.976
		c-0.726,11.552-3.386,23.045-3.473,34.579c-0.533,70.077-0.422,140.161-0.831,210.242c-0.214,36.627-1.104,73.254-1.577,109.883
		C3606.152,2172.745,3606.298,2186.123,3606.283,2199.505z M3590.085,2278.615c1.358-0.068,2.718-0.135,4.077-0.205
		c1.022-3.042,2.85-6.066,2.938-9.13c0.529-18.654,0.686-37.315,0.919-55.974c0.377-29.855,0.649-59.716,1.129-89.573
		c0.091-5.582,1.503-11.167,1.359-16.73c-0.886-34.368-3.04-68.737-2.847-103.095c0.224-40.103,2.545-80.195,3.693-120.299
		c0.395-13.704,0.345-27.438-0.149-41.139c-0.456-12.664-1.237-25.371-3.091-37.903c-0.478-3.235-5.367-8.227-8.489-8.402
		c-15.665-0.886-31.434-0.888-47.135-0.364c-30.141,1.007-60.274,2.335-90.382,4.005c-18.56,1.031-37.062,2.944-56.02,4.493
		c0.66,2.741,1.156,5.849,2.16,8.809c13.504,39.832,27.061,79.647,40.651,119.455c5.038,14.759,9.177,29.878,15.499,44.15
		c23.584,53.256,48.244,106.099,71.825,159.356c15.102,34.11,28.71,68.794,43.607,102.986
		C3575.721,2252.567,3583.284,2265.447,3590.085,2278.615z M3379.27,1268.158c-26.479,23.317-52.988,46.757-79.644,70.051
		c-4.99,4.361-2.376,7.778,0.189,11.968c18.833,30.774,37.393,61.689,56.214,92.466c6.721,10.991,13.521,21.976,21.023,32.503
		c8.285,11.623,24.262,10.69,30.954-2.081c9.747-18.596,18.933-37.48,27.459-56.591c5.991-13.423,4.372-16.765-9.176-24.62
		c-9.064-5.256-14.253-12.435-14.918-22.329c-0.589-8.773-0.278-17.649-1.567-26.322c-1.212-8.168-2.679-16.701-6.344-24.07
		C3394.738,1301.598,3377.938,1287.467,3379.27,1268.158z M3334.482,1207.448c-9.717,10.783-19.961,20.7-28.414,31.804
		c-25.044,32.898-49.607,66.121-73.636,99.667c-2.397,3.347-1.718,10.843,0.734,14.585c8.827,13.471,18.239,26.753,28.873,39.016
		c20.313,23.422,41.869,45.903,62.396,69.171c8.918,10.109,14.848,3.417,22.467-1.337c8.906-5.558,2.996-10.263,0.008-14.976
		c-8.583-13.539-17.808-26.725-26.254-40.334c-9.405-15.151-17.366-31.143-27.555-45.796c-9.958-14.324-10.839-13.783,1.984-24.722
		c1.099-0.937,2.171-1.913,3.156-2.951c24.165-25.443,48.081-51.102,72.692-76.161c4.263-4.34,3.717-6.949,2.223-11.79
		C3367.487,1225.254,3352.098,1216.254,3334.482,1207.448z M3676.346,1125.228c-32.561-14.419-73.469-14.756-80.037-55.389
		c-21.697,1.041-41.864,2.008-59.668,2.863c-2.625,11.145-2.816,22.314-7.811,31.108c-11.831,20.834-1.496,38.561,4.345,56.991
		C3584.8,1161.348,3632.67,1153.684,3676.346,1125.228z M3958.366,1268.706c16.589-28.98,31.563-57.734,52.973-83.545
		c17.725-21.369,27.288-47.879,28.796-75.575c0.618-11.367-0.819-23.12-3.449-34.258c-1.842-7.809-7.939-10.116-15.984-3.829
		c-22.026,17.214-37.002,38.48-44.579,64.331c-0.63,2.148-1.782,4.163-3.476,8.024c-7.904-11.013-14.728-20.521-21.553-30.028
		c-2.149,5.271-2.003,9.435-1.177,13.479c1.95,9.541,5.044,18.936,6.183,28.545c1.895,15.996,3.462,31.692,20.561,40.995
		c1.264,0.688,1.137,3.61,1.805,6.04c-4.02-0.548-7.125-0.973-9.707-1.323c-10.61,19.625-20.849,38.562-31.287,57.868
		C3944.955,1262.753,3951.324,1265.58,3958.366,1268.706z M3372.638,1503.66c-13.405,14.944-12.479,34.075-5.521,53.612
		c3.708,10.409,9.23,12.45,19.767,8.858c19.19-6.538,28.915-20.036,33.374-37.99c2.021-8.137-1.405-11.943-9.206-13.908
		c-14.654-3.694-14.849-4.087-10.989-18.133c0.437-1.584,0.612-3.23,1.068-5.729c-8.125,1.797-15.611,8.687-22.373,0.203
		c-4.675-5.868-8.731-12.168-13.463-17.992c-3.018-3.712-6.791-9.672-10.177-9.645c-4.39,0.035-8.732,5.029-13.406,8.092
		C3352.693,1482.616,3362.279,1492.732,3372.638,1503.66z M3384.674,814.854c1.479-0.162,2.957-0.321,4.437-0.483
		c1.036-19.504,2.575-39.004,2.757-58.517c0.046-4.858-4.289-9.751-6.611-14.628c-5.777,2.626-12.784,4.151-16.97,8.21
		c-3.806,3.688-6.397,10.161-6.302,15.354C3362.346,784.22,3371.392,800.528,3384.674,814.854z M3423.759,665.954
		c28.505-7.185,57.749-24.958,63.745-38.359C3454.539,631.362,3429.639,641.108,3423.759,665.954z"/>
	<path fill-rule="evenodd" clip-rule="evenodd" fill="#FFEFDF" d="M3698.817,734.268c0,10.161-1.027,22.79,0.341,35.189
		c1.001,9.068,3.891,18.406,8.161,26.617c9.216,17.716,18.428,35.262,18.177,55.512c-0.055,4.447-1.654,8.933-2.93,13.301
		c-5.712,19.576-10.246,39.578-17.858,58.496c-4.635,11.518-12.233,23.201-21.784,31.53c-18.374,16.025-38.33,30.735-59.043,44.079
		c-18.326,11.805-29.474,25.785-27.488,47.095c0.523,5.604-1.459,9.076-7.574,9.438c-16.145,0.955-32.301,1.964-48.469,2.306
		c-7.105,0.151-11.139-2.964-11.626-10.914c-0.792-12.893-3.461-25.686-5.371-38.761c17.106,0.915,32.075,1.717,47.046,2.517
		c0.197-1.443,0.395-2.89,0.594-4.332c-5.916-1.052-11.885-1.894-17.739-3.184c-35.119-7.733-69.46-17.686-97.557-39.846
		c-25.978-20.488-42.48-47.109-52.585-77.354c-11.258-33.703-6.539-67.353-1.121-101.229c2.162-13.518,2.674-27.409,2.342-41.094
		c-0.438-18.137,6.547-32.228,22.346-42.519c5.561-3.622,11.208-7.299,17.293-10.023c31.838-14.254,60.025-33.525,87.762-53.668
		c9-6.536,20.191-10.796,30.973-14.656c4.041-1.448,9.896,0.786,14.697,2.078c11.027,2.97,21.782,8.596,32.885,9.173
		c23.135,1.197,42.479,8.098,54.971,26.486c10.646,15.669,19.581,32.38,28.648,48.929c2.19,4,1.918,9.174,2.814,14
		 M3585.188,906.677c6.042,0,12.119,0.396,18.119-0.075c18.953-1.485,35.028-8.382,45.863-23.498c1.218-1.7-1.031-5.567-1.673-8.432
		c-2.724,0.883-7.473,1.284-7.866,2.722c-5.16,18.862-21.583,21.014-38.012,22.364c-34.861,2.865-69.289,0.856-102.885-9.375
		c-3.411-1.038-7.953,0.061-11.547,1.266c-1.171,0.393-2.176,5.56-1.211,6.339c2.812,2.273,6.552,4.569,10.113,4.854"/>
	<path opacity="0.2" fill-rule="evenodd" clip-rule="evenodd" fill="#807870" d="M3510.309,792.475
		c-2.611,14.776-13.88,31.056-27.072,33.529l-21.438-5.635c-21.467-2.332-52.492-23.223-54.141-29.27
		c0,0-10.781-12.573-0.543-34.822c11.987-26.052,43.34-40.201,54.867-43.346c25.223-6.881,41.693,7.262,41.693,7.262
		c2.291,0,15.195,15.487,15.195,24.57L3510.309,792.475z"/>
	<path opacity="0.2" fill-rule="evenodd" clip-rule="evenodd" fill="#807870" d="M3587.779,792.475
		c2.611,14.776,13.88,31.056,27.071,33.529l21.438-5.635c21.467-2.332,52.492-23.223,54.141-29.27c0,0,10.78-12.573,0.543-34.822
		c-11.987-26.052-43.34-40.201-54.867-43.346c-25.224-6.881-41.693,7.262-41.693,7.262c-2.291,0-15.195,15.487-15.195,24.57
		L3587.779,792.475z"/>
	<path fill-rule="evenodd" clip-rule="evenodd" fill="#2D2823" d="M3585.136,709.749c0.488-6.64,1.462-19.922,1.462-19.922
		c24.701,0.75,74.111,2.251,74.111,2.251c9.215,0,41.318,45.73,41.318,45.73c-0.654-0.737-1.309-1.475-1.965-2.213
		c-9.523-6.655-19.052-13.311-28.576-19.966c-2.961-1.079-5.923-2.158-8.883-3.237c-23.537,0.171-47.082,0.342-70.62,0.513"/>
	<path fill-rule="evenodd" clip-rule="evenodd" fill="#2D2823" d="M3513.99,716.231c-23.538-0.171-47.083-0.343-70.62-0.514
		c-2.96,1.079-5.922,2.158-8.883,3.237c-9.524,6.656-19.052,13.311-28.577,19.967c-0.654,0.738-1.31,1.475-1.965,2.212
		c0,0,32.104-45.73,41.318-45.73c0,0,49.411-1.501,74.112-2.251c0,0,0.974,13.282,1.462,19.923"/>
	<path fill-rule="evenodd" clip-rule="evenodd" d="M3584.965,907.069c-29.396,0.637-59.122-2.271-88.875-4.658
		c-3.562-0.285-7.301-2.581-10.113-4.854c-0.965-0.779,0.04-5.947,1.211-6.34c3.594-1.205,8.136-2.304,11.547-1.266
		c33.596,10.232,68.023,12.24,102.885,9.375c16.429-1.35,32.852-3.501,38.012-22.363c0.394-1.438,5.143-1.838,7.866-2.722
		c0.642,2.864,2.891,6.732,1.673,8.433c-10.835,15.114-26.909,22.012-45.863,23.497
		C3597.209,906.649,3591.096,906.937,3584.965,907.069z"/>
	<path fill-rule="evenodd" clip-rule="evenodd" fill="#FFEFDF" d="M3675.681,1124.798c-43.677,28.455-91.546,36.12-143.171,35.571
		c-5.84-18.429-16.176-36.157-4.346-56.99c4.994-8.794,5.187-19.963,7.811-31.109c17.805-0.854,37.971-1.821,59.669-2.862
		C3602.211,1110.041,3643.119,1110.377,3675.681,1124.798z"/>
	<path fill-rule="evenodd" clip-rule="evenodd" fill="#FFEFDF" d="M3423.093,665.523c5.88-24.846,30.78-34.592,63.745-38.36
		C3480.842,640.563,3451.599,658.338,3423.093,665.523z"/>
	<path fill-rule="evenodd" clip-rule="evenodd" fill="#FFEFDF" d="M3384.008,814.422c-13.282-14.324-22.328-30.632-22.688-50.063
		c-0.097-5.193,2.496-11.667,6.302-15.354c4.186-4.059,11.191-5.582,16.97-8.209c2.321,4.877,6.657,9.771,6.612,14.629
		c-0.183,19.511-1.722,39.011-2.759,58.517C3386.966,814.102,3385.487,814.261,3384.008,814.422z"/>
	<path fill-rule="evenodd" clip-rule="evenodd" fill="#333333" d="M3627.701,820.331c-17.729,3.621-32.513-15.001-34.181-25.888
		c-1.669-10.887-3.036-18.697-5.008-41.914c-1.972-23.217,10.646-32.852,15.562-34.964c4.919-2.111,12.049-3.167,22.702,0.997
		c10.654,4.165,17.84,9.837,29.1,29.407c11.26,19.572,13.5,20.905,24.756,21.966c11.254,1.062,11.309-7.633,12.373-2.897
		c2.988,13.271-40.886,34.889-40.886,34.889S3645.43,816.711,3627.701,820.331z"/>
	<path fill-rule="evenodd" clip-rule="evenodd" fill="#FFFFFF" d="M3608.471,731.931c-1.256-0.125-0.778,0.195-0.691,0.903
		c-0.204-1.551,4.509-2.405,8.553-1.834c4.1,0.578,7.534,2.594,7.633,2.643c0.577,0.418,2.475,1.975,2.877,2.347
		c9.742,7.913,17.421,17.781,21.916,33.494c3.896,13.625,1.929,23.657-1.955,30.851c-6.076,11.255-16.844,15.564-17.184,15.825
		c-0.179,0.021-0.355,0.041-0.532,0.058c-37.805,3.829-41.847-65.742-21.266-83.867
		C3607.837,732.249,3608.817,730.622,3608.471,731.931z"/>
	<path fill-rule="evenodd" clip-rule="evenodd" fill="#333333" d="M3444.719,805.683c0,0-43.358-22.467-40.493-36.075
		c1.022-4.856,1.127,4.073,12.21,3.052c11.084-1.021,13.282-2.375,24.261-22.402c10.979-20.025,18.025-25.803,28.498-30.014
		c10.474-4.211,17.504-3.082,22.364-0.884c4.856,2.199,17.346,12.17,15.541,35.996c-1.806,23.827-3.106,31.838-4.687,43.007
		c-1.578,11.167-16.035,30.197-33.525,26.369C3451.398,820.905,3444.719,805.683,3444.719,805.683z"/>
	<path fill-rule="evenodd" clip-rule="evenodd" fill="#FFFFFF" d="M3489.025,735.253c20.58,18.125,16.539,87.695-21.267,83.867
		c-0.176-0.017-0.354-0.037-0.532-0.058c-0.34-0.261-11.107-4.57-17.184-15.825c-3.883-7.194-5.852-17.226-1.954-30.851
		c4.494-15.714,12.173-25.581,21.915-33.494c0.403-0.373,2.301-1.929,2.878-2.347c0.098-0.048,3.532-2.064,7.632-2.643
		c4.045-0.571,8.757,0.284,8.553,1.834c0.088-0.709,0.565-1.028-0.691-0.903C3488.028,733.523,3489.009,735.15,3489.025,735.253z"/>
</g>
</svg>
