<?xml version="1.0" encoding="utf-8"?>
<!-- Generator: Adobe Illustrator 16.0.0, SVG Export Plug-In . SVG Version: 6.00 Build 0)  -->
<!DOCTYPE svg PUBLIC "-//W3C//DTD SVG 1.1//EN" "http://www.w3.org/Graphics/SVG/1.1/DTD/svg11.dtd">
<svg version="1.1" id="Layer_1" xmlns="http://www.w3.org/2000/svg" xmlns:xlink="http://www.w3.org/1999/xlink" x="0px" y="0px"
	 width="4685.064px" height="2781.329px" viewBox="0 0 4685.064 2781.329" enable-background="new 0 0 4685.064 2781.329"
	 xml:space="preserve">
<polyline fill-rule="evenodd" clip-rule="evenodd" fill="#DBDADA" points="0,2773.501 0,0 4685.063,0 4685.063,2773.501 "/>
<g>
	<g>
		<circle fill="#FFFFFF" cx="530.803" cy="726.045" r="159.959"/>
		<circle fill="#FFFFFF" cx="793.875" cy="631.577" r="217.776"/>
		<ellipse fill="#FFFFFF" cx="1042.894" cy="714.484" rx="157.651" ry="150.856"/>
		<path fill-rule="evenodd" clip-rule="evenodd" fill="#FFFFFF" d="M1227.089,883.561c0,9.579-1.788,17.345-3.993,17.345H352.354
			c-2.206,0-3.993-7.766-3.993-17.345V756.364c0-9.579,1.788-17.345,3.993-17.345h870.742c2.205,0,3.993,7.767,3.993,17.345V883.561
			z"/>
		<circle fill="#FFFFFF" cx="1213.792" cy="813.475" r="87.43"/>
		<circle fill="#FFFFFF" cx="348.36" cy="813.475" r="87.43"/>
	</g>
</g>
<polyline fill="#86A98F" points="0,2781.329 0,2282.19 4685.064,2282.19 4685.064,2781.329 "/>
<g>
	<g>
		<circle fill="#FFFFFF" cx="1588.346" cy="1007.626" r="118.807"/>
		<circle fill="#FFFFFF" cx="1783.736" cy="937.462" r="161.748"/>
		<ellipse fill="#FFFFFF" cx="1968.689" cy="999.04" rx="117.092" ry="112.045"/>
		<path fill-rule="evenodd" clip-rule="evenodd" fill="#FFFFFF" d="M2105.497,1124.617c0,7.115-1.328,12.883-2.966,12.883h-646.726
			c-1.638,0-2.966-5.768-2.966-12.883v-94.472c0-7.115,1.328-12.883,2.966-12.883h646.726c1.638,0,2.966,5.768,2.966,12.883
			V1124.617z"/>
		<circle fill="#FFFFFF" cx="2095.622" cy="1072.562" r="64.937"/>
		<circle fill="#FFFFFF" cx="1452.84" cy="1072.562" r="64.937"/>
	</g>
</g>
<g>
	<g>
		<circle fill="#FFFFFF" cx="3727.763" cy="817.312" r="159.959"/>
		<circle fill="#FFFFFF" cx="3990.834" cy="722.843" r="217.776"/>
		<ellipse fill="#FFFFFF" cx="4239.853" cy="805.751" rx="157.651" ry="150.855"/>
		<path fill-rule="evenodd" clip-rule="evenodd" fill="#FFFFFF" d="M4424.049,974.828c0,9.578-1.788,17.344-3.993,17.344h-870.742
			c-2.206,0-3.993-7.766-3.993-17.344V847.63c0-9.578,1.787-17.345,3.993-17.345h870.742c2.205,0,3.993,7.767,3.993,17.345V974.828z
			"/>
		<circle fill="#FFFFFF" cx="4410.752" cy="904.742" r="87.43"/>
		<circle fill="#FFFFFF" cx="3545.32" cy="904.742" r="87.43"/>
	</g>
</g>
<polygon fill="#86A98F" points="569.451,1415.733 103.731,2302.885 524.381,2302.885 1035.17,2302.885 "/>
<polygon fill="#86A98F" points="938.073,1676.742 570.525,2376.885 902.504,2376.885 1305.621,2376.885 "/>
<g>
	<linearGradient id="SVGID_1_" gradientUnits="userSpaceOnUse" x1="3586.2246" y1="1679.2822" x2="3586.2246" y2="796.3408">
		<stop  offset="0.5001" style="stop-color:#BCB795"/>
		<stop  offset="1" style="stop-color:#5A4A42"/>
	</linearGradient>
	<path fill-rule="evenodd" clip-rule="evenodd" fill="url(#SVGID_1_)" d="M3535.405,1064.711c1.573,2.833,4.673,5.756,4.485,8.481
		c-2.255,32.723,8.617,62.308,25.448,90.07c10.933,18.036,25.263,33.877,44.939,44.54c14.432,7.82,29.152,15.183,43.499,23.132
		c3.156,1.747,7.003,4.812,7.607,7.788c4.853,23.937,9.906,47.901,12.875,72.071c1.006,8.202-4.558,16.935-5.739,25.589
		c-1.339,9.812-2.349,19.922-1.278,29.692c1.242,11.36,5.737,22.396,7.161,33.758c0.757,6.041-0.808,12.942-3.415,18.618
		c-5.617,12.231-7.697,24.317-5.641,37.643c0.912,5.899-1.706,12.677-4.157,18.534c-4.638,11.084-6.289,21.385-1.36,33.239
		c5.589,13.438,4.48,27.586-4.989,39.82c-6.432,8.31-8.811,16.349-4.848,26.516c3.905,10.013,5.811,20.62-5.304,28.667
		c-10.46,7.571-7.846,18.584-7.876,28.512c-0.056,17.538-3.996,33.363-20.511,47.902c-5.278-20.205-9.76-38.851-15.17-57.257
		c-1.856-6.313-4.742-13.169-9.41-17.797c-11.291-11.187-17.65-23.856-18.551-39.057c-1.212-20.451-10.229-38.405-18.922-56.835
		c-7.957-16.873-12.389-35.197-18.29-52.906c-4.207-12.628-10.297-23.792-23.993-29.845c-14.649-6.473-14.065-20.048-14.673-31.733
		c-0.655-12.577-4.429-22.13-15.563-29.603c-11.587-7.778-17.673-18.104-16.113-32.367c1.209-11.061,0.546-22.381-0.291-33.521
		c-0.391-5.22-2.13-10.879-5.057-15.299c-6.459-9.749-7.379-19.647-4.005-30.284c6.307-19.888,6.199-39.286-2.772-58.778
		c-2.297-4.985-1.746-12.354,0.35-17.644c9.495-23.973,11.42-48.104,5.079-72.949c-3.961-15.521-0.575-30.211,6.516-44.444
		c10.835-21.75,22.625-43.179,31.712-65.556c5.02-12.358,6.078-26.302,7.625-39.661c2.066-17.854,3.15-35.821,4.158-53.766
		c1.559-27.742,20.414-43.635,43.499-57.044c7.011-4.074,14.245-8.437,19.729-14.07c18.258-18.752,41.673-24.923,67.521-26.352
		c5.36-0.297,10.905-1.114,15.921-2.825c15.926-5.431,31.365-3.841,46.658,1.795c16.195,5.966,19.702,17.104,17.659,32.71
		c-2.284,17.456-11.793,26.019-27.364,33.635c-15.27,7.469-28.122,19.11-42.839,27.723c-19.345,11.32-39.694,21.135-59.185,32.251
		c-11.317,6.457-22.83,13.199-32.278,21.723c-5.929,5.351-8.19,14.242-14.719,21.091c1.2-4.299,1.908-8.787,3.692-12.865
		c6.501-14.879,19.758-24.127,33.248-32.771c14.331-9.182,30.01-16.623,43.809-26.411c11.74-8.33,22.646-18.134,32.077-28.715
		c9.316-10.454,18.548-19.789,33.53-22.402c2.389-0.416,4.593-1.741,6.883-2.645c-0.104-1.042-0.208-2.082-0.313-3.124
		c-7.655,0.675-15.834-0.024-22.873,2.289c-20.435,6.712-40.606,14.217-60.521,22.19c-24.45,9.79-45.929,22.172-48.226,50.928
		c-0.343,4.303-6.682,8.268-10.438,12.233c-3.366,3.548-7.378,6.604-10.438,10.354c-11.923,14.604-16.048,33.197-30.646,47.046
		c-10.666,10.116-3.588,25.14-0.507,37.993c3.788,15.806,5.765,32.201,11.571,47.324c7.926,20.646,3.701,39.222-5.238,57.986
		c-8.557,17.963-6.473,33.941,9.1,48.263c2.995,2.753,3.64,8.65,3.664,13.105c0.038,8.1-2.021,16.241-1.611,24.293
		c0.258,5.088,1.87,11.601,5.55,14.767c10.307,8.866,14.992,19.629,17.091,31.997c0.354,2.091,1.788,4.022,4.01,5.68
		c-2.331-14.204-0.105-29.542-10.792-41.545c-5.472-6.147-7.039-12.136-5.67-19.668c2.666-14.656,2.25-28.312-8.352-41.349
		c-9.045-11.124-4.374-24.77,0.392-36.277c6.812-16.45,4.837-32.498,2.117-48.916c-0.809-4.888-1.638-9.772-2.457-14.659
		C3533.256,1065.383,3534.33,1065.048,3535.405,1064.711z"/>
	<path opacity="0.4" fill-rule="evenodd" clip-rule="evenodd" stroke="#000000" stroke-miterlimit="10" d="M4087.262,2463.136
		c0,28.108-147.381,50.894-329.189,50.894c-181.805,0-329.188-22.786-329.188-50.894c0-28.107,147.383-50.893,329.188-50.893
		C3939.881,2412.244,4087.262,2435.029,4087.262,2463.136z"/>
	<path fill-rule="evenodd" clip-rule="evenodd" fill="#29332B" d="M3858.123,1470.894c1.299-3.673,4.128-6.875,6.246-10.296
		c1.213,0.387,2.43,0.771,3.645,1.158c4.363,8.539,7.246,18.166,13.37,25.41c17.875,21.148,36.02,42.264,55.985,61.663
		c21.287,20.681,44.932,39.236,67.196,59.059c5.509,4.905,9.294,4.212,13.202-0.91c4.188-5.491,8.331-11.027,12.176-16.731
		c17.865-26.498,35.646-53.047,53.401-79.61c3.907-5.843,6.461-11.413-2.097-16.229c-12.238-6.885-16.092-7.004-22.963,1.207
		c-16.736,20.004-33.348,40.103-49.98,60.181c-5.78,6.977-10.904,6.551-15.156-1.356c-9.757-18.148-19.529-36.291-29.239-54.463
		c-16.579-31.026-34.897-61.384-49.051-93.349c-9.661-21.828-24.342-36.612-46.73-45.39c-13.881-5.44-26.938-9.3-42.806-0.369
		c-19.081,10.738-40.303,19.276-61.758,24.924c-19.689,5.183-40.591,6.32-61.077,8.927c-1.885-1.589-4.308-2.555-7.146-2.555
		c-5.908,0-12.004,5.25-11.517,11.516c0.094,1.206,0.09,2.383,0.021,3.59c-0.01,0.095-0.016,0.166-0.025,0.246
		c-0.16,0.938-0.369,1.868-0.579,2.795c-0.773,3.409-1.902,6.739-3.036,10.041c-2.377,6.928-5.078,13.67-6.67,20.837
		c-1.994,8.988-5.521,18.248-5.045,27.569c0.165,3.228,0.645,6.437,0.877,9.66c0.106,1.465,0.114,2.925,0.045,4.39
		c-0.105,0.267-0.25,0.58-0.43,0.833c-0.304,0.432-0.549,0.885-0.766,1.347c-1.699,1.975-2.711,4.452-2.395,7.113
		c1.4,11.81,1.148,23.715,0.696,35.575c-0.096,2.562-0.166,4.916-0.425,6.295c-0.451,2.401-1.266,4.728-2.115,7.011
		c0.023-0.059-1.449,3.562-0.646,1.666c-0.7,1.653-1.408,3.302-2.099,4.959c-1.111,2.675-2.128,5.363-2.943,8.146
		c-3.115,10.641-0.111,21.962,0.628,32.688c0.153,2.2,0.122,4.399-0.036,6.596c0.039-1.02-0.411,1.836-0.451,1.999
		c-0.031,0.124-0.899,2.157-0.814,2.088c-2.277,4.422-5.628,8.336-8.556,12.318c-3.331,4.53-5.814,9.295-7.825,14.549
		c-2.079,5.44-2.268,11.73-2.481,17.489c-0.094,2.516-0.144,5.034-0.265,7.55c-0.053,1.112-0.146,2.221-0.248,3.331
		c0.105-1.341-0.345,1.906-0.358,1.976c-0.229,1.116-0.587,2.197-0.952,3.273c0.682-2.003-0.609,0.749-0.766,0.994
		c-0.057,0.087-1.059,1.398-1.234,1.654c-0.867,1.039-1.781,2.042-2.701,3.034c-6.365,6.858-14.075,12.555-19.739,20.031
		c-2.495-7.163-4.763-15.67-7.175-23.675c-1.484-4.924-5.889-8.456-11.105-8.456c-4.686,0-10.316,3.472-11.105,8.456
		c-0.104,0.662-0.24,1.301-0.408,1.952c-0.094,0.363-0.481,1.334-0.661,1.798c-0.851,1.742-1.843,3.421-2.84,5.079
		c-2.528,4.205-5.298,8.259-7.784,12.489c-6.008,10.217-9.873,21.891-4.088,33.09c0.619,1.197,1.468,2.201,2.458,3.024
		c0.77,1.257,1.685,2.41,2.587,3.222c12.285,11.076,14.556,22.88,4.192,35.16c-7.089,8.397-15.673,15.835-24.359,22.871
		c-6.402,5.188-16.595,7.597-20.614,13.78c-8.354,12.86-14.718,27.079-20.141,41.322c-14.088,36.998-27.337,74.276-40.668,111.521
		c-3.975,11.101-7.113,22.463-10.982,34.812c7.16,1.052,12.083,1.982,17.056,2.469c14.448,1.412,28.92,2.624,43.378,3.957
		c22.201,2.05,44.442,6.171,66.59,5.76c40.57-0.755,81.091-4.077,121.619-6.523c33.754-2.038,67.509-4.132,101.225-6.628
		c20.564-1.523,41.016-4.715,61.597-5.61c25.182-1.094,50.445-0.41,75.669-0.816c10.744-0.173,21.464-1.397,32.209-1.725
		c21.508-0.662,43.023-1.033,66.452-1.569c-9.417-20.41-16.575-38.528-25.95-55.588c-11.828-21.528-25.867-41.989-38.219-63.281
		c-17.107-29.487-33.417-59.375-50.285-88.983c-13.28-23.316-24.852-47.786-40.88-69.351
		c-18.977-25.526-31.253-53.931-46.612-80.991c-5.95-10.483-9.358-22.562-16.914-31.781c-4.439-5.416-4.427-8.09-2.441-13.625
		C3835.814,1535.366,3846.746,1503.062,3858.123,1470.894z"/>
	<path fill-rule="evenodd" clip-rule="evenodd" fill="#29332B" d="M3492.339,1430.466c16.968,8.481,31.793,17.152,37.255,34.846
		c1.438,4.662,1.963,7.175-2.141,11.355c-23.708,24.14-46.747,48.855-70.023,73.364c-0.949,1-1.982,1.94-3.04,2.843
		c-12.353,10.537-11.504,10.018-1.911,23.814c9.814,14.116,17.482,29.519,26.542,44.114c8.137,13.109,17.021,25.812,25.289,38.854
		c2.879,4.54,8.572,9.072-0.007,14.426c-7.34,4.578-13.051,11.025-21.641,1.287c-19.773-22.412-40.538-44.067-60.105-66.629
		c-10.243-11.812-19.309-24.607-27.812-37.583c-2.36-3.606-3.016-10.826-0.707-14.05c23.146-32.314,46.808-64.316,70.932-96.006
		C3473.111,1450.407,3482.979,1440.853,3492.339,1430.466z"/>
	<path fill-rule="evenodd" clip-rule="evenodd" fill="#333333" d="M3754.163,2386.082c0.007-12.888-0.134-25.776,0.034-38.661
		c0.457-35.283,1.312-70.565,1.519-105.848c0.395-67.506,0.287-135.015,0.801-202.518c0.085-11.109,2.646-22.181,3.346-33.309
		c0.494-7.872,4.618-10.404,12.491-10.574c18.545-0.402,37.105-0.898,55.604-2.092c12.1-0.783,24.074-3.154,36.164-4.22
		c6.015-0.532,12.185,0.688,18.245,0.402c22.625-1.065,45.237-2.402,67.851-3.695c5.77-0.329,8.682,1.022,8.131,7.435
		c-2.06,24.043-6.584,47.319-15.5,70.252c-7.499,19.281-9.252,40.489-16.509,59.88c-12.532,33.498-27.025,66.373-41.31,99.277
		c-19.045,43.875-38.541,87.58-58.108,131.257c-9.756,21.773-19.282,43.694-30.473,64.831
		c-7.191,13.585-16.929,26.052-26.221,38.572c-1.952,2.629-7.54,5.121-10.37,4.325c-2.647-0.743-5.385-5.909-5.455-9.176
		C3753.929,2430.182,3754.156,2408.13,3754.163,2386.082z"/>
	<path fill-rule="evenodd" clip-rule="evenodd" fill="#333333" d="M3738.553,2462.288c-6.551-12.685-13.837-25.091-19.51-38.108
		c-14.35-32.937-27.459-66.347-42.006-99.203c-22.715-51.302-46.469-102.204-69.188-153.504
		c-6.088-13.748-10.076-28.312-14.93-42.528c-13.091-38.346-26.147-76.699-39.157-115.067c-0.968-2.851-1.446-5.846-2.081-8.486
		c18.261-1.493,36.084-3.334,53.962-4.327c29.001-1.61,58.027-2.889,87.062-3.859c15.124-0.504,30.313-0.502,45.404,0.351
		c3.007,0.17,7.716,4.979,8.176,8.095c1.787,12.071,2.539,24.311,2.979,36.511c0.477,13.196,0.522,26.427,0.145,39.627
		c-1.107,38.631-3.343,77.251-3.559,115.881c-0.187,33.095,1.89,66.203,2.743,99.309c0.137,5.359-1.224,10.738-1.312,16.116
		c-0.461,28.76-0.724,57.522-1.086,86.282c-0.225,17.973-0.376,35.949-0.887,53.917c-0.082,2.953-1.843,5.865-2.828,8.796
		C3741.171,2462.157,3739.861,2462.222,3738.553,2462.288z"/>
	<g>
		<path fill-rule="evenodd" clip-rule="evenodd" fill="#FFEFDF" d="M4093.306,1489.472c-6.782-3.01-12.917-5.733-20.128-8.933
			c10.055-18.598,19.918-36.838,30.139-55.744c2.487,0.339,5.479,0.747,9.35,1.274c-0.643-2.34-0.521-5.154-1.738-5.817
			c-16.471-8.961-17.98-24.081-19.805-39.488c-1.097-9.256-4.078-18.308-5.956-27.497c-0.796-3.896-0.937-7.906,1.134-12.984
			c6.574,9.158,13.146,18.318,20.762,28.926c1.631-3.72,2.74-5.66,3.348-7.73c7.299-24.902,21.725-45.386,42.941-61.968
			c7.749-6.057,13.623-3.834,15.397,3.688c2.533,10.73,3.918,22.051,3.321,33c-1.451,26.679-10.664,52.215-27.737,72.799
			C4123.711,1433.86,4109.285,1461.558,4093.306,1489.472z"/>
		<path fill-rule="evenodd" clip-rule="evenodd" fill="#FFEFDF" d="M3529.093,1715.798c-9.978-10.527-19.212-20.271-29.79-31.434
			c4.503-2.95,8.685-7.76,12.914-7.794c3.262-0.027,6.896,5.713,9.802,9.29c4.559,5.61,8.466,11.679,12.97,17.33
			c6.513,8.173,13.724,1.537,21.552-0.194c-0.44,2.407-0.61,3.992-1.029,5.519c-3.72,13.53-3.53,13.908,10.585,17.466
			c7.514,1.893,10.814,5.56,8.869,13.397c-4.297,17.295-13.662,30.297-32.148,36.594c-10.15,3.459-15.471,1.495-19.042-8.533
			C3517.07,1748.621,3516.181,1730.193,3529.093,1715.798z"/>
		<path fill-rule="evenodd" clip-rule="evenodd" fill="#FFEFDF" d="M3540.687,1052.292c-12.794-13.799-21.509-29.507-21.855-48.225
			c-0.093-5.003,2.404-11.238,6.069-14.791c4.033-3.909,10.782-5.377,16.349-7.907c2.235,4.697,6.411,9.411,6.366,14.091
			c-0.175,18.795-1.655,37.578-2.654,56.367C3543.535,1051.982,3542.111,1052.136,3540.687,1052.292z"/>
		<path fill-rule="evenodd" clip-rule="evenodd" fill="#FFEFDF" d="M3578.335,908.862c5.665-23.934,29.649-33.321,61.404-36.951
			C3633.963,884.819,3605.795,901.94,3578.335,908.862z"/>
		<path fill-rule="evenodd" clip-rule="evenodd" d="M3733.62,1141.536c-28.315,0.613-56.95-2.188-85.61-4.486
			c-3.431-0.275-7.032-2.487-9.742-4.677c-0.929-0.751,0.039-5.727,1.167-6.106c3.462-1.16,7.837-2.218,11.122-1.219
			c32.362,9.855,65.525,11.791,99.106,9.031c15.825-1.3,31.645-3.373,36.614-21.542c0.38-1.385,4.955-1.771,7.578-2.622
			c0.619,2.759,2.785,6.484,1.611,8.122c-10.438,14.56-25.92,21.204-44.178,22.635
			C3745.415,1141.131,3739.526,1141.407,3733.62,1141.536z"/>
	</g>
	<linearGradient id="SVGID_2_" gradientUnits="userSpaceOnUse" x1="3855.9609" y1="1338.1929" x2="3855.9609" y2="802.7998">
		<stop  offset="0.5001" style="stop-color:#BCB795"/>
		<stop  offset="1" style="stop-color:#5A4A42"/>
	</linearGradient>
	<path fill-rule="evenodd" clip-rule="evenodd" fill="url(#SVGID_2_)" d="M3850.578,1170.431c9.074,11.529,5.584,23.077,1.139,34.16
		c-5.619,14.008-7.457,27.446,1.611,40.82c4.528,6.68,4.848,13.424,1.913,21.222c-5.089,13.524-1.729,25.884,9.423,36.626
		c1.004-0.755,2.323-1.295,2.309-1.802c-0.347-12.747-0.758-25.495-1.338-38.234c-0.227-5.029-0.265-10.171-1.458-15.033
		c-3.575-14.564-1.802-28.218,1.816-42.949c3.324-13.541,1.571-29.29-2.394-42.941c-3.643-12.539-1.436-23.366,1.724-34.743
		c3.735-13.455,9.284-26.567,11.787-40.19c2.774-15.094,1.274-30.795-6.812-44.319c-11.718-19.591-17.326-39.916-15.449-62.264
		c3.229-38.451-15.824-67.775-44.146-93.384c-13.233-11.967-29.11-17.357-47.042-18.732c-7.892-0.605-16.819,0.345-23.319-2.867
		c-6.04-2.985-13.143-10.391-13.442-16.142c-1.515-28.899,20.516-50.164,54.426-46.434c27.863,3.066,52.102,12.751,74.499,26.068
		c16.171,9.611,30.103,22.546,47.033,31.821c6.336,3.469,11.763,12.255,12.976,19.309c4.561,26.532,20.361,48.024,32.728,71.253
		c16.417,30.83,29.578,62.756,23.422,98.731c-1.177,6.863,1.681,14.732,4.185,21.661c6.311,17.445,11.81,34.457,7.24,53.527
		c-2.477,10.342-0.703,21.615-0.509,32.461c0.378,21.216-6.712,39.892-21.552,55.918c-10.453,11.288-17.018,24.138-19.193,38.946
		c-3.288,22.369-20.499,35.882-38.082,47.624c-19.315,12.898-40.487,23.541-61.549,33.93c-17.47,8.618-34.035,0.387-49.988-5.89
		c-25.917-10.197-42.506-26.63-40.599-55.121c0.911-13.6,7.851-23.482,18.624-31.887c20.291-15.832,40.771-31.485,60.36-48.05
		C3838.518,1187.105,3843.911,1178.412,3850.578,1170.431z"/>
	<path opacity="0.3" fill-rule="evenodd" clip-rule="evenodd" fill="#27221E" d="M3860.969,1253.919
		c-1.651-3.471-3.861-6.637-6.617-9.079c1.321-7.667,1.03-15.405-2.214-22.938c-0.25-0.58-0.559-1.092-0.894-1.57
		c2.688-3.538,5.375-7.078,8.041-10.63c2.395-3.187,1.898-8.383,0-11.625c-1.199-2.047-2.865-3.52-4.79-4.439
		c1.726-2.11,3.342-4.291,4.79-6.57c3.369-5.303,1.131-12.673-4.131-15.756c-5.566-3.261-12.396-1.157-15.757,4.131
		c-0.331,0.521-0.686,1.025-1.044,1.528c-0.089,0.105-0.174,0.214-0.262,0.319c-1.367,1.635-2.838,3.185-4.328,4.705
		c-3.538,3.608-7.3,6.996-11.083,10.343c-9.388,8.31-19.06,16.293-28.483,24.563c-18.723,16.428-39.555,34.826-48.477,58.754
		c-3.731,10.004-3.213,20.844,1.539,30.373c5.312,10.649,16.594,17.682,27.178,22.165c3.945,1.672,8.369,1.701,11.78-0.156
		c0.93,2.276,2.272,4.447,4.05,6.511c4.59,5.332,12.474,7.715,19.084,9.102c4.792,1.004,9.919-0.663,12.613-4.594
		c2.652,2.875,6.772,4.438,11.379,3.402c4.779-1.075,8.842-3.053,12.365-5.666c1.841,0.24,3.723,0.068,5.433-0.545
		c4.505-5.666,12.528-18.473,12.227-29.195c1.38-16.925-2.278-23.08-4.751-40.161"/>
	<path opacity="0.3" fill-rule="evenodd" clip-rule="evenodd" fill="#27221E" d="M3683.169,1432.309
		c0.029,0.004,0.059,0.001,0.088,0.006c0.038-1.191,0.097-2.383,0.152-3.573C3683.315,1429.931,3683.234,1431.119,3683.169,1432.309
		z"/>
	<path opacity="0.3" fill-rule="evenodd" clip-rule="evenodd" fill="#27221E" d="M3679.266,1397.954
		c1.456-12.573,2.795-26.027-1.721-38.145c-1.391-3.736,2.931-5.81,5.761-4.32c-0.852-3.953-1.634-7.918-2.392-11.89
		c1.215-2.458,1.589-5.345,0.845-8.159c-1.762-6.672-3.593-13.325-5.5-19.956c-0.061-10.36-0.224-20.815-1.218-31.072
		c-0.006-0.633-0.017-1.266-0.019-1.898c-0.004-1.243-0.218-2.44-0.596-3.568c-2.245-17.399-7.296-34.066-18.796-48.539
		c-9.984-12.568-24.013-19.902-37.106-28.635c-1.163-1.619-2.317-3.245-3.445-4.887c-2.528-3.673-6.545-5.894-10.712-5.668
		c-2.48-2.085-4.895-4.246-7.257-6.464c-0.204-0.193-0.405-0.393-0.608-0.588c-1.732-2.253-3.378-4.61-5.249-7.531
		c-1.595-2.489-3.954-4.266-6.583-5.116c-0.213-0.254-0.429-0.504-0.641-0.758c-0.738-0.887-1.457-1.791-2.176-2.694
		c-0.129-0.161-0.236-0.296-0.33-0.415c-0.109-0.15-0.326-0.446-0.717-0.965c-5.525-7.364-10.355-15.205-14.701-23.313
		c-0.949-1.773-1.882-3.557-2.793-5.35c-0.513-1.004-1-2.02-1.485-3.035c-0.054-0.11-0.684-1.526-0.861-1.896
		c-1.367-3.385-2.392-6.886-3.12-10.463c-0.103-0.531-0.189-1.065-0.278-1.6c0.155,0.79-0.229-2.207-0.235-2.269
		c-0.232-2.66-0.256-5.337-0.231-8.004c0.046-5.154,0.644-10.3,1.076-15.43c1.009-11.945,0.148-23.287-5.043-34.243
		c-2.689-5.672-10.698-7.095-15.757-4.132c-5.76,3.374-6.82,10.084-4.132,15.757c4.146,8.748,2.022,20.469,1.183,31.015
		c-0.858,10.793-0.268,21.904,3.12,32.252c3.221,9.834,8.477,19.312,13.817,28.136c5.456,9.014,11.736,17.555,18.59,25.556
		c3.132,3.653,6.46,7.12,9.926,10.449c9.604,9.229,20.935,16.872,29.459,27.195c19.047,23.059,28.561,57.555,36.719,85.732
		c11.744,40.578,18.844,82.32,23.406,124.265c1.833-4.723,3.967-9.287,6.479-13.578
		C3676.861,1415.119,3678.27,1406.545,3679.266,1397.954z"/>
	<path opacity="0.3" fill-rule="evenodd" clip-rule="evenodd" fill="#27221E" d="M3687.242,1397.614
		c-0.53,4.464-1.162,8.926-1.777,13.392c0.084-0.087,0.165-0.177,0.25-0.264c0.935-0.958,2.34-1.238,3.635-0.99
		C3688.734,1405.692,3688.037,1401.645,3687.242,1397.614z"/>
	<path opacity="0.4" fill-rule="evenodd" clip-rule="evenodd" d="M3851.553,1492.867c-4.796,12.908-12.213,24.68-19.32,36.573
		c-1.008,0.469-1.937,1.248-2.673,2.412c-12.022,18.979-29.312,34.041-40.504,53.605c-3.458,6.049,3.927,11.565,8.728,8.75
		c0.109,0.007,0.219,0.018,0.333,0.018c6.841,0.015,14.018,0.058,20.806,1.545c5.532,1.67,10.744,4.393,15.205,8.11
		c1.019,0.849,2.111,1.316,3.201,1.49c4.201,3.766,7.867,8.203,11.307,12.592c3.473,4.432,9.609-1.797,6.178-6.177
		c-3.043-3.882-6.27-7.7-9.824-11.141c0.604-1.893,0.199-4.02-1.876-5.75c-4.414-3.678-9.261-6.677-14.413-8.931
		c0.693-0.23,1.391-0.451,2.079-0.701c7.305-2.65,4.608-13.988-2.395-12.526c1.845-2.665,3.493-5.479,4.974-8.38
		c8.57-12.83,15.751-26.583,22.66-40.385c1.571-3.137,0.443-6.11-1.644-7.906c3.597-6.43,6.891-12.978,9.432-19.818
		C3866.666,1488.546,3854.381,1485.256,3851.553,1492.867z"/>
	<path opacity="0.4" fill-rule="evenodd" clip-rule="evenodd" d="M3536.212,1468.515c-0.774-7.201-5.566-12.358-12.345-14.107
		c-1.627-2.758-3.607-5.277-6.055-7.425c-0.65-2.331-1.497-4.608-2.578-6.801c-4.748-9.622-14.766-12.684-24.718-11.188
		c-1.119,0.168-2.123,0.603-3.011,1.212c-7.806-2.087-16.47,6.899-11.261,14.563c3.655,5.376,7.226,10.806,10.368,16.501
		c2.793,5.063,4.285,8.556,5.567,14.538c0.665,3.098,0.54,8.479-0.228,12.191c-1.349,6.505-4.182,12.446-7.369,18.224
		c-0.59,1.07-0.976,2.213-1.167,3.375c-14.798,14.008-29.512,28.106-45.83,40.326c-1.545,0.789-3.079,1.596-4.587,2.447
		c-4.707,2.089-9.266,4.485-13.525,7.506c-3.394,2.407-2.412,8.141,2.205,8.14c1.314,0,2.629-0.004,3.942-0.011
		c12.888,5.437,26.796,12.454,35.171,24.055c3.265,4.522,10.848,0.167,7.543-4.41c-4.113-5.698-9.174-10.4-14.773-14.417
		c2.56-1.595,3.533-5.658,0.103-7.4c-0.491-0.249-0.972-0.517-1.457-0.774c0.199-0.262,0.374-0.542,0.516-0.836
		c0.671-0.199,1.305-0.539,1.826-1.061c1.683-1.682,1.683-4.494,0-6.177c-0.313-0.314-0.63-0.629-0.942-0.943
		c3.971-2.02,7.813-4.415,11.514-7.008c1.357-0.596,2.701-1.214,4.031-1.865c1.25-0.614,1.897-1.604,2.098-2.683
		c4.134-3.231,8.065-6.605,11.77-9.842c5.943-5.197,11.666-10.686,17.165-16.398c1.884-1.468,3.514-3.278,4.955-5.283
		c5.47-5.982,10.694-12.183,15.612-18.585c1.184-1.54,1.051-3.062,0.237-4.219c3.784,0.294,7.123-1.712,9.329-4.889
		C3533.612,1480.53,3536.855,1474.498,3536.212,1468.515z M3478.779,1526.729c-0.212,0.138-0.422,0.292-0.625,0.476
		c-2.034,1.837-4.176,3.493-6.383,5.035c4.913-4.539,9.771-9.144,14.631-13.746c0.201,0.188,0.4,0.373,0.607,0.539
		C3484.303,1521.646,3481.566,1524.223,3478.779,1526.729z"/>
	<path opacity="0.4" fill-rule="evenodd" clip-rule="evenodd" d="M4009.674,1605.828c-11.111-13.514-23.33-26.036-35.376-38.703
		c-12.083-12.704-23.396-25.796-34.122-39.658c-19.784-25.573-47.124-44.068-66.812-69.662c-3.386-4.398-10.98-0.057-7.544,4.41
		c2.044,2.657,4.184,5.227,6.368,7.752c-3.148,0.852-4.864,5.815-1.229,8.11c9.841,6.208,11.899,18.255,18.068,27.365
		c3.646,5.385,10.036,9.394,15.194,13.225c5.552,4.125,11.09,8.184,15.959,13.125c18.629,18.905,32.816,42.553,55.609,57.072
		c2.361,1.506,4.63,0.404,5.738-1.455c7.547,7.997,14.979,16.097,21.969,24.597
		C4007.078,1616.361,4013.222,1610.142,4009.674,1605.828z M3928.162,1527.479c0.113-0.203,0.213-0.413,0.295-0.628
		c1.613,1.879,3.192,3.791,4.729,5.743c1.019,1.292,2.04,2.576,3.062,3.859C3933.619,1533.385,3930.938,1530.38,3928.162,1527.479z"
		/>
	<path opacity="0.4" fill-rule="evenodd" clip-rule="evenodd" d="M3955.364,1977.411c-1.751,0.005-3.501,0.026-5.251,0.058
		c-33.104,0.403-66.033,3.999-98.97,7.344c-1.74-1.607-3.989-2.646-6.565-2.636c-19.926,0.081-39.62,3.192-59.224,6.569
		c-5.213-0.509-10.503-0.611-15.826-0.613c-2.907,0-5.247,1.106-6.944,2.806c-10.547,0.337-21.096,0.63-31.635,1.018
		c-6.297,0.232-12.592,0.466-18.89,0.699c-0.2-0.027-0.367-0.051-0.478-0.066c-1.213-0.169-2.426-0.341-3.637-0.515
		c-1.677-0.239-3.345-0.214-4.904,0.097c-1.845-0.702-3.708-1.348-5.586-1.944c-1.556-0.995-3.395-1.606-5.359-1.698
		c-0.199-0.009-0.399-0.014-0.598-0.022c-13.404-3.505-27.429-4.858-41.222-6.028c-19.358-1.643-37.183-2.889-55.743-9.442
		c-0.925-0.327-1.84-0.677-2.756-1.027c-0.065-0.025-1.377-0.562-1.709-0.69c-1.518-0.661-3.018-1.367-4.502-2.103
		c-3.4-1.685-6.664-3.632-9.803-5.763c-0.694-0.472-1.372-0.966-2.05-1.46c-0.089-0.065-0.152-0.111-0.224-0.162
		c-0.1-0.082-0.218-0.177-0.379-0.307c-1.264-1.013-2.473-2.09-3.661-3.188c-1.165-1.077-2.272-2.217-3.357-3.375
		c-0.536-0.572-1.051-1.164-1.565-1.756c-0.195-0.224-1.156-1.421-1.392-1.694c-1.679-2.257-3.185-4.639-4.56-7.091
		c-0.757-1.352-1.442-2.743-2.104-4.143c-0.09-0.191-0.407-0.92-0.564-1.273c-0.279-0.709-0.552-1.424-0.815-2.141
		c-1.103-3.008-1.959-6.102-2.683-9.222c-0.371-1.604-0.675-3.226-0.955-4.849c-0.093-0.544-0.171-1.091-0.25-1.638
		c0.054,0.269-0.242-2.075-0.277-2.427c-0.665-6.57-0.629-13.2-0.231-19.785c0.209-3.442,0.567-6.874,0.994-10.294
		c0.023-0.161,0.052-0.364,0.089-0.631c0.144-1.001,0.303-2,0.46-3c0.323-2.038,0.692-4.068,1.076-6.094
		c3.772-19.975,10.363-39.451,17.386-58.485c12.467-33.795,28.005-66.322,42.806-99.144c12.765-11.971,23.238-26.188,31.19-41.815
		c9.182-18.038,15.148-37.529,20.258-57.046c1.718-6.566,3.24-13.18,5.011-19.729c0.562-0.713,0.998-1.609,1.241-2.717
		c3.868-17.635,16.445-31.173,31.251-40.762c7.401-4.793,15.411-8.575,23.765-11.373c8.218-2.751,16.898-1.607,25.405-2.502
		c7.409-0.781,15.03-3.507,19.62-9.674c4.287-5.761-1.174-11.807-6.594-13.461c-5.2-1.587-11.234-1.354-16.601-1.062
		c-3.354,0.183-6.968,0.408-10.43,1.062c-2.335,0.262-4.771,0.47-7.233,0.545c-0.059-0.003-0.115-0.012-0.175-0.015
		c-3.013-0.134-6.017-0.333-9.017-0.632c-0.385-0.041-0.768-0.087-1.15-0.131c0.32,0.031-0.743-0.11-1.362-0.194
		c-4.74-1.106-9.067-3.26-12.331-7.107c-2.156-2.542-3.482-5.914-4.47-9.32c-0.26-2.973-0.304-5.965-0.237-8.944
		c0.171-7.676,0.993-13.187,1.984-19.404c1.109-6.962,2.469-13.882,3.631-20.836c2.939-17.588,1.914-34.696-2.141-52.083
		c-4.319-18.521-11.289-36.257-14.175-55.13c-0.821-5.358-7.464-8.241-12.214-6.935c-5.667,1.559-7.75,6.867-6.934,12.212
		c2.167,14.166,6.576,27.731,10.514,41.438c-1.022,2.041-1.361,4.472-1.044,6.934c0.001,0.005,0.001,0.009,0.002,0.015
		c0.063,0.573,0.099,1.15,0.136,1.725c0.076,1.221,0.076,2.444,0.061,3.665c-0.036,2.657-0.287,5.308-0.607,7.945
		c0.038-0.448-0.436,2.821-0.537,3.438c-0.264,1.558-0.557,3.11-0.858,4.661c-0.692,3.568-1.486,7.116-2.303,10.657
		c-3.405,14.781-7.404,29.426-10.028,44.375c-2.535,14.448-4.181,29.593-0.557,44.012c0.696,2.768,1.637,5.381,2.793,7.837
		c-0.562,0.649-1.005,1.45-1.272,2.42c-0.225,0.817-0.243,1.726-0.101,2.625c-3.245,1.944-4.754,5.722-4.537,9.363
		c-4.262,4.697-6.321,11.328-4.892,18.79c0.347,1.811,1.728,3.25,3.424,4.04c-1.983,3.733-3.753,7.59-5.35,11.504
		c-6.911,16.951-9.936,35.294-15.071,52.811c-5.439,18.542-11.858,35.234-22.374,51.506c-0.161,0.134-0.321,0.277-0.476,0.445
		c-0.928,1.005-1.826,2.034-2.705,3.075c-1.024-0.25-2.107-0.353-3.193-0.299c-0.241-3.337-1.037-6.748-2.358-10.194
		c-3.962-10.33-11.199-19.277-14.225-29.966c-1.53-5.412-9.962-3.109-8.424,2.322c0.401,1.417,0.876,2.805,1.398,4.173
		c-3.228-0.433-6.785,2.876-4.532,6.4c0.177,0.277,0.342,0.558,0.509,0.838c-1.903,3.133-3.45,6.46-4.867,9.847
		c-0.349,0.543-0.693,1.083-1.033,1.621c-3.477,5.518-7.025,10.989-10.146,16.722c-4.701,8.639-9.713,20.35-5.291,29.907
		c0.06,1.711,0.904,2.836,2.069,3.388c1.409,1.645,3.641,2.428,5.677,1.19c0.617-0.375,1.209-0.786,1.791-1.214
		c1.117,3.186,2.744,6.311,4.145,9.178c0.316,0.647,0.781,1.109,1.326,1.435c-5.355,10.54-10.553,21.148-15.635,31.809
		c-9.166,10.289-23.014,15.45-32.658,25.791c-1.035,1.109-1.377,2.354-1.232,3.503c-2.478-0.307-4.182,1.513-4.598,3.573
		c-0.309,0.271-0.584,0.587-0.81,0.954c-5.88,9.578-11.435,21.926-11.763,33.75c-5.173,7.151-10.049,14.521-14.445,22.239
		c-1.123,1.969-0.393,4.259,1.103,5.577c-10.362,13.269-18.951,28.148-19.172,45.469c-0.035,2.919,1.303,5.385,3.298,7.129
		c-13.272,19.211-32.646,37.334-33.078,61.963c-0.1,5.62,3.665,8.768,7.943,9.456c1.336,1.757,3.205,3.116,5.302,3.691
		c4.04,1.112,7.81-0.419,10.217-3.354c1.119,2.844,3.382,5.225,6.46,5.735c11.481,1.907,24.252,4.286,36.506,3.781
		c7.63,6.895,19.911,7.675,29.784,8.194c-2.72,6.114,0.285,14.988,9.017,14.986c26.913-0.009,53.819-0.51,80.72-1.253
		c1.391,0.781,3.071,1.25,5.052,1.253c2.954,0.005,5.906,0.048,8.858,0.108c6.881,1.571,13.588,4.087,19.946,6.965
		c9.186,4.156,18.125,9.297,26.204,15.42c6.861,6.592,13.13,13.809,18.531,20.937c3.288,4.341,6.339,8.86,9.186,13.502
		c1.021,2.999,1.979,6.021,2.802,9.087c2.795,10.409,4.52,21.279,6.263,31.965c-0.294,0.72-0.464,1.543-0.463,2.478
		c0.039,43.082,3.369,86.077,3.567,129.155c0.195,42.852,7.066,85.32,7.154,128.155c0.002,1.171,0.269,2.168,0.715,3.004
		c-0.555,27.983-1.103,55.967-1.113,83.958c-0.002,7.17,11.117,7.17,11.119,0c0.011-27.864,0.557-55.755,1.113-83.653
		c0.547-0.894,0.875-1.994,0.873-3.31c-0.013-6.149-0.185-12.291-0.447-18.427c1.241-65.732,1.784-131.467-5.246-196.925
		c-0.216-2.023-0.451-4.046-0.685-6.069c1.802-0.74,3.199-2.376,3.199-4.916v-24.682c2.755-1.855,4.446-5.079,4.767-8.674
		c0.5-5.579,0.096-11.161-0.967-16.671c0.851-9.857,2.477-19.622,4.295-29.366c1.241-3.377,2.604-6.711,4.116-9.987
		c3.492-7.565,7.715-14.757,12.356-21.676c5.596-5.211,11.212-10.397,16.992-15.389c4.071-1.471,8.143-2.942,12.215-4.407
		c46.601-6.926,92.698-18.078,139.942-19.513c1.499-0.046,2.997-0.076,4.496-0.096c1.567-0.018,3.134-0.033,4.701-0.036
		C3968.68,1998.027,3968.682,1977.39,3955.364,1977.411z M3600.287,1675.47c0.271,0.55,0.532,1.103,0.784,1.655
		c-0.491,0.389-0.894,0.895-1.157,1.52c-0.348-2.068-0.721-4.134-1.168-6.177C3599.272,1673.466,3599.79,1674.464,3600.287,1675.47z
		 M3592.765,1689.344c0.144,0.77,0.3,1.538,0.464,2.301c-0.311,0.27-0.62,0.541-0.932,0.812c-0.028-0.043-0.06-0.085-0.091-0.127
		C3592.451,1691.334,3592.643,1690.336,3592.765,1689.344z M3589.712,1672.391c0.138,0.571,0.272,1.144,0.397,1.719
		c-0.402-0.128-0.806-0.252-1.214-0.368C3589.17,1673.293,3589.445,1672.843,3589.712,1672.391z M3583.921,1681.49
		c0.565,0.116,1.132,0.244,1.696,0.384c-0.085,0.065-0.17,0.122-0.249,0.196c-1.99,1.794-3.812,3.726-5.493,5.762
		C3581.168,1685.704,3582.537,1683.597,3583.921,1681.49z M3533.237,1933.435c-0.146-0.553-0.268-1.112-0.386-1.671
		c-0.027-0.381-0.046-0.764-0.068-1.146c0.318,1.56,0.662,3.117,1.053,4.668c0.183,0.716,0.377,1.428,0.578,2.138
		C3533.996,1936.102,3533.596,1934.775,3533.237,1933.435z"/>
	<path opacity="0.4" fill-rule="evenodd" clip-rule="evenodd" d="M3900.572,1371.847c-6.532-6.398-14.109-11.004-23.23-12.457
		c-0.994-0.159-1.984-0.159-2.925-0.005c-6.739-6.512-17.506-8.129-26.517-8.544c-10.912-0.504-23.008,0.861-32.939,5.655
		c-2.691,1.297-3.623,4.009-3.226,6.579c-1.294,0.352-2.584,0.717-3.872,1.095c-2.061-0.072-4.118-0.153-6.173-0.258
		c-3.327-0.167-5.371,1.702-6.151,4.098c-11.901,3.813-24.09,7.718-36.735,6.624c-8.679-0.75-8.606,12.758,0,13.502
		c17.608,1.522,33.843-5.321,50.394-10.427c21.58,0.645,43.273-0.623,64.571-4.109c0.76-0.125,1.431-0.408,2.024-0.797
		c5.985,1.334,10.715,4.166,15.231,8.59C3897.245,1387.489,3906.799,1377.948,3900.572,1371.847z"/>
	<path fill-rule="evenodd" clip-rule="evenodd" fill="#FFEFDF" d="M3821.646,1350.852c-42.073,27.41-88.184,34.794-137.914,34.264
		c-5.625-17.752-15.581-34.829-4.186-54.896c4.812-8.47,4.997-19.229,7.523-29.966c17.151-0.822,36.576-1.754,57.479-2.757
		C3750.875,1336.637,3790.28,1336.96,3821.646,1350.852z"/>
	<path fill-rule="evenodd" clip-rule="evenodd" fill="#DBDADA" d="M4103.713,1355.648c8.762-22.123,19.353-40.123,36.352-54.289
		c1.625-1.355,2.94-3.143,4.764-4.159c7.274-4.047,13.807-11.054,23.625-7.01c9.74,4.009,11.023,12.317,12.102,21.139
		c4.535,37.071-4.288,71.94-27.695,101.108c-17.342,21.602-32.722,43.67-45.355,67.728c-11.002,20.95-21.683,42.091-33.786,62.485
		c-8.724,14.699-19.565,28.303-29.435,42.413c-6.331,9.059-12.531,18.199-18.933,27.214c-5.206,7.331-10.8,7.729-19.194,2.935
		c-34.117-19.479-58.598-48.163-84.535-75.464c-14.395-15.153-28.1-30.871-42.299-46.188c-2.28-2.459-5.516-4.145-9.2-6.841
		c-4.186,11.397-7.893,21.984-11.96,32.45c-4.951,12.738-10.037,25.439-15.381,38.038c-4.967,11.708-0.037,22.155,4.789,32.322
		c11.004,23.177,22.057,46.361,34.189,69.032c16.996,31.765,34.304,63.418,52.732,94.473c24.73,41.675,51.111,82.495,75.9,124.142
		c14.49,24.346,27.357,49.538,40.732,74.454c3.569,6.65,6.67,13.567,9.348,20.573c3.49,9.145,1.168,11.268-9.342,11.387
		c-23.256,0.258-46.503,1.048-69.756,1.475c-5.455,0.101-7.719,1.598-9.195,7.29c-10.822,41.741-20.376,83.909-34.271,124.774
		c-14.214,41.793-31.566,82.794-49.967,123.182c-27.812,61.04-57.37,121.398-86.963,181.712
		c-8.849,18.039-20.274,34.98-30.583,52.387c-0.853,1.442-2.017,2.835-3.356,3.899c-13.802,10.944-22.54,10.538-32.264-3.665
		c-7.748-11.315-13.612-23.819-19.631-36.087c-7.391-15.061-14.385-30.309-21.002-45.681
		c-16.882-39.219-33.297-78.614-50.21-117.826c-13.238-30.688-27.497-61.005-40.243-91.866
		c-9.002-21.799-16.222-44.235-24.258-66.381c-7.214-19.883-14.647-39.698-21.627-59.651c-5.058-14.462-9.778-29.037-14.185-43.683
		c-2.522-8.392-6.516-12.562-17.122-12.767c-14.72-0.284-29.354-3.522-44.075-5.101c-8.268-0.886-16.852-2.274-24.898-1.09
		c-10.141,1.489-12.245-2.743-10.374-9.945c3.931-15.129,7.708-30.413,13.405-45c16.873-43.213,33.995-86.366,52.384-129.028
		c7.666-17.783,8.626-34.35,3.584-52.868c-2.956-10.863,0.383-23.179,0.555-34.846c0.061-4.103,0.731-9.54-1.662-12.08
		c-7.23-7.675-15.767-14.286-23.909-21.196c-6.969-5.916-14.848-11.054-21.025-17.604c-25.827-27.374-54.482-52.639-73.664-85.058
		c-4.007-6.772-9.598-12.86-12.643-19.944c-1.524-3.542-0.402-9.519,1.988-12.857c17.551-24.504,35.685-48.646,53.714-72.848
		c12.579-16.89,25.574-33.518,37.857-50.593c12-16.684,8.973-42.71-5.707-57.757c-5.788-5.931-13.365-11.666-15.802-18.78
		c-2.926-8.555-2.269-18.578-1.327-27.801c1.668-16.34,3.514-31.924-7.865-46.781c-3.969-5.182-4.334-14.334-3.069-21.143
		c3.905-21.058,4.961-41.275-3.197-62.089c-3.298-8.415-1.402-19.54,1.013-28.776c5.407-20.668,7.222-40.643,2.365-61.979
		c-2.502-10.985,1.663-24.053,5.572-35.351c4.641-13.41,11.89-26.091,18.632-38.8c19.357-36.479,28.516-75.157,29.195-115.682
		c0.38-22.689,6.557-43.756,21.381-61.775c5.594-6.798,14.067-11.577,21.401-17.077c14.063-10.548,27.745-21.647,42.598-31.134
		c7.959-5.081,17.734-8.501,27.214-10.51c14.753-3.124,30.588-2.572,44.823-6.871c25.845-7.805,47.614-1.747,68.875,11.623
		c3.103,1.953,9.431,2.477,12.591,0.841c27.354-14.147,55.165-11.333,82.377-1.313c14.28,5.258,27.361,13.609,40.463,21.337
		c16.051,9.469,32.54,18.668,46.93,30.081c8.663,6.871,17.123,17.011,19.547,26.978c3.628,14.915,10.359,27.926,17.75,41.04
		c11.639,20.65,24.401,40.831,34.551,62.1c8.348,17.49,10.11,36.7,7.188,55.862c-2.199,14.405-1.482,27.899,5.953,41.409
		c9.415,17.107,9.775,35.465,6.279,54.537c-3.41,18.593-3.467,37.707-6.229,56.432c-1.039,7.053-3.834,15.101-8.779,20.203
		c-14.866,15.344-26.322,31.747-32.82,51.943c-8.375,26.024-29.318,42.894-54.126,55.686c-17.415,8.979-35.036,17.607-54.315,27.27
		c8.359,2.76,14.881,5.665,21.756,7.052c29.381,5.926,44.836,25.908,57.134,48.898c14.589,27.271,28.396,54.906,43.008,82.165
		c12.472,23.26,25.608,46.21,39.112,70.492c7.512-8.457,13.32-14.963,19.09-21.499c14.285-16.183,29.891-31.534,42.438-48.818
		c11.705-16.128,20.316-34.236,29.865-51.676c1.516-2.765,2.056-7.041,0.912-9.864c-8.764-21.621-3.473-46.214-16.618-66.984
		c-2.35-3.713-2.223-9.337-1.651-13.907c0.327-2.625,3.467-6.354,6.031-6.936c2.656-0.602,7.27,1.188,9.053,3.353
		C4095.657,1341.899,4098.844,1347.978,4103.713,1355.648z M3864.367,1460.598c1.215,0.388,2.431,0.771,3.646,1.159
		c4.362,8.538,7.246,18.165,13.37,25.41c17.875,21.148,36.02,42.263,55.985,61.662c21.287,20.682,44.932,39.236,67.196,59.059
		c5.509,4.906,9.294,4.213,13.202-0.909c4.188-5.491,8.331-11.027,12.176-16.731c17.865-26.498,35.646-53.048,53.401-79.611
		c3.907-5.843,6.461-11.413-2.097-16.229c-12.238-6.885-16.092-7.002-22.963,1.207c-16.736,20.004-33.348,40.104-49.98,60.181
		c-5.78,6.976-10.904,6.551-15.156-1.357c-9.757-18.147-19.529-36.291-29.239-54.462c-16.579-31.027-34.897-61.385-49.051-93.349
		c-9.661-21.828-24.342-36.613-46.73-45.39c-13.881-5.441-26.938-9.301-42.808-0.369c-19.08,10.738-40.301,19.275-61.758,24.923
		c-21.486,5.656-44.421,6.488-66.68,9.678c-2.802,0.401-7.376,1.895-7.725,3.521c-3.835,17.859-7.096,35.83-10.3,53.804
		c-1.948,10.934-3.765,21.898-5.162,32.905c-0.654,5.145-1.43,10.749,0.034,15.567c3.583,11.787,4.877,22.779-0.799,34.655
		c-4.672,9.782-9.148,20.654-9.262,31.084c-0.165,15.078-3.847,28.665-9.922,42.236c-2.334,5.213-4.019,10.972-4.449,16.585
		c-1.857,24.224-10.942,45.326-28.854,63.148c-4.629,4.608-8.252,10.098-12.338,15.184c-0.981-0.321-1.964-0.639-2.945-0.96
		c-1.001-16.874,9.085-35.942-10.578-49.835c-8.995,19.812-18.166,39.326-26.464,59.159c-1.021,2.442,1.688,7.476,4.249,9.782
		c12.285,11.075,14.556,22.88,4.192,35.159c-7.089,8.398-15.675,15.835-24.36,22.872c-6.401,5.188-16.594,7.597-20.613,13.779
		c-8.355,12.861-14.718,27.079-20.141,41.322c-14.088,36.999-27.337,74.276-40.668,111.521
		c-3.975,11.102-7.115,22.463-10.984,34.812c7.161,1.052,12.084,1.983,17.057,2.469c14.449,1.413,28.921,2.625,43.379,3.957
		c22.201,2.051,44.442,6.172,66.59,5.76c40.568-0.755,81.091-4.077,121.618-6.523c33.755-2.038,67.509-4.132,101.224-6.628
		c20.565-1.522,41.018-4.715,61.598-5.61c25.183-1.094,50.446-0.41,75.67-0.816c10.744-0.173,21.464-1.397,32.209-1.725
		c21.508-0.662,43.023-1.033,66.452-1.568c-9.417-20.41-16.575-38.528-25.95-55.589c-11.828-21.528-25.867-41.988-38.219-63.28
		c-17.107-29.488-33.417-59.376-50.285-88.983c-13.28-23.316-24.852-47.787-40.88-69.352
		c-18.978-25.526-31.254-53.931-46.614-80.991c-5.948-10.482-9.356-22.562-16.912-31.78c-4.441-5.417-4.427-8.091-2.442-13.625
		c11.526-32.119,22.458-64.424,33.835-96.591C3859.422,1467.221,3862.251,1464.021,3864.367,1460.598z M3535.404,1064.711
		c-1.074,0.337-2.148,0.671-3.222,1.006c0.82,4.887,1.648,9.772,2.458,14.659c2.72,16.419,4.695,32.467-2.117,48.917
		c-4.766,11.507-9.437,25.153-0.392,36.276c10.602,13.036,11.017,26.693,8.352,41.349c-1.37,7.532,0.198,13.521,5.67,19.668
		c10.687,12.003,8.46,27.342,10.792,41.545c-2.223-1.657-3.655-3.589-4.01-5.68c-2.099-12.368-6.784-23.13-17.091-31.997
		c-3.68-3.165-5.292-9.678-5.551-14.766c-0.409-8.054,1.65-16.193,1.611-24.294c-0.023-4.455-0.668-10.352-3.663-13.104
		c-15.572-14.322-17.656-30.301-9.1-48.263c8.939-18.766,13.163-37.341,5.237-57.987c-5.807-15.123-7.782-31.517-11.57-47.324
		c-3.082-12.853-10.159-27.877,0.506-37.993c14.6-13.849,18.725-32.442,30.647-47.046c3.061-3.749,7.072-6.805,10.438-10.353
		c3.757-3.964,10.096-7.929,10.439-12.233c2.297-28.757,23.775-41.139,48.225-50.928c19.914-7.974,40.088-15.479,60.522-22.19
		c7.038-2.313,15.218-1.614,22.873-2.29c0.104,1.042,0.21,2.082,0.312,3.124c-2.289,0.904-4.493,2.229-6.884,2.646
		c-14.981,2.614-24.212,11.949-33.528,22.401c-9.431,10.581-20.337,20.386-32.077,28.715c-13.8,9.788-29.479,17.229-43.809,26.412
		c-13.492,8.644-26.747,17.892-33.248,32.771c-1.784,4.078-2.492,8.567-3.693,12.865c6.529-6.848,8.791-15.739,14.72-21.091
		c9.448-8.522,20.96-15.266,32.278-21.722c19.49-11.117,39.839-20.932,59.184-32.251c14.717-8.613,27.569-20.254,42.84-27.723
		c15.571-7.616,25.079-16.179,27.364-33.635c2.043-15.605-1.464-26.744-17.659-32.709c-15.294-5.637-30.732-7.227-46.66-1.796
		c-5.015,1.712-10.559,2.528-15.919,2.826c-25.849,1.428-49.264,7.6-67.521,26.352c-5.483,5.633-12.718,9.995-19.729,14.069
		c-23.084,13.411-41.939,29.303-43.5,57.045c-1.006,17.944-2.09,35.91-4.156,53.766c-1.547,13.358-2.606,27.302-7.625,39.66
		c-9.087,22.377-20.878,43.806-31.712,65.557c-7.091,14.232-10.477,28.923-6.517,44.443c6.342,24.846,4.417,48.977-5.078,72.95
		c-2.097,5.289-2.646,12.657-0.351,17.643c8.972,19.493,9.079,38.892,2.773,58.778c-3.374,10.636-2.454,20.535,4.004,30.285
		c2.928,4.42,4.665,10.078,5.058,15.298c0.837,11.141,1.498,22.461,0.291,33.522c-1.56,14.262,4.526,24.588,16.113,32.366
		c11.135,7.474,14.908,17.026,15.563,29.603c0.607,11.685,0.022,25.261,14.673,31.733c13.696,6.053,19.785,17.218,23.993,29.845
		c5.901,17.709,10.333,36.035,18.29,52.907c8.693,18.429,17.71,36.385,18.922,56.836c0.898,15.199,7.26,27.869,18.551,39.056
		c4.668,4.629,7.554,11.483,9.409,17.797c5.41,18.406,9.893,37.053,15.171,57.257c16.514-14.539,20.453-30.363,20.51-47.901
		c0.031-9.928-2.583-20.941,7.876-28.513c11.115-8.046,9.21-18.653,5.304-28.666c-3.963-10.166-1.585-18.206,4.849-26.516
		c9.469-12.234,10.578-26.381,4.989-39.819c-4.929-11.854-3.277-22.153,1.36-33.239c2.451-5.856,5.069-12.636,4.157-18.535
		c-2.057-13.326,0.022-25.412,5.641-37.643c2.607-5.676,4.172-12.578,3.415-18.618c-1.424-11.36-5.92-22.397-7.163-33.757
		c-1.068-9.77-0.06-19.882,1.28-29.693c1.182-8.654,6.745-17.387,5.737-25.588c-2.967-24.171-8.021-48.134-12.875-72.072
		c-0.603-2.974-4.449-6.041-7.605-7.788c-14.347-7.949-29.067-15.311-43.499-23.132c-19.677-10.663-34.007-26.503-44.94-44.54
		c-16.83-27.762-27.703-57.348-25.448-90.069C3540.078,1070.468,3536.979,1067.546,3535.404,1064.711z M3850.578,1170.431
		c-6.667,7.982-12.062,16.674-19.657,23.098c-19.591,16.563-40.071,32.217-60.362,48.05c-10.771,8.405-17.711,18.287-18.623,31.886
		c-1.906,28.491,14.683,44.924,40.6,55.121c15.951,6.277,32.518,14.509,49.986,5.891c21.063-10.39,42.235-21.032,61.551-33.931
		c17.583-11.742,34.794-25.255,38.082-47.623c2.176-14.81,8.74-27.659,19.193-38.947c14.84-16.025,21.93-34.702,21.552-55.918
		c-0.194-10.847-1.968-22.119,0.509-32.461c4.569-19.071-0.93-36.082-7.24-53.527c-2.504-6.929-5.361-14.798-4.185-21.66
		c6.156-35.976-7.005-67.902-23.422-98.732c-12.366-23.228-28.167-44.721-32.728-71.252c-1.213-7.054-6.64-15.84-12.976-19.309
		c-16.931-9.276-30.863-22.21-47.033-31.822c-22.397-13.317-46.637-23.002-74.501-26.068c-33.908-3.729-55.938,17.535-54.424,46.435
		c0.3,5.75,7.401,13.157,13.442,16.141c6.499,3.212,15.428,2.262,23.319,2.867c17.931,1.376,33.807,6.765,47.042,18.732
		c28.321,25.609,47.373,54.933,44.145,93.384c-1.876,22.348,3.732,42.673,15.45,62.264c8.086,13.523,9.586,29.225,6.812,44.319
		c-2.503,13.622-8.052,26.735-11.787,40.189c-3.16,11.378-5.366,22.205-1.724,34.744c3.965,13.65,5.717,29.399,2.394,42.941
		c-3.618,14.73-5.392,28.384-1.816,42.949c1.193,4.86,1.231,10.002,1.458,15.032c0.579,12.739,0.991,25.488,1.338,38.234
		c0.015,0.507-2.6,4.841-3.604,5.596c-11.149-10.742-13.216-26.896-8.128-40.419c2.936-7.798,2.615-14.542-1.912-21.222
		c-9.068-13.375-7.232-26.812-1.611-40.82C3856.162,1193.508,3859.652,1181.961,3850.578,1170.431z M3754.156,2386.084
		c0,22.047-0.228,44.099,0.246,66.138c0.069,3.267,2.808,8.432,5.454,9.175c2.83,0.797,8.418-1.696,10.371-4.325
		c9.291-12.52,19.028-24.986,26.221-38.571c11.19-21.138,20.717-43.059,30.472-64.831c19.568-43.677,39.064-87.382,58.109-131.257
		c14.284-32.905,28.777-65.78,41.31-99.278c7.257-19.39,9.01-40.598,16.509-59.879c8.916-22.932,13.44-46.209,15.5-70.251
		c0.551-6.413-2.361-7.764-8.131-7.435c-22.613,1.292-45.226,2.629-67.851,3.694c-6.061,0.286-12.23-0.934-18.246-0.401
		c-12.089,1.065-24.063,3.436-36.163,4.22c-18.498,1.192-37.06,1.688-55.604,2.092c-7.873,0.17-11.997,2.701-12.491,10.573
		c-0.7,11.127-3.261,22.199-3.346,33.309c-0.514,67.503-0.406,135.013-0.801,202.519c-0.206,35.281-1.063,70.564-1.519,105.847
		C3754.029,2360.307,3754.17,2373.194,3754.156,2386.084z M3738.553,2462.288c1.309-0.066,2.618-0.13,3.927-0.197
		c0.985-2.93,2.745-5.843,2.829-8.795c0.511-17.969,0.661-35.944,0.886-53.918c0.363-28.759,0.626-57.522,1.087-86.282
		c0.088-5.377,1.448-10.757,1.311-16.116c-0.854-33.105-2.929-66.213-2.742-99.309c0.215-38.63,2.451-77.249,3.558-115.88
		c0.379-13.201,0.332-26.431-0.145-39.628c-0.439-12.199-1.191-24.438-2.978-36.511c-0.46-3.116-5.169-7.925-8.177-8.094
		c-15.09-0.853-30.279-0.854-45.403-0.351c-29.034,0.97-58.061,2.249-87.062,3.858c-17.879,0.992-35.702,2.835-53.963,4.328
		c0.636,2.64,1.114,5.634,2.081,8.485c13.008,38.368,26.067,76.722,39.158,115.067c4.854,14.217,8.84,28.78,14.93,42.528
		c22.719,51.3,46.473,102.202,69.188,153.504c14.546,32.857,27.655,66.267,42.006,99.203
		C3724.716,2437.197,3732.002,2449.604,3738.553,2462.288z M3535.48,1488.947c-25.506,22.461-51.042,45.04-76.719,67.478
		c-4.806,4.201-2.288,7.493,0.184,11.529c18.141,29.644,36.019,59.423,54.148,89.069c6.474,10.587,13.024,21.169,20.252,31.31
		c7.98,11.196,23.37,10.298,29.816-2.005c9.389-17.913,18.238-36.104,26.45-54.512c5.771-12.931,4.212-16.149-8.839-23.716
		c-8.731-5.063-13.729-11.978-14.369-21.509c-0.568-8.451-0.269-17-1.51-25.355c-1.168-7.868-2.582-16.088-6.111-23.187
		C3550.381,1521.159,3534.197,1507.546,3535.48,1488.947z M3492.338,1430.466c-9.359,10.388-19.227,19.94-27.369,30.636
		c-24.125,31.69-47.786,63.692-70.932,96.006c-2.309,3.224-1.654,10.444,0.707,14.049c8.503,12.976,17.569,25.771,27.812,37.583
		c19.567,22.562,40.332,44.217,60.104,66.63c8.591,9.738,14.303,3.291,21.643-1.288c8.578-5.354,2.886-9.886,0.007-14.426
		c-8.268-13.041-17.153-25.744-25.289-38.853c-9.06-14.595-16.729-29.999-26.543-44.115c-9.592-13.797-10.44-13.276,1.912-23.813
		c1.058-0.903,2.091-1.843,3.04-2.843c23.276-24.509,46.314-49.225,70.021-73.364c4.105-4.181,3.581-6.694,2.142-11.356
		C3524.132,1447.618,3509.307,1438.949,3492.338,1430.466z M3821.645,1351.266c-31.364-13.889-70.77-14.213-77.098-53.354
		c-20.9,1.002-40.325,1.935-57.477,2.758c-2.527,10.736-2.712,21.494-7.523,29.966c-11.396,20.068-1.44,37.144,4.186,54.897
		C3733.462,1386.059,3779.573,1378.677,3821.645,1351.266z M4093.306,1489.474c15.979-27.916,30.405-55.613,51.027-80.476
		c17.073-20.584,26.286-46.12,27.737-72.798c0.597-10.95-0.788-22.271-3.321-33c-1.774-7.522-7.648-9.745-15.397-3.688
		c-21.217,16.582-35.643,37.067-42.941,61.968c-0.607,2.07-1.717,4.01-3.348,7.73c-7.615-10.608-14.188-19.767-20.762-28.925
		c-2.07,5.078-1.93,9.089-1.134,12.983c1.878,9.19,4.859,18.241,5.956,27.497c1.824,15.409,3.334,30.528,19.805,39.489
		c1.218,0.663,1.096,3.478,1.738,5.818c-3.871-0.528-6.862-0.937-9.35-1.274c-10.221,18.904-20.084,37.145-30.139,55.743
		C4080.389,1483.74,4086.523,1486.463,4093.306,1489.474z M3529.093,1715.798c-12.913,14.396-12.022,32.823-5.318,51.643
		c3.571,10.027,8.892,11.992,19.04,8.533c18.486-6.298,27.854-19.3,32.148-36.594c1.947-7.838-1.354-11.504-8.867-13.397
		c-14.117-3.559-14.305-3.937-10.586-17.468c0.42-1.525,0.59-3.111,1.029-5.519c-7.827,1.731-15.038,8.367-21.551,0.195
		c-4.504-5.652-8.411-11.721-12.97-17.331c-2.905-3.576-6.541-9.316-9.802-9.29c-4.229,0.034-8.412,4.844-12.914,7.795
		C3509.881,1695.527,3519.113,1705.272,3529.093,1715.798z M3540.687,1052.292c1.425-0.156,2.849-0.31,4.273-0.465
		c0.998-18.788,2.48-37.572,2.655-56.367c0.044-4.68-4.131-9.394-6.368-14.091c-5.565,2.53-12.314,3.999-16.347,7.908
		c-3.666,3.552-6.163,9.788-6.07,14.791C3519.178,1022.785,3527.892,1038.493,3540.687,1052.292z M3578.335,908.862
		c27.459-6.92,55.628-24.042,61.404-36.95C3607.984,875.541,3584,884.929,3578.335,908.862z"/>
	<path fill-rule="evenodd" clip-rule="evenodd" fill="#FFEFDF" d="M3843.291,974.667c0,9.788-0.99,21.953,0.328,33.896
		c0.964,8.735,3.748,17.729,7.861,25.639c8.878,17.065,17.752,33.967,17.51,53.473c-0.053,4.283-1.594,8.604-2.822,12.812
		c-5.502,18.857-9.869,38.124-17.203,56.348c-4.465,11.095-11.783,22.349-20.984,30.372c-17.699,15.437-36.922,29.606-56.874,42.46
		c-17.652,11.371-28.391,24.837-26.478,45.365c0.504,5.397-1.406,8.743-7.296,9.092c-15.553,0.919-31.115,1.892-46.689,2.221
		c-6.844,0.146-10.729-2.855-11.198-10.513c-0.764-12.42-3.334-24.743-5.174-37.338c16.478,0.881,30.896,1.654,45.317,2.424
		c0.19-1.39,0.38-2.783,0.572-4.173c-5.698-1.013-11.448-1.824-17.089-3.067c-33.828-7.449-66.908-17.036-93.973-38.383
		c-25.023-19.735-40.92-45.378-50.652-74.513c-10.845-32.466-6.3-64.879-1.08-97.511c2.082-13.021,2.575-26.402,2.256-39.584
		c-0.423-17.471,6.307-31.044,21.524-40.957c5.355-3.489,10.796-7.031,16.657-9.655c30.669-13.73,57.82-32.294,84.539-51.697
		c8.669-6.295,19.449-10.399,29.834-14.117c3.894-1.395,9.533,0.757,14.158,2.001c10.622,2.861,20.982,8.28,31.677,8.836
		c22.284,1.153,40.919,7.8,52.952,25.513c10.255,15.093,18.861,31.19,27.595,47.131c2.11,3.853,1.849,8.837,2.712,13.485
		 M3733.835,1140.743c5.82,0,11.674,0.382,17.454-0.071c18.256-1.431,33.74-8.075,44.178-22.635
		c1.174-1.638-0.992-5.363-1.611-8.122c-2.623,0.851-7.198,1.236-7.578,2.622c-4.97,18.169-20.789,20.242-36.614,21.542
		c-33.581,2.76-66.744,0.825-99.106-9.031c-3.285-1-7.66,0.059-11.122,1.219c-1.128,0.379-2.096,5.355-1.167,6.106
		c2.71,2.189,6.312,4.401,9.742,4.677"/>
	<path opacity="0.2" fill-rule="evenodd" clip-rule="evenodd" fill="#807870" d="M3661.706,1030.736
		c-2.515,14.232-13.369,29.915-26.077,32.297l-20.65-5.428c-20.679-2.246-50.564-22.369-52.152-28.194
		c0,0-10.385-12.111-0.523-33.543c11.547-25.095,41.748-38.724,52.852-41.753c24.297-6.628,40.162,6.996,40.162,6.996
		c2.207,0,14.638,14.918,14.638,23.667L3661.706,1030.736z"/>
	<path opacity="0.2" fill-rule="evenodd" clip-rule="evenodd" fill="#807870" d="M3736.332,1030.736
		c2.515,14.232,13.369,29.915,26.076,32.297l20.65-5.428c20.679-2.246,50.565-22.369,52.152-28.194c0,0,10.385-12.111,0.523-33.543
		c-11.547-25.095-41.748-38.724-52.852-41.753c-24.297-6.628-40.162,6.996-40.162,6.996c-2.207,0-14.637,14.918-14.637,23.667
		L3736.332,1030.736z"/>
	<path fill-rule="evenodd" clip-rule="evenodd" fill="#2D2823" d="M3733.785,951.049c0.47-6.396,1.408-19.191,1.408-19.191
		c23.793,0.723,71.39,2.169,71.39,2.169c8.876,0,39.8,44.051,39.8,44.051c-0.63-0.71-1.261-1.421-1.893-2.132
		c-9.174-6.411-18.352-12.822-27.527-19.233c-2.852-1.04-5.704-2.078-8.556-3.118c-22.673,0.164-45.353,0.329-68.026,0.494"/>
	<path fill-rule="evenodd" clip-rule="evenodd" fill="#2D2823" d="M3665.253,957.292c-22.675-0.164-45.354-0.33-68.026-0.495
		c-2.851,1.04-5.705,2.08-8.557,3.118c-9.174,6.411-18.353,12.823-27.527,19.234c-0.631,0.71-1.262,1.42-1.893,2.13
		c0,0,30.925-44.05,39.801-44.05c0,0,47.596-1.446,71.39-2.169c0,0,0.938,12.795,1.409,19.191"/>
	<path fill-rule="evenodd" clip-rule="evenodd" d="M3733.62,1141.121c-28.315,0.614-56.95-2.188-85.61-4.486
		c-3.431-0.275-7.032-2.486-9.742-4.676c-0.929-0.75,0.039-5.729,1.167-6.106c3.462-1.161,7.837-2.22,11.122-1.22
		c32.362,9.856,65.525,11.791,99.106,9.031c15.825-1.301,31.645-3.373,36.614-21.542c0.38-1.385,4.955-1.771,7.578-2.622
		c0.619,2.759,2.785,6.485,1.611,8.123c-10.438,14.559-25.92,21.203-44.178,22.634
		C3745.415,1140.716,3739.526,1140.993,3733.62,1141.121z"/>
	<path fill-rule="evenodd" clip-rule="evenodd" fill="#FFEFDF" d="M3821.004,1350.852c-42.072,27.41-88.183,34.794-137.912,34.264
		c-5.625-17.752-15.582-34.829-4.186-54.896c4.811-8.47,4.996-19.229,7.523-29.966c17.15-0.822,36.576-1.754,57.477-2.757
		C3750.233,1336.637,3789.639,1336.96,3821.004,1350.852z"/>
	<path fill-rule="evenodd" clip-rule="evenodd" fill="#FFEFDF" d="M3577.694,908.448c5.664-23.934,29.649-33.321,61.403-36.952
		C3633.322,884.405,3605.153,901.526,3577.694,908.448z"/>
	<path fill-rule="evenodd" clip-rule="evenodd" fill="#FFEFDF" d="M3540.045,1051.876c-12.795-13.798-21.508-29.506-21.855-48.224
		c-0.094-5.002,2.404-11.239,6.07-14.791c4.032-3.91,10.78-5.376,16.347-7.907c2.235,4.698,6.412,9.412,6.369,14.092
		c-0.176,18.794-1.658,37.578-2.657,56.367C3542.894,1051.568,3541.47,1051.722,3540.045,1051.876z"/>
	<path fill-rule="evenodd" clip-rule="evenodd" fill="#333333" d="M3774.786,1057.569c-17.078,3.488-31.318-14.45-32.925-24.937
		c-1.607-10.487-2.924-18.01-4.823-40.375c-1.899-22.364,10.256-31.645,14.991-33.68c4.737-2.033,11.605-3.052,21.867,0.96
		c10.264,4.011,17.186,9.476,28.031,28.326c10.847,18.853,13.005,20.137,23.847,21.159c10.84,1.023,10.893-7.352,11.918-2.791
		c2.879,12.784-39.384,33.607-39.384,33.607S3791.864,1054.082,3774.786,1057.569z"/>
	<path fill-rule="evenodd" clip-rule="evenodd" fill="#FFFFFF" d="M3756.262,972.416c-1.209-0.12-0.749,0.188-0.665,0.87
		c-0.196-1.494,4.343-2.316,8.238-1.767c3.949,0.557,7.258,2.499,7.353,2.545c0.557,0.403,2.384,1.902,2.771,2.261
		c9.385,7.623,16.781,17.128,21.111,32.264c3.753,13.125,1.858,22.788-1.883,29.718c-5.854,10.842-16.227,14.992-16.553,15.243
		c-0.173,0.021-0.343,0.04-0.514,0.057c-36.416,3.688-40.309-63.328-20.484-80.786
		C3755.652,972.722,3756.598,971.154,3756.262,972.416z"/>
	<path fill-rule="evenodd" clip-rule="evenodd" fill="#333333" d="M3598.525,1043.458c0,0-41.766-21.642-39.006-34.75
		c0.985-4.678,1.085,3.924,11.762,2.94c10.678-0.984,12.795-2.289,23.37-21.58c10.575-19.289,17.363-24.855,27.451-28.912
		c10.089-4.056,16.86-2.968,21.543-0.851c4.677,2.118,16.708,11.723,14.97,34.674c-1.74,22.952-2.992,30.668-4.515,41.427
		c-1.52,10.757-15.446,29.088-32.294,25.401C3604.96,1058.122,3598.525,1043.458,3598.525,1043.458z"/>
	<path fill-rule="evenodd" clip-rule="evenodd" fill="#FFFFFF" d="M3641.205,975.616c19.824,17.459,15.931,84.474-20.486,80.786
		c-0.169-0.017-0.34-0.036-0.512-0.056c-0.327-0.251-10.699-4.403-16.553-15.244c-3.74-6.93-5.637-16.593-1.882-29.717
		c4.329-15.137,11.726-24.642,21.109-32.264c0.388-0.359,2.217-1.858,2.772-2.261c0.095-0.047,3.402-1.989,7.352-2.545
		c3.896-0.55,8.436,0.273,8.238,1.767c0.085-0.683,0.545-0.99-0.666-0.87C3640.244,973.95,3641.189,975.517,3641.205,975.616z"/>
</g>
</svg>
