<?xml version="1.0" encoding="utf-8"?>
<!-- Generator: Adobe Illustrator 16.0.0, SVG Export Plug-In . SVG Version: 6.00 Build 0)  -->
<!DOCTYPE svg PUBLIC "-//W3C//DTD SVG 1.1//EN" "http://www.w3.org/Graphics/SVG/1.1/DTD/svg11.dtd">
<svg version="1.1" id="Layer_1" xmlns="http://www.w3.org/2000/svg" xmlns:xlink="http://www.w3.org/1999/xlink" x="0px" y="0px"
	 width="3059.769px" height="1946.472px" viewBox="0 0 3059.769 1946.472" enable-background="new 0 0 3059.769 1946.472"
	 xml:space="preserve">
<g opacity="0.6">
	<g>
		<circle fill="#9F9BA5" cx="2131.119" cy="328.992" r="55.213"/>
		<circle fill="#9F9BA5" cx="2221.924" cy="296.384" r="75.169"/>
		<ellipse fill="#9F9BA5" cx="2307.877" cy="325.001" rx="54.416" ry="52.071"/>
		<path fill-rule="evenodd" clip-rule="evenodd" fill="#9F9BA5" d="M2371.455,383.361c0,3.306-0.617,5.986-1.378,5.986h-300.553
			c-0.761,0-1.378-2.681-1.378-5.986v-43.905c0-3.306,0.617-5.986,1.378-5.986h300.553c0.761,0,1.378,2.681,1.378,5.986V383.361z"/>
		<circle fill="#9F9BA5" cx="2366.866" cy="359.17" r="30.178"/>
		<circle fill="#9F9BA5" cx="2068.146" cy="359.17" r="30.178"/>
	</g>
</g>
<g opacity="0.6">
	<g>
		<circle fill="#9F9BA5" cx="1212.308" cy="1725.195" r="55.213"/>
		<circle fill="#9F9BA5" cx="1303.112" cy="1692.586" r="75.169"/>
		<ellipse fill="#9F9BA5" cx="1389.065" cy="1721.204" rx="54.416" ry="52.071"/>
		<path fill-rule="evenodd" clip-rule="evenodd" fill="#9F9BA5" d="M1452.644,1779.564c0,3.306-0.617,5.986-1.378,5.986h-300.553
			c-0.761,0-1.378-2.681-1.378-5.986v-43.905c0-3.306,0.617-5.986,1.378-5.986h300.553c0.761,0,1.378,2.681,1.378,5.986V1779.564z"
			/>
		<circle fill="#9F9BA5" cx="1448.054" cy="1755.373" r="30.178"/>
		<circle fill="#9F9BA5" cx="1149.335" cy="1755.373" r="30.178"/>
	</g>
</g>
<g opacity="0.6">
	<g>
		<circle fill="#9F9BA5" cx="449.383" cy="579.963" r="55.213"/>
		<circle fill="#9F9BA5" cx="540.187" cy="547.355" r="75.169"/>
		<ellipse fill="#9F9BA5" cx="626.14" cy="575.973" rx="54.416" ry="52.07"/>
		<path fill-rule="evenodd" clip-rule="evenodd" fill="#9F9BA5" d="M689.719,634.332c0,3.307-0.617,5.988-1.378,5.988H387.788
			c-0.761,0-1.378-2.682-1.378-5.988v-43.904c0-3.306,0.617-5.987,1.378-5.987H688.34c0.761,0,1.378,2.681,1.378,5.987V634.332z"/>
		<circle fill="#9F9BA5" cx="685.129" cy="610.141" r="30.178"/>
		<circle fill="#9F9BA5" cx="386.409" cy="610.141" r="30.178"/>
	</g>
</g>
<polygon fill="#5E5866" points="2898.071,982.854 1527.072,1818.438 156.075,982.854 1527.072,147.271 "/>
<g>
	<polygon fill="#414042" points="2643.985,978.532 2629.635,1000.338 2642.553,1023.022 2626.823,1043.856 2638.24,1067.333 
		2621.185,1087.096 2631.04,1111.268 2612.724,1129.87 2620.967,1154.637 2601.465,1171.991 2608.058,1197.249 2587.454,1213.28 
		2592.367,1238.917 2570.752,1253.557 2573.968,1279.461 2551.438,1292.647 2552.948,1318.709 2529.603,1330.389 2529.403,1356.495 
		2505.344,1366.625 2503.441,1392.661 2478.773,1401.2 2475.18,1427.057 2450.009,1433.975 2444.742,1459.542 2419.175,1464.809 
		2412.256,1489.979 2386.399,1493.575 2377.858,1518.241 2351.823,1520.143 2341.693,1544.202 2315.589,1544.399 2303.909,1567.745 
		2277.848,1566.235 2264.662,1588.764 2238.757,1585.547 2224.119,1607.163 2198.481,1602.249 2182.451,1622.852 2157.193,1616.26 
		2139.842,1635.762 2115.072,1627.518 2096.473,1645.834 2072.301,1635.979 2052.537,1653.036 2029.061,1641.618 2008.229,1657.348 
		1985.543,1644.43 1963.736,1658.78 1941.93,1644.43 1919.244,1657.348 1898.41,1641.618 1874.934,1653.036 1855.172,1635.979 
		1830.998,1645.834 1812.398,1627.518 1787.629,1635.762 1770.275,1616.26 1745.018,1622.852 1728.986,1602.249 1703.349,1607.161 
		1688.71,1585.547 1662.805,1588.762 1649.618,1566.233 1623.558,1567.743 1611.877,1544.397 1585.773,1544.198 1575.642,1520.139 
		1549.606,1518.237 1541.065,1493.569 1515.209,1489.975 1508.292,1464.803 1482.724,1459.538 1477.457,1433.969 1452.286,1427.051 
		1448.692,1401.194 1424.025,1392.655 1422.123,1366.62 1398.064,1356.489 1397.865,1330.385 1374.52,1318.704 1376.029,1292.643 
		1353.5,1279.458 1356.717,1253.551 1335.102,1238.915 1340.016,1213.276 1319.413,1197.247 1326.005,1171.989 1306.504,1154.637 
		1314.747,1129.868 1296.431,1111.268 1306.286,1087.094 1289.23,1067.333 1300.647,1043.856 1284.918,1023.024 1297.836,1000.338 
		1283.486,978.532 1297.836,956.724 1284.918,934.039 1300.647,913.205 1289.23,889.729 1306.286,869.966 1296.431,845.792 
		1314.747,827.192 1306.504,802.423 1326.006,785.071 1319.413,759.812 1340.017,743.782 1335.104,718.143 1356.719,703.505 
		1353.503,677.599 1376.032,664.413 1374.523,638.352 1397.869,626.671 1398.068,600.567 1422.127,590.437 1424.03,564.401 
		1448.697,555.86 1452.291,530.004 1477.462,523.086 1482.729,497.519 1508.297,492.251 1515.215,467.081 1541.071,463.487 
		1549.613,438.82 1575.647,436.917 1585.778,412.859 1611.882,412.66 1623.562,389.315 1649.623,390.824 1662.809,368.295 
		1688.715,371.512 1703.353,349.897 1728.99,354.811 1745.02,334.208 1770.277,340.8 1787.631,321.298 1812.398,329.542 
		1830.998,311.226 1855.172,321.081 1874.934,304.025 1898.41,315.442 1919.243,299.713 1941.928,312.631 1963.736,298.281 
		1985.543,312.631 2008.228,299.713 2029.062,315.442 2052.538,304.025 2072.301,321.081 2096.474,311.226 2115.074,329.542 
		2139.843,321.299 2157.195,340.801 2182.455,334.208 2198.484,354.812 2224.123,349.899 2238.762,371.514 2264.667,368.298 
		2277.854,390.827 2303.914,389.318 2315.595,412.664 2341.699,412.863 2351.829,436.922 2377.864,438.825 2386.405,463.492 
		2412.263,467.086 2419.18,492.257 2444.747,497.524 2450.015,523.092 2475.186,530.01 2478.778,555.866 2503.446,564.408 
		2505.349,590.442 2529.407,600.573 2529.605,626.677 2552.95,638.357 2551.441,664.418 2573.971,677.604 2570.755,703.509 
		2592.368,718.147 2587.455,743.785 2608.058,759.814 2601.466,785.073 2620.968,802.425 2612.724,827.194 2631.04,845.793 
		2621.185,869.966 2638.24,889.729 2626.823,913.205 2642.553,934.038 2629.635,956.723 	"/>
</g>
<g>
	<g>
		<circle fill="#EFEFEF" cx="2050.806" cy="1310.766" r="75.232"/>
		<circle fill="#EFEFEF" cx="2174.534" cy="1266.335" r="102.424"/>
		<ellipse fill="#EFEFEF" cx="2291.652" cy="1305.328" rx="74.146" ry="70.951"/>
		<path fill-rule="evenodd" clip-rule="evenodd" fill="#EFEFEF" d="M2378.283,1384.848c0,4.506-0.842,8.158-1.878,8.158h-409.528
			c-1.037,0-1.878-3.652-1.878-8.158v-59.822c0-4.505,0.841-8.158,1.878-8.158h409.528c1.036,0,1.878,3.653,1.878,8.158V1384.848z"
			/>
		<circle fill="#EFEFEF" cx="2372.029" cy="1351.886" r="41.12"/>
		<circle fill="#EFEFEF" cx="1964.999" cy="1351.886" r="41.12"/>
	</g>
</g>
<g>
	<polygon fill="#414042" points="1760.652,966.468 1746.301,988.275 1759.219,1010.959 1743.49,1031.793 1754.906,1055.269 
		1737.852,1075.033 1747.707,1099.206 1729.391,1117.806 1737.633,1142.575 1718.131,1159.928 1724.725,1185.186 1704.12,1201.216 
		1709.033,1226.854 1687.418,1241.494 1690.635,1267.399 1668.105,1280.584 1669.614,1306.646 1646.269,1318.327 1646.069,1344.431 
		1622.01,1354.562 1620.108,1380.597 1595.44,1389.137 1591.846,1414.994 1566.675,1421.912 1561.409,1447.479 1535.841,1452.746 
		1528.922,1477.917 1503.066,1481.511 1494.525,1506.178 1468.49,1508.08 1458.36,1532.138 1432.256,1532.336 1420.575,1555.682 
		1394.514,1554.172 1381.329,1576.702 1355.424,1573.485 1340.785,1595.1 1315.148,1590.186 1299.118,1610.79 1273.86,1604.197 
		1256.508,1623.699 1231.739,1615.456 1213.139,1633.772 1188.967,1623.917 1169.204,1640.972 1145.728,1629.555 1124.895,1645.285 
		1102.209,1632.367 1080.402,1646.716 1058.596,1632.367 1035.911,1645.285 1015.077,1629.555 991.601,1640.972 971.838,1623.917 
		947.665,1633.772 929.064,1615.456 904.295,1623.699 886.942,1604.197 861.684,1610.79 845.653,1590.186 820.015,1595.098 
		805.376,1573.485 779.471,1576.7 766.285,1554.17 740.224,1555.679 728.543,1532.333 702.439,1532.134 692.308,1508.077 
		666.272,1506.174 657.732,1481.506 631.876,1477.913 624.958,1452.741 599.391,1447.474 594.124,1421.907 568.952,1414.988 
		565.359,1389.131 540.691,1380.591 538.789,1354.556 514.731,1344.426 514.532,1318.322 491.187,1306.641 492.696,1280.581 
		470.167,1267.394 473.383,1241.489 451.769,1226.851 456.683,1201.213 436.079,1185.183 442.672,1159.926 423.17,1142.574 
		431.414,1117.804 413.097,1099.205 422.952,1075.032 405.897,1055.269 417.314,1031.793 401.584,1010.96 414.503,988.275 
		400.152,966.468 414.502,944.661 401.584,921.976 417.314,901.142 405.897,877.666 422.952,857.903 413.097,833.729 
		431.414,815.129 423.17,790.36 442.672,773.008 436.08,747.749 456.684,731.719 451.771,706.08 473.385,691.442 470.169,665.536 
		492.699,652.35 491.19,626.289 514.535,614.608 514.735,588.504 538.793,578.374 540.696,552.338 565.364,543.797 568.957,517.941 
		594.128,511.023 599.396,485.456 624.963,480.188 631.881,455.018 657.738,451.424 666.279,426.757 692.314,424.854 
		702.445,400.796 728.548,400.597 740.229,377.252 766.29,378.761 779.476,356.232 805.381,359.449 820.019,337.834 
		845.657,342.748 861.686,322.145 886.944,328.737 904.297,309.235 929.065,317.479 947.665,299.163 971.838,309.018 991.6,291.962 
		1015.076,303.379 1035.91,287.65 1058.595,300.568 1080.402,286.218 1102.209,300.568 1124.894,287.65 1145.728,303.379 
		1169.205,291.962 1188.967,309.018 1213.14,299.163 1231.74,317.479 1256.509,309.236 1273.862,328.738 1299.121,322.146 
		1315.151,342.749 1340.79,337.836 1355.428,359.451 1381.334,356.235 1394.52,378.764 1420.581,377.255 1432.262,400.601 
		1458.366,400.8 1468.496,424.859 1494.531,426.762 1503.072,451.429 1528.929,455.023 1535.846,480.194 1561.414,485.461 
		1566.681,511.029 1591.852,517.947 1595.445,543.803 1620.112,552.345 1622.015,578.379 1646.073,588.51 1646.272,614.614 
		1669.617,626.294 1668.108,652.355 1690.637,665.541 1687.421,691.446 1709.035,706.084 1704.121,731.722 1724.725,747.751 
		1718.132,773.01 1737.635,790.362 1729.391,815.131 1747.707,833.73 1737.852,857.903 1754.906,877.666 1743.49,901.142 
		1759.219,921.975 1746.301,944.66 	"/>
</g>
<g>
	<g>
		<circle fill="#EFEFEF" cx="806.312" cy="601.694" r="89.334"/>
		<circle fill="#EFEFEF" cx="953.233" cy="548.935" r="121.624"/>
		<ellipse fill="#EFEFEF" cx="1092.305" cy="595.237" rx="88.046" ry="84.25"/>
		<path fill-rule="evenodd" clip-rule="evenodd" fill="#EFEFEF" d="M1195.175,689.663c0,5.35-0.999,9.688-2.23,9.688H706.65
			c-1.231,0-2.23-4.337-2.23-9.688v-71.037c0-5.35,0.999-9.687,2.23-9.687h486.294c1.232,0,2.23,4.337,2.23,9.687V689.663z"/>
		<circle fill="#EFEFEF" cx="1187.75" cy="650.521" r="48.828"/>
		<circle fill="#EFEFEF" cx="704.42" cy="650.521" r="48.828"/>
	</g>
</g>
<g>
	<polygon fill="#414042" points="2209.644,978.532 2195.294,1000.337 2208.212,1023.023 2192.482,1043.857 2203.899,1067.333 
		2186.844,1087.096 2196.698,1111.269 2178.382,1129.869 2186.625,1154.638 2167.123,1171.991 2173.716,1197.25 2153.112,1213.28 
		2158.025,1238.919 2136.411,1253.557 2139.626,1279.462 2117.098,1292.648 2118.605,1318.709 2095.26,1330.39 2095.061,1356.495 
		2071.003,1366.625 2069.1,1392.661 2044.433,1401.202 2040.839,1427.057 2015.668,1433.976 2010.399,1459.543 1984.833,1464.81 
		1977.914,1489.981 1952.059,1493.575 1943.518,1518.242 1917.482,1520.144 1907.353,1544.202 1881.248,1544.401 1869.568,1567.746 
		1843.508,1566.236 1830.321,1588.765 1804.416,1585.549 1789.777,1607.164 1764.141,1602.25 1748.111,1622.853 1722.853,1616.26 
		1705.501,1635.762 1680.731,1627.519 1662.131,1645.834 1637.959,1635.979 1618.197,1653.036 1594.72,1641.619 1573.888,1657.347 
		1551.202,1644.43 1529.395,1658.78 1507.588,1644.43 1484.903,1657.347 1464.069,1641.619 1440.593,1653.036 1420.83,1635.979 
		1396.656,1645.834 1378.056,1627.518 1353.287,1635.761 1335.934,1616.259 1310.675,1622.852 1294.646,1602.249 1269.007,1607.163 
		1254.369,1585.547 1228.463,1588.762 1215.277,1566.233 1189.216,1567.742 1177.535,1544.396 1151.431,1544.197 1141.3,1520.139 
		1115.265,1518.237 1106.724,1493.569 1080.868,1489.974 1073.95,1464.803 1048.382,1459.537 1043.116,1433.969 1017.944,1427.051 
		1014.352,1401.196 989.684,1392.654 987.782,1366.619 963.723,1356.489 963.524,1330.384 940.179,1318.704 941.689,1292.643 
		919.159,1279.458 922.375,1253.552 900.761,1238.915 905.675,1213.277 885.071,1197.247 891.664,1171.989 872.163,1154.637 
		880.406,1129.868 862.09,1111.268 871.944,1087.096 854.889,1067.333 866.306,1043.857 850.577,1023.024 863.495,1000.338 
		849.145,978.532 863.495,956.724 850.577,934.04 866.306,913.206 854.889,889.729 871.944,869.966 862.089,845.793 
		880.406,827.193 872.163,802.424 891.665,785.071 885.072,759.812 905.676,743.782 900.763,718.144 922.377,703.505 919.162,677.6 
		941.691,664.414 940.182,638.353 963.528,626.672 963.727,600.568 987.786,590.437 989.688,564.402 1014.356,555.861 
		1017.95,530.004 1043.121,523.087 1048.388,497.519 1073.956,492.252 1080.874,467.081 1106.73,463.488 1115.271,438.82 
		1141.306,436.918 1151.437,412.86 1177.541,412.661 1189.221,389.316 1215.282,390.825 1228.468,368.296 1254.373,371.512 
		1269.011,349.897 1294.648,354.811 1310.678,334.208 1335.936,340.8 1353.289,321.299 1378.058,329.542 1396.657,311.227 
		1420.83,321.081 1440.592,304.026 1464.068,315.443 1484.902,299.713 1507.587,312.631 1529.395,298.281 1551.202,312.631 
		1573.886,299.713 1594.72,315.443 1618.197,304.025 1637.959,321.081 1662.133,311.227 1680.733,329.542 1705.502,321.299 
		1722.855,340.801 1748.114,334.209 1764.144,354.812 1789.782,349.899 1804.42,371.514 1830.326,368.298 1843.512,390.828 
		1869.573,389.319 1881.254,412.664 1907.358,412.864 1917.489,436.922 1943.524,438.825 1952.065,463.493 1977.921,467.086 
		1984.839,492.257 2010.407,497.525 2015.673,523.092 2040.845,530.01 2044.438,555.867 2069.105,564.408 2071.007,590.443 
		2095.065,600.574 2095.264,626.677 2118.609,638.358 2117.1,664.419 2139.629,677.604 2136.413,703.51 2158.026,718.148 
		2153.113,743.786 2173.717,759.815 2167.124,785.074 2186.626,802.426 2178.383,827.194 2196.699,845.794 2186.843,869.967 
		2203.898,889.729 2192.482,913.206 2208.211,934.039 2195.294,956.724 	"/>
</g>
<circle fill="#5E5866" cx="1529.394" cy="978.638" r="631.25"/>
<path fill="#393947" d="M1529.394,347.282c348.629,0,631.25,282.62,631.25,631.25c0,348.629-282.62,631.249-631.25,631.249"/>
<polygon fill="#EFEFEF" points="1219.343,570.407 1224.253,580.357 1235.234,581.953 1227.289,589.698 1229.165,600.635 
	1219.343,595.471 1209.521,600.635 1211.397,589.698 1203.451,581.953 1214.432,580.357 "/>
<polygon fill="#EFEFEF" points="1001.742,832.358 1006.652,842.308 1017.633,843.904 1009.688,851.649 1011.563,862.586 
	1001.742,857.422 991.92,862.586 993.796,851.649 985.85,843.904 996.831,842.308 "/>
<polygon fill="#EFEFEF" points="1054.678,741.029 1056.877,745.485 1061.795,746.2 1058.237,749.668 1059.077,754.566 
	1054.678,752.254 1050.28,754.566 1051.12,749.668 1047.561,746.2 1052.479,745.485 "/>
<polygon fill="#EFEFEF" points="938.968,959.698 941.167,964.155 946.085,964.869 942.526,968.338 943.366,973.236 938.968,970.923 
	934.569,973.236 935.409,968.338 931.851,964.869 936.769,964.155 "/>
<polygon fill="#EFEFEF" points="1109.182,935.855 1113.165,943.925 1122.071,945.219 1115.626,951.501 1117.148,960.371 
	1109.182,956.183 1101.217,960.371 1102.738,951.501 1096.294,945.219 1105.2,943.925 "/>
<polygon fill="#EFEFEF" points="1957.737,628.358 1952.826,638.308 1941.845,639.904 1949.791,647.649 1947.915,658.586 
	1957.737,653.422 1967.559,658.586 1965.683,647.649 1973.628,639.904 1962.647,638.308 "/>
<polygon fill="#EFEFEF" points="2045.186,871.476 2040.275,881.426 2029.294,883.022 2037.24,890.767 2035.363,901.705 
	2045.186,896.541 2055.008,901.705 2053.131,890.767 2061.077,883.022 2050.096,881.426 "/>
<polygon fill="#EFEFEF" points="1992.249,780.147 1990.05,784.604 1985.132,785.318 1988.69,788.787 1987.851,793.685 
	1992.249,791.372 1996.647,793.685 1995.808,788.787 1999.366,785.318 1994.448,784.604 "/>
<polygon fill="#EFEFEF" points="2107.959,998.815 2105.76,1003.272 2100.842,1003.987 2104.4,1007.456 2103.561,1012.354 
	2107.959,1010.042 2112.357,1012.354 2111.518,1007.456 2115.076,1003.987 2110.158,1003.272 "/>
<polygon fill="#EFEFEF" points="1957.736,974.974 1953.753,983.042 1944.848,984.336 1951.292,990.618 1949.771,999.489 
	1957.736,995.299 1965.702,999.489 1964.181,990.618 1970.624,984.336 1961.719,983.042 "/>
<polygon fill="#EFEFEF" points="1490.372,417.307 1485.86,427.444 1491.653,436.908 1480.617,435.75 1473.406,444.184 
	1471.098,433.33 1460.849,429.079 1470.458,423.53 1471.334,412.468 1479.582,419.892 "/>
<polygon fill="#EFEFEF" points="1312.816,449.023 1308.304,459.161 1314.097,468.625 1303.062,467.466 1295.85,475.9 
	1293.542,465.046 1283.292,460.795 1292.902,455.246 1293.779,444.184 1302.026,451.608 "/>
<polygon fill="#EFEFEF" points="1434.306,531.375 1432.284,535.916 1434.879,540.154 1429.937,539.635 1426.707,543.412 
	1425.674,538.551 1421.083,536.647 1425.387,534.162 1425.779,529.208 1429.473,532.533 "/>
<polygon fill="#EFEFEF" points="1138.083,535.49 1136.061,540.031 1138.655,544.27 1133.713,543.75 1130.484,547.527 
	1129.45,542.667 1124.86,540.763 1129.163,538.277 1129.556,533.324 1133.25,536.648 "/>
<polygon fill="#EFEFEF" points="1230.796,681.317 1227.137,689.538 1231.834,697.215 1222.885,696.274 1217.036,703.115 
	1215.165,694.312 1206.852,690.864 1214.646,686.363 1215.356,677.393 1222.045,683.413 "/>
<polygon fill="#EFEFEF" points="1558.783,539.738 1564.958,548.958 1560.863,559.271 1571.54,556.248 1580.082,563.33 
	1580.506,552.242 1589.881,546.305 1579.467,542.475 1576.718,531.725 1569.857,540.446 "/>
<polygon fill="#EFEFEF" points="1679.021,420.538 1685.196,429.757 1681.102,440.069 1691.777,437.047 1700.321,444.129 
	1700.745,433.041 1710.12,427.104 1699.705,423.274 1696.956,412.523 1690.096,421.245 "/>
<polygon fill="#EFEFEF" points="1742.424,559.842 1745.188,563.971 1743.354,568.589 1748.136,567.236 1751.962,570.407 
	1752.152,565.441 1756.35,562.783 1751.687,561.067 1750.455,556.253 1747.383,560.159 "/>
<polygon fill="#EFEFEF" points="1886.915,525.745 1889.681,529.874 1887.847,534.493 1892.628,533.139 1896.454,536.31 
	1896.644,531.345 1900.842,528.686 1896.179,526.971 1894.947,522.156 1891.875,526.062 "/>
<polygon fill="#EFEFEF" points="1820.486,661.171 1825.493,668.648 1822.173,677.013 1830.831,674.561 1837.76,680.305 
	1838.104,671.312 1845.707,666.498 1837.261,663.391 1835.031,654.672 1829.467,661.745 "/>
<polygon fill="#EFEFEF" points="1096.294,643.472 1101.205,653.422 1112.186,655.018 1104.24,662.764 1106.116,673.7 
	1096.294,668.537 1086.472,673.7 1088.348,662.764 1080.402,655.018 1091.383,653.422 "/>
<polygon fill="#EFEFEF" points="1774.429,1398.306 1769.518,1388.356 1758.536,1386.76 1766.482,1379.015 1764.606,1368.078 
	1774.429,1373.242 1784.25,1368.078 1782.374,1379.015 1790.319,1386.76 1779.339,1388.356 "/>
<polygon fill="#EFEFEF" points="2055.028,1136.355 2050.117,1126.405 2039.137,1124.809 2047.082,1117.064 2045.207,1106.126 
	2055.028,1111.291 2064.85,1106.126 2062.975,1117.064 2070.92,1124.809 2059.939,1126.405 "/>
<polygon fill="#EFEFEF" points="2002.092,1227.684 1999.893,1223.228 1994.975,1222.513 1998.533,1219.044 1997.693,1214.146 
	2002.092,1216.458 2006.49,1214.146 2005.65,1219.044 2009.209,1222.513 2004.291,1223.228 "/>
<polygon fill="#EFEFEF" points="1925.012,1148.613 1921.029,1140.543 1912.123,1139.249 1918.567,1132.967 1917.046,1124.097 
	1925.012,1128.286 1932.977,1124.097 1931.455,1132.967 1937.9,1139.249 1928.994,1140.543 "/>
<polygon fill="#EFEFEF" points="1565.671,1503.831 1570.184,1493.694 1564.391,1484.229 1575.426,1485.387 1582.637,1476.954 
	1584.946,1487.807 1595.195,1492.059 1585.585,1497.608 1584.709,1508.67 1576.461,1501.246 "/>
<polygon fill="#EFEFEF" points="1728.301,1519.689 1732.813,1509.552 1727.021,1500.088 1738.057,1501.248 1745.268,1492.812 
	1747.575,1503.667 1757.825,1507.917 1748.215,1513.467 1747.339,1524.529 1739.092,1517.105 "/>
<polygon fill="#EFEFEF" points="1615.922,1388.126 1617.944,1383.586 1615.349,1379.348 1620.292,1379.867 1623.521,1376.089 
	1624.554,1380.951 1629.145,1382.855 1624.841,1385.339 1624.449,1390.294 1620.755,1386.968 "/>
<polygon fill="#EFEFEF" points="1894.517,1403.241 1896.538,1398.701 1893.944,1394.461 1898.886,1394.981 1902.115,1391.205 
	1903.149,1396.065 1907.739,1397.969 1903.437,1400.454 1903.044,1405.408 1899.35,1402.083 "/>
<polygon fill="#EFEFEF" points="1825.975,1287.396 1829.633,1279.175 1824.936,1271.498 1833.885,1272.439 1839.734,1265.597 
	1841.605,1274.402 1849.918,1277.849 1842.125,1282.349 1841.414,1291.32 1834.725,1285.3 "/>
<polygon fill="#EFEFEF" points="1960.477,1325.241 1955.565,1315.291 1944.584,1313.695 1952.53,1305.949 1950.654,1295.013 
	1960.477,1300.176 1970.298,1295.013 1968.422,1305.949 1976.367,1313.695 1965.387,1315.291 "/>
<polygon fill="#EFEFEF" points="1103.62,1373.919 1107.109,1363.385 1117.765,1360.289 1108.826,1353.716 1109.173,1342.625 
	1100.158,1349.095 1089.718,1345.337 1093.086,1355.911 1086.287,1364.678 1097.382,1364.742 "/>
<polygon fill="#EFEFEF" points="983.434,1145.207 986.923,1134.674 997.579,1131.578 988.639,1125.003 988.988,1113.912 
	979.973,1120.382 969.531,1116.625 972.901,1127.198 966.1,1135.967 977.197,1136.031 "/>
<polygon fill="#EFEFEF" points="1048.476,1228.351 1050.039,1223.633 1054.811,1222.246 1050.807,1219.301 1050.963,1214.336 
	1046.926,1217.234 1042.25,1215.551 1043.758,1220.285 1040.713,1224.211 1045.683,1224.241 "/>
<polygon fill="#EFEFEF" points="1197.117,1242.368 1198.679,1237.649 1203.451,1236.262 1199.448,1233.318 1199.603,1228.351 
	1195.566,1231.249 1190.891,1229.566 1192.398,1234.301 1189.353,1238.228 1194.323,1238.256 "/>
<polygon fill="#EFEFEF" points="1103.318,1094.495 1106.149,1085.954 1114.791,1083.441 1107.541,1078.11 1107.822,1069.114 
	1100.511,1074.363 1092.043,1071.314 1094.775,1079.89 1089.261,1087 1098.26,1087.053 "/>
<polygon fill="#EFEFEF" points="1408.365,1541.257 1400.976,1532.98 1403.607,1522.201 1393.451,1526.667 1384.011,1520.833 
	1385.123,1531.874 1376.658,1539.049 1387.501,1541.404 1391.709,1551.671 1397.299,1542.086 "/>
<polygon fill="#EFEFEF" points="1257.437,1472.289 1254.128,1468.582 1255.307,1463.753 1250.758,1465.753 1246.531,1463.143 
	1247.028,1468.086 1243.238,1471.298 1248.093,1472.355 1249.978,1476.954 1252.481,1472.66 "/>
<polygon fill="#EFEFEF" points="1483.35,1418.951 1480.041,1415.243 1481.219,1410.415 1476.671,1412.416 1472.443,1409.803 
	1472.941,1414.749 1469.151,1417.96 1474.006,1419.015 1475.891,1423.614 1478.394,1419.32 "/>
<polygon fill="#EFEFEF" points="1321.114,1362.331 1315.123,1355.617 1317.256,1346.874 1309.02,1350.499 1301.364,1345.766 
	1302.266,1354.72 1295.4,1360.538 1304.194,1362.45 1307.606,1370.777 1312.141,1363.002 "/>
<circle opacity="0.3" fill="#5E5866" stroke="#000000" stroke-miterlimit="10" cx="1529.394" cy="978.638" r="631.25"/>
<g>
	<circle fill-rule="evenodd" clip-rule="evenodd" fill="#85A88E" cx="1529.884" cy="974.869" r="363.994"/>
	<g id="Dx6f8b_1_">
		<g>
			<path fill-rule="evenodd" clip-rule="evenodd" fill="#418787" d="M1622.247,725.457c4.843-2.215,9.683-4.43,15.42-7.053
				c-5.248-7.46,5.457-20.119-8.254-26.083c-0.659-0.29-1.481-1.686-1.289-2.228c2.23-6.249,3.917-12.886,7.377-18.391
				c1.322-2.097,6.839-1.554,11.594-2.429c-1.365,9.735-10.371,18.454,0.887,24.944c3.662,2.107,8.578,2.752,12.924,2.763
				c4.351,0.013,8.706-1.604,13.058-2.507c0.205,1.367,0.407,2.737,0.612,4.101c-3.66,0.69-7.321,1.38-8.247,1.554
				c-2.992,9.438-5.547,17.493-8.235,25.977c-11.887,1.203-23.372,2.365-34.857,3.524
				C1622.908,728.239,1622.576,726.849,1622.247,725.457z"/>
			<path fill-rule="evenodd" clip-rule="evenodd" fill="#418787" d="M1748.104,764.968c9.773,10.652,17.943,19.547,26.324,28.679
				c-0.58,0.73-1.35,2.582-2.203,2.624c-14.32,0.664-28.689,1.787-42.928,0.864c-2.174-0.136-5.639-10.259-4.832-15.161
				c0.477-2.892,9.822-7.668,12.332-6.314C1747.871,781.642,1750.535,778.149,1748.104,764.968z"/>
			<path fill-rule="evenodd" clip-rule="evenodd" fill="#418787" d="M1299.916,707.594c18.651-2.134,18.651-2.134,22.906-15.341
				c7.964-3.838,13.708-6.606,21.269-10.247c-4.928-3.234-7.14-4.688-8.56-5.618c13.827-21.668,35.284-30.17,56.721-38.704
				c0.987,0.901,1.974,1.801,2.958,2.702c-4.616,6.354-9.36,12.62-13.821,19.081c-8.229,11.924-18.28,23.19-23.389,36.352
				c-1.895,4.886,7.972,14.335,13.219,22.917c10.496-12.316,18.22-21.726,26.398-30.724c1.89-2.08,5.199-3.266,8.076-3.977
				c9.493-2.355,19.102-1.26,25.279-13.547c2.997-5.972,17.129-6.401,26.256-9.225c9.44-2.922,14.927-8.161,11.282-19.521
				c7.23-2.729,16.371-1.523,16.424-15.096c0.023-5.236,14.792-13.354,23.764-14.936c14.308-2.52,29.385-0.674,45.872-0.674
				c-2.036,2.938-3.132,4.513-5.023,7.241c3.572-0.363,6.543-1.459,9.002-0.758c5.78,1.648,12.312,9.229,15.202-3.266
				c0.127-0.548,5.018-0.333,7.599,0.081c36.019,5.763,70.743,15.744,103.747,31.527c9.999,4.783,17.267,9.382,5.035,19.729
				c-1.143,0.969-0.153,4.462-0.153,8.376c-7.332-1.549-13.633-2.879-19.938-4.209c-0.022-0.851-0.045-1.701-0.067-2.55
				c3.604-1.138,7.205-2.27,14.765-4.651c-31.261-14.118-58.688-24.754-88.877-8.582c5.412,9.44,0.179,23.878-13.259,31.535
				c-6.596,3.756-9.89,7.544-4.538,13.065c5.429,5.6,5.694,20.459,20.361,12.659c3.728-1.98,9.827-1.33,13.997,0.282
				c1.561,0.604,0.732,7.396-1.236,11.461c-1.046-2.186-2.09-4.373-3.41-7.133c-1.615,1.536-3.089,2.265-3.313,3.272
				c-1.018,4.538-0.506,12.458-2.655,13.223c-17.106,6.087-25.419,23.564-41.26,30.702c-4.425,1.996-9.902,1.659-16.964,2.697
				c7.687,5.344,13.784,9.261,19.519,13.654c6.1,4.671,5.215,9.654-1.654,11.919c-5.785,1.91-12.307,1.465-18.407,2.566
				c-6.972,1.256-17.027,0.927-19.918,5.212c-3.316,4.915-0.764,14.219,0.269,21.468c0.529,3.713,3.303,7.111,5.834,12.203
				c10.323-0.769,21.523-0.953,32.457-2.74c4.352-0.71,9.024-4.217,11.982-7.756c7.102-8.503,13.076-17.938,20.007-26.599
				c1.225-1.527,4.854-1.319,7.41-1.551c2.639-0.24,5.593,0.697,7.928-0.172c5.5-2.044,12.654-8.418,15.709-6.754
				c14.646,7.998,28.155,18.081,42.635,27.806c0.87-1.462,3.16-5.321,6.233-10.489c-5.901-2.766-12.639-5.168-18.534-8.9
				c-5.32-3.369-9.724-8.195-13.209-13.878c30.189,1.675,40.935,27.347,61.074,49.546c1.924-9.524,3-15.325,4.297-21.078
				c0.604-2.667,1.646-5.238,2.49-7.854c2.281,1.454,5.035,2.495,6.756,4.446c4.936,5.579,8.789,12.328,14.402,17.013
				c2.939,2.455,8.736,2.305,13.152,2.002c7.922-0.545,15.775-2.089,25.4-3.463c-1.527,11.115-2.609,18.992-4.152,30.204
				c-17.195-1.965-34.119-3.274-50.805-6.061c-8.818-1.47-16.385-3.932-16.062,11.809c-8.778-2.526-16.301-4.296-23.532-6.894
				c-6.278-2.255-12.098-7.407-18.331-7.784c-10.258-0.619-16.316-3.221-14.583-15.659c-21.646-1.749-41.767-2.805-61.741,7.249
				c-10.014,5.042-22.448,5.49-33.884,7.437c-10.642,1.81-18.017,6.018-20.069,17.882c-1.433,8.286-7.47,13.296-13.99,19.332
				c-11.995,11.107-19.881,26.745-28.895,40.867c-1.18,1.847,1.367,5.861,1.707,8.924c0.748,6.751,2.547,13.765,1.448,20.256
				c-1.881,11.148-0.679,20.385,8.782,27.584c13.326,10.14,26.298,20.777,40.001,30.376c3.55,2.49,9.487,3.268,13.923,2.494
				c15.212-2.645,30.233-6.375,45.349-9.6c21.859-4.662,41.08,0.445,58.985,15.521c-11.474,12.16-6.564,22.172,1.791,32.547
				c12.515,15.541,20.388,32.016,5.826,51.018c-1.748,2.279-2.685,6.072-2.317,8.951c2.365,18.518,4.983,37.016,7.96,55.449
				c1.755,10.842,4.321,21.551,6.824,33.814c20.139,2.547,38.847-7.547,55.345-22.92c9.838-9.168,19.086-18.965,28.547-28.531
				c0.926-0.938,2.035-2.201,2.125-3.383c1.404-18.637,16.613-27.061,27.994-38.426c14.086-14.055,11.516-31.883,10.705-49.371
				c-0.168-3.688,1.191-7.971,3.186-11.137c6.645-10.545,13.734-20.818,20.961-30.977c6.17-8.676,13.572-16.582,18.893-25.725
				c4.004-6.889,5.576-15.195,7.047-24.101c-13.363,7.016-20.311,1.19-29.809-6.907c-14.947-12.749-20.9-29.443-28.621-45.919
				c-7.684-16.402-16.441-32.301-23.494-49.295c24.74,26.59,45.197,56.015,56.066,94.33c16.424-12.37,34.079-20.356,41.241-40.138
				c4.682-12.906,1.096-22.692-10.498-29.893c-11.175,6.06-19.251,0.582-30.354-22.914c4.9,2.399,7.779,3.788,10.645,5.221
				c12.33,6.172,26.433,10.339,36.435,19.155c8.584,7.56,15.732,19.822,17.891,31.082c11.49,59.925,6.197,119.312-15.223,176.138
				c-51.353,136.221-149.655,218.42-293.329,241.041c-192.721,30.34-378.95-108.107-409.292-300.787
				c-2.073-13.164-3.481-26.434-5.2-39.654c1.177-0.545,2.352-1.092,3.528-1.637c1.77,2.461,3.852,4.758,5.247,7.418
				c3.144,5.994,5.191,12.723,9.149,18.07c2.716,3.666,7.895,5.514,11.973,8.172c1.74-0.93,3.479-1.855,5.218-2.785
				c0,10.928,1.113,21.99-0.208,32.754c-3.958,32.254,10.284,57.764,34.784,74.107c28.124,18.764,43.871,45.398,60.039,72.686
				c14.458,24.414,28.659,49.373,51.835,66.391c14.456,10.609,31.591,17.609,47.709,25.875c2.052,1.049,5.224-0.084,7.199-0.174
				c-13.04-10.439-26.584-20.52-39.152-31.701c-5.444-4.844-9.497-11.639-12.844-18.225c-1.02-2.002,1.529-7.738,3.989-9.25
				c8.416-5.162,6.358-9.473,0.215-14.328c11.884-11.711,12.548-26.668,9.552-41.328c-1.807-8.846-0.134-13.061,7.573-16.98
				c14.865-7.555,18.655-14.717,14.741-30.25c-2.947-11.705-2.559-21.512,4.005-32.375c9.742-16.121,6.975-23.111-9.225-32.777
				c-10.825-6.459-21.381-10.828-35.246-9.406c-11.131,1.141-22.941-4.336-34.669-6.926c0.466-12.518-15.629-31.078-28.578-34.127
				c-8.799-2.066-16.964-6.824-25.418-10.367c-5.387-2.254-10.639-4.994-16.217-6.594c-5.887-1.686-12.114-2.152-18.151-3.361
				c-13.524-2.705-20.396,2.912-20.181,16.756c-13.599-0.873-16.299-9.439-17.996-20.125c-0.863-5.428-5.357-10.201-7.662-15.505
				c-1.471-3.38-2.44-7.154-2.74-10.824c-0.451-5.516-0.117-11.095-3.062-17.247c-1.354,4.467-2.706,8.934-4.059,13.402
				c2.517-21.325-3.298-44.734,11.058-62.87c1.821,0.337,3.642,0.674,5.462,1.011c0.849,7.971,1.698,15.937,2.546,23.907
				c1.316,0.427,2.631,0.851,3.947,1.277c3.696-61.323,36.964-101.724,90.628-129.123c-5.863-2.371-9.517-3.846-13.773-5.563
				c2.415-2.913,4.555-5.495,9.18-11.073c-8.623,1.564-13.776,2.497-18.926,3.434c-0.361-0.753-0.723-1.507-1.083-2.26
				c4.81-2.265,10.746-7.568,14.233-6.274c14.419,5.352,23.601-4.454,34.078-9.951c5.307-2.782,8.999-5.516,2.42-14.086
				c-5.435-7.083-2.957-20.24-4.012-30.998c-2.476,0.964-6.488,2.523-7.882,3.066c-3.1-6.464-5.929-12.365-9.315-19.43
				c3.8-3.334,8.685-7.62,15.097-13.246C1299.916,698.18,1299.916,702.262,1299.916,707.594z M1785.303,1153.184
				c21.215-6.916,40.123-41.771,35.697-60.699C1795.164,1104.276,1794.82,1129.641,1785.303,1153.184z M1541.668,755.759
				c7.812-1.475,16.261-2.26,24.01-5.015c2.42-0.864,4.943-7.789,3.882-10.607c-1.598-4.253-5.774-9.543-9.788-10.512
				c-13.103-3.158-12.022-14.26-15.062-23.285c-6.143,2.969-12.204,5.898-19.36,9.356c8.439,7.017,15.799,13.139,24.046,19.997
				c-3.822,2.848-6.672,4.973-6.629,4.941C1542.28,747.333,1541.998,751.197,1541.668,755.759z M1512.886,753.687
				c5.785-1.557,13.233-1.451,16.89-5.128c3.785-3.801,3.885-11.269,5.502-16.81
				C1513.371,723.422,1516.279,741.141,1512.886,753.687z M1454.284,675.01c7.328,13.834,28.092,16.226,36.703,7.91
				c1.415-1.367,2.297-5.18,1.404-6.534c-0.949-1.444-4.373-1.979-6.578-1.723c-3.717,0.437-7.344,2.684-10.973,2.597
				C1467.974,677.099,1461.133,675.824,1454.284,675.01z M1310.349,798.815c-0.086-13.181,3.419-23.337-11.469-26.388
				c-3.113,4.72-6.209,9.417-10.065,15.267C1295.305,791.045,1301.054,794.016,1310.349,798.815z M1200.261,958.389
				c-7.293-22.769-10.791-24.705-21.266-15.432C1185.418,947.618,1191.563,952.077,1200.261,958.389z M1198.388,961.895
				c11.207,2.642,17.969,4.236,24.733,5.832c-2.014-6.048-5.607-11.357-10.591-13.667
				C1210.266,953.007,1205.246,957.901,1198.388,961.895z"/>
		</g>
	</g>
	<path opacity="0.2" fill-rule="evenodd" clip-rule="evenodd" fill="#1C4F4F" d="M1231.834,1184.526
		c577.879,98.557,609.709-397.4,615.66-386.795c90.397,161.034,45.771,367.536-108.652,475.827
		C1574.249,1388.977,1347.255,1349.118,1231.834,1184.526"/>
</g>
<g>
	<polygon fill="#EFEFEF" points="1261.449,932.482 1295.871,1071.125 1316.906,1080.688 1347.503,1080.688 1367.583,1046.266 
		1380.969,1053.915 1391.487,1022.362 1439.294,1015.668 1439.294,997.5 1432.602,980.29 	"/>
	<polygon fill="#BAB9BA" points="1261.449,932.482 1370.451,1035.748 1380.969,1053.915 1391.487,1022.362 	"/>
	<polygon fill="#DCDADA" points="1261.449,932.482 1316.906,1080.688 1295.871,1071.125 	"/>
	<polygon fill="#DCDADA" points="1261.449,932.482 1432.602,980.29 1439.294,997.5 	"/>
	<polygon fill="#CDCCCC" points="1370.451,1035.748 1367.583,1046.266 1380.969,1053.915 	"/>
</g>
<g>
	<g>
		<path fill="none" stroke="#DCDADA" stroke-width="6" stroke-miterlimit="10" d="M1383.385,1050.088
			c1.625,1.146,3.269,2.283,4.933,3.412"/>
		<path fill="none" stroke="#DCDADA" stroke-width="6" stroke-miterlimit="10" stroke-dasharray="11.9289,11.9289" d="
			M1398.297,1060.032c120.313,75.984,328.773,112.734,467.72,99.469c33.125-3.162,81.323-14.966,105.871-38.077
			c48.729-45.874-35.38-61.104-75.15-63.812"/>
		<path fill="none" stroke="#DCDADA" stroke-width="6" stroke-miterlimit="10" d="M1890.779,1057.282
			c-2.242-0.092-4.257-0.136-5.997-0.136"/>
	</g>
</g>
<circle fill="#C7C786" cx="667.782" cy="948.112" r="132.013"/>
<circle fill="#CDCCCC" cx="2393.985" cy="932.481" r="132.013"/>
<g>
	
		<circle fill="none" stroke="#C7C685" stroke-width="44" stroke-miterlimit="10" stroke-dasharray="5.1712,93.082" cx="667.782" cy="948.113" r="172.006"/>
</g>
<circle fill="#B6B6B7" cx="2340.034" cy="882.261" r="34.79"/>
<circle fill="#B6B6B7" cx="2305.244" cy="948.113" r="19.805"/>
<circle fill="#B6B6B7" cx="2347.087" cy="940.471" r="12.164"/>
<g opacity="0.6">
	<g>
		<circle fill="#9F9BA5" cx="159.378" cy="244.805" r="55.213"/>
		<circle fill="#9F9BA5" cx="250.183" cy="212.197" r="75.169"/>
		<ellipse fill="#9F9BA5" cx="336.135" cy="240.814" rx="54.416" ry="52.07"/>
		<path fill-rule="evenodd" clip-rule="evenodd" fill="#9F9BA5" d="M399.714,299.174c0,3.306-0.617,5.987-1.378,5.987H97.783
			c-0.761,0-1.378-2.681-1.378-5.987V255.27c0-3.306,0.617-5.987,1.378-5.987h300.553c0.761,0,1.378,2.681,1.378,5.987V299.174z"/>
		<circle fill="#9F9BA5" cx="395.125" cy="274.983" r="30.178"/>
		<circle fill="#9F9BA5" cx="96.405" cy="274.983" r="30.178"/>
	</g>
</g>
<g opacity="0.6">
	<g>
		<circle fill="#9F9BA5" cx="217.895" cy="1492.637" r="68.68"/>
		<path fill="#9F9BA5" d="M424.35,1452.075c0,51.642-41.863,93.506-93.503,93.506c-51.641,0-93.503-41.864-93.503-93.506
			c0-51.639,41.862-93.503,93.503-93.503C382.487,1358.572,424.35,1400.436,424.35,1452.075z"/>
		<ellipse fill="#9F9BA5" cx="437.764" cy="1487.672" rx="67.689" ry="64.771"/>
		<path fill-rule="evenodd" clip-rule="evenodd" fill="#9F9BA5" d="M516.851,1560.267c0,4.112-0.768,7.446-1.715,7.446h-373.86
			c-0.946,0-1.714-3.334-1.714-7.446v-54.614c0-4.111,0.768-7.446,1.714-7.446h373.86c0.947,0,1.715,3.335,1.715,7.446V1560.267z"/>
		<circle fill="#9F9BA5" cx="511.142" cy="1530.175" r="37.539"/>
		<circle fill="#9F9BA5" cx="139.562" cy="1530.175" r="37.539"/>
	</g>
</g>
<g opacity="0.6">
	<g>
		<circle fill="#9F9BA5" cx="515.099" cy="1772.129" r="36.191"/>
		<circle fill="#9F9BA5" cx="574.619" cy="1750.755" r="49.271"/>
		<ellipse fill="#9F9BA5" cx="630.959" cy="1769.513" rx="35.669" ry="34.132"/>
		<path fill-rule="evenodd" clip-rule="evenodd" fill="#9F9BA5" d="M672.634,1807.767c0,2.167-0.405,3.924-0.904,3.924H474.725
			c-0.499,0-0.903-1.757-0.903-3.924v-28.779c0-2.167,0.404-3.924,0.903-3.924H671.73c0.499,0,0.904,1.757,0.904,3.924V1807.767z"/>
		<circle fill="#9F9BA5" cx="669.625" cy="1791.91" r="19.781"/>
		<circle fill="#9F9BA5" cx="473.822" cy="1791.91" r="19.781"/>
	</g>
</g>
<g opacity="0.6">
	<g>
		<circle fill="#9F9BA5" cx="882.344" cy="162.813" r="36.191"/>
		<circle fill="#9F9BA5" cx="941.864" cy="141.439" r="49.271"/>
		<ellipse fill="#9F9BA5" cx="998.203" cy="160.197" rx="35.669" ry="34.132"/>
		<path fill-rule="evenodd" clip-rule="evenodd" fill="#9F9BA5" d="M1039.878,198.451c0,2.167-0.405,3.924-0.904,3.924H841.969
			c-0.499,0-0.903-1.757-0.903-3.924v-28.779c0-2.167,0.404-3.924,0.903-3.924h197.005c0.499,0,0.904,1.757,0.904,3.924V198.451z"/>
		<circle fill="#9F9BA5" cx="1036.869" cy="182.593" r="19.781"/>
		<circle fill="#9F9BA5" cx="841.066" cy="182.593" r="19.781"/>
	</g>
</g>
<g opacity="0.6">
	<g>
		<circle fill="#9F9BA5" cx="2637.353" cy="194.092" r="66.003"/>
		<circle fill="#9F9BA5" cx="2745.903" cy="155.111" r="89.859"/>
		<ellipse fill="#9F9BA5" cx="2848.653" cy="189.321" rx="65.05" ry="62.248"/>
		<path fill-rule="evenodd" clip-rule="evenodd" fill="#9F9BA5" d="M2924.656,259.086c0,3.952-0.738,7.156-1.647,7.156h-359.288
			c-0.91,0-1.647-3.205-1.647-7.156v-52.485c0-3.952,0.737-7.156,1.647-7.156h359.288c0.909,0,1.647,3.205,1.647,7.156V259.086z"/>
		<circle fill="#9F9BA5" cx="2919.169" cy="230.167" r="36.076"/>
		<circle fill="#9F9BA5" cx="2562.073" cy="230.167" r="36.075"/>
	</g>
</g>
<g opacity="0.6">
	<g>
		<circle fill="#9F9BA5" cx="2712.748" cy="568.895" r="46.479"/>
		<circle fill="#9F9BA5" cx="2789.19" cy="541.444" r="63.279"/>
		<ellipse fill="#9F9BA5" cx="2861.547" cy="565.535" rx="45.809" ry="43.835"/>
		<path fill-rule="evenodd" clip-rule="evenodd" fill="#9F9BA5" d="M2915.068,614.664c0,2.783-0.52,5.04-1.159,5.04h-253.013
			c-0.641,0-1.16-2.257-1.16-5.04v-36.96c0-2.783,0.52-5.039,1.16-5.039h253.013c0.64,0,1.159,2.256,1.159,5.039V614.664z"/>
		<circle fill="#9F9BA5" cx="2911.205" cy="594.299" r="25.405"/>
		<circle fill="#9F9BA5" cx="2659.736" cy="594.299" r="25.404"/>
	</g>
</g>
<g opacity="0.6">
	<g>
		<circle fill="#9F9BA5" cx="2583.452" cy="1451.87" r="64.993"/>
		<path fill="#9F9BA5" d="M2778.824,1413.484c0,48.87-39.615,88.487-88.483,88.487c-48.87,0-88.484-39.617-88.484-88.487
			c0-48.867,39.614-88.482,88.484-88.482C2739.209,1325.001,2778.824,1364.617,2778.824,1413.484z"/>
		<path fill="#9F9BA5" d="M2855.574,1447.17c0,33.854-28.68,61.296-64.056,61.296s-64.055-27.441-64.055-61.296
			c0-33.85,28.679-61.294,64.055-61.294S2855.574,1413.321,2855.574,1447.17z"/>
		<path fill-rule="evenodd" clip-rule="evenodd" fill="#9F9BA5" d="M2866.359,1515.87c0,3.89-0.727,7.047-1.623,7.047h-353.79
			c-0.896,0-1.622-3.157-1.622-7.047v-51.684c0-3.89,0.727-7.047,1.622-7.047h353.79c0.896,0,1.623,3.157,1.623,7.047V1515.87z"/>
		<circle fill="#9F9BA5" cx="2860.957" cy="1487.393" r="35.524"/>
		<circle fill="#9F9BA5" cx="2509.324" cy="1487.393" r="35.523"/>
	</g>
</g>
<g opacity="0.6">
	<g>
		<circle fill="#9F9BA5" cx="2309.894" cy="1739.975" r="43.71"/>
		<circle fill="#9F9BA5" cx="2381.781" cy="1714.16" r="59.509"/>
		<ellipse fill="#9F9BA5" cx="2449.828" cy="1736.815" rx="43.08" ry="41.224"/>
		<path fill-rule="evenodd" clip-rule="evenodd" fill="#9F9BA5" d="M2500.16,1783.017c0,2.616-0.488,4.739-1.091,4.739h-237.938
			c-0.602,0-1.091-2.123-1.091-4.739v-34.759c0-2.617,0.489-4.739,1.091-4.739h237.938c0.603,0,1.091,2.122,1.091,4.739V1783.017z"
			/>
		<circle fill="#9F9BA5" cx="2496.527" cy="1763.866" r="23.891"/>
		<circle fill="#9F9BA5" cx="2260.04" cy="1763.866" r="23.891"/>
	</g>
</g>
<g opacity="0.6">
	<g>
		<circle fill="#9F9BA5" cx="2773.355" cy="1739.489" r="33.284"/>
		<circle fill="#9F9BA5" cx="2828.095" cy="1719.831" r="45.314"/>
		<ellipse fill="#9F9BA5" cx="2879.911" cy="1737.082" rx="32.803" ry="31.391"/>
		<path fill-rule="evenodd" clip-rule="evenodd" fill="#9F9BA5" d="M2918.237,1772.264c0,1.992-0.372,3.608-0.83,3.608h-181.183
			c-0.459,0-0.831-1.616-0.831-3.608v-26.469c0-1.992,0.372-3.608,0.831-3.608h181.183c0.458,0,0.83,1.616,0.83,3.608V1772.264z"/>
		<circle fill="#9F9BA5" cx="2915.471" cy="1757.68" r="18.192"/>
		<circle fill="#9F9BA5" cx="2735.394" cy="1757.68" r="18.192"/>
	</g>
</g>
<circle fill="none" stroke="#414042" stroke-width="18" stroke-miterlimit="10" cx="1529.884" cy="978.638" r="631.25"/>
</svg>
