<?xml version="1.0" encoding="utf-8"?>
<!-- Generator: Adobe Illustrator 16.0.0, SVG Export Plug-In . SVG Version: 6.00 Build 0)  -->
<!DOCTYPE svg PUBLIC "-//W3C//DTD SVG 1.1//EN" "http://www.w3.org/Graphics/SVG/1.1/DTD/svg11.dtd">
<svg version="1.1" id="Layer_1" xmlns="http://www.w3.org/2000/svg" xmlns:xlink="http://www.w3.org/1999/xlink" x="0px" y="0px"
	 width="289.613px" height="612.085px" viewBox="0 0 289.613 612.085" enable-background="new 0 0 289.613 612.085"
	 xml:space="preserve">
<g>
	<path fill="#372837" d="M86.224,99.099c5.131,1.802,3.414-5.92,9.164-5.92l96.189,4.148c9.712,0,12.487-1.68,20.127-6.508
		l6.257-5.538v-4.667l5.766-0.314v-4.797l-2.276,0.125V62.355l2.254-0.106v-1.2l-2.254,0.097V60.22
		c-0.005-0.267-0.219-0.478-0.479-0.478c-0.271,0-0.487,0.211-0.487,0.478v0.974l-17.626,0.825
		c-13.994-20.667-40.831-46.822-57.793-46.949c-0.041,0-0.08-0.008-0.116-0.008c-0.009,0-0.017,0-0.025,0c-0.012,0-0.029,0-0.044,0
		c-16.873,0.056-43.672,26.345-57.775,46.958l-17.736-0.825V60.22c0-0.267-0.214-0.478-0.48-0.478c-0.262,0-0.477,0.211-0.477,0.478
		v0.927l-2.259-0.097v1.2l2.259,0.106v13.272l-2.259-0.125V80.3l5.755,0.314v4.667L86.224,99.099z M220.484,75.676l-9.815,0.516
		c-0.624-1.663-1.456-3.465-2.467-5.379l12.282-0.62V75.676z M220.484,62.395v6.597l-12.912,0.654
		c-1.129-2.053-2.449-4.223-3.932-6.465L220.484,62.395z M69.368,62.395l16.948,0.792c-1.497,2.244-2.833,4.405-3.979,6.445
		l-12.968-0.657V62.395z M69.368,75.676v-5.5l12.325,0.631c-1.038,1.92-1.896,3.722-2.542,5.382L69.368,75.676z"/>
	<g>
		<g>
			<g>
				<defs>
					<polygon id="SVGID_1_" points="280.495,577.006 218.712,592.639 70.601,592.639 9.878,577.006 25.192,458.916 263.927,458.916 
											"/>
				</defs>
				<clipPath id="SVGID_2_">
					<use xlink:href="#SVGID_1_"  overflow="visible"/>
				</clipPath>
			</g>
			<polygon fill="#372837" points="263.927,458.446 25.192,458.446 10.889,568.235 70.601,592.167 218.712,592.167 278.765,568.288 
							"/>
			<g>
				<polygon fill="#372837" points="217.75,107.29 217.75,80.502 217.75,75.706 186.757,77.628 186.757,77.693 102.661,77.693 
					102.661,77.628 71.672,75.706 71.672,80.502 71.192,109.794 71.192,109.794 15.863,482.416 70.616,489.5 70.601,489.692 
					71.672,489.692 218.712,489.692 223.499,489.692 274.38,481.758 				"/>
				<g>
					<defs>
						<polygon id="SVGID_3_" points="217.632,107.095 71.617,107.095 15.863,479.923 70.592,489.857 102.632,110.118 
							186.613,110.118 218.677,490.062 223.466,490.062 273.376,479.923 						"/>
					</defs>
					<clipPath id="SVGID_4_">
						<use xlink:href="#SVGID_3_"  overflow="visible"/>
					</clipPath>
				</g>
				<polygon fill="#493543" points="279.488,479.551 274.485,479.551 218.712,489.692 71.672,489.692 15.897,479.551 
					10.889,479.551 10.889,485.954 70.601,498.75 219.872,498.75 219.872,498.731 279.488,485.954 				"/>
			</g>
			<g>
				<polygon fill="#493543" points="219.01,590.026 219.01,587.742 278.765,565.34 283.772,565.34 				"/>
				<polygon fill="#493543" points="283.772,565.423 219.01,589.851 219.01,597.671 283.772,571.822 				"/>
				<rect x="70.601" y="587.742" fill="#493543" width="148.409" height="5.142"/>
				<rect x="70.601" y="589.851" fill="#493543" width="148.409" height="7.82"/>
			</g>
			<polygon fill="#493543" points="70.601,590.026 70.601,587.742 10.849,565.34 5.84,565.34 			"/>
			<polygon fill="#493543" points="5.84,565.423 70.601,589.851 70.601,597.671 5.84,571.822 			"/>
			<polygon fill="#493543" points="251.804,292.046 247.803,292.046 203.226,300.142 85.711,300.142 41.136,292.046 37.138,292.046 
				37.138,297.157 84.858,307.387 204.15,307.387 204.15,307.375 251.804,297.157 			"/>
		</g>
	</g>
	<g>
		<rect x="102.791" y="62.49" fill="#493543" width="84.027" height="1.201"/>
		<rect x="102.844" y="77.135" fill="#493543" width="83.938" height="4.975"/>
		<path fill="#493543" d="M220.243,59.959c0.005-0.267,0.216-0.477,0.48-0.477c0.257,0,0.478,0.209,0.478,0.477l0,0v16.353h-0.958
			V59.959L220.243,59.959z"/>
		<polygon fill="#493543" points="186.818,63.691 223.452,61.992 223.452,60.784 186.818,62.49 		"/>
		<polygon fill="#493543" points="186.791,81.921 223.479,80.014 223.479,75.226 186.791,77.135 		"/>
		<path fill="#493543" d="M69.36,59.959c0-0.267-0.214-0.477-0.478-0.477c-0.263,0-0.479,0.209-0.479,0.477l0,0v16.353h0.957V59.959
			L69.36,59.959z"/>
		<polygon fill="#493543" points="102.844,81.921 66.153,80.014 66.153,75.226 102.844,77.135 		"/>
		<polygon fill="#493543" points="102.791,63.691 66.153,61.992 66.153,60.784 102.791,62.49 		"/>
		<path fill="#493543" d="M103.797,61.269c0-0.271-0.214-0.485-0.479-0.485c-0.262,0-0.474,0.214-0.474,0.485l0,0v16.346h0.952
			V61.269L103.797,61.269z"/>
		<path fill="#493543" d="M186.791,61.269c0-0.271-0.211-0.485-0.478-0.485c-0.265,0-0.48,0.214-0.48,0.485l0,0v16.346h0.958V61.269
			L186.791,61.269z"/>
		<polygon fill="#493543" points="103.094,71.609 69.36,69.904 69.36,68.705 103.094,70.409 		"/>
		<polygon fill="#493543" points="186.782,71.609 220.509,69.904 220.509,68.705 186.782,70.409 		"/>
		<rect x="103.094" y="70.409" fill="#493543" width="83.688" height="1.2"/>
	</g>
	<g>
		
			<rect x="129.742" y="394.461" fill="#F1F4CE" stroke="#39323A" stroke-width="0.25" stroke-miterlimit="10" width="12.855" height="12.863"/>
		
			<rect x="129.742" y="376.93" fill="#F1F4CE" stroke="#39323A" stroke-width="0.25" stroke-miterlimit="10" width="12.855" height="12.861"/>
		
			<rect x="147.272" y="394.467" fill="#F1F4CE" stroke="#39323A" stroke-width="0.25" stroke-miterlimit="10" width="12.864" height="12.857"/>
		
			<rect x="147.272" y="376.93" fill="#F1F4CE" stroke="#39323A" stroke-width="0.25" stroke-miterlimit="10" width="12.864" height="12.861"/>
	</g>
	<g>
		
			<rect x="129.742" y="214.596" fill="#F1F4CE" stroke="#39323A" stroke-width="0.25" stroke-miterlimit="10" width="12.855" height="12.867"/>
		
			<rect x="129.742" y="197.067" fill="#F1F4CE" stroke="#39323A" stroke-width="0.25" stroke-miterlimit="10" width="12.855" height="12.857"/>
		
			<rect x="147.272" y="214.604" fill="#F1F4CE" stroke="#39323A" stroke-width="0.25" stroke-miterlimit="10" width="12.864" height="12.858"/>
		
			<rect x="147.272" y="197.067" fill="#F1F4CE" stroke="#39323A" stroke-width="0.25" stroke-miterlimit="10" width="12.864" height="12.857"/>
	</g>
	<path fill="#372837" d="M86.224,99.099c5.131,1.802,3.414-5.92,9.164-5.92l96.189,4.148c9.712,0,12.487-1.68,20.127-6.508
		l6.257-5.538v-4.667l5.766-0.314v-4.797l-2.276,0.125V62.355l2.254-0.106v-1.2l-2.254,0.097V60.22
		c-0.005-0.267-0.219-0.478-0.479-0.478c-0.271,0-0.487,0.211-0.487,0.478v0.974l-17.626,0.825
		c-13.994-20.667-40.831-46.822-57.793-46.949c-0.041,0-0.08-0.008-0.116-0.008c-0.009,0-0.017,0-0.025,0c-0.012,0-0.029,0-0.044,0
		c-16.873,0.056-43.672,26.345-57.775,46.958l-17.736-0.825V60.22c0-0.267-0.214-0.478-0.48-0.478c-0.262,0-0.477,0.211-0.477,0.478
		v0.927l-2.259-0.097v1.2l2.259,0.106v13.272l-2.259-0.125V80.3l5.755,0.314v4.667L86.224,99.099z M220.484,75.676l-9.815,0.516
		c-0.624-1.663-1.456-3.465-2.467-5.379l12.282-0.62V75.676z M220.484,62.395v6.597l-12.912,0.654
		c-1.129-2.053-2.449-4.223-3.932-6.465L220.484,62.395z M69.368,62.395l16.948,0.792c-1.497,2.244-2.833,4.405-3.979,6.445
		l-12.968-0.657V62.395z M69.368,75.676v-5.5l12.325,0.631c-1.038,1.92-1.896,3.722-2.542,5.382L69.368,75.676z"/>
	<g>
		<rect x="102.791" y="62.49" fill="#493543" width="84.027" height="1.201"/>
		<rect x="102.844" y="77.135" fill="#493543" width="83.938" height="4.975"/>
		<path fill="#493543" d="M220.243,59.959c0.005-0.267,0.216-0.477,0.48-0.477c0.257,0,0.478,0.209,0.478,0.477l0,0v16.353h-0.958
			V59.959L220.243,59.959z"/>
		<polygon fill="#493543" points="186.818,63.691 223.452,61.992 223.452,60.784 186.818,62.49 		"/>
		<polygon fill="#493543" points="186.791,81.921 223.479,80.014 223.479,75.226 186.791,77.135 		"/>
		<path fill="#493543" d="M69.36,59.959c0-0.267-0.214-0.477-0.478-0.477c-0.263,0-0.479,0.209-0.479,0.477l0,0v16.353h0.957V59.959
			L69.36,59.959z"/>
		<polygon fill="#493543" points="102.844,81.921 66.153,80.014 66.153,75.226 102.844,77.135 		"/>
		<polygon fill="#493543" points="102.791,63.691 66.153,61.992 66.153,60.784 102.791,62.49 		"/>
		<path fill="#493543" d="M103.797,61.269c0-0.271-0.214-0.485-0.479-0.485c-0.262,0-0.474,0.214-0.474,0.485l0,0v16.346h0.952
			V61.269L103.797,61.269z"/>
		<path fill="#493543" d="M186.791,61.269c0-0.271-0.211-0.485-0.478-0.485c-0.265,0-0.48,0.214-0.48,0.485l0,0v16.346h0.958V61.269
			L186.791,61.269z"/>
		<polygon fill="#493543" points="103.094,71.609 69.36,69.904 69.36,68.705 103.094,70.409 		"/>
		<polygon fill="#493543" points="186.782,71.609 220.509,69.904 220.509,68.705 186.782,70.409 		"/>
		<rect x="103.094" y="70.409" fill="#493543" width="83.688" height="1.2"/>
	</g>
	<g>
		
			<rect x="129.742" y="394.461" fill="#F1F4CE" stroke="#39323A" stroke-width="0.25" stroke-miterlimit="10" width="12.855" height="12.863"/>
		
			<rect x="129.742" y="376.93" fill="#F1F4CE" stroke="#39323A" stroke-width="0.25" stroke-miterlimit="10" width="12.855" height="12.861"/>
		
			<rect x="147.272" y="394.467" fill="#F1F4CE" stroke="#39323A" stroke-width="0.25" stroke-miterlimit="10" width="12.864" height="12.857"/>
		
			<rect x="147.272" y="376.93" fill="#F1F4CE" stroke="#39323A" stroke-width="0.25" stroke-miterlimit="10" width="12.864" height="12.861"/>
	</g>
	<g>
		
			<rect x="129.742" y="214.596" fill="#F1F4CE" stroke="#39323A" stroke-width="0.25" stroke-miterlimit="10" width="12.855" height="12.867"/>
		
			<rect x="129.742" y="197.067" fill="#F1F4CE" stroke="#39323A" stroke-width="0.25" stroke-miterlimit="10" width="12.855" height="12.857"/>
		
			<rect x="147.272" y="214.604" fill="#F1F4CE" stroke="#39323A" stroke-width="0.25" stroke-miterlimit="10" width="12.864" height="12.858"/>
		
			<rect x="147.272" y="197.067" fill="#F1F4CE" stroke="#39323A" stroke-width="0.25" stroke-miterlimit="10" width="12.864" height="12.857"/>
	</g>
</g>
<g>
	<g>
		<defs>
			<rect id="SVGID_5_" x="480.78" y="-109.375" width="651.59" height="707.044"/>
		</defs>
		<clipPath id="SVGID_6_">
			<use xlink:href="#SVGID_5_"  overflow="visible"/>
		</clipPath>
		
			<radialGradient id="SVGID_7_" cx="802.573" cy="416.896" r="239.2612" gradientTransform="matrix(1 0 0 -1 4 607.085)" gradientUnits="userSpaceOnUse">
			<stop  offset="0" style="stop-color:#FFF9B4;stop-opacity:0.3"/>
			<stop  offset="0.3244" style="stop-color:#FFFABB;stop-opacity:0.2027"/>
			<stop  offset="0.8481" style="stop-color:#FFFBCE;stop-opacity:0.0456"/>
			<stop  offset="1" style="stop-color:#FFFBD4;stop-opacity:0"/>
		</radialGradient>
		<path clip-path="url(#SVGID_6_)" fill="url(#SVGID_7_)" d="M1045.834,190.191c0,132.137-107.117,239.26-239.261,239.26
			c-132.139,0-239.261-107.123-239.261-239.26c0-132.145,107.122-239.263,239.261-239.263
			C938.717-49.071,1045.834,58.047,1045.834,190.191z"/>
	</g>
	<g>
		<defs>
			<rect id="SVGID_8_" x="480.78" y="-109.375" width="651.59" height="707.044"/>
		</defs>
		<clipPath id="SVGID_9_">
			<use xlink:href="#SVGID_8_"  overflow="visible"/>
		</clipPath>
		
			<radialGradient id="SVGID_10_" cx="802.574" cy="414.2827" r="163.9375" gradientTransform="matrix(1 0 0 -1 4 607.085)" gradientUnits="userSpaceOnUse">
			<stop  offset="0" style="stop-color:#FFF9B4;stop-opacity:0.3"/>
			<stop  offset="0.3244" style="stop-color:#FFFABB;stop-opacity:0.2027"/>
			<stop  offset="0.8481" style="stop-color:#FFFBCE;stop-opacity:0.0456"/>
			<stop  offset="1" style="stop-color:#FFFBD4;stop-opacity:0"/>
		</radialGradient>
		<path clip-path="url(#SVGID_9_)" fill="url(#SVGID_10_)" d="M970.511,192.802c0,90.538-73.395,163.938-163.938,163.938
			c-90.538,0-163.938-73.4-163.938-163.938c0-90.542,73.399-163.938,163.938-163.938C897.118,28.864,970.511,102.26,970.511,192.802
			z"/>
	</g>
	<g>
		<defs>
			<rect id="SVGID_11_" x="480.78" y="-109.375" width="651.59" height="707.044"/>
		</defs>
		<clipPath id="SVGID_12_">
			<use xlink:href="#SVGID_11_"  overflow="visible"/>
		</clipPath>
		
			<radialGradient id="SVGID_13_" cx="802.5759" cy="414.2847" r="116.0054" gradientTransform="matrix(1 0 0 -1 4 607.085)" gradientUnits="userSpaceOnUse">
			<stop  offset="0" style="stop-color:#FFF9B4;stop-opacity:0.3"/>
			<stop  offset="0.3244" style="stop-color:#FFFABB;stop-opacity:0.2027"/>
			<stop  offset="0.8481" style="stop-color:#FFFBCE;stop-opacity:0.0456"/>
			<stop  offset="1" style="stop-color:#FFFBD4;stop-opacity:0"/>
		</radialGradient>
		<path clip-path="url(#SVGID_12_)" fill="url(#SVGID_13_)" d="M922.581,192.802c0,64.065-51.939,116.004-116.009,116.004
			c-64.065,0-116.002-51.938-116.002-116.004c0-64.071,51.937-116.007,116.002-116.007
			C870.64,76.795,922.581,128.73,922.581,192.802z"/>
	</g>
	<g>
		<defs>
			<rect id="SVGID_14_" x="480.78" y="-109.375" width="651.59" height="707.044"/>
		</defs>
		<clipPath id="SVGID_15_">
			<use xlink:href="#SVGID_14_"  overflow="visible"/>
		</clipPath>
		
			<radialGradient id="SVGID_16_" cx="802.574" cy="414.2856" r="91.2192" gradientTransform="matrix(1 0 0 -1 4 607.085)" gradientUnits="userSpaceOnUse">
			<stop  offset="0" style="stop-color:#FFF9B4;stop-opacity:0.3"/>
			<stop  offset="0.4205" style="stop-color:#FFF9B6;stop-opacity:0.1738"/>
			<stop  offset="0.6606" style="stop-color:#FFFABD;stop-opacity:0.1018"/>
			<stop  offset="0.8547" style="stop-color:#FFFAC8;stop-opacity:0.0436"/>
			<stop  offset="1" style="stop-color:#FFFBD4;stop-opacity:0"/>
		</radialGradient>
		<path clip-path="url(#SVGID_15_)" fill="url(#SVGID_16_)" d="M897.793,192.802c0,50.378-40.84,91.217-91.22,91.217
			c-50.378,0-91.218-40.839-91.218-91.217c0-50.382,40.84-91.222,91.218-91.222C856.954,101.58,897.793,142.42,897.793,192.802z"/>
	</g>
	<g>
		<defs>
			<rect id="SVGID_17_" x="480.78" y="-109.375" width="651.59" height="707.044"/>
		</defs>
		<clipPath id="SVGID_18_">
			<use xlink:href="#SVGID_17_"  overflow="visible"/>
		</clipPath>
		
			<radialGradient id="SVGID_19_" cx="802.574" cy="414.2856" r="74.1001" gradientTransform="matrix(1 0 0 -1 4 607.085)" gradientUnits="userSpaceOnUse">
			<stop  offset="0" style="stop-color:#FFF9B4;stop-opacity:0.3"/>
			<stop  offset="0.7769" style="stop-color:#FFF9B4;stop-opacity:0.2997"/>
			<stop  offset="0.9047" style="stop-color:#FFF9B4;stop-opacity:0.2997"/>
			<stop  offset="0.9477" style="stop-color:#FFF9B6;stop-opacity:0.1645"/>
			<stop  offset="0.9694" style="stop-color:#FFFABC;stop-opacity:0.0963"/>
			<stop  offset="0.9862" style="stop-color:#FFFAC7;stop-opacity:0.0433"/>
			<stop  offset="1" style="stop-color:#FFFBD4;stop-opacity:0"/>
		</radialGradient>
		<path clip-path="url(#SVGID_18_)" fill="url(#SVGID_19_)" d="M880.674,192.802c0,40.922-33.178,74.098-74.099,74.098
			c-40.926,0-74.102-33.176-74.102-74.098c0-40.925,33.176-74.103,74.102-74.103C847.497,118.699,880.674,151.877,880.674,192.802z"
			/>
	</g>
</g>
<g opacity="0.5">
</g>
<g opacity="0.5">
</g>
</svg>
