<?xml version="1.0" encoding="utf-8"?>
<!-- Generator: Adobe Illustrator 16.0.0, SVG Export Plug-In . SVG Version: 6.00 Build 0)  -->
<!DOCTYPE svg PUBLIC "-//W3C//DTD SVG 1.1//EN" "http://www.w3.org/Graphics/SVG/1.1/DTD/svg11.dtd">
<svg version="1.1" id="Layer_1" xmlns="http://www.w3.org/2000/svg" xmlns:xlink="http://www.w3.org/1999/xlink" x="0px" y="0px"
	 width="289.613px" height="612.085px" viewBox="0 0 289.613 612.085" enable-background="new 0 0 289.613 612.085"
	 xml:space="preserve">
<rect x="114.97" y="191.29" fill="#F2F5CD" width="70.175" height="70.175"/>
<g>
	<defs>
		<rect id="SVGID_1_" x="480.78" y="-109.375" width="651.59" height="707.044"/>
	</defs>
	<clipPath id="SVGID_2_">
		<use xlink:href="#SVGID_1_"  overflow="visible"/>
	</clipPath>
	<radialGradient id="SVGID_3_" cx="806.5737" cy="190.1899" r="239.261" gradientUnits="userSpaceOnUse">
		<stop  offset="0" style="stop-color:#FFF9B4;stop-opacity:0.3"/>
		<stop  offset="0.3244" style="stop-color:#FFFABB;stop-opacity:0.2027"/>
		<stop  offset="0.8481" style="stop-color:#FFFBCE;stop-opacity:0.0456"/>
		<stop  offset="1" style="stop-color:#FFFBD4;stop-opacity:0"/>
	</radialGradient>
	<path clip-path="url(#SVGID_2_)" fill="url(#SVGID_3_)" d="M1045.834,190.191c0,132.137-107.117,239.26-239.261,239.26
		c-132.138,0-239.261-107.123-239.261-239.26c0-132.145,107.123-239.263,239.261-239.263
		C938.717-49.071,1045.834,58.047,1045.834,190.191z"/>
	<radialGradient id="SVGID_4_" cx="806.5737" cy="192.8022" r="163.9382" gradientUnits="userSpaceOnUse">
		<stop  offset="0" style="stop-color:#FFF9B4;stop-opacity:0.3"/>
		<stop  offset="0.3244" style="stop-color:#FFFABB;stop-opacity:0.2027"/>
		<stop  offset="0.8481" style="stop-color:#FFFBCE;stop-opacity:0.0456"/>
		<stop  offset="1" style="stop-color:#FFFBD4;stop-opacity:0"/>
	</radialGradient>
	<path clip-path="url(#SVGID_2_)" fill="url(#SVGID_4_)" d="M970.512,192.802c0,90.538-73.395,163.938-163.938,163.938
		c-90.538,0-163.938-73.4-163.938-163.938c0-90.542,73.399-163.938,163.938-163.938C897.118,28.864,970.512,102.26,970.512,192.802z
		"/>
	<radialGradient id="SVGID_5_" cx="806.5757" cy="192.8003" r="116.0051" gradientUnits="userSpaceOnUse">
		<stop  offset="0" style="stop-color:#FFF9B4;stop-opacity:0.3"/>
		<stop  offset="0.3244" style="stop-color:#FFFABB;stop-opacity:0.2027"/>
		<stop  offset="0.8481" style="stop-color:#FFFBCE;stop-opacity:0.0456"/>
		<stop  offset="1" style="stop-color:#FFFBD4;stop-opacity:0"/>
	</radialGradient>
	<path clip-path="url(#SVGID_2_)" fill="url(#SVGID_5_)" d="M922.581,192.802c0,64.065-51.939,116.004-116.009,116.004
		c-64.065,0-116.002-51.938-116.002-116.004c0-64.071,51.937-116.007,116.002-116.007
		C870.641,76.795,922.581,128.73,922.581,192.802z"/>
	<radialGradient id="SVGID_6_" cx="806.5747" cy="192.7993" r="91.219" gradientUnits="userSpaceOnUse">
		<stop  offset="0" style="stop-color:#FFF9B4;stop-opacity:0.3"/>
		<stop  offset="0.4205" style="stop-color:#FFF9B6;stop-opacity:0.1738"/>
		<stop  offset="0.6606" style="stop-color:#FFFABD;stop-opacity:0.1018"/>
		<stop  offset="0.8547" style="stop-color:#FFFAC8;stop-opacity:0.0436"/>
		<stop  offset="1" style="stop-color:#FFFBD4;stop-opacity:0"/>
	</radialGradient>
	<path clip-path="url(#SVGID_2_)" fill="url(#SVGID_6_)" d="M897.793,192.802c0,50.378-40.84,91.217-91.22,91.217
		c-50.378,0-91.218-40.839-91.218-91.217c0-50.382,40.84-91.222,91.218-91.222C856.954,101.58,897.793,142.42,897.793,192.802z"/>
	<radialGradient id="SVGID_7_" cx="806.5747" cy="192.7993" r="74.0999" gradientUnits="userSpaceOnUse">
		<stop  offset="0" style="stop-color:#FFF9B4;stop-opacity:0.3"/>
		<stop  offset="0.7769" style="stop-color:#FFF9B4;stop-opacity:0.2997"/>
		<stop  offset="0.9047" style="stop-color:#FFF9B4;stop-opacity:0.2997"/>
		<stop  offset="0.9477" style="stop-color:#FFF9B6;stop-opacity:0.1645"/>
		<stop  offset="0.9694" style="stop-color:#FFFABC;stop-opacity:0.0963"/>
		<stop  offset="0.9862" style="stop-color:#FFFAC7;stop-opacity:0.0433"/>
		<stop  offset="1" style="stop-color:#FFFBD4;stop-opacity:0"/>
	</radialGradient>
	<path clip-path="url(#SVGID_2_)" fill="url(#SVGID_7_)" d="M880.674,192.802c0,40.922-33.178,74.098-74.099,74.098
		c-40.926,0-74.101-33.176-74.101-74.098c0-40.925,33.175-74.103,74.101-74.103C847.497,118.699,880.674,151.877,880.674,192.802z"
		/>
</g>
<rect x="109.719" y="375.446" fill="#F2F5CD" width="70.175" height="70.175"/>
<path fill="#39323A" d="M278.162,567.315l4.631-1.767h-4.879l-10.721-76.382l11.348-2.432v-6.353h-4.975l-1.121,0.204l-0.027-0.187
	l0.086-0.018l-26.906-179.939l5.451-1.169v-5.077h-3.973l-2.35,0.427l-27.49-183.845V84.155v-4.644l5.73-0.299v-4.764l-2.268,0.118
	V61.381l2.24-0.104v-1.193l-2.24,0.104v-0.928c-0.002-0.262-0.213-0.476-0.477-0.476c-0.262,0-0.475,0.213-0.477,0.476v0.972
	l-17.504,0.815c-13.904-20.521-40.557-46.496-57.404-46.627c-0.037,0-0.076-0.005-0.113-0.005c-0.008,0-0.016,0.001-0.023,0.001
	c-0.014,0-0.029-0.001-0.043-0.001c-16.758,0.05-43.374,26.167-57.381,46.638l-17.616-0.82v-0.972c0-0.262-0.213-0.476-0.476-0.476
	c-0.263,0-0.476,0.213-0.476,0.476v0.928l-2.24-0.104v1.193l2.24,0.104v13.183l-2.24-0.117v4.764l5.717,0.299v4.645l-0.476,29.075
	L44.578,294.689l-2.704-0.492H37.9v5.077l5.806,1.244L16.81,480.383h-4.973v6.353l10.355,2.219l-9.998,76.744l-0.4-0.149H6.821
	l5.137,1.96l-0.009,0.071l-5.128-1.933v6.354l4.452,1.777l-0.437,3.369l24.979,6.428l35.309,14.095h147.363l34.75-13.872
	l26.303-6.65l-0.512-3.645l3.764-1.502v-6.354l-4.621,1.741L278.162,567.315z M79.379,75.122l-9.718-0.508v-5.459l12.241,0.619
	C80.874,71.685,80.023,73.481,79.379,75.122z M82.541,68.614l-12.88-0.651v-6.537l16.833,0.784
	C85.009,64.434,83.682,66.582,82.541,68.614z M142.265,428.229H128.28v-13.984h13.984V428.229z M142.265,409.162H128.28v-13.984
	h13.984V409.162z M142.265,242.533H128.28v-13.984h13.984V242.533z M142.265,223.466H128.28v-13.984h13.984V223.466z
	 M161.332,428.229h-13.984v-13.982h13.984V428.229z M161.332,409.162h-13.984V395.18h13.984V409.162z M161.333,242.533h-13.986
	v-13.982h13.986V242.533z M161.333,223.466h-13.986v-13.982h13.986V223.466z M203.013,62.205l16.732-0.779v6.55l-12.824,0.648
	C205.796,66.584,204.486,64.432,203.013,62.205z M207.546,69.786l12.199-0.617v5.447l-9.748,0.509
	C209.375,73.48,208.548,71.688,207.546,69.786z"/>
<path fill="#FFFFFF" d="M1332.515,865.468H-334.153V642.403c0,0,224.585-108.813,833.334-108.813
	c560.887,0,833.334,108.813,833.334,108.813V865.468z"/>
<g opacity="0.5">
	
		<image overflow="visible" width="593" height="593" xlink:href="58D952B5CFF5D7EC.png"  transform="matrix(0.24 0 0 0.24 -302.2808 39.2891)">
	</image>
</g>
<g opacity="0.5">
	
		<image overflow="visible" width="593" height="593" xlink:href="58D952B5CFF5D7ED.png"  transform="matrix(0.24 0 0 0.24 -302.2808 223.4463)">
	</image>
</g>
</svg>
