<?xml version="1.0" encoding="utf-8"?>
<!-- Generator: Adobe Illustrator 16.0.0, SVG Export Plug-In . SVG Version: 6.00 Build 0)  -->
<!DOCTYPE svg PUBLIC "-//W3C//DTD SVG 1.1//EN" "http://www.w3.org/Graphics/SVG/1.1/DTD/svg11.dtd">
<svg version="1.1" id="Layer_1" xmlns="http://www.w3.org/2000/svg" xmlns:xlink="http://www.w3.org/1999/xlink" x="0px" y="0px"
	 width="460.561px" height="460.561px" viewBox="0 0 460.561 460.561" enable-background="new 0 0 460.561 460.561"
	 xml:space="preserve">
<g>
	<g>
		<g>
			<g>
				<g>
					
						<rect x="-21.367" y="124.37" transform="matrix(-0.721 -0.6929 0.6929 -0.721 80.2773 297.8051)" fill="#494049" width="242.914" height="16.743"/>
				</g>
				<path fill="#494049" d="M187.96,216.5l15.789-16.43l4.254-4.426l0,0l14.374-14.957l-47.871-46.008v0.002l-41.255-39.649
					l-0.001,0.001L95.032,58.305l0.078-0.081L47.241,12.216l-0.079,0.082l-0.09-0.086L26.384,33.737l-13.73,14.285L187.96,216.5
					L187.96,216.5L187.96,216.5z M90.915,58.386L78.559,71.242l-43.672-41.97l12.355-12.857L90.915,58.386z M172.487,136.78
					l-12.354,12.857l-39.156-37.63l12.355-12.856L172.487,136.78z M158.113,151.737l-16.005,16.654l-39.154-37.63l16.005-16.653
					L158.113,151.737z M187.878,212.382l-43.669-41.974l16.005-16.654l43.671,41.971L187.878,212.382z M100.852,128.744
					L62.636,92.015L78.642,75.36l38.217,36.728L100.852,128.744z M60.611,89.92L16.943,47.945L32.87,31.373l43.672,41.97
					L60.611,89.92z M205.904,193.625l-43.671-41.97l12.355-12.857l43.671,41.971L205.904,193.625z M131.231,97.132l-12.355,12.857
					L80.66,73.26l12.355-12.856L131.231,97.132z"/>
			</g>
			<g>
				<g>
					
						<rect x="210.099" y="349.623" transform="matrix(-0.721 -0.6929 0.6929 -0.721 322.5532 845.8547)" fill="#494049" width="242.913" height="16.743"/>
				</g>
				<path fill="#494049" d="M419.425,441.752l15.789-16.428l4.254-4.428l0,0l14.373-14.957l-47.869-46.008v0.002l-41.256-39.65
					v0.002l-38.219-36.729l0.078-0.08l-47.871-46.008l-0.076,0.082l-0.092-0.087l-20.688,21.526l-13.729,14.283l175.305,168.48
					V441.752L419.425,441.752z M322.38,283.639l-12.355,12.857l-43.672-41.971l12.355-12.857L322.38,283.639z M403.952,362.033
					l-12.355,12.855l-39.154-37.629l12.355-12.855L403.952,362.033z M389.579,376.988l-16.006,16.656l-39.154-37.631l16.006-16.654
					L389.579,376.988z M419.345,437.635l-43.67-41.975l16.004-16.654l43.672,41.971L419.345,437.635z M332.317,353.996
					l-38.217-36.729l16.006-16.654l38.217,36.727L332.317,353.996z M292.077,315.172l-43.67-41.973l15.928-16.574l43.672,41.971
					L292.077,315.172z M437.37,418.879l-43.674-41.971l12.357-12.857l43.672,41.971L437.37,418.879z M362.696,322.385
					l-12.355,12.857l-38.217-36.729l12.355-12.857L362.696,322.385z"/>
			</g>
		</g>
	</g>
	<g>
		<g>
			<g>
				<g>
					<g>
						
							<rect x="206.201" y="91.719" transform="matrix(0.6929 -0.721 0.721 0.6929 28.4501 266.9814)" fill="#494049" width="242.914" height="16.744"/>
					</g>
					<path fill="#494049" d="M243.899,187.959l16.432,15.789l4.424,4.255l0,0l14.959,14.373l46.008-47.87l-0.002-0.001
						l39.648-41.255h-0.002l36.73-38.218l0.08,0.077l46.008-47.87l-0.082-0.078l0.086-0.091l-21.525-20.687l-14.285-13.73
						L243.899,187.959L243.899,187.959L243.899,187.959z M402.015,90.915l-12.855-12.355l41.969-43.673l12.857,12.356
						L402.015,90.915z M323.62,172.487l-12.857-12.355l37.631-39.155l12.855,12.354L323.62,172.487z M308.663,158.113
						l-16.654-16.005l37.631-39.155l16.652,16.005L308.663,158.113z M248.019,187.878l41.975-43.668l16.652,16.003l-41.971,43.672
						L248.019,187.878z M331.655,100.852l36.73-38.216l16.654,16.004l-36.729,38.218L331.655,100.852z M370.481,60.611
						l41.975-43.669l16.572,15.926l-41.971,43.673L370.481,60.611z M266.774,205.904l41.971-43.672l12.857,12.355l-41.971,43.673
						L266.774,205.904z M363.269,131.232l-12.857-12.356L387.14,80.66l12.857,12.355L363.269,131.232z"/>
				</g>
				<g>
					<g>
						
							<rect x="-19.051" y="323.184" transform="matrix(0.6929 -0.721 0.721 0.6929 -207.6102 175.6512)" fill="#494049" width="242.913" height="16.744"/>
					</g>
					<path fill="#494049" d="M18.648,419.424l16.43,15.791l4.426,4.254l0,0l14.957,14.373l46.008-47.871h0l39.649-41.256h-0.002
						l36.729-38.217l0.081,0.076l46.008-47.869l-0.082-0.078l0.085-0.092l-21.525-20.686l-14.286-13.73L18.648,419.424
						L18.648,419.424L18.648,419.424z M176.762,322.379l-12.855-12.354l41.969-43.674l12.858,12.357L176.762,322.379z
						 M98.368,403.951L85.51,391.598l37.63-39.156l12.856,12.355L98.368,403.951z M83.411,389.58l-16.655-16.008l37.631-39.154
						l16.653,16.006L83.411,389.58z M22.765,419.344l41.975-43.668l16.653,16.002l-41.97,43.672L22.765,419.344z M106.404,332.316
						l36.729-38.215l16.654,16.006l-36.728,38.215L106.404,332.316z M145.228,292.076l41.974-43.67l16.572,15.928l-41.97,43.672
						L145.228,292.076z M41.522,437.369l41.971-43.672l12.857,12.355l-41.971,43.672L41.522,437.369z M138.015,362.695
						l-12.856-12.355l36.729-38.215l12.856,12.354L138.015,362.695z"/>
				</g>
			</g>
		</g>
	</g>
</g>
<rect x="701.265" y="-209.794" fill="#494049" width="135.709" height="192.361"/>
</svg>
